<?xml version="1.0" encoding="UTF-8"?>
<svg id="_图层_2" data-name="图层 2" xmlns="http://www.w3.org/2000/svg" viewBox="0 0 227.25 89.91">
  <defs>
    <style>
      .cls-1 {
        fill: #221e1f;
      }

      .cls-2 {
        fill: #e6e7e8;
      }

      .cls-3 {
        fill: #006cb7;
      }

      .cls-4 {
        fill: #c0bfbc;
      }
    </style>
  </defs>
  <g id="_图层_1-2" data-name="图层 1">
    <rect class="cls-2" y="45.18" width="227.25" height="10.62"/>
    <rect class="cls-2" y="69.18" width="227.25" height="10.62"/>
    <g>
      <path class="cls-1" d="m88.68,8.29c-.22-.92-.89-1.58-2-1.58-1.29,0-1.95.7-1.95,1.82,0,1.82,2.77,1.84,2.77,3.06,0,.49-.33.78-.77.78-.37,0-.82-.28-.96-1.06l-1.22.26c.33,1.28,1.12,1.83,2.12,1.83,1.3,0,2.07-.74,2.07-1.86,0-2.03-2.77-2.11-2.77-3.09,0-.44.24-.71.68-.71s.7.26.91.87l1.12-.33Zm-5,0c-.22-.92-.89-1.58-2-1.58-1.29,0-1.95.7-1.95,1.82,0,1.82,2.77,1.84,2.77,3.06,0,.49-.33.78-.77.78-.37,0-.82-.28-.96-1.06l-1.22.26c.33,1.28,1.12,1.83,2.12,1.83,1.3,0,2.07-.74,2.07-1.86,0-2.03-2.77-2.11-2.77-3.09,0-.44.24-.71.68-.71s.7.26.91.87l1.12-.33Zm-4.87,5.01v-1.1h-2.25v-1.71h1.65v-1.1h-1.65v-1.49h2.16v-1.1h-3.4v6.5h3.49Zm-7.79,0v-4.19h.02l1.9,4.19h1.19v-6.5h-1.13v3.85h-.02l-1.73-3.85h-1.36v6.5h1.13Zm-4.97,0v-1.99l.49-.74,1.3,2.73h1.39l-1.86-3.88,1.67-2.62h-1.36l-1.61,2.68h-.02v-2.68h-1.24v6.5h1.24Zm-5.11-4.57c0-.72.32-.92.81-.92s.81.2.81.92v.18h1.24v-.02c0-1.6-.85-2.18-2.05-2.18s-2.05.58-2.05,2.18v2.32c0,1.6.85,2.18,2.05,2.18s2.05-.58,2.05-2.18v-.27h-1.24v.43c0,.72-.31.92-.81.92s-.81-.2-.81-.92v-2.65Zm-2.32-1.93h-1.24v6.5h1.24v-6.5Zm-5.5,6.5v-2.81h1.76v2.81h1.24v-6.5h-1.24v2.59h-1.76v-2.59h-1.24v6.5h1.24Zm-6.19-6.5v1.1h1.45v5.4h1.24v-5.4h1.45v-1.1h-4.14Z"/>
      <path class="cls-1" d="m195.2,6.8h-1.32l1.77,3.87v2.63h1.24v-2.63l1.77-3.87h-1.32l-1.05,2.62-1.09-2.62Zm-2.58,6.5h.65v-3.33h-2.12v1.03h.87v.4c0,.56-.29.9-.76.9-.49,0-.81-.2-.81-.92v-2.65c0-.72.32-.92.81-.92.45,0,.76.27.76,1.11h1.24c-.05-1.48-.73-2.21-2-2.21s-2.05.58-2.05,2.18v2.32c0,1.6.85,2.18,2.05,2.18.47,0,.83-.25,1.16-.63l.19.54Zm-7.06-5.47h.64c.55,0,.88.27.88.9s-.33.9-.88.9h-.64v-1.8Zm3.01,5.47l-1.22-2.9c.69-.26.98-.85.98-1.66,0-1.23-.71-1.95-2.21-1.95h-1.8v6.5h1.24v-2.65h.59l1.08,2.65h1.33Zm-5.26,0v-1.1h-2.25v-1.71h1.65v-1.1h-1.65v-1.49h2.16v-1.1h-3.4v6.5h3.49Zm-7.79,0v-4.19h.02l1.9,4.19h1.19v-6.5h-1.13v3.85h-.02l-1.73-3.85h-1.36v6.5h1.13Zm-2.21,0v-1.1h-2.25v-1.71h1.65v-1.1h-1.65v-1.49h2.16v-1.1h-3.4v6.5h3.49Zm-7,0v-1.1h-2.25v-1.71h1.65v-1.1h-1.65v-1.49h2.16v-1.1h-3.4v6.5h3.49Zm-7.26-5.47h.64c.55,0,.88.27.88.9s-.33.9-.88.9h-.64v-1.8Zm3.01,5.47l-1.22-2.9c.69-.26.98-.85.98-1.66,0-1.23-.71-1.95-2.21-1.95h-1.8v6.5h1.24v-2.65h.59l1.08,2.65h1.33Zm-9.68-6.5v4.56c0,1.43.84,2.04,2.12,2.04s2.12-.6,2.12-2.04v-4.56h-1.24v4.55c0,.62-.28.95-.88.95s-.87-.32-.87-.95v-4.55h-1.24Zm-1.21,1.49c-.22-.92-.89-1.58-2-1.58-1.29,0-1.95.7-1.95,1.82,0,1.82,2.77,1.84,2.77,3.06,0,.49-.33.78-.77.78-.37,0-.82-.28-.96-1.06l-1.22.26c.33,1.28,1.12,1.83,2.12,1.83,1.3,0,2.07-.74,2.07-1.86,0-2.03-2.77-2.11-2.77-3.09,0-.44.24-.71.68-.71s.7.26.91.87l1.12-.32Zm-7.73.44c0-.72.32-.92.81-.92s.81.2.81.92v2.65c0,.72-.32.92-.81.92s-.81-.2-.81-.92v-2.65Zm-1.24,2.48c0,1.6.85,2.18,2.05,2.18s2.05-.58,2.05-2.18v-2.32c0-1.6-.85-2.18-2.05-2.18s-2.05.58-2.05,2.18v2.32Zm-3.58-3.39h.67c.61,0,.92.31.92.92s-.31.92-.92.92h-.67v-1.84Zm0,5.47v-2.61h.55c1.53,0,2.28-.72,2.28-1.94s-.75-1.95-2.28-1.95h-1.79v6.5h1.24Zm-5.31-6.5h-1.33l1.59,3.08-1.75,3.42h1.34l1.08-2.3,1.08,2.3h1.34l-1.73-3.42,1.57-3.08h-1.33l-.94,1.95-.94-1.95Zm-2.01,6.5v-1.1h-2.25v-1.71h1.65v-1.1h-1.65v-1.49h2.16v-1.1h-3.4v6.5h3.49Z"/>
      <path class="cls-1" d="m80.37,24.45c.46.61,1.21.94,1.98.94.89,0,1.73-.48,1.73-1.44,0-1.84-2.87-1.29-2.87-2.37,0-.44.31-.73.89-.73.53,0,.89.23,1.27.69l.48-.42c-.33-.5-1.04-.86-1.69-.87-.95,0-1.61.48-1.64,1.33-.06,1.81,2.87,1.14,2.87,2.39,0,.42-.32.82-1.07.82-.62,0-1.09-.29-1.42-.76l-.54.41Zm-4.66-4.1v4.94h.68v-3.7c.31-.33.9-.75,1.42-.75s.81.22.81.88v3.57h.68v-3.59c0-1.07-.69-1.45-1.43-1.45-.56,0-1.07.32-1.46.76h-.02v-.67h-.68Zm-1.19,2.47c0-1.43-.68-2.57-2.03-2.57s-2.02,1.14-2.02,2.57.67,2.57,2.02,2.57,2.03-1.14,2.03-2.57m-.68,0c0,1.27-.52,1.98-1.34,1.98s-1.34-.7-1.34-1.98.52-1.98,1.34-1.98,1.34.7,1.34,1.98m-6.21,2.47h.68v-2.74c.32-1.02.77-1.58,1.63-1.6v-.68c-.82,0-1.23.38-1.61,1.05h-.02v-.98h-.68v4.94Zm-1.2-3.7c-.31-.77-.79-1.34-1.81-1.34-1.24,0-2.02.97-2.02,2.57s.79,2.57,2.02,2.57c.98,0,1.42-.42,1.91-1.25l-.55-.25c-.38.7-.73.91-1.36.91-.85,0-1.34-.72-1.34-1.98s.49-1.98,1.34-1.98c.59,0,.98.38,1.17.98l.64-.23Zm-5.87-2.44h.68v-.82h-.68v.82Zm0,6.14h.68v-4.94h-.68v4.94Zm-7.43,0v-3.69c.37-.36.77-.76,1.38-.76.44,0,.77.25.77.91v3.54h.68v-3.69c.37-.36.77-.76,1.38-.76.44,0,.77.25.77.91v3.54h.68v-3.54c0-1.23-.7-1.5-1.36-1.5-.58,0-1.13.31-1.57.78-.18-.46-.63-.78-1.26-.78-.48,0-1.02.25-1.43.71l-.04.04v-.66h-.68v4.94h.68Z"/>
      <path class="cls-1" d="m168.58,25.3v-3.69c.37-.36.77-.76,1.38-.76.44,0,.77.25.77.91v3.54h.68v-3.69c.37-.36.77-.76,1.38-.76.44,0,.77.25.77.91v3.54h.68v-3.54c0-1.23-.7-1.5-1.36-1.5-.58,0-1.13.31-1.57.78-.18-.46-.63-.78-1.26-.78-.47,0-1.02.25-1.44.71l-.04.04v-.66h-.68v4.94h.68Zm-2-3.7c-.31-.77-.79-1.34-1.81-1.34-1.24,0-2.02.97-2.02,2.57s.79,2.57,2.02,2.57c.98,0,1.42-.42,1.91-1.25l-.55-.25c-.38.7-.73.91-1.36.91-.85,0-1.34-.72-1.34-1.98s.49-1.98,1.34-1.98c.59,0,.98.38,1.17.98l.64-.23Zm-4.71-3.26l-2.22,7.05h.57l2.22-7.05h-.58Zm-3.85.1v5.29c0,.79-.37,1.02-.84,1.02-.43,0-.81-.26-1.03-.61l-.57.37c.36.47.82.88,1.62.88,1.03,0,1.58-.57,1.58-1.86v-5.1h-.76Zm-8.96,6.86v-3.69c.37-.36.77-.76,1.38-.76.44,0,.77.25.77.91v3.54h.68v-3.69c.37-.36.77-.76,1.38-.76.44,0,.77.25.77.91v3.54h.68v-3.54c0-1.23-.7-1.5-1.36-1.5-.58,0-1.13.31-1.57.78-.18-.46-.63-.78-1.26-.78-.48,0-1.02.25-1.43.71l-.04.04v-.66h-.68v4.94h.68Z"/>
      <path class="cls-1" d="m177.99,21.79h-2.18c.43-1.1,2.18-1.43,2.18-2.65,0-.69-.57-1.06-1.22-1.06-.89,0-1.22.57-1.35,1.12l.39.09c.07-.4.37-.87.94-.87.51,0,.81.27.81.73,0,1.08-1.49,1.16-2.18,2.56v.42h2.6v-.34Z"/>
      <path class="cls-1" d="m76.82,38.44c0-.99.15-2.79,1.48-2.79s1.48,1.81,1.48,2.79-.15,2.8-1.48,2.8-1.48-1.81-1.48-2.8m-.8,0c0,1.53.43,3.48,2.28,3.48s2.28-1.95,2.28-3.48-.43-3.48-2.28-3.48-2.28,1.95-2.28,3.48m-2.46,1.08h-2.17l2.15-3.52h.02v3.52Zm.8-4.45h-.98l-2.67,4.31v.88h2.85v1.54h.8v-1.54h.97v-.74h-.97v-4.45Zm-3.98,4.11h-4.75v.68h4.75v-.68Zm-5.53-4.11h-3.53l-.07,3.5c.4-.24.91-.42,1.37-.42.94,0,1.66.54,1.66,1.53,0,.93-.64,1.55-1.45,1.55-.57,0-1.03-.34-1.26-.85l-.8.3c.36.74.97,1.23,1.99,1.23,1.31,0,2.31-.89,2.31-2.23,0-1.26-.86-2.21-2.15-2.21-.28,0-.61.04-.86.16l.03-1.82h2.75v-.74Zm-9.31,6.73h4.33v-.74h-3.43v-.02l2.07-1.95c.68-.64,1.31-1.24,1.31-2.31,0-1.2-.94-1.83-2.05-1.83s-1.93.58-2.11,1.68l.86.08c.12-.65.6-1.07,1.27-1.07s1.23.44,1.23,1.14c0,.66-.31,1.02-.95,1.64l-2.54,2.47v.91Z"/>
      <path class="cls-1" d="m177.1,38.43c0-.99.15-2.8,1.48-2.8s1.48,1.81,1.48,2.8-.15,2.79-1.48,2.79-1.48-1.81-1.48-2.79m-.8,0c0,1.53.43,3.48,2.28,3.48s2.28-1.95,2.28-3.48-.43-3.48-2.28-3.48-2.28,1.95-2.28,3.48m-3-.06c.81,0,1.45.55,1.45,1.43s-.65,1.43-1.45,1.43-1.45-.55-1.45-1.43.65-1.43,1.45-1.43m1.1-3.31h-.93l-1.79,2.84c-.36.58-.64,1.11-.64,1.89,0,1.31.98,2.11,2.25,2.11s2.25-.8,2.25-2.11-.86-2.11-2.03-2.11c-.28,0-.66.06-.9.2l-.02-.02,1.81-2.8Zm-5.61,0h-.69l-1.81,1.46.48.58,1.21-1.02h.02v5.7h.8v-6.73Zm-3.42,4.11h-4.75v.68h4.75v-.68Zm-8.88-.74c0-.99.15-2.8,1.48-2.8s1.48,1.81,1.48,2.8-.15,2.79-1.48,2.79-1.48-1.81-1.48-2.79m-.8,0c0,1.53.43,3.48,2.28,3.48s2.28-1.95,2.28-3.48-.43-3.48-2.28-3.48-2.28,1.95-2.28,3.48m-1.14-3.37h-3.53l-.07,3.5c.4-.24.91-.42,1.37-.42.94,0,1.66.54,1.66,1.53,0,.93-.64,1.55-1.45,1.55-.57,0-1.03-.34-1.26-.85l-.8.3c.36.74.97,1.23,1.99,1.23,1.31,0,2.31-.89,2.31-2.23,0-1.27-.86-2.21-2.15-2.21-.28,0-.61.04-.86.16l.03-1.82h2.75v-.74Zm-6.37,0h-.69l-1.81,1.46.47.58,1.21-1.02h.02v5.7h.8v-6.73Z"/>
      <path class="cls-1" d="m76.82,50.43c0-.99.15-2.8,1.48-2.8s1.48,1.81,1.48,2.8-.15,2.79-1.48,2.79-1.48-1.81-1.48-2.79m-.8,0c0,1.53.43,3.48,2.28,3.48s2.28-1.95,2.28-3.48-.43-3.48-2.28-3.48-2.28,1.95-2.28,3.48m-4.35,1.45c0-.79.6-1.34,1.35-1.34s1.35.55,1.35,1.34-.6,1.34-1.35,1.34-1.35-.55-1.35-1.34m.23-3.14c0-.64.46-1.11,1.12-1.11s1.12.48,1.12,1.11-.46,1.11-1.12,1.11-1.12-.48-1.12-1.11m-.8-.04c0,.64.42,1.3,1.1,1.48v.02c-.81.17-1.33.88-1.33,1.73,0,1.23.95,1.97,2.15,1.97s2.15-.74,2.15-1.97c0-.85-.52-1.56-1.33-1.73v-.02c.68-.18,1.1-.85,1.1-1.48,0-1.06-.84-1.76-1.92-1.76s-1.92.7-1.92,1.76m-.72,2.46h-4.75v.68h4.75v-.68Zm-5.53-4.11h-3.53l-.07,3.5c.4-.24.91-.42,1.37-.42.94,0,1.66.54,1.66,1.53,0,.93-.64,1.55-1.45,1.55-.57,0-1.03-.34-1.26-.85l-.8.3c.36.74.97,1.23,1.99,1.23,1.31,0,2.31-.89,2.31-2.23,0-1.27-.86-2.21-2.15-2.21-.28,0-.61.04-.86.16l.03-1.82h2.75v-.74Zm-6.6,4.45h-2.17l2.15-3.52h.02v3.52Zm.8-4.45h-.98l-2.67,4.31v.88h2.85v1.54h.8v-1.54h.97v-.74h-.97v-4.45Z"/>
      <path class="cls-1" d="m180.45,47.07h-3.53l-.07,3.5c.4-.24.91-.42,1.37-.42.94,0,1.66.54,1.66,1.53,0,.93-.64,1.55-1.45,1.55-.57,0-1.03-.34-1.26-.85l-.8.3c.36.74.97,1.23,1.99,1.23,1.31,0,2.31-.89,2.31-2.23,0-1.27-.86-2.21-2.15-2.21-.28,0-.61.04-.86.16l.03-1.82h2.75v-.74Zm-6.37,0h-.69l-1.81,1.46.48.58,1.21-1.02h.02v5.7h.8v-6.73Zm-8.23,6.73h4.33v-.74h-3.43v-.02l2.07-1.95c.67-.64,1.31-1.24,1.31-2.31,0-1.2-.94-1.83-2.05-1.83s-1.93.58-2.11,1.68l.87.08c.12-.65.6-1.08,1.27-1.08s1.23.44,1.23,1.14c0,.66-.31,1.02-.95,1.63l-2.54,2.47v.91Zm-.47-2.62h-4.75v.68h4.75v-.68Zm-8.88-.74c0-.99.15-2.8,1.48-2.8s1.48,1.81,1.48,2.8-.15,2.79-1.48,2.79-1.48-1.81-1.48-2.79m-.8,0c0,1.53.43,3.48,2.28,3.48s2.28-1.95,2.28-3.48-.43-3.48-2.28-3.48-2.28,1.95-2.28,3.48m-1.14-3.37h-3.53l-.07,3.5c.4-.24.91-.42,1.37-.42.94,0,1.66.54,1.66,1.53,0,.93-.64,1.55-1.45,1.55-.57,0-1.03-.34-1.26-.85l-.8.3c.36.74.97,1.23,1.99,1.23,1.31,0,2.31-.89,2.31-2.23,0-1.27-.86-2.21-2.15-2.21-.28,0-.61.04-.86.16l.03-1.82h2.75v-.74Zm-6.37,0h-.69l-1.81,1.46.47.58,1.21-1.02h.02v5.7h.8v-6.73Z"/>
      <path class="cls-1" d="m79.46,62.44c0-.99.15-2.79,1.48-2.79s1.48,1.81,1.48,2.79-.15,2.79-1.48,2.79-1.48-1.81-1.48-2.79m-.8,0c0,1.53.43,3.48,2.28,3.48s2.28-1.95,2.28-3.48-.43-3.48-2.28-3.48-2.28,1.95-2.28,3.48m-2.22-3.37h-.69l-1.81,1.46.48.58,1.21-1.02h.02v5.7h.8v-6.73Zm-5.28,0h-.69l-1.81,1.46.48.58,1.21-1.02h.02v5.7h.8v-6.73Zm-3.42,4.11h-4.75v.68h4.75v-.68Zm-5.53-4.11h-3.53l-.07,3.5c.4-.24.91-.42,1.37-.42.94,0,1.66.54,1.66,1.53,0,.93-.64,1.55-1.44,1.55-.57,0-1.03-.34-1.26-.85l-.8.31c.36.74.97,1.23,1.99,1.23,1.31,0,2.31-.89,2.31-2.23,0-1.26-.85-2.21-2.15-2.21-.28,0-.61.04-.87.16l.03-1.82h2.75v-.74Zm-8.49,4.82c0-.79.6-1.34,1.35-1.34s1.35.55,1.35,1.34-.6,1.34-1.35,1.34-1.35-.55-1.35-1.34m.23-3.14c0-.64.46-1.11,1.12-1.11s1.12.47,1.12,1.11-.46,1.11-1.12,1.11-1.12-.48-1.12-1.11m-.8-.04c0,.64.42,1.3,1.1,1.48v.02c-.81.17-1.33.88-1.33,1.73,0,1.23.95,1.97,2.15,1.97s2.15-.74,2.15-1.97c0-.85-.52-1.56-1.33-1.73v-.02c.68-.18,1.1-.85,1.1-1.48,0-1.05-.84-1.76-1.92-1.76s-1.92.7-1.92,1.76"/>
      <path class="cls-1" d="m177.1,62.44c0-.99.15-2.79,1.48-2.79s1.48,1.81,1.48,2.79-.15,2.8-1.48,2.8-1.48-1.81-1.48-2.8m-.8,0c0,1.53.43,3.48,2.28,3.48s2.28-1.95,2.28-3.48-.43-3.48-2.28-3.48-2.28,1.95-2.28,3.48m-2.46,1.08h-2.17l2.15-3.52h.02v3.52Zm.8-4.45h-.98l-2.67,4.31v.88h2.85v1.54h.8v-1.54h.97v-.74h-.97v-4.45Zm-8.79,6.73h4.34v-.74h-3.43v-.02l2.07-1.95c.67-.64,1.31-1.24,1.31-2.31,0-1.2-.94-1.83-2.05-1.83s-1.93.58-2.11,1.68l.87.08c.12-.65.6-1.07,1.27-1.07s1.23.44,1.23,1.14c0,.66-.31,1.02-.95,1.64l-2.54,2.47v.91Zm-.47-2.62h-4.75v.68h4.75v-.68Zm-5.53-4.11h-3.53l-.07,3.5c.4-.24.91-.42,1.37-.42.94,0,1.66.54,1.66,1.53,0,.93-.64,1.55-1.45,1.55-.57,0-1.03-.34-1.26-.85l-.8.3c.36.74.97,1.23,1.99,1.23,1.31,0,2.31-.89,2.31-2.23,0-1.26-.85-2.21-2.15-2.21-.28,0-.61.04-.86.16l.03-1.82h2.75v-.74Zm-6.37,0h-.69l-1.81,1.46.48.58,1.21-1.02h.02v5.7h.8v-6.73Zm-8.23,6.73h4.33v-.74h-3.43v-.02l2.07-1.95c.68-.64,1.31-1.24,1.31-2.31,0-1.2-.94-1.83-2.05-1.83s-1.93.58-2.11,1.68l.86.08c.12-.65.6-1.07,1.27-1.07s1.23.44,1.23,1.14c0,.66-.31,1.02-.95,1.64l-2.54,2.47v.91Z"/>
      <path class="cls-1" d="m82.1,74.43c0-.99.15-2.8,1.48-2.8s1.48,1.81,1.48,2.8-.15,2.79-1.48,2.79-1.48-1.81-1.48-2.79m-.8,0c0,1.53.43,3.48,2.28,3.48s2.28-1.95,2.28-3.48-.43-3.48-2.28-3.48-2.28,1.95-2.28,3.48m-1.14-3.37h-3.53l-.07,3.5c.4-.24.91-.42,1.37-.42.94,0,1.66.54,1.66,1.53,0,.93-.64,1.55-1.44,1.55-.57,0-1.03-.34-1.26-.85l-.8.3c.36.74.97,1.23,1.99,1.23,1.31,0,2.31-.89,2.31-2.23,0-1.27-.85-2.21-2.15-2.21-.28,0-.61.04-.87.16l.03-1.82h2.75v-.74Zm-6.37,0h-.69l-1.81,1.46.48.58,1.21-1.02h.02v5.7h.8v-6.73Zm-3.42,4.11h-4.75v.68h4.75v-.68Zm-5.53-4.11h-3.53l-.07,3.5c.4-.24.91-.42,1.37-.42.94,0,1.66.54,1.66,1.53,0,.93-.64,1.55-1.44,1.55-.57,0-1.03-.34-1.26-.85l-.8.3c.36.74.97,1.23,1.99,1.23,1.31,0,2.31-.89,2.31-2.23,0-1.27-.85-2.21-2.15-2.21-.28,0-.61.04-.87.16l.03-1.82h2.75v-.74Zm-6.37,0h-.69l-1.81,1.46.48.58,1.21-1.02h.02v5.7h.8v-6.73Zm-5.28,0h-.69l-1.81,1.46.47.58,1.21-1.02h.02v5.7h.8v-6.73Z"/>
      <path class="cls-1" d="m177.1,74.44c0-.99.15-2.79,1.48-2.79s1.48,1.81,1.48,2.79-.15,2.8-1.48,2.8-1.48-1.81-1.48-2.8m-.8,0c0,1.53.43,3.48,2.28,3.48s2.28-1.95,2.28-3.48-.43-3.48-2.28-3.48-2.28,1.95-2.28,3.48m-3-.06c.81,0,1.46.55,1.46,1.43s-.65,1.43-1.46,1.43-1.45-.55-1.45-1.43.65-1.43,1.45-1.43m1.1-3.31h-.93l-1.79,2.84c-.36.58-.64,1.11-.64,1.89,0,1.31.98,2.11,2.25,2.11s2.25-.8,2.25-2.11-.86-2.11-2.03-2.11c-.28,0-.66.06-.9.2l-.02-.02,1.81-2.8Zm-8.55,6.73h4.34v-.74h-3.43v-.02l2.07-1.95c.67-.64,1.31-1.24,1.31-2.31,0-1.2-.94-1.83-2.05-1.83s-1.93.58-2.11,1.68l.87.08c.12-.65.6-1.07,1.27-1.07s1.23.44,1.23,1.14c0,.66-.31,1.02-.95,1.64l-2.54,2.47v.91Zm-.47-2.62h-4.75v.68h4.75v-.68Zm-8.88-.74c0-.99.15-2.79,1.48-2.79s1.48,1.81,1.48,2.79-.15,2.8-1.48,2.8-1.48-1.81-1.48-2.8m-.8,0c0,1.53.43,3.48,2.28,3.48s2.28-1.95,2.28-3.48-.43-3.48-2.28-3.48-2.28,1.95-2.28,3.48m-2.46,1.08h-2.17l2.15-3.52h.02v3.52Zm.8-4.45h-.98l-2.67,4.31v.88h2.85v1.54h.8v-1.54h.97v-.74h-.97v-4.45Zm-8.79,6.73h4.33v-.74h-3.43v-.02l2.07-1.95c.68-.64,1.31-1.24,1.31-2.31,0-1.2-.94-1.83-2.05-1.83s-1.93.58-2.11,1.68l.86.08c.12-.65.6-1.07,1.27-1.07s1.23.44,1.23,1.14c0,.66-.31,1.02-.95,1.64l-2.54,2.47v.91Z"/>
      <path class="cls-1" d="m85.45,83.07h-3.53l-.07,3.5c.4-.24.91-.42,1.37-.42.94,0,1.66.54,1.66,1.53,0,.93-.64,1.55-1.45,1.55-.57,0-1.03-.34-1.26-.85l-.8.3c.36.74.97,1.23,1.99,1.23,1.31,0,2.31-.89,2.31-2.23,0-1.27-.86-2.21-2.15-2.21-.28,0-.61.04-.86.16l.03-1.82h2.75v-.74Zm-9.31,6.73h4.33v-.74h-3.43v-.02l2.07-1.95c.67-.64,1.31-1.24,1.31-2.31,0-1.2-.94-1.83-2.05-1.83s-1.93.58-2.11,1.68l.86.08c.12-.65.6-1.08,1.27-1.08s1.23.44,1.23,1.14c0,.66-.31,1.02-.95,1.63l-2.54,2.47v.91Zm-5.28,0h4.33v-.74h-3.43v-.02l2.07-1.95c.67-.64,1.31-1.24,1.31-2.31,0-1.2-.94-1.83-2.05-1.83s-1.93.58-2.11,1.68l.87.08c.12-.65.6-1.08,1.27-1.08s1.23.44,1.23,1.14c0,.66-.31,1.02-.95,1.63l-2.54,2.47v.91Zm-.47-2.62h-4.75v.68h4.75v-.68Zm-8.88-.74c0-.99.15-2.8,1.48-2.8s1.48,1.81,1.48,2.8-.15,2.79-1.48,2.79-1.48-1.81-1.48-2.79m-.8,0c0,1.53.43,3.48,2.28,3.48s2.28-1.95,2.28-3.48-.43-3.48-2.28-3.48-2.28,1.95-2.28,3.48m-3-.06c.81,0,1.45.55,1.45,1.43s-.65,1.43-1.45,1.43-1.46-.55-1.46-1.43.65-1.43,1.46-1.43m1.1-3.31h-.93l-1.79,2.84c-.36.58-.64,1.11-.64,1.89,0,1.31.98,2.11,2.25,2.11s2.25-.8,2.25-2.11-.86-2.11-2.03-2.11c-.28,0-.66.06-.9.2l-.02-.02,1.81-2.8Zm-5.6,0h-.69l-1.81,1.46.47.58,1.21-1.02h.02v5.7h.8v-6.73Z"/>
      <path class="cls-1" d="m177.1,86.44c0-.99.15-2.79,1.48-2.79s1.48,1.81,1.48,2.79-.15,2.8-1.48,2.8-1.48-1.81-1.48-2.8m-.8,0c0,1.53.43,3.48,2.28,3.48s2.28-1.95,2.28-3.48-.43-3.48-2.28-3.48-2.28,1.95-2.28,3.48m-1.14-3.36h-3.53l-.07,3.5c.4-.24.91-.42,1.37-.42.94,0,1.66.54,1.66,1.53,0,.93-.64,1.55-1.45,1.55-.57,0-1.03-.34-1.26-.85l-.8.3c.36.74.97,1.23,1.99,1.23,1.31,0,2.31-.89,2.31-2.23,0-1.26-.86-2.21-2.15-2.21-.28,0-.61.04-.86.16l.03-1.82h2.75v-.74Zm-7.85,3.54h.25c.83,0,1.7.31,1.7,1.3,0,.78-.61,1.32-1.37,1.32s-1.13-.28-1.36-1l-.81.27c.34,1,1.15,1.42,2.17,1.42,1.2,0,2.22-.67,2.22-1.95,0-.85-.52-1.55-1.38-1.69v-.02c.67-.21,1.15-.84,1.15-1.54,0-1.16-.93-1.76-2.01-1.76-.85,0-1.62.38-1.95,1.14l.77.29c.24-.49.67-.75,1.23-.75.68,0,1.15.43,1.15,1.11,0,1.02-.86,1.17-1.53,1.17h-.25v.69Zm-1.94.57h-4.75v.68h4.75v-.68Zm-8.88-.74c0-.99.15-2.79,1.48-2.79s1.48,1.81,1.48,2.79-.15,2.8-1.48,2.8-1.48-1.81-1.48-2.8m-.8,0c0,1.53.43,3.48,2.28,3.48s2.28-1.95,2.28-3.48-.43-3.48-2.28-3.48-2.28,1.95-2.28,3.48m-3-.06c.81,0,1.46.55,1.46,1.43s-.65,1.43-1.46,1.43-1.45-.55-1.45-1.43.65-1.43,1.45-1.43m1.1-3.31h-.93l-1.79,2.84c-.36.58-.64,1.11-.64,1.89,0,1.31.98,2.11,2.25,2.11s2.25-.8,2.25-2.11-.87-2.11-2.03-2.11c-.28,0-.66.06-.9.2l-.02-.02,1.81-2.8Zm-8.55,6.73h4.33v-.74h-3.43v-.02l2.07-1.95c.68-.64,1.31-1.24,1.31-2.31,0-1.2-.94-1.83-2.05-1.83s-1.93.58-2.11,1.68l.86.08c.12-.65.6-1.07,1.27-1.07s1.23.44,1.23,1.14c0,.66-.31,1.02-.95,1.64l-2.54,2.47v.91Z"/>
      <polyline class="cls-3" points="0 0 227.25 0 227.25 1 0 1"/>
      <polyline class="cls-4" points="0 30.8 227.25 30.8 227.25 31.8 0 31.8"/>
    </g>
  </g>
</svg>