<?xml version="1.0" encoding="UTF-8"?>
<svg id="_图层_2" data-name="图层 2" xmlns="http://www.w3.org/2000/svg" viewBox="0 0 227.25 106.83">
  <defs>
    <style>
      .cls-1 {
        fill: #221e1f;
      }

      .cls-2 {
        fill: #e6e7e8;
      }

      .cls-3 {
        fill: #006cb7;
      }

      .cls-4 {
        fill: #c0bfbc;
      }
    </style>
  </defs>
  <g id="_图层_1-2" data-name="图层 1">
    <rect class="cls-2" y="62.39" width="227.25" height="10.62"/>
    <rect class="cls-2" y="85.46" width="227.25" height="10.62"/>
    <g>
      <path class="cls-1" d="m44.26,8.43c-.23-.97-.94-1.66-2.11-1.66-1.36,0-2.06.74-2.06,1.92,0,1.92,2.93,1.94,2.93,3.23,0,.51-.35.82-.81.82-.39,0-.86-.29-1.02-1.12l-1.29.28c.35,1.35,1.18,1.93,2.24,1.93,1.38,0,2.19-.78,2.19-1.96,0-2.15-2.93-2.22-2.93-3.26,0-.47.26-.75.72-.75s.74.27.96.92l1.18-.34Zm-5.28,0c-.23-.97-.94-1.66-2.11-1.66-1.36,0-2.06.74-2.06,1.92,0,1.92,2.93,1.94,2.93,3.23,0,.51-.35.82-.81.82-.39,0-.86-.29-1.02-1.12l-1.29.28c.35,1.35,1.18,1.93,2.24,1.93,1.38,0,2.19-.78,2.19-1.96,0-2.15-2.93-2.22-2.93-3.26,0-.47.26-.75.72-.75s.74.27.96.92l1.18-.34Zm-5.14,5.29v-1.16h-2.38v-1.81h1.74v-1.16h-1.74v-1.58h2.28v-1.16h-3.59v6.86h3.69Zm-8.22,0v-4.43h.02l2.01,4.43h1.25v-6.86h-1.2v4.07h-.02l-1.82-4.07h-1.43v6.86h1.2Zm-5.24,0v-2.1l.51-.78,1.37,2.88h1.47l-1.97-4.1,1.77-2.77h-1.44l-1.7,2.83h-.02v-2.83h-1.31v6.86h1.31Zm-5.4-4.83c0-.76.33-.97.86-.97s.86.21.86.97v.19h1.31v-.02c0-1.69-.89-2.3-2.17-2.3s-2.17.61-2.17,2.3v2.45c0,1.69.89,2.3,2.17,2.3s2.17-.61,2.17-2.3v-.29h-1.31v.46c0,.76-.33.97-.86.97s-.86-.21-.86-.97v-2.79Zm-2.45-2.03h-1.31v6.86h1.31v-6.86Zm-5.81,6.86v-2.96h1.85v2.96h1.31v-6.86h-1.31v2.74h-1.85v-2.74h-1.31v6.86h1.31ZM.19,6.86v1.16h1.53v5.7h1.31v-5.7h1.53v-1.16H.19Z"/>
      <path class="cls-1" d="m184,13.72v-1.16h-2.38v-1.81h1.74v-1.16h-1.74v-1.58h2.28v-1.16h-3.59v6.86h3.69Zm-9.88,0v-5.4h.02l1.4,5.4h.99l1.4-5.4h.02v5.4h1.12v-6.86h-1.83l-1.19,4.51h-.02l-1.19-4.51h-1.83v6.86h1.12Zm-2.45-6.86h-1.31v6.86h1.31v-6.86Zm-6.54,0v1.16h1.53v5.7h1.31v-5.7h1.53v-1.16h-4.37Zm-3.3,6.86v-1.16h-2.38v-1.81h1.74v-1.16h-1.74v-1.58h2.28v-1.16h-3.59v6.86h3.69Zm-7.66,0v-2.1l.51-.78,1.37,2.88h1.47l-1.97-4.1,1.77-2.77h-1.44l-1.7,2.83h-.02v-2.83h-1.31v6.86h1.31Zm-5.8,0l.37-1.45h1.82l.33,1.45h1.25l-1.65-6.86h-1.68l-1.7,6.86h1.26Zm1.26-5.38h.02l.64,2.78h-1.3l.65-2.78Zm-6.02-.4h.52c.62,0,.91.32.91.83,0,.47-.39.81-.98.81h-.46v-1.64Zm0,2.72h.46c.68,0,1.14.32,1.14.98,0,.6-.36,1-1.05,1h-.55v-1.98Zm-1.31,3.06h1.92c1.39,0,2.3-.62,2.3-1.98,0-.86-.29-1.24-1.01-1.69.55-.33.85-.83.85-1.43,0-1.18-.81-1.77-2.21-1.77h-1.84v6.86Zm-7.79-6.86v1.16h1.53v5.7h1.31v-5.7h1.53v-1.16h-4.37Zm-2.51,6.86v-2.97h1.65v-1.16h-1.65v-1.58h2.11v-1.16h-3.42v6.86h1.31Zm-5.4-4.83c0-.76.33-.97.85-.97s.86.21.86.97v2.8c0,.76-.33.97-.86.97s-.85-.21-.85-.97v-2.8Zm-1.31,2.62c0,1.69.89,2.3,2.17,2.3s2.17-.61,2.17-2.3v-2.45c0-1.69-.89-2.3-2.17-2.3s-2.17.61-2.17,2.3v2.45Zm-1.09-3.09c-.23-.97-.94-1.66-2.11-1.66-1.36,0-2.06.74-2.06,1.92,0,1.92,2.93,1.94,2.93,3.23,0,.51-.35.82-.81.82-.39,0-.87-.29-1.02-1.12l-1.29.27c.35,1.35,1.18,1.93,2.24,1.93,1.38,0,2.19-.78,2.19-1.96,0-2.15-2.93-2.23-2.93-3.26,0-.47.26-.75.72-.75s.74.28.96.92l1.18-.34Z"/>
      <path class="cls-1" d="m129.64,24.87c.46.61,1.21.94,1.98.94.89,0,1.73-.48,1.73-1.44,0-1.84-2.87-1.29-2.87-2.37,0-.44.31-.73.89-.73.53,0,.89.23,1.27.69l.48-.42c-.33-.5-1.04-.86-1.69-.87-.95,0-1.61.48-1.63,1.33-.06,1.81,2.87,1.14,2.87,2.39,0,.42-.32.82-1.07.82-.62,0-1.09-.29-1.42-.76l-.54.41Zm-3.89-2.08c.06-.91.5-1.52,1.33-1.52.74,0,1.18.61,1.18,1.52h-2.51Zm2.81,1.6c-.29.51-.76.84-1.37.84-.82,0-1.46-.76-1.46-1.85h3.21v-.46c0-1.58-.86-2.24-1.88-2.24-1.22,0-2.01.97-2.01,2.57,0,1.81,1.05,2.57,2.15,2.57s1.58-.59,1.9-1.15l-.53-.28Zm-6.89-3.61v.59h.81v3.63c0,.63.31.82,1.06.82.4,0,.68-.04.8-.08v-.56c-.18.03-.38.05-.61.05-.4,0-.56-.11-.56-.34v-3.52h1.14v-.59h-1.14v-1.63h-.68v1.63h-.81Zm-1.01,4.94v-4.94h-.68v3.7c-.31.33-.9.75-1.42.75s-.81-.22-.81-.88v-3.57h-.68v3.59c0,1.07.69,1.44,1.43,1.44.56,0,1.07-.32,1.46-.76h.02v.66h.68Zm-8.88-4.94v4.94h.68v-3.7c.31-.33.9-.75,1.42-.75s.81.22.81.88v3.57h.69v-3.59c0-1.07-.69-1.45-1.43-1.45-.56,0-1.07.32-1.46.76h-.02v-.67h-.68Zm-2.51-1.2h.68v-.82h-.68v.82Zm0,6.14h.68v-4.94h-.68v4.94Zm-7.43,0v-3.69c.37-.36.77-.76,1.38-.76.44,0,.77.25.77.91v3.54h.68v-3.69c.37-.36.77-.76,1.38-.76.44,0,.77.25.77.91v3.54h.68v-3.54c0-1.23-.7-1.5-1.36-1.5-.58,0-1.13.31-1.57.78-.18-.46-.63-.78-1.26-.78-.48,0-1.02.25-1.43.71l-.04.04v-.66h-.68v4.94h.68Z"/>
      <path class="cls-1" d="m200.64,24.87c.46.61,1.21.94,1.98.94.89,0,1.73-.48,1.73-1.44,0-1.84-2.87-1.29-2.87-2.37,0-.44.31-.73.89-.73.53,0,.89.23,1.27.69l.48-.42c-.33-.5-1.05-.86-1.69-.87-.95,0-1.61.48-1.63,1.33-.06,1.81,2.87,1.14,2.87,2.39,0,.42-.32.82-1.07.82-.62,0-1.09-.29-1.42-.76l-.54.41Zm-3.89-2.08c.06-.91.5-1.52,1.33-1.52.74,0,1.18.61,1.18,1.52h-2.51Zm2.81,1.6c-.29.51-.76.84-1.37.84-.82,0-1.46-.76-1.46-1.85h3.21v-.46c0-1.58-.86-2.24-1.88-2.24-1.22,0-2.01.97-2.01,2.57,0,1.81,1.05,2.57,2.15,2.57s1.58-.59,1.9-1.15l-.53-.28Zm-6.89-3.61v.59h.81v3.63c0,.63.31.82,1.06.82.4,0,.67-.04.8-.08v-.56c-.18.03-.38.05-.61.05-.4,0-.56-.11-.56-.34v-3.52h1.14v-.59h-1.14v-1.63h-.68v1.63h-.81Zm-1.01,4.94v-4.94h-.68v3.7c-.31.33-.9.75-1.42.75s-.81-.22-.81-.88v-3.57h-.68v3.59c0,1.07.69,1.44,1.42,1.44.56,0,1.08-.32,1.46-.76h.02v.66h.68Zm-8.88-4.94v4.94h.68v-3.7c.31-.33.9-.75,1.42-.75s.81.22.81.88v3.57h.69v-3.59c0-1.07-.69-1.45-1.43-1.45-.56,0-1.07.32-1.46.76h-.02v-.67h-.68Zm-2.51-1.2h.68v-.82h-.68v.82Zm0,6.14h.68v-4.94h-.68v4.94Zm-7.43,0v-3.69c.37-.36.77-.76,1.38-.76.44,0,.77.25.77.91v3.54h.68v-3.69c.37-.36.77-.76,1.38-.76.44,0,.77.25.77.91v3.54h.68v-3.54c0-1.23-.7-1.5-1.36-1.5-.58,0-1.13.31-1.57.78-.18-.46-.63-.78-1.26-.78-.48,0-1.02.25-1.43.71l-.04.04v-.66h-.68v4.94h.68Z"/>
      <path class="cls-1" d="m34.37,36.87c.46.61,1.21.94,1.98.94.89,0,1.73-.48,1.73-1.44,0-1.84-2.87-1.29-2.87-2.37,0-.44.31-.73.89-.73.53,0,.89.23,1.27.69l.47-.42c-.33-.5-1.04-.86-1.69-.87-.95,0-1.61.48-1.63,1.33-.06,1.81,2.87,1.14,2.87,2.39,0,.42-.32.82-1.06.82-.62,0-1.09-.29-1.42-.76l-.54.41Zm-4.66-4.1v4.94h.68v-3.7c.31-.33.9-.75,1.42-.75s.81.22.81.88v3.57h.68v-3.59c0-1.07-.69-1.45-1.43-1.45-.56,0-1.07.32-1.46.76h-.02v-.67h-.68Zm-1.19,2.47c0-1.43-.68-2.57-2.03-2.57s-2.02,1.14-2.02,2.57.68,2.57,2.02,2.57,2.03-1.14,2.03-2.57m-.68,0c0,1.27-.52,1.98-1.34,1.98s-1.34-.7-1.34-1.98.52-1.98,1.34-1.98,1.34.7,1.34,1.98m-6.22,2.47h.68v-2.74c.32-1.02.77-1.58,1.63-1.6v-.68c-.82,0-1.23.38-1.61,1.05h-.02v-.98h-.68v4.94Zm-1.2-3.7c-.31-.77-.79-1.34-1.81-1.34-1.24,0-2.03.97-2.03,2.57s.79,2.57,2.03,2.57c.98,0,1.42-.42,1.91-1.25l-.55-.25c-.38.7-.73.91-1.36.91-.85,0-1.34-.72-1.34-1.98s.49-1.98,1.34-1.98c.59,0,.98.38,1.17.98l.64-.23Zm-5.87-2.44h.68v-.82h-.68v.82Zm0,6.14h.68v-4.94h-.68v4.94Zm-7.43,0v-3.69c.37-.36.77-.76,1.38-.76.44,0,.77.25.77.91v3.54h.68v-3.69c.37-.36.77-.76,1.38-.76.44,0,.77.25.77.91v3.54h.68v-3.54c0-1.23-.7-1.5-1.36-1.5-.58,0-1.13.31-1.57.78-.18-.46-.63-.78-1.26-.78-.48,0-1.02.25-1.44.71l-.04.04v-.66h-.68v4.94h.68Z"/>
      <path class="cls-1" d="m131.81,35.53c-.21.84-.62,1.64-1.67,1.64-1.14,0-1.92-.89-1.92-2.88s.78-2.88,1.77-2.88,1.46.59,1.71,1.56l.7-.21c-.3-1.25-1.05-2-2.32-2-1.65,0-2.62,1.29-2.62,3.53,0,2.4,1.08,3.53,2.62,3.53,1.41,0,2.11-.88,2.41-2.15l-.68-.13Zm-7.56-3.4c0-.54.41-.95.91-.95s.91.41.91.95-.41.95-.91.95-.91-.41-.91-.95m-.46,0c0,.76.61,1.37,1.37,1.37s1.37-.61,1.37-1.37-.61-1.37-1.37-1.37-1.37.61-1.37,1.37m-1.57-1.27h-3.52l-.3,3.72.6.13c.28-.64.78-1.04,1.44-1.04.95,0,1.54.72,1.54,1.73,0,1.29-.73,1.83-1.63,1.83-.72,0-1.26-.43-1.59-1.05l-.62.32c.43.67,1.02,1.31,2.19,1.31,1.75,0,2.38-1.37,2.38-2.42,0-1.54-1.06-2.32-2.2-2.32-.49,0-.96.15-1.41.56l.17-2.2h2.95v-.59Zm-6.05,4.77c0,.93-.58,1.6-1.55,1.6s-1.62-.8-1.65-1.77c.06-.78.93-1.46,1.77-1.46.72,0,1.44.57,1.44,1.64m.35-4.47c-.2-.19-.74-.4-1.48-.4-1.84,0-2.81,1.71-2.81,3.88,0,2.34,1.03,3.17,2.45,3.17,1.14,0,2.21-.74,2.21-2.2s-1.04-2.21-2.06-2.21c-.95,0-1.46.38-1.88.82.02-1.98,1.03-2.87,2.11-2.87.53,0,.86.14,1.17.39l.29-.58Zm-10.31,1.86c-.24-.52-.63-.73-1.14-.73-1.24,0-2.11,1.33-2.11,2.6,0,.82.57,1.5,1.38,1.5.44,0,.86-.29,1.13-.58h.02c.02.31.29.58.67.58.85,0,2.19-.86,2.19-2.71,0-1.72-1.48-2.92-3.24-2.92-1.93,0-3.53,1.55-3.53,3.56s1.57,3.5,3.53,3.5c1.26,0,2.46-.55,3.07-1.64h-.72c-.53.67-1.4,1.03-2.35,1.03-1.58,0-2.84-1.22-2.84-2.89s1.18-2.95,2.84-2.95c1.43,0,2.63.87,2.63,2.41,0,.93-.63,1.99-1.34,1.99-.15,0-.21-.1-.21-.24,0-.12.05-.29.1-.47l.76-2.61h-.64l-.19.57Zm-2.49,1.77c0-.76.59-1.83,1.5-1.83.33,0,.68.26.68.88,0,.77-.66,1.89-1.54,1.89-.44,0-.65-.38-.65-.93"/>
      <path class="cls-1" d="m203.78,35.53c-.21.84-.62,1.64-1.67,1.64-1.14,0-1.92-.89-1.92-2.88s.78-2.88,1.77-2.88,1.46.59,1.71,1.56l.7-.21c-.3-1.25-1.05-2-2.32-2-1.65,0-2.62,1.29-2.62,3.53,0,2.4,1.08,3.53,2.62,3.53,1.41,0,2.11-.88,2.41-2.15l-.68-.13Zm-7.49-3.23c0,.96.51,1.54,1.31,1.54s1.31-.58,1.31-1.54-.5-1.54-1.31-1.54-1.31.58-1.31,1.54m.55-.02c0-.66.29-1.06.76-1.06.5,0,.76.41.76,1.08s-.26,1.08-.76,1.08-.76-.39-.76-1.1m-1.71-1.43h-3.52l-.3,3.72.6.13c.28-.64.78-1.04,1.44-1.04.95,0,1.54.72,1.54,1.73,0,1.29-.73,1.83-1.63,1.83-.72,0-1.26-.43-1.59-1.05l-.62.32c.43.67,1.02,1.31,2.19,1.31,1.75,0,2.38-1.37,2.38-2.42,0-1.54-1.06-2.32-2.2-2.32-.49,0-.96.15-1.41.56l.17-2.2h2.95v-.59Zm-9.27,2.09c0-.93.58-1.6,1.55-1.6s1.62.76,1.64,1.96c-.27.72-.91,1.27-1.75,1.27-.72,0-1.43-.57-1.43-1.64m-.35,4.47c.2.19.74.4,1.48.4,1.84,0,2.81-1.71,2.81-3.88,0-2.34-1.03-3.17-2.45-3.17-1.14,0-2.21.74-2.21,2.21s1.04,2.2,2.06,2.2c.95,0,1.46-.38,1.88-.82-.08,1.9-1.03,2.87-2.11,2.87-.53,0-.86-.14-1.17-.39l-.3.58Zm-6.38-4.39c-.24-.52-.63-.73-1.14-.73-1.24,0-2.11,1.33-2.11,2.6,0,.82.57,1.5,1.38,1.5.44,0,.86-.29,1.13-.58h.02c.02.31.29.58.67.58.85,0,2.19-.86,2.19-2.71,0-1.72-1.48-2.92-3.24-2.92-1.93,0-3.53,1.55-3.53,3.56s1.57,3.5,3.53,3.5c1.26,0,2.46-.55,3.07-1.64h-.72c-.53.67-1.4,1.03-2.35,1.03-1.58,0-2.84-1.22-2.84-2.89s1.18-2.95,2.84-2.95c1.43,0,2.63.87,2.63,2.41,0,.93-.63,1.99-1.34,1.99-.15,0-.21-.1-.21-.24,0-.12.05-.29.1-.47l.76-2.61h-.64l-.19.57Zm-2.49,1.77c0-.76.59-1.83,1.5-1.83.33,0,.68.26.68.88,0,.77-.66,1.89-1.54,1.89-.44,0-.65-.38-.65-.93"/>
      <path class="cls-1" d="m30.82,55.35c0-.99.15-2.79,1.48-2.79s1.48,1.81,1.48,2.79-.15,2.8-1.48,2.8-1.48-1.81-1.48-2.8m-.8,0c0,1.53.43,3.48,2.28,3.48s2.28-1.95,2.28-3.48-.43-3.48-2.28-3.48-2.28,1.95-2.28,3.48m-2.46,1.08h-2.17l2.15-3.52h.02v3.52Zm.8-4.45h-.98l-2.67,4.31v.88h2.85v1.54h.8v-1.54h.97v-.74h-.97v-4.45Zm-3.98,4.11h-4.75v.68h4.75v-.68Zm-5.53-4.11h-3.53l-.07,3.5c.4-.24.91-.42,1.37-.42.94,0,1.66.54,1.66,1.53,0,.93-.64,1.55-1.44,1.55-.57,0-1.03-.34-1.26-.85l-.8.3c.36.74.97,1.23,1.99,1.23,1.31,0,2.31-.89,2.31-2.23,0-1.26-.85-2.21-2.15-2.21-.28,0-.61.04-.86.16l.03-1.82h2.75v-.74Zm-9.31,6.73h4.33v-.74h-3.43v-.02l2.07-1.95c.67-.64,1.31-1.24,1.31-2.31,0-1.2-.94-1.83-2.05-1.83s-1.93.58-2.11,1.68l.87.08c.12-.65.6-1.07,1.27-1.07s1.23.44,1.23,1.14c0,.66-.31,1.02-.95,1.64l-2.54,2.47v.91Z"/>
      <path class="cls-1" d="m121.32,55.53h.25c.83,0,1.7.31,1.7,1.3,0,.78-.61,1.32-1.37,1.32s-1.13-.28-1.36-1l-.81.27c.34,1,1.15,1.42,2.17,1.42,1.2,0,2.22-.66,2.22-1.95,0-.85-.52-1.55-1.38-1.69v-.02c.68-.21,1.15-.84,1.15-1.54,0-1.16-.93-1.76-2.01-1.76-.85,0-1.62.38-1.95,1.14l.77.3c.24-.49.67-.75,1.24-.75.67,0,1.15.43,1.15,1.11,0,1.02-.86,1.17-1.53,1.17h-.25v.68Zm-1.94.57h-4.75v.68h4.75v-.68Zm-8.88-.74c0-.99.15-2.79,1.48-2.79s1.48,1.81,1.48,2.79-.15,2.8-1.48,2.8-1.48-1.81-1.48-2.8m-.8,0c0,1.53.43,3.48,2.28,3.48s2.28-1.95,2.28-3.48-.43-3.48-2.28-3.48-2.28,1.95-2.28,3.48"/>
      <path class="cls-1" d="m193.02,55.3c.81,0,1.45.55,1.45,1.43s-.65,1.43-1.45,1.43-1.45-.55-1.45-1.43.65-1.43,1.45-1.43m1.1-3.31h-.93l-1.79,2.84c-.36.58-.64,1.11-.64,1.89,0,1.31.98,2.11,2.25,2.11s2.25-.8,2.25-2.11-.87-2.11-2.04-2.11c-.27,0-.65.06-.9.2l-.02-.02,1.81-2.8Zm-3.74,4.11h-4.75v.68h4.75v-.68Zm-5.53-4.11h-3.53l-.07,3.5c.4-.24.91-.42,1.37-.42.94,0,1.66.54,1.66,1.53,0,.93-.64,1.55-1.45,1.55-.57,0-1.03-.34-1.26-.85l-.8.3c.36.74.97,1.23,1.99,1.23,1.31,0,2.31-.89,2.31-2.23,0-1.27-.86-2.21-2.15-2.21-.27,0-.61.04-.86.16l.03-1.82h2.75v-.74Z"/>
      <path class="cls-1" d="m30.82,67.35c0-.99.15-2.8,1.48-2.8s1.48,1.81,1.48,2.8-.15,2.79-1.48,2.79-1.48-1.81-1.48-2.79m-.8,0c0,1.53.43,3.48,2.28,3.48s2.28-1.95,2.28-3.48-.43-3.48-2.28-3.48-2.28,1.95-2.28,3.48m-4.35,1.45c0-.79.6-1.34,1.35-1.34s1.35.55,1.35,1.34-.6,1.34-1.35,1.34-1.35-.55-1.35-1.34m.23-3.14c0-.64.46-1.11,1.12-1.11s1.12.48,1.12,1.11-.46,1.11-1.12,1.11-1.12-.48-1.12-1.11m-.8-.04c0,.64.42,1.3,1.1,1.48v.02c-.81.17-1.33.88-1.33,1.73,0,1.23.95,1.97,2.15,1.97s2.15-.74,2.15-1.97c0-.85-.52-1.56-1.33-1.73v-.02c.68-.18,1.1-.85,1.1-1.48,0-1.06-.84-1.76-1.92-1.76s-1.92.7-1.92,1.76m-.72,2.46h-4.75v.68h4.75v-.68Zm-5.53-4.11h-3.53l-.07,3.5c.4-.24.91-.42,1.37-.42.94,0,1.66.54,1.66,1.53,0,.93-.64,1.55-1.44,1.55-.57,0-1.03-.34-1.25-.85l-.8.3c.36.74.97,1.23,1.99,1.23,1.31,0,2.31-.89,2.31-2.23,0-1.27-.86-2.21-2.15-2.21-.28,0-.61.04-.86.16l.03-1.82h2.75v-.74Zm-6.6,4.45h-2.17l2.15-3.52h.02v3.52Zm.8-4.45h-.98l-2.67,4.31v.88h2.85v1.54h.8v-1.54h.97v-.74h-.97v-4.45Z"/>
      <path class="cls-1" d="m121.32,67.53h.25c.83,0,1.7.31,1.7,1.3,0,.78-.61,1.32-1.37,1.32s-1.13-.28-1.36-1l-.81.27c.34,1,1.15,1.42,2.17,1.42,1.2,0,2.22-.66,2.22-1.95,0-.85-.52-1.55-1.38-1.69v-.02c.68-.21,1.15-.84,1.15-1.54,0-1.16-.93-1.76-2.01-1.76-.85,0-1.62.38-1.95,1.14l.77.3c.24-.49.67-.75,1.24-.75.67,0,1.15.43,1.15,1.11,0,1.02-.86,1.17-1.53,1.17h-.25v.68Zm-1.94.57h-4.75v.68h4.75v-.68Zm-8.88-.74c0-.99.15-2.79,1.48-2.79s1.48,1.81,1.48,2.79-.15,2.8-1.48,2.8-1.48-1.81-1.48-2.8m-.8,0c0,1.53.43,3.48,2.28,3.48s2.28-1.95,2.28-3.48-.43-3.48-2.28-3.48-2.28,1.95-2.28,3.48"/>
      <path class="cls-1" d="m193.02,67.41c-.81,0-1.45-.55-1.45-1.43s.65-1.43,1.45-1.43,1.45.55,1.45,1.43-.65,1.43-1.45,1.43m-1.1,3.31h.93l1.79-2.84c.36-.58.64-1.11.64-1.89,0-1.31-.98-2.11-2.25-2.11s-2.25.8-2.25,2.11.86,2.11,2.04,2.11c.27,0,.66-.06.9-.2l.02.02-1.81,2.8Zm-1.54-2.62h-4.75v.68h4.75v-.68Zm-7.39-.8c.81,0,1.46.55,1.46,1.43s-.65,1.43-1.46,1.43-1.45-.55-1.45-1.43.65-1.43,1.45-1.43m1.1-3.31h-.93l-1.79,2.84c-.36.58-.64,1.11-.64,1.89,0,1.31.98,2.11,2.25,2.11s2.25-.8,2.25-2.11-.87-2.11-2.03-2.11c-.28,0-.66.06-.9.2l-.02-.02,1.81-2.8Z"/>
      <path class="cls-1" d="m33.46,79.36c0-.99.15-2.79,1.48-2.79s1.48,1.81,1.48,2.79-.15,2.79-1.48,2.79-1.48-1.81-1.48-2.79m-.8,0c0,1.53.43,3.48,2.28,3.48s2.28-1.95,2.28-3.48-.43-3.48-2.28-3.48-2.28,1.95-2.28,3.48m-2.22-3.37h-.69l-1.81,1.46.47.58,1.21-1.02h.02v5.7h.8v-6.73Zm-5.28,0h-.69l-1.81,1.46.47.58,1.21-1.02h.02v5.7h.8v-6.73Zm-3.42,4.11h-4.75v.68h4.75v-.68Zm-5.53-4.11h-3.53l-.07,3.5c.4-.24.91-.42,1.37-.42.94,0,1.66.54,1.66,1.53,0,.93-.64,1.55-1.44,1.55-.57,0-1.03-.34-1.26-.85l-.8.31c.36.74.97,1.23,1.99,1.23,1.31,0,2.31-.89,2.31-2.23,0-1.26-.85-2.21-2.15-2.21-.28,0-.61.04-.87.16l.03-1.82h2.75v-.74Zm-8.49,4.82c0-.79.6-1.34,1.35-1.34s1.35.55,1.35,1.34-.6,1.34-1.35,1.34-1.35-.55-1.35-1.34m.23-3.14c0-.64.46-1.11,1.12-1.11s1.12.47,1.12,1.11-.46,1.11-1.12,1.11-1.12-.48-1.12-1.11m-.8-.04c0,.64.42,1.3,1.1,1.48v.02c-.81.17-1.33.88-1.33,1.73,0,1.23.95,1.97,2.15,1.97s2.15-.74,2.15-1.97c0-.85-.52-1.56-1.33-1.73v-.02c.68-.18,1.1-.85,1.1-1.48,0-1.05-.84-1.76-1.92-1.76s-1.92.7-1.92,1.76"/>
      <path class="cls-1" d="m118.87,75.99h-3.53l-.07,3.5c.4-.24.91-.42,1.37-.42.94,0,1.66.54,1.66,1.53,0,.93-.64,1.55-1.45,1.55-.57,0-1.03-.34-1.25-.85l-.8.3c.36.74.97,1.23,1.99,1.23,1.31,0,2.31-.89,2.31-2.23,0-1.27-.86-2.21-2.15-2.21-.27,0-.61.04-.86.16l.03-1.82h2.75v-.74Z"/>
      <path class="cls-1" d="m196.82,79.35c0-.99.15-2.8,1.48-2.8s1.48,1.81,1.48,2.8-.15,2.79-1.48,2.79-1.48-1.81-1.48-2.79m-.8,0c0,1.53.43,3.48,2.28,3.48s2.28-1.95,2.28-3.48-.43-3.48-2.28-3.48-2.28,1.95-2.28,3.48m-5.17,3.36h4.34v-.74h-3.43v-.02l2.07-1.95c.67-.64,1.31-1.24,1.31-2.31,0-1.2-.94-1.83-2.05-1.83s-1.93.58-2.11,1.68l.86.08c.12-.65.6-1.08,1.27-1.08s1.23.44,1.23,1.14c0,.66-.31,1.02-.95,1.63l-2.54,2.47v.91Zm-.47-2.62h-4.75v.68h4.75v-.68Zm-8.88-.74c0-.99.15-2.8,1.48-2.8s1.48,1.81,1.48,2.8-.15,2.79-1.48,2.79-1.48-1.81-1.48-2.79m-.8,0c0,1.53.43,3.48,2.28,3.48s2.28-1.95,2.28-3.48-.43-3.48-2.28-3.48-2.28,1.95-2.28,3.48m-2.22-3.37h-.69l-1.81,1.46.47.58,1.21-1.02h.02v5.7h.8v-6.73Z"/>
      <path class="cls-1" d="m36.1,91.35c0-.99.15-2.8,1.48-2.8s1.48,1.81,1.48,2.8-.15,2.79-1.48,2.79-1.48-1.81-1.48-2.79m-.8,0c0,1.53.43,3.48,2.28,3.48s2.28-1.95,2.28-3.48-.43-3.48-2.28-3.48-2.28,1.95-2.28,3.48m-1.14-3.37h-3.53l-.07,3.5c.4-.24.91-.42,1.37-.42.94,0,1.66.54,1.66,1.53,0,.93-.64,1.55-1.44,1.55-.57,0-1.03-.34-1.25-.85l-.8.3c.36.74.97,1.23,1.99,1.23,1.31,0,2.31-.89,2.31-2.23,0-1.27-.86-2.21-2.15-2.21-.28,0-.61.04-.86.16l.03-1.82h2.75v-.74Zm-6.37,0h-.69l-1.81,1.46.47.58,1.21-1.02h.02v5.7h.8v-6.73Zm-3.42,4.11h-4.75v.68h4.75v-.68Zm-5.53-4.11h-3.53l-.07,3.5c.4-.24.91-.42,1.37-.42.94,0,1.66.54,1.66,1.53,0,.93-.64,1.55-1.44,1.55-.57,0-1.03-.34-1.26-.85l-.8.3c.36.74.97,1.23,1.99,1.23,1.31,0,2.31-.89,2.31-2.23,0-1.27-.85-2.21-2.15-2.21-.28,0-.61.04-.87.16l.03-1.82h2.75v-.74Zm-6.37,0h-.69l-1.81,1.46.47.58,1.21-1.02h.02v5.7h.8v-6.73Zm-5.28,0h-.69l-1.81,1.46.47.58,1.21-1.02h.02v5.7h.8v-6.73Z"/>
      <path class="cls-1" d="m118.87,87.99h-3.53l-.07,3.5c.4-.24.91-.42,1.37-.42.94,0,1.66.54,1.66,1.53,0,.93-.64,1.55-1.45,1.55-.57,0-1.03-.34-1.25-.85l-.8.3c.36.74.97,1.23,1.99,1.23,1.31,0,2.31-.89,2.31-2.23,0-1.27-.86-2.21-2.15-2.21-.27,0-.61.04-.86.16l.03-1.82h2.75v-.74Z"/>
      <path class="cls-1" d="m196.82,91.35c0-.99.15-2.79,1.48-2.79s1.48,1.81,1.48,2.79-.15,2.8-1.48,2.8-1.48-1.81-1.48-2.8m-.8,0c0,1.53.43,3.48,2.28,3.48s2.28-1.95,2.28-3.48-.43-3.48-2.28-3.48-2.28,1.95-2.28,3.48m-3.7.17h.25c.83,0,1.7.31,1.7,1.3,0,.78-.61,1.32-1.37,1.32s-1.13-.28-1.36-1l-.81.27c.34,1,1.15,1.42,2.17,1.42,1.2,0,2.22-.67,2.22-1.95,0-.85-.52-1.55-1.38-1.69v-.02c.68-.21,1.15-.84,1.15-1.54,0-1.16-.93-1.76-2.01-1.76-.86,0-1.62.38-1.95,1.14l.77.29c.24-.49.67-.75,1.24-.75.67,0,1.15.43,1.15,1.11,0,1.02-.87,1.17-1.53,1.17h-.25v.69Zm-1.94.57h-4.75v.68h4.75v-.68Zm-8.88-.74c0-.99.15-2.79,1.48-2.79s1.48,1.81,1.48,2.79-.15,2.8-1.48,2.8-1.48-1.81-1.48-2.8m-.8,0c0,1.53.43,3.48,2.28,3.48s2.28-1.95,2.28-3.48-.43-3.48-2.28-3.48-2.28,1.95-2.28,3.48m-5.17,3.36h4.33v-.74h-3.43v-.02l2.07-1.95c.68-.64,1.31-1.24,1.31-2.31,0-1.2-.94-1.83-2.05-1.83s-1.93.58-2.11,1.68l.86.08c.12-.65.6-1.07,1.27-1.07s1.23.44,1.23,1.14c0,.66-.31,1.02-.95,1.64l-2.54,2.47v.91Z"/>
      <path class="cls-1" d="m39.45,99.99h-3.53l-.07,3.5c.4-.24.91-.42,1.37-.42.94,0,1.66.54,1.66,1.53,0,.93-.64,1.55-1.44,1.55-.57,0-1.03-.34-1.26-.85l-.8.3c.36.74.97,1.23,1.99,1.23,1.31,0,2.31-.89,2.31-2.23,0-1.27-.85-2.21-2.15-2.21-.28,0-.61.04-.87.16l.03-1.82h2.75v-.74Zm-9.31,6.73h4.33v-.74h-3.43v-.02l2.07-1.95c.67-.64,1.31-1.24,1.31-2.31,0-1.2-.94-1.83-2.05-1.83s-1.93.58-2.11,1.68l.86.08c.12-.65.6-1.08,1.27-1.08s1.23.44,1.23,1.14c0,.66-.31,1.02-.95,1.63l-2.54,2.47v.91Zm-5.28,0h4.33v-.74h-3.43v-.02l2.07-1.95c.67-.64,1.31-1.24,1.31-2.31,0-1.2-.94-1.83-2.05-1.83s-1.93.58-2.11,1.68l.87.08c.12-.65.6-1.08,1.27-1.08s1.23.44,1.23,1.14c0,.66-.31,1.02-.95,1.63l-2.54,2.47v.91Zm-.47-2.62h-4.75v.68h4.75v-.68Zm-8.88-.74c0-.99.15-2.8,1.48-2.8s1.48,1.81,1.48,2.8-.15,2.79-1.48,2.79-1.48-1.81-1.48-2.79m-.8,0c0,1.53.43,3.48,2.28,3.48s2.28-1.95,2.28-3.48-.43-3.48-2.28-3.48-2.28,1.95-2.28,3.48m-3-.06c.81,0,1.45.55,1.45,1.43s-.65,1.43-1.45,1.43-1.45-.55-1.45-1.43.65-1.43,1.45-1.43m1.1-3.31h-.93l-1.79,2.84c-.36.58-.64,1.11-.64,1.89,0,1.31.98,2.11,2.25,2.11s2.25-.8,2.25-2.11-.86-2.11-2.03-2.11c-.28,0-.66.06-.9.2l-.02-.02,1.81-2.8Zm-5.6,0h-.69l-1.81,1.46.47.58,1.21-1.02h.02v5.7h.8v-6.73Z"/>
      <polygon class="cls-1" points="118.92 99.99 114.82 99.99 114.82 100.73 118.07 100.73 115.33 106.72 116.23 106.72 118.92 100.73 118.92 99.99"/>
      <path class="cls-1" d="m200.17,99.99h-3.53l-.07,3.5c.4-.24.91-.42,1.37-.42.94,0,1.66.54,1.66,1.53,0,.93-.64,1.55-1.45,1.55-.57,0-1.03-.34-1.26-.85l-.8.3c.36.74.97,1.23,1.99,1.23,1.31,0,2.31-.89,2.31-2.23,0-1.26-.86-2.21-2.15-2.21-.28,0-.61.04-.86.16l.03-1.82h2.75v-.74Zm-6.6,4.45h-2.17l2.15-3.52h.02v3.52Zm.8-4.45h-.98l-2.67,4.31v.88h2.85v1.54h.8v-1.54h.97v-.74h-.97v-4.45Zm-3.98,4.11h-4.75v.68h4.75v-.68Zm-8.88-.74c0-.99.15-2.79,1.48-2.79s1.48,1.81,1.48,2.79-.15,2.8-1.48,2.8-1.48-1.81-1.48-2.8m-.8,0c0,1.53.43,3.48,2.28,3.48s2.28-1.95,2.28-3.48-.43-3.48-2.28-3.48-2.28,1.95-2.28,3.48m-3.7.17h.25c.83,0,1.7.31,1.7,1.3,0,.78-.61,1.32-1.37,1.32s-1.13-.28-1.36-1l-.81.27c.34,1,1.15,1.42,2.17,1.42,1.2,0,2.22-.67,2.22-1.95,0-.85-.52-1.55-1.38-1.69v-.02c.67-.21,1.15-.84,1.15-1.54,0-1.16-.93-1.76-2.01-1.76-.85,0-1.62.38-1.95,1.14l.77.29c.24-.49.67-.75,1.23-.75.67,0,1.15.43,1.15,1.11,0,1.02-.86,1.17-1.53,1.17h-.25v.68Z"/>
      <polyline class="cls-3" points="0 0 227.25 0 227.25 1 0 1"/>
      <polyline class="cls-4" points="0 43.8 227.25 43.8 227.25 44.8 0 44.8"/>
    </g>
  </g>
</svg>