<?xml version="1.0" encoding="UTF-8"?>
<svg id="_图层_2" data-name="图层 2" xmlns="http://www.w3.org/2000/svg" viewBox="0 0 230.25 93.05">
  <defs>
    <style>
      .cls-1 {
        fill: #c9c7c1;
      }

      .cls-2 {
        fill: #0062b1;
      }

      .cls-3 {
        fill: #efefef;
      }

      .cls-4 {
        fill: #231815;
      }
    </style>
  </defs>
  <g id="_图层_1-2" data-name="图层 1">
    <rect class="cls-3" x="3" y="48.14" width="227.25" height="10.62"/>
    <rect class="cls-3" x="3" y="72.26" width="227.25" height="10.62"/>
    <path class="cls-4" d="m88.97,8.87c-.24-1.02-.99-1.75-2.22-1.75-1.43,0-2.17.78-2.17,2.02,0,2.02,3.08,2.04,3.08,3.4,0,.54-.37.86-.85.86-.41,0-.91-.31-1.07-1.18l-1.36.29c.37,1.42,1.24,2.03,2.36,2.03,1.45,0,2.3-.82,2.3-2.06,0-2.26-3.08-2.34-3.08-3.43,0-.49.27-.79.76-.79s.78.29,1.01.97l1.24-.36Zm-5.56,0c-.24-1.02-.99-1.75-2.22-1.75-1.43,0-2.17.78-2.17,2.02,0,2.02,3.08,2.04,3.08,3.4,0,.54-.37.86-.85.86-.41,0-.91-.31-1.07-1.18l-1.36.29c.37,1.42,1.24,2.03,2.36,2.03,1.45,0,2.3-.82,2.3-2.06,0-2.26-3.08-2.34-3.08-3.43,0-.49.27-.79.76-.79s.78.29,1.01.97l1.24-.36Zm-5.41,5.57v-1.22h-2.5v-1.9h1.83v-1.22h-1.83v-1.66h2.4v-1.22h-3.78v7.22h3.88Zm-8.65,0v-4.66h.02l2.11,4.66h1.32v-7.22h-1.26v4.28h-.02l-1.92-4.28h-1.51v7.22h1.26Zm-5.52,0v-2.21l.54-.82,1.44,3.03h1.55l-2.07-4.31,1.86-2.91h-1.51l-1.79,2.98h-.02v-2.98h-1.38v7.22h1.38Zm-5.68-5.08c0-.8.35-1.02.9-1.02s.9.22.9,1.02v.2h1.38v-.02c0-1.78-.94-2.42-2.28-2.42s-2.28.64-2.28,2.42v2.58c0,1.78.94,2.42,2.28,2.42s2.28-.64,2.28-2.42v-.3h-1.38v.48c0,.8-.35,1.02-.9,1.02s-.9-.22-.9-1.02v-2.94Zm-2.58-2.14h-1.38v7.22h1.38v-7.22Zm-6.11,7.22v-3.12h1.95v3.12h1.38v-7.22h-1.38v2.88h-1.95v-2.88h-1.38v7.22h1.38Zm-6.88-7.22v1.22h1.61v6h1.38v-6h1.61v-1.22h-4.6Z"/>
    <path class="cls-4" d="m197.45,14.44v-1.22h-2.5v-1.9h1.83v-1.22h-1.83v-1.66h2.4v-1.22h-3.78v7.22h3.88Zm-10.4,0v-5.68h.02l1.47,5.68h1.04l1.47-5.68h.02v5.68h1.18v-7.22h-1.93l-1.25,4.74h-.02l-1.25-4.74h-1.93v7.22h1.18Zm-2.58-7.22h-1.38v7.22h1.38v-7.22Zm-6.88,0v1.22h1.61v6h1.38v-6h1.61v-1.22h-4.6Zm-7.78,0v1.22h1.61v6h1.38v-6h1.61v-1.22h-4.6Zm-4.35,7.22v-4.66h.02l2.11,4.66h1.32v-7.22h-1.26v4.28h-.02l-1.92-4.28h-1.51v7.22h1.26Zm-2.46,0v-1.22h-2.5v-1.9h1.83v-1.22h-1.83v-1.66h2.4v-1.22h-3.78v7.22h3.88Zm-10.4,0v-5.68h.02l1.47,5.68h1.04l1.47-5.68h.02v5.68h1.18v-7.22h-1.93l-1.25,4.74h-.02l-1.25-4.74h-1.93v7.22h1.18Zm-5.36-6.08h.74c.68,0,1.02.34,1.02,1.02s-.34,1.02-1.02,1.02h-.74v-2.04Zm0,6.08v-2.9h.61c1.7,0,2.53-.8,2.53-2.16s-.83-2.16-2.53-2.16h-1.99v7.22h1.38Zm-5.76-5.08c0-.8.35-1.02.9-1.02s.9.22.9,1.02v2.94c0,.8-.35,1.02-.9,1.02s-.9-.22-.9-1.02v-2.94Zm-1.38,2.76c0,1.78.94,2.42,2.28,2.42s2.28-.64,2.28-2.42v-2.58c0-1.78-.94-2.42-2.28-2.42s-2.28.64-2.28,2.42v2.58Zm-.72,2.32v-1.22h-2.22v-6h-1.38v7.22h3.6Zm-4.72,0v-1.22h-2.5v-1.9h1.83v-1.22h-1.83v-1.66h2.4v-1.22h-3.78v7.22h3.88Zm-8.06,0h1.57l1.84-7.22h-1.35l-1.26,5.16h-.02l-1.27-5.16h-1.36l1.85,7.22Zm-2.5,0v-1.22h-2.5v-1.9h1.83v-1.22h-1.83v-1.66h2.4v-1.22h-3.78v7.22h3.88Zm-8.06-6h.48c.86,0,1.2.42,1.2,1.44v1.9c0,1.08-.44,1.44-1.2,1.44h-.48v-4.78Zm-1.38,6h1.92c1.58,0,2.46-.68,2.52-2.5v-2.22c-.06-1.82-.94-2.5-2.52-2.5h-1.92v7.22Z"/>
    <path class="cls-4" d="m79.02,26.55c.48.64,1.27.99,2.08.99.94,0,1.82-.51,1.82-1.52,0-1.94-3.02-1.36-3.02-2.49,0-.46.33-.77.94-.77.56,0,.94.24,1.34.73l.5-.44c-.35-.53-1.1-.9-1.78-.91-1,0-1.69.5-1.72,1.4-.06,1.9,3.02,1.2,3.02,2.52,0,.44-.34.86-1.12.86-.65,0-1.15-.31-1.49-.8l-.57.43Zm-4.91-4.31v5.2h.72v-3.89c.33-.35.95-.79,1.49-.79s.85.23.85.92v3.76h.72v-3.78c0-1.12-.73-1.52-1.5-1.52-.59,0-1.13.34-1.54.8h-.02v-.7h-.72Zm-1.26,2.6c0-1.5-.71-2.7-2.13-2.7s-2.13,1.2-2.13,2.7.71,2.7,2.13,2.7,2.13-1.2,2.13-2.7m-.72,0c0,1.34-.55,2.08-1.41,2.08s-1.41-.74-1.41-2.08.55-2.08,1.41-2.08,1.41.74,1.41,2.08m-6.54,2.6h.72v-2.88c.34-1.07.81-1.66,1.71-1.68v-.72c-.86,0-1.29.4-1.69,1.11h-.02v-1.03h-.72v5.2Zm-1.27-3.89c-.33-.81-.83-1.41-1.9-1.41-1.3,0-2.13,1.02-2.13,2.7s.83,2.7,2.13,2.7c1.03,0,1.49-.44,2.01-1.32l-.58-.26c-.4.74-.77.96-1.43.96-.89,0-1.41-.76-1.41-2.08s.52-2.08,1.41-2.08c.62,0,1.03.4,1.23,1.03l.67-.24Zm-6.18-2.57h.72v-.86h-.72v.86Zm0,6.46h.72v-5.2h-.72v5.2Zm-7.82,0v-3.88c.39-.38.81-.8,1.45-.8.46,0,.81.26.81.96v3.72h.72v-3.88c.39-.38.81-.8,1.45-.8.46,0,.81.26.81.96v3.72h.72v-3.72c0-1.29-.74-1.58-1.43-1.58-.61,0-1.19.33-1.65.82-.19-.48-.66-.82-1.33-.82-.5,0-1.07.26-1.51.75l-.04.04v-.69h-.72v5.2h.72Z"/>
    <path class="cls-4" d="m169.3,26.55c.48.64,1.27.99,2.08.99.94,0,1.82-.51,1.82-1.52,0-1.94-3.02-1.36-3.02-2.49,0-.46.33-.77.94-.77.56,0,.94.24,1.34.73l.5-.44c-.35-.53-1.1-.9-1.78-.91-1,0-1.69.5-1.72,1.4-.06,1.9,3.02,1.2,3.02,2.52,0,.44-.34.86-1.12.86-.65,0-1.15-.31-1.49-.8l-.57.43Zm-4.1-2.19c.06-.96.53-1.6,1.4-1.6.78,0,1.24.64,1.24,1.6h-2.64Zm2.96,1.68c-.3.54-.8.88-1.44.88-.86,0-1.54-.8-1.54-1.94h3.38v-.48c0-1.66-.9-2.36-1.98-2.36-1.28,0-2.12,1.02-2.12,2.7,0,1.9,1.1,2.7,2.26,2.7s1.66-.62,2-1.21l-.56-.29Zm-7.25-3.8v.62h.85v3.82c0,.66.33.86,1.11.86.42,0,.71-.04.84-.08v-.59c-.19.03-.4.05-.64.05-.42,0-.59-.12-.59-.36v-3.7h1.2v-.62h-1.2v-1.71h-.72v1.71h-.85Zm-1.07,5.2v-5.2h-.72v3.89c-.33.35-.95.79-1.49.79s-.85-.23-.85-.92v-3.76h-.72v3.78c0,1.12.73,1.52,1.5,1.52.59,0,1.13-.34,1.54-.8h.02v.7h.72Zm-9.34-5.2v5.2h.72v-3.89c.33-.35.95-.79,1.49-.79s.85.23.85.92v3.76h.72v-3.78c0-1.12-.73-1.52-1.5-1.52-.59,0-1.13.34-1.54.8h-.02v-.7h-.72Zm-2.64-1.26h.72v-.86h-.72v.86Zm0,6.46h.72v-5.2h-.72v5.2Zm-7.82,0v-3.88c.39-.38.81-.8,1.45-.8.46,0,.81.26.81.96v3.72h.72v-3.88c.39-.38.81-.8,1.45-.8.46,0,.81.26.81.96v3.72h.72v-3.72c0-1.29-.74-1.58-1.43-1.58-.61,0-1.19.33-1.65.82-.19-.48-.66-.82-1.33-.82-.5,0-1.07.26-1.51.75l-.04.04v-.69h-.72v5.2h.72Z"/>
    <path class="cls-4" d="m74.82,41.58c0-.99.15-2.79,1.48-2.79s1.48,1.81,1.48,2.79-.15,2.8-1.48,2.8-1.48-1.81-1.48-2.8m-.8,0c0,1.53.43,3.48,2.28,3.48s2.28-1.95,2.28-3.48-.43-3.48-2.28-3.48-2.28,1.95-2.28,3.48m-2.46,1.08h-2.17l2.15-3.52h.02v3.52Zm.8-4.45h-.98l-2.67,4.31v.88h2.85v1.54h.8v-1.54h.97v-.74h-.97v-4.45Zm-3.98,4.11h-4.75v.68h4.75v-.68Zm-5.53-4.11h-3.53l-.07,3.5c.4-.24.91-.42,1.37-.42.94,0,1.66.54,1.66,1.53,0,.93-.64,1.55-1.45,1.55-.57,0-1.03-.34-1.26-.85l-.8.3c.36.74.97,1.23,1.99,1.23,1.31,0,2.31-.89,2.31-2.23,0-1.26-.86-2.21-2.15-2.21-.28,0-.61.04-.86.16l.03-1.82h2.75v-.74Zm-9.31,6.73h4.33v-.74h-3.43v-.02l2.07-1.95c.68-.64,1.31-1.24,1.31-2.31,0-1.2-.94-1.83-2.05-1.83s-1.93.58-2.11,1.68l.86.08c.12-.65.6-1.07,1.27-1.07s1.23.44,1.23,1.14c0,.66-.31,1.02-.95,1.64l-2.54,2.47v.91Z"/>
    <path class="cls-4" d="m162.88,38.21h-3.53l-.07,3.5c.4-.24.91-.42,1.37-.42.94,0,1.66.54,1.66,1.53,0,.93-.64,1.55-1.45,1.55-.57,0-1.03-.34-1.26-.85l-.8.3c.36.74.97,1.23,1.99,1.23,1.31,0,2.31-.89,2.31-2.23,0-1.27-.86-2.21-2.15-2.21-.28,0-.61.04-.86.16l.03-1.82h2.75v-.74Zm-4.5,4.11h-4.75v.68h4.75v-.68Zm-6.85.34h-2.17l2.15-3.52h.02v3.52Zm.8-4.45h-.98l-2.67,4.31v.88h2.85v1.54h.8v-1.54h.97v-.74h-.97v-4.45Z"/>
    <path class="cls-4" d="m78.17,50.21h-3.53l-.07,3.5c.4-.24.91-.42,1.37-.42.94,0,1.66.54,1.66,1.53,0,.93-.64,1.55-1.45,1.55-.57,0-1.03-.34-1.26-.85l-.8.3c.36.74.97,1.23,1.99,1.23,1.31,0,2.31-.89,2.31-2.23,0-1.27-.86-2.21-2.15-2.21-.28,0-.61.04-.86.16l.03-1.82h2.75v-.74Zm-5.23,0h-4.11v.74h3.25l-2.74,5.99h.9l2.69-5.99v-.74Zm-4.56,4.11h-4.75v.68h4.75v-.68Zm-5.53-4.11h-3.53l-.07,3.5c.4-.24.91-.42,1.37-.42.94,0,1.66.54,1.66,1.53,0,.93-.64,1.55-1.45,1.55-.57,0-1.03-.34-1.26-.85l-.8.3c.36.74.97,1.23,1.99,1.23,1.31,0,2.31-.89,2.31-2.23,0-1.27-.86-2.21-2.15-2.21-.28,0-.61.04-.86.16l.03-1.82h2.75v-.74Zm-6.6,4.45h-2.17l2.15-3.52h.02v3.52Zm.8-4.45h-.98l-2.67,4.31v.88h2.85v1.54h.8v-1.54h.97v-.74h-.97v-4.45Z"/>
    <path class="cls-4" d="m162.94,50.21h-4.11v.74h3.25l-2.74,5.99h.9l2.69-5.99v-.74Zm-4.56,4.11h-4.75v.68h4.75v-.68Zm-5.53-4.11h-3.53l-.07,3.5c.4-.24.91-.42,1.37-.42.94,0,1.66.54,1.66,1.53,0,.93-.64,1.55-1.45,1.55-.57,0-1.03-.34-1.26-.85l-.8.3c.36.74.97,1.23,1.99,1.23,1.31,0,2.31-.89,2.31-2.23,0-1.27-.86-2.21-2.15-2.21-.27,0-.61.04-.86.16l.03-1.82h2.75v-.74Z"/>
    <path class="cls-4" d="m77.46,65.58c0-.99.15-2.79,1.48-2.79s1.48,1.81,1.48,2.79-.15,2.79-1.48,2.79-1.48-1.81-1.48-2.79m-.8,0c0,1.53.43,3.48,2.28,3.48s2.28-1.95,2.28-3.48-.43-3.48-2.28-3.48-2.28,1.95-2.28,3.48m-2.22-3.37h-.69l-1.81,1.46.48.58,1.21-1.02h.02v5.7h.8v-6.73Zm-5.28,0h-.69l-1.81,1.46.48.58,1.21-1.02h.02v5.7h.8v-6.73Zm-3.42,4.11h-4.75v.68h4.75v-.68Zm-8.88-.74c0-.99.15-2.79,1.48-2.79s1.48,1.81,1.48,2.79-.15,2.79-1.48,2.79-1.48-1.81-1.48-2.79m-.8,0c0,1.53.43,3.48,2.28,3.48s2.28-1.95,2.28-3.48-.43-3.48-2.28-3.48-2.28,1.95-2.28,3.48m-4.35,1.45c0-.79.6-1.34,1.35-1.34s1.35.55,1.35,1.34-.6,1.34-1.35,1.34-1.35-.55-1.35-1.34m.23-3.14c0-.64.46-1.11,1.12-1.11s1.12.47,1.12,1.11-.46,1.11-1.12,1.11-1.12-.47-1.12-1.11m-.8-.04c0,.64.42,1.3,1.1,1.48v.02c-.81.17-1.33.88-1.33,1.73,0,1.23.95,1.97,2.15,1.97s2.15-.74,2.15-1.97c0-.85-.52-1.56-1.33-1.73v-.02c.68-.18,1.1-.85,1.1-1.48,0-1.05-.84-1.76-1.92-1.76s-1.92.7-1.92,1.76"/>
    <path class="cls-4" d="m162.17,65.57c0-.99.15-2.8,1.48-2.8s1.48,1.81,1.48,2.8-.15,2.79-1.48,2.79-1.48-1.81-1.48-2.79m-.8,0c0,1.53.43,3.48,2.28,3.48s2.28-1.95,2.28-3.48-.43-3.48-2.28-3.48-2.28,1.95-2.28,3.48m-2.22-3.37h-.69l-1.81,1.46.48.58,1.21-1.02h.02v5.7h.8v-6.73Zm-3.42,4.11h-4.75v.68h4.75v-.68Zm-5.47-4.11h-4.11v.74h3.25l-2.74,5.99h.9l2.69-5.99v-.74Z"/>
    <path class="cls-4" d="m80.1,77.57c0-.99.15-2.8,1.48-2.8s1.48,1.81,1.48,2.8-.15,2.79-1.48,2.79-1.48-1.81-1.48-2.79m-.8,0c0,1.53.43,3.48,2.28,3.48s2.28-1.95,2.28-3.48-.43-3.48-2.28-3.48-2.28,1.95-2.28,3.48m-1.14-3.37h-3.53l-.07,3.5c.4-.24.91-.42,1.37-.42.94,0,1.66.54,1.66,1.53,0,.93-.64,1.55-1.44,1.55-.57,0-1.03-.34-1.26-.85l-.8.3c.36.74.97,1.23,1.99,1.23,1.31,0,2.31-.89,2.31-2.23,0-1.27-.85-2.21-2.15-2.21-.28,0-.61.04-.87.16l.03-1.82h2.75v-.74Zm-6.37,0h-.69l-1.81,1.46.48.58,1.21-1.02h.02v5.7h.8v-6.73Zm-3.42,4.11h-4.75v.68h4.75v-.68Zm-5.53-4.11h-3.53l-.07,3.5c.4-.24.91-.42,1.37-.42.94,0,1.66.54,1.66,1.53,0,.93-.64,1.55-1.44,1.55-.57,0-1.03-.34-1.26-.85l-.8.3c.36.74.97,1.23,1.99,1.23,1.31,0,2.31-.89,2.31-2.23,0-1.27-.85-2.21-2.15-2.21-.28,0-.61.04-.87.16l.03-1.82h2.75v-.74Zm-6.37,0h-.69l-1.81,1.46.48.58,1.21-1.02h.02v5.7h.8v-6.73Zm-5.28,0h-.69l-1.81,1.46.47.58,1.21-1.02h.02v5.7h.8v-6.73Z"/>
    <path class="cls-4" d="m168.16,74.21h-3.53l-.07,3.5c.4-.24.91-.42,1.37-.42.94,0,1.66.54,1.66,1.53,0,.93-.64,1.55-1.45,1.55-.57,0-1.03-.34-1.26-.85l-.8.3c.36.74.97,1.23,1.99,1.23,1.31,0,2.31-.89,2.31-2.23,0-1.27-.86-2.21-2.15-2.21-.28,0-.61.04-.86.16l.03-1.82h2.75v-.74Zm-6.37,0h-.69l-1.81,1.46.47.58,1.21-1.02h.02v5.7h.8v-6.73Zm-3.42,4.11h-4.75v.68h4.75v-.68Zm-8.88-.74c0-.99.15-2.8,1.48-2.8s1.48,1.81,1.48,2.8-.15,2.79-1.48,2.79-1.48-1.81-1.48-2.79m-.8,0c0,1.53.43,3.48,2.28,3.48s2.28-1.95,2.28-3.48-.43-3.48-2.28-3.48-2.28,1.95-2.28,3.48m-2.22-3.37h-.69l-1.81,1.46.47.58,1.21-1.02h.02v5.7h.8v-6.73Z"/>
    <path class="cls-4" d="m83.45,86.21h-3.53l-.07,3.5c.4-.24.91-.42,1.37-.42.94,0,1.66.54,1.66,1.53,0,.93-.64,1.55-1.45,1.55-.57,0-1.03-.34-1.26-.85l-.8.3c.36.74.97,1.23,1.99,1.23,1.31,0,2.31-.89,2.31-2.23,0-1.27-.86-2.21-2.15-2.21-.28,0-.61.04-.86.16l.03-1.82h2.75v-.74Zm-9.31,6.73h4.33v-.74h-3.43v-.02l2.07-1.95c.67-.64,1.31-1.24,1.31-2.31,0-1.2-.94-1.83-2.05-1.83s-1.93.58-2.11,1.68l.86.08c.12-.65.6-1.08,1.27-1.08s1.23.44,1.23,1.14c0,.66-.31,1.02-.95,1.63l-2.54,2.47v.91Zm-5.28,0h4.33v-.74h-3.43v-.02l2.07-1.95c.67-.64,1.31-1.24,1.31-2.31,0-1.2-.94-1.83-2.05-1.83s-1.93.58-2.11,1.68l.87.08c.12-.65.6-1.08,1.27-1.08s1.23.44,1.23,1.14c0,.66-.31,1.02-.95,1.63l-2.54,2.47v.91Zm-.47-2.62h-4.75v.68h4.75v-.68Zm-8.88-.74c0-.99.15-2.8,1.48-2.8s1.48,1.81,1.48,2.8-.15,2.79-1.48,2.79-1.48-1.81-1.48-2.79m-.8,0c0,1.53.43,3.48,2.28,3.48s2.28-1.95,2.28-3.48-.43-3.48-2.28-3.48-2.28,1.95-2.28,3.48m-3-.06c.81,0,1.45.55,1.45,1.43s-.65,1.43-1.45,1.43-1.46-.55-1.46-1.43.65-1.43,1.46-1.43m1.1-3.31h-.93l-1.79,2.84c-.36.58-.64,1.11-.64,1.89,0,1.31.98,2.11,2.25,2.11s2.25-.8,2.25-2.11-.86-2.11-2.03-2.11c-.28,0-.66.06-.9.2l-.02-.02,1.81-2.8Zm-5.6,0h-.69l-1.81,1.46.47.58,1.21-1.02h.02v5.7h.8v-6.73Z"/>
    <path class="cls-4" d="m168.22,86.21h-4.11v.74h3.25l-2.74,5.99h.9l2.69-5.99v-.74Zm-6.42,0h-.69l-1.81,1.46.47.58,1.21-1.02h.02v5.7h.8v-6.73Zm-3.42,4.11h-4.75v.68h4.75v-.68Zm-5.53-4.11h-3.53l-.07,3.5c.4-.24.91-.42,1.37-.42.94,0,1.66.54,1.66,1.53,0,.93-.64,1.55-1.45,1.55-.57,0-1.03-.34-1.26-.85l-.8.3c.36.74.97,1.23,1.99,1.23,1.31,0,2.31-.89,2.31-2.23,0-1.27-.86-2.21-2.15-2.21-.28,0-.61.04-.86.16l.03-1.82h2.75v-.74Zm-6.37,0h-.69l-1.81,1.46.47.58,1.21-1.02h.02v5.7h.8v-6.73Z"/>
    <polyline class="cls-2" points="0 0 227.25 0 227.25 1 0 1"/>
    <polyline class="cls-1" points="0 31.64 227.25 31.64 227.25 32.64 0 32.64"/>
  </g>
</svg>