<?xml version="1.0" encoding="UTF-8"?>
<svg id="_图层_2" data-name="图层 2" xmlns="http://www.w3.org/2000/svg" viewBox="0 0 229.25 120.88">
  <defs>
    <style>
      .cls-1 {
        fill: #c9c7c1;
      }

      .cls-2 {
        fill: #0062b1;
      }

      .cls-3 {
        fill: #efefef;
      }

      .cls-4 {
        fill: #231815;
      }
    </style>
  </defs>
  <g id="_图层_1-2" data-name="图层 1">
    <rect class="cls-3" x="1" y="57.82" width="227.25" height="10.62"/>
    <rect class="cls-3" x="1" y="81.76" width="227.25" height="10.62"/>
    <path class="cls-4" d="m51.67,9.27c-.22-.92-.89-1.58-2-1.58-1.29,0-1.95.7-1.95,1.82,0,1.82,2.77,1.84,2.77,3.06,0,.49-.33.78-.76.78-.37,0-.82-.28-.96-1.06l-1.22.26c.33,1.28,1.12,1.83,2.12,1.83,1.3,0,2.07-.74,2.07-1.85,0-2.03-2.77-2.11-2.77-3.09,0-.44.24-.71.68-.71s.7.26.91.87l1.12-.33Zm-5,0c-.22-.92-.89-1.58-2-1.58-1.29,0-1.95.7-1.95,1.82,0,1.82,2.77,1.84,2.77,3.06,0,.49-.33.78-.76.78-.37,0-.82-.28-.96-1.06l-1.22.26c.33,1.28,1.12,1.83,2.12,1.83,1.31,0,2.07-.74,2.07-1.85,0-2.03-2.77-2.11-2.77-3.09,0-.44.24-.71.69-.71s.7.26.91.87l1.12-.33Zm-4.87,5.01v-1.1h-2.25v-1.71h1.65v-1.1h-1.65v-1.49h2.16v-1.1h-3.4v6.5h3.49Zm-7.79,0v-4.19h.02l1.9,4.19h1.19v-6.5h-1.13v3.85h-.02l-1.73-3.85h-1.36v6.5h1.13Zm-4.97,0v-1.99l.49-.74,1.3,2.73h1.39l-1.86-3.88,1.67-2.62h-1.36l-1.61,2.68h-.02v-2.68h-1.24v6.5h1.24Zm-5.11-4.57c0-.72.32-.92.81-.92s.81.2.81.92v.18h1.24v-.02c0-1.6-.85-2.18-2.05-2.18s-2.05.58-2.05,2.18v2.32c0,1.6.85,2.18,2.05,2.18s2.05-.58,2.05-2.18v-.27h-1.24v.43c0,.72-.31.92-.81.92s-.81-.2-.81-.92v-2.65Zm-2.32-1.93h-1.24v6.5h1.24v-6.5Zm-5.5,6.5v-2.81h1.76v2.81h1.24v-6.5h-1.24v2.59h-1.76v-2.59h-1.24v6.5h1.24Zm-6.19-6.5v1.1h1.45v5.4h1.24v-5.4h1.45v-1.1h-4.14Z"/>
    <path class="cls-4" d="m118.31,14.28v-1.1h-2.25v-1.71h1.65v-1.1h-1.65v-1.49h2.16v-1.1h-3.4v6.5h3.49Zm-9.36,0v-5.11h.02l1.32,5.11h.94l1.32-5.11h.02v5.11h1.06v-6.5h-1.74l-1.13,4.27h-.02l-1.12-4.27h-1.74v6.5h1.06Zm-2.32-6.5h-1.24v6.5h1.24v-6.5Zm-6.19,0v1.1h1.45v5.4h1.24v-5.4h1.45v-1.1h-4.14Zm-5.88,1.03h.49c.59,0,.86.31.86.78,0,.44-.37.76-.93.76h-.43v-1.55Zm0,2.58h.43c.65,0,1.08.31,1.08.93,0,.57-.34.95-.99.95h-.52v-1.87Zm-1.24,2.9h1.82c1.32,0,2.18-.58,2.18-1.87,0-.81-.27-1.17-.95-1.6.52-.32.8-.78.8-1.35,0-1.12-.76-1.68-2.1-1.68h-1.75v6.5Zm-1.01,0v-1.1h-2.25v-1.71h1.65v-1.1h-1.65v-1.49h2.16v-1.1h-3.4v6.5h3.49Zm-7.18-5.47h.67c.61,0,.92.31.92.92s-.31.92-.92.92h-.67v-1.84Zm0,5.47v-2.61h.55c1.53,0,2.28-.72,2.28-1.94s-.75-1.95-2.28-1.95h-1.79v6.5h1.24Z"/>
    <path class="cls-4" d="m199.31,14.28v-1.1h-2.25v-1.71h1.65v-1.1h-1.65v-1.49h2.16v-1.1h-3.4v6.5h3.49Zm-9.36,0v-5.11h.02l1.32,5.11h.94l1.32-5.11h.02v5.11h1.06v-6.5h-1.74l-1.13,4.27h-.02l-1.12-4.27h-1.74v6.5h1.06Zm-2.32-6.5h-1.24v6.5h1.24v-6.5Zm-6.19,0v1.1h1.45v5.4h1.24v-5.4h1.45v-1.1h-4.14Zm-5.89,1.03h.49c.59,0,.86.31.86.78,0,.44-.37.76-.93.76h-.43v-1.55Zm0,2.58h.43c.65,0,1.08.31,1.08.93,0,.57-.34.95-.99.95h-.52v-1.87Zm-1.24,2.9h1.82c1.32,0,2.18-.58,2.18-1.87,0-.81-.27-1.17-.95-1.6.52-.32.8-.78.8-1.35,0-1.12-.77-1.68-2.1-1.68h-1.75v6.5Zm-1.01,0v-1.1h-2.25v-1.71h1.65v-1.1h-1.65v-1.49h2.16v-1.1h-3.4v6.5h3.49Zm-7.18-5.47h.67c.61,0,.92.31.92.92s-.31.92-.92.92h-.67v-1.84Zm0,5.47v-2.61h.55c1.53,0,2.28-.72,2.28-1.94s-.75-1.95-2.28-1.95h-1.79v6.5h1.24Z"/>
    <path class="cls-4" d="m113.34,21.38l.02.06-.94,1.03.47.35.66-1.19h.07l.66,1.21.49-.38-.95-.95.03-.07,1.34-.28-.23-.6-1.19.62-.06-.05.16-1.34h-.6l.2,1.36-.05.04-1.23-.59-.16.59,1.33.21Zm-3.83,5.65c.8-1.06,1.23-2.33,1.23-3.65s-.44-2.61-1.26-3.69h-.67c.78,1.11,1.28,2.28,1.28,3.65,0,1.45-.43,2.55-1.29,3.7h.7Zm-2.17-2.83c-.2.79-.59,1.55-1.58,1.55-1.08,0-1.82-.85-1.82-2.73s.74-2.73,1.67-2.73,1.39.56,1.62,1.48l.67-.2c-.29-1.19-.99-1.89-2.2-1.89-1.57,0-2.49,1.22-2.49,3.34,0,2.28,1.03,3.34,2.49,3.34,1.33,0,2-.83,2.29-2.04l-.65-.13Zm-7.09-3.06c0,.91.49,1.46,1.24,1.46s1.24-.55,1.24-1.46-.48-1.46-1.24-1.46-1.24.55-1.24,1.46m.52-.02c0-.62.27-1.01.72-1.01.48,0,.72.39.72,1.03s-.24,1.03-.72,1.03-.72-.37-.72-1.05m-1.62-1.35h-3.33l-.29,3.52.57.13c.26-.6.74-.98,1.37-.98.9,0,1.46.68,1.46,1.64,0,1.23-.69,1.73-1.55,1.73-.68,0-1.19-.4-1.5-.99l-.59.31c.41.63.96,1.24,2.07,1.24,1.66,0,2.25-1.3,2.25-2.29,0-1.46-1-2.2-2.08-2.2-.46,0-.91.14-1.33.53l.16-2.08h2.79v-.56Zm-5.73,4.52c0,.88-.55,1.51-1.47,1.51s-1.53-.76-1.57-1.67c.05-.74.88-1.39,1.67-1.39.68,0,1.36.54,1.36,1.55m.33-4.23c-.19-.18-.7-.38-1.4-.38-1.75,0-2.66,1.62-2.66,3.67,0,2.21.97,3.01,2.32,3.01,1.08,0,2.1-.7,2.1-2.09s-.98-2.09-1.95-2.09c-.9,0-1.39.36-1.78.77.02-1.87.97-2.72,2-2.72.5,0,.81.14,1.11.37l.28-.55Zm-5.78-.38c-.8,1.06-1.23,2.33-1.23,3.66s.44,2.61,1.26,3.69h.67c-.78-1.11-1.28-2.28-1.28-3.65,0-1.45.43-2.55,1.29-3.7h-.7Z"/>
    <path class="cls-4" d="m192.77,27.04c.8-1.06,1.23-2.33,1.23-3.65s-.44-2.61-1.26-3.69h-.67c.78,1.11,1.28,2.28,1.28,3.65,0,1.45-.43,2.55-1.29,3.7h.7Zm-2.17-2.83c-.2.79-.59,1.55-1.58,1.55-1.08,0-1.82-.85-1.82-2.73s.74-2.73,1.67-2.73,1.39.56,1.62,1.48l.67-.2c-.29-1.19-.99-1.89-2.2-1.89-1.57,0-2.48,1.22-2.48,3.34,0,2.28,1.03,3.34,2.48,3.34,1.33,0,2-.83,2.29-2.04l-.65-.13Zm-7.09-3.06c0,.91.49,1.46,1.24,1.46s1.24-.55,1.24-1.46-.48-1.46-1.24-1.46-1.24.55-1.24,1.46m.52-.02c0-.62.27-1.01.72-1.01.48,0,.72.39.72,1.03s-.24,1.03-.72,1.03-.72-.37-.72-1.05m-1.62-1.35h-3.33l-.29,3.52.57.13c.26-.6.74-.98,1.37-.98.9,0,1.46.68,1.46,1.64,0,1.23-.69,1.73-1.55,1.73-.68,0-1.19-.4-1.5-.99l-.58.31c.4.63.96,1.24,2.07,1.24,1.66,0,2.25-1.3,2.25-2.29,0-1.46-1-2.2-2.08-2.2-.46,0-.91.14-1.33.53l.16-2.08h2.79v-.56Zm-8.78,1.98c0-.88.55-1.51,1.47-1.51s1.53.72,1.55,1.85c-.25.68-.86,1.21-1.66,1.21-.68,0-1.36-.54-1.36-1.55m-.33,4.23c.19.18.7.38,1.4.38,1.75,0,2.66-1.62,2.66-3.67,0-2.21-.97-3.01-2.32-3.01-1.08,0-2.1.7-2.1,2.09s.98,2.09,1.95,2.09c.9,0,1.39-.36,1.78-.77-.08,1.8-.97,2.72-2,2.72-.5,0-.81-.13-1.11-.37l-.28.55Zm-2.06-6.3c-.8,1.06-1.23,2.33-1.23,3.66s.44,2.61,1.26,3.69h.67c-.78-1.11-1.28-2.28-1.28-3.65,0-1.45.43-2.55,1.29-3.7h-.7Z"/>
    <path class="cls-4" d="m42.72,37.48c.43.58,1.14.89,1.87.89.85,0,1.64-.46,1.64-1.37,0-1.75-2.72-1.23-2.72-2.24,0-.41.3-.69.85-.69.5,0,.85.22,1.21.66l.45-.4c-.32-.48-.99-.81-1.6-.82-.9,0-1.52.45-1.55,1.26-.05,1.71,2.72,1.08,2.72,2.27,0,.4-.31.77-1.01.77-.58,0-1.04-.28-1.34-.72l-.51.39Zm-4.42-3.88v4.68h.65v-3.5c.3-.32.85-.71,1.34-.71s.77.21.77.83v3.38h.65v-3.4c0-1.01-.66-1.37-1.35-1.37-.53,0-1.02.31-1.39.72h-.02v-.63h-.65Zm-1.13,2.34c0-1.35-.64-2.43-1.92-2.43s-1.92,1.08-1.92,2.43.64,2.43,1.92,2.43,1.92-1.08,1.92-2.43m-.65,0c0,1.21-.5,1.87-1.27,1.87s-1.27-.67-1.27-1.87.5-1.87,1.27-1.87,1.27.67,1.27,1.87m-5.89,2.34h.65v-2.59c.31-.96.73-1.49,1.54-1.51v-.65c-.77,0-1.16.36-1.52,1h-.02v-.93h-.65v4.68Zm-1.14-3.5c-.3-.73-.75-1.27-1.71-1.27-1.17,0-1.92.92-1.92,2.43s.75,2.43,1.92,2.43c.93,0,1.34-.4,1.81-1.19l-.52-.23c-.36.67-.69.86-1.29.86-.8,0-1.27-.68-1.27-1.87s.47-1.87,1.27-1.87c.56,0,.93.36,1.11.93l.6-.22Zm-5.56-2.31h.65v-.77h-.65v.77Zm0,5.82h.65v-4.68h-.65v4.68Zm-7.04,0v-3.49c.35-.34.73-.72,1.3-.72.42,0,.73.23.73.86v3.35h.65v-3.49c.35-.34.73-.72,1.31-.72.41,0,.73.23.73.86v3.35h.65v-3.35c0-1.16-.67-1.42-1.29-1.42-.55,0-1.07.3-1.49.74-.17-.43-.59-.74-1.2-.74-.45,0-.96.23-1.36.68l-.04.04v-.62h-.65v4.68h.65Z"/>
    <path class="cls-4" d="m112.97,37.48c.43.58,1.14.89,1.87.89.85,0,1.64-.46,1.64-1.37,0-1.75-2.72-1.23-2.72-2.24,0-.41.3-.69.85-.69.5,0,.85.22,1.21.66l.45-.4c-.32-.48-.99-.81-1.6-.82-.9,0-1.52.45-1.55,1.26-.05,1.71,2.72,1.08,2.72,2.27,0,.4-.31.77-1.01.77-.58,0-1.03-.28-1.34-.72l-.51.39Zm-3.69-1.97c.05-.86.48-1.44,1.26-1.44.7,0,1.12.58,1.12,1.44h-2.38Zm2.66,1.51c-.27.49-.72.79-1.3.79-.77,0-1.39-.72-1.39-1.75h3.04v-.43c0-1.49-.81-2.12-1.78-2.12-1.15,0-1.91.92-1.91,2.43,0,1.71.99,2.43,2.03,2.43s1.49-.56,1.8-1.09l-.5-.26Zm-6.53-3.42v.56h.76v3.44c0,.59.3.77,1,.77.38,0,.64-.04.76-.07v-.53c-.17.03-.36.04-.58.04-.38,0-.53-.11-.53-.32v-3.33h1.08v-.56h-1.08v-1.54h-.65v1.54h-.76Zm-.96,4.68v-4.68h-.65v3.5c-.3.32-.86.71-1.34.71s-.76-.21-.76-.83v-3.38h-.65v3.4c0,1.01.66,1.37,1.35,1.37.53,0,1.02-.31,1.39-.72h.02v.63h.65Zm-8.41-4.68v4.68h.65v-3.5c.3-.32.85-.71,1.34-.71s.77.21.77.83v3.38h.65v-3.4c0-1.01-.66-1.37-1.35-1.37-.53,0-1.02.31-1.39.72h-.02v-.63h-.65Zm-2.38-1.14h.65v-.77h-.65v.77Zm0,5.82h.65v-4.68h-.65v4.68Zm-7.04,0v-3.49c.35-.34.73-.72,1.3-.72.41,0,.73.23.73.86v3.35h.65v-3.49c.35-.34.73-.72,1.3-.72.41,0,.73.23.73.86v3.35h.65v-3.35c0-1.16-.67-1.42-1.29-1.42-.55,0-1.07.3-1.49.74-.17-.43-.59-.74-1.2-.74-.45,0-.96.23-1.36.68l-.04.04v-.62h-.65v4.68h.65Z"/>
    <path class="cls-4" d="m193.97,37.48c.43.58,1.14.89,1.87.89.85,0,1.64-.46,1.64-1.37,0-1.75-2.72-1.23-2.72-2.24,0-.41.3-.69.85-.69.5,0,.85.22,1.21.66l.45-.4c-.32-.48-.99-.81-1.6-.82-.9,0-1.52.45-1.55,1.26-.05,1.71,2.72,1.08,2.72,2.27,0,.4-.31.77-1.01.77-.58,0-1.04-.28-1.34-.72l-.51.39Zm-3.69-1.97c.05-.86.48-1.44,1.26-1.44.7,0,1.12.58,1.12,1.44h-2.38Zm2.67,1.51c-.27.49-.72.79-1.3.79-.77,0-1.39-.72-1.39-1.75h3.04v-.43c0-1.49-.81-2.12-1.78-2.12-1.15,0-1.91.92-1.91,2.43,0,1.71.99,2.43,2.03,2.43s1.49-.56,1.8-1.09l-.5-.26Zm-6.53-3.42v.56h.76v3.44c0,.59.3.77,1,.77.38,0,.64-.04.76-.07v-.53c-.17.03-.36.04-.58.04-.38,0-.53-.11-.53-.32v-3.33h1.08v-.56h-1.08v-1.54h-.65v1.54h-.76Zm-.96,4.68v-4.68h-.65v3.5c-.3.32-.86.71-1.34.71s-.77-.21-.77-.83v-3.38h-.65v3.4c0,1.01.66,1.37,1.35,1.37.53,0,1.02-.31,1.39-.72h.02v.63h.65Zm-8.41-4.68v4.68h.65v-3.5c.3-.32.86-.71,1.34-.71s.77.21.77.83v3.38h.65v-3.4c0-1.01-.66-1.37-1.35-1.37-.53,0-1.02.31-1.39.72h-.02v-.63h-.65Zm-2.38-1.14h.65v-.77h-.65v.77Zm0,5.82h.65v-4.68h-.65v4.68Zm-7.04,0v-3.49c.35-.34.73-.72,1.3-.72.41,0,.73.23.73.86v3.35h.65v-3.49c.35-.34.73-.72,1.3-.72.41,0,.73.23.73.86v3.35h.65v-3.35c0-1.16-.67-1.42-1.29-1.42-.55,0-1.07.3-1.49.74-.17-.43-.59-.74-1.2-.74-.45,0-.96.23-1.36.68l-.04.04v-.62h-.65v4.68h.65Z"/>
    <path class="cls-4" d="m39.82,51.42c0-.99.15-2.79,1.48-2.79s1.48,1.81,1.48,2.79-.15,2.8-1.48,2.8-1.48-1.81-1.48-2.8m-.8,0c0,1.53.43,3.48,2.28,3.48s2.28-1.95,2.28-3.48-.43-3.48-2.28-3.48-2.28,1.95-2.28,3.48m-2.46,1.08h-2.17l2.15-3.52h.02v3.52Zm.8-4.45h-.98l-2.67,4.31v.88h2.85v1.54h.8v-1.54h.97v-.74h-.97v-4.45Zm-3.98,4.11h-4.75v.68h4.75v-.68Zm-5.53-4.11h-3.53l-.07,3.5c.4-.24.91-.42,1.37-.42.94,0,1.66.54,1.66,1.53,0,.93-.64,1.55-1.44,1.55-.57,0-1.03-.34-1.26-.85l-.8.3c.36.74.97,1.23,1.99,1.23,1.31,0,2.31-.89,2.31-2.23,0-1.26-.85-2.21-2.15-2.21-.28,0-.61.04-.86.16l.03-1.82h2.75v-.74Zm-9.31,6.73h4.33v-.74h-3.43v-.02l2.07-1.95c.67-.64,1.31-1.24,1.31-2.31,0-1.2-.94-1.83-2.05-1.83s-1.93.58-2.11,1.68l.87.08c.12-.65.6-1.07,1.27-1.07s1.23.44,1.23,1.14c0,.66-.31,1.02-.95,1.64l-2.54,2.47v.91Z"/>
    <polygon class="cls-4" points="101.78 48.05 101.08 48.05 99.28 49.51 99.75 50.09 100.96 49.08 100.98 49.08 100.98 54.78 101.78 54.78 101.78 48.05"/>
    <path class="cls-4" d="m187.01,51.36c.81,0,1.45.55,1.45,1.43s-.65,1.43-1.45,1.43-1.45-.55-1.45-1.43.65-1.43,1.45-1.43m1.1-3.31h-.93l-1.79,2.84c-.36.58-.64,1.11-.64,1.89,0,1.31.98,2.11,2.25,2.11s2.25-.8,2.25-2.11-.87-2.11-2.04-2.11c-.27,0-.65.06-.9.2l-.02-.02,1.81-2.8Zm-3.74,4.11h-4.75v.68h4.75v-.68Zm-5.53-4.11h-3.53l-.07,3.5c.4-.24.91-.42,1.37-.42.94,0,1.66.54,1.66,1.53,0,.93-.64,1.55-1.45,1.55-.57,0-1.03-.34-1.25-.85l-.8.3c.36.74.97,1.23,1.99,1.23,1.31,0,2.31-.89,2.31-2.23,0-1.27-.86-2.21-2.15-2.21-.27,0-.61.04-.86.16l.03-1.82h2.75v-.74Z"/>
    <path class="cls-4" d="m39.82,63.41c0-.99.15-2.8,1.48-2.8s1.48,1.81,1.48,2.8-.15,2.79-1.48,2.79-1.48-1.81-1.48-2.79m-.8,0c0,1.53.43,3.48,2.28,3.48s2.28-1.95,2.28-3.48-.43-3.48-2.28-3.48-2.28,1.95-2.28,3.48m-4.35,1.45c0-.79.6-1.34,1.35-1.34s1.35.55,1.35,1.34-.6,1.34-1.35,1.34-1.35-.55-1.35-1.34m.23-3.14c0-.64.46-1.11,1.12-1.11s1.12.48,1.12,1.11-.46,1.11-1.12,1.11-1.12-.48-1.12-1.11m-.8-.04c0,.64.42,1.3,1.1,1.48v.02c-.81.17-1.33.88-1.33,1.73,0,1.23.95,1.97,2.15,1.97s2.15-.74,2.15-1.97c0-.85-.52-1.56-1.33-1.73v-.02c.68-.18,1.1-.85,1.1-1.48,0-1.06-.84-1.76-1.92-1.76s-1.92.7-1.92,1.76m-.72,2.46h-4.75v.68h4.75v-.68Zm-5.53-4.11h-3.53l-.07,3.5c.4-.24.91-.42,1.37-.42.94,0,1.66.54,1.66,1.53,0,.93-.64,1.55-1.44,1.55-.57,0-1.03-.34-1.25-.85l-.8.3c.36.74.97,1.23,1.99,1.23,1.31,0,2.31-.89,2.31-2.23,0-1.27-.86-2.21-2.15-2.21-.28,0-.61.04-.86.16l.03-1.82h2.75v-.74Zm-6.6,4.45h-2.17l2.15-3.52h.02v3.52Zm.8-4.45h-.98l-2.67,4.31v.88h2.85v1.54h.8v-1.54h.97v-.74h-.97v-4.45Z"/>
    <path class="cls-4" d="m103.85,66.78h4.34v-.74h-3.43v-.02l2.07-1.95c.67-.64,1.31-1.24,1.31-2.31,0-1.2-.94-1.83-2.05-1.83s-1.93.58-2.11,1.68l.86.08c.12-.65.6-1.08,1.27-1.08s1.23.44,1.23,1.14c0,.66-.31,1.02-.95,1.63l-2.54,2.47v.91Zm-.47-2.62h-4.75v.68h4.75v-.68Zm-6.61-4.11h-.69l-1.81,1.46.47.58,1.21-1.02h.02v5.7h.8v-6.73Z"/>
    <path class="cls-4" d="m188.93,60.05h-4.11v.74h3.25l-2.74,5.99h.9l2.69-5.99v-.74Zm-4.56,4.11h-4.75v.68h4.75v-.68Zm-7.39-.8c.81,0,1.46.55,1.46,1.43s-.65,1.43-1.46,1.43-1.45-.55-1.45-1.43.65-1.43,1.45-1.43m1.1-3.31h-.93l-1.79,2.84c-.36.58-.64,1.11-.64,1.89,0,1.31.98,2.11,2.25,2.11s2.25-.8,2.25-2.11-.87-2.11-2.03-2.11c-.28,0-.66.06-.9.2l-.02-.02,1.81-2.8Z"/>
    <path class="cls-4" d="m42.46,75.42c0-.99.15-2.79,1.48-2.79s1.48,1.81,1.48,2.79-.15,2.79-1.48,2.79-1.48-1.81-1.48-2.79m-.8,0c0,1.53.43,3.48,2.28,3.48s2.28-1.95,2.28-3.48-.43-3.48-2.28-3.48-2.28,1.95-2.28,3.48m-2.22-3.37h-.69l-1.81,1.46.47.58,1.21-1.02h.02v5.7h.8v-6.73Zm-5.28,0h-.69l-1.81,1.46.47.58,1.21-1.02h.02v5.7h.8v-6.73Zm-3.42,4.11h-4.75v.68h4.75v-.68Zm-5.53-4.11h-3.53l-.07,3.5c.4-.24.91-.42,1.37-.42.94,0,1.66.54,1.66,1.53,0,.93-.64,1.55-1.44,1.55-.57,0-1.03-.34-1.26-.85l-.8.31c.36.74.97,1.23,1.99,1.23,1.31,0,2.31-.89,2.31-2.23,0-1.26-.85-2.21-2.15-2.21-.28,0-.61.04-.87.16l.03-1.82h2.75v-.74Zm-8.49,4.82c0-.79.6-1.34,1.35-1.34s1.35.55,1.35,1.34-.6,1.34-1.35,1.34-1.35-.55-1.35-1.34m.23-3.14c0-.64.46-1.11,1.12-1.11s1.12.47,1.12,1.11-.46,1.11-1.12,1.11-1.12-.48-1.12-1.11m-.8-.04c0,.64.42,1.3,1.1,1.48v.02c-.81.17-1.33.88-1.33,1.73,0,1.23.95,1.97,2.15,1.97s2.15-.74,2.15-1.97c0-.85-.52-1.56-1.33-1.73v-.02c.68-.18,1.1-.85,1.1-1.48,0-1.05-.84-1.76-1.92-1.76s-1.92.7-1.92,1.76"/>
    <path class="cls-4" d="m107.88,72.05h-3.53l-.07,3.5c.4-.24.91-.42,1.37-.42.94,0,1.66.54,1.66,1.53,0,.93-.64,1.55-1.45,1.55-.57,0-1.03-.34-1.26-.85l-.8.3c.36.74.97,1.23,1.99,1.23,1.31,0,2.31-.89,2.31-2.23,0-1.26-.85-2.21-2.15-2.21-.28,0-.61.04-.87.16l.03-1.82h2.75v-.74Zm-4.5,4.11h-4.75v.68h4.75v-.68Zm-9.56,2.62h4.33v-.74h-3.43v-.02l2.07-1.95c.68-.64,1.31-1.24,1.31-2.31,0-1.2-.94-1.83-2.05-1.83s-1.93.58-2.11,1.68l.87.08c.12-.65.6-1.07,1.27-1.07s1.23.44,1.23,1.14c0,.66-.31,1.02-.95,1.64l-2.54,2.47v.91Z"/>
    <path class="cls-4" d="m188.17,75.42c0-.99.15-2.79,1.48-2.79s1.48,1.81,1.48,2.79-.15,2.79-1.48,2.79-1.48-1.81-1.48-2.79m-.8,0c0,1.53.43,3.48,2.28,3.48s2.28-1.95,2.28-3.48-.43-3.48-2.28-3.48-2.28,1.95-2.28,3.48m-2.22-3.37h-.69l-1.81,1.46.48.58,1.21-1.02h.02v5.7h.8v-6.73Zm-3.42,4.11h-4.75v.68h4.75v-.68Zm-8.74.71c0-.79.6-1.34,1.35-1.34s1.35.55,1.35,1.34-.6,1.34-1.35,1.34-1.35-.55-1.35-1.34m.23-3.14c0-.64.46-1.11,1.12-1.11s1.12.47,1.12,1.11-.46,1.11-1.12,1.11-1.12-.48-1.12-1.11m-.8-.04c0,.64.42,1.3,1.1,1.48v.02c-.81.17-1.33.88-1.33,1.73,0,1.23.95,1.97,2.15,1.97s2.15-.74,2.15-1.97c0-.85-.52-1.56-1.33-1.73v-.02c.68-.18,1.1-.85,1.1-1.48,0-1.05-.84-1.76-1.92-1.76s-1.92.7-1.92,1.76"/>
    <path class="cls-4" d="m45.1,87.41c0-.99.15-2.8,1.48-2.8s1.48,1.81,1.48,2.8-.15,2.79-1.48,2.79-1.48-1.81-1.48-2.79m-.8,0c0,1.53.43,3.48,2.28,3.48s2.28-1.95,2.28-3.48-.43-3.48-2.28-3.48-2.28,1.95-2.28,3.48m-1.14-3.37h-3.53l-.07,3.5c.4-.24.91-.42,1.37-.42.94,0,1.66.54,1.66,1.53,0,.93-.64,1.55-1.44,1.55-.57,0-1.03-.34-1.25-.85l-.8.3c.36.74.97,1.23,1.99,1.23,1.31,0,2.31-.89,2.31-2.23,0-1.27-.86-2.21-2.15-2.21-.28,0-.61.04-.86.16l.03-1.82h2.75v-.74Zm-6.37,0h-.69l-1.81,1.46.47.58,1.21-1.02h.02v5.7h.8v-6.73Zm-3.42,4.11h-4.75v.68h4.75v-.68Zm-5.53-4.11h-3.53l-.07,3.5c.4-.24.91-.42,1.37-.42.94,0,1.66.54,1.66,1.53,0,.93-.64,1.55-1.44,1.55-.57,0-1.03-.34-1.26-.85l-.8.3c.36.74.97,1.23,1.99,1.23,1.31,0,2.31-.89,2.31-2.23,0-1.27-.85-2.21-2.15-2.21-.28,0-.61.04-.87.16l.03-1.82h2.75v-.74Zm-6.37,0h-.69l-1.81,1.46.47.58,1.21-1.02h.02v5.7h.8v-6.73Zm-5.28,0h-.69l-1.81,1.46.47.58,1.21-1.02h.02v5.7h.8v-6.73Z"/>
    <path class="cls-4" d="m102.86,84.05h-3.53l-.07,3.5c.4-.24.91-.42,1.37-.42.94,0,1.66.54,1.66,1.53,0,.93-.64,1.55-1.45,1.55-.57,0-1.03-.34-1.25-.85l-.8.3c.36.74.97,1.23,1.99,1.23,1.31,0,2.31-.89,2.31-2.23,0-1.27-.86-2.21-2.15-2.21-.27,0-.61.04-.86.16l.03-1.82h2.75v-.74Z"/>
    <path class="cls-4" d="m190.13,90.78h4.33v-.74h-3.43v-.02l2.07-1.95c.67-.64,1.31-1.24,1.31-2.31,0-1.2-.94-1.83-2.05-1.83s-1.93.58-2.11,1.68l.87.08c.12-.65.6-1.08,1.27-1.08s1.23.44,1.23,1.14c0,.66-.31,1.02-.95,1.63l-2.54,2.47v.91Zm-2.33-6.73h-.69l-1.81,1.46.47.58,1.21-1.02h.02v5.7h.8v-6.73Zm-3.42,4.11h-4.75v.68h4.75v-.68Zm-8.88-.74c0-.99.15-2.8,1.48-2.8s1.48,1.81,1.48,2.8-.15,2.79-1.48,2.79-1.48-1.81-1.48-2.79m-.8,0c0,1.53.43,3.48,2.28,3.48s2.28-1.95,2.28-3.48-.43-3.48-2.28-3.48-2.28,1.95-2.28,3.48m-2.22-3.37h-.69l-1.81,1.46.47.58,1.21-1.02h.02v5.7h.8v-6.73Z"/>
    <path class="cls-4" d="m48.45,96.05h-3.53l-.07,3.5c.4-.24.91-.42,1.37-.42.94,0,1.66.54,1.66,1.53,0,.93-.64,1.55-1.44,1.55-.57,0-1.03-.34-1.26-.85l-.8.3c.36.74.97,1.23,1.99,1.23,1.31,0,2.31-.89,2.31-2.23,0-1.27-.85-2.21-2.15-2.21-.28,0-.61.04-.87.16l.03-1.82h2.75v-.74Zm-9.31,6.73h4.33v-.74h-3.43v-.02l2.07-1.95c.67-.64,1.31-1.24,1.31-2.31,0-1.2-.94-1.83-2.05-1.83s-1.93.58-2.11,1.68l.86.08c.12-.65.6-1.08,1.27-1.08s1.23.44,1.23,1.14c0,.66-.31,1.02-.95,1.63l-2.54,2.47v.91Zm-5.28,0h4.33v-.74h-3.43v-.02l2.07-1.95c.67-.64,1.31-1.24,1.31-2.31,0-1.2-.94-1.83-2.05-1.83s-1.93.58-2.11,1.68l.87.08c.12-.65.6-1.08,1.27-1.08s1.23.44,1.23,1.14c0,.66-.31,1.02-.95,1.63l-2.54,2.47v.91Zm-.47-2.62h-4.75v.68h4.75v-.68Zm-8.88-.74c0-.99.15-2.8,1.48-2.8s1.48,1.81,1.48,2.8-.15,2.79-1.48,2.79-1.48-1.81-1.48-2.79m-.8,0c0,1.53.43,3.48,2.28,3.48s2.28-1.95,2.28-3.48-.43-3.48-2.28-3.48-2.28,1.95-2.28,3.48m-3-.06c.81,0,1.45.55,1.45,1.43s-.65,1.43-1.45,1.43-1.45-.55-1.45-1.43.65-1.43,1.45-1.43m1.1-3.31h-.93l-1.79,2.84c-.36.58-.64,1.11-.64,1.89,0,1.31.98,2.11,2.25,2.11s2.25-.8,2.25-2.11-.86-2.11-2.03-2.11c-.28,0-.66.06-.9.2l-.02-.02,1.81-2.8Zm-5.6,0h-.69l-1.81,1.46.47.58,1.21-1.02h.02v5.7h.8v-6.73Z"/>
    <path class="cls-4" d="m102.86,96.05h-3.53l-.07,3.5c.4-.24.91-.42,1.37-.42.94,0,1.66.54,1.66,1.53,0,.93-.64,1.55-1.45,1.55-.57,0-1.03-.34-1.25-.85l-.8.3c.36.74.97,1.23,1.99,1.23,1.31,0,2.31-.89,2.31-2.23,0-1.27-.86-2.21-2.15-2.21-.27,0-.61.04-.86.16l.03-1.82h2.75v-.74Z"/>
    <path class="cls-4" d="m194.16,96.05h-3.53l-.07,3.5c.4-.24.91-.42,1.37-.42.94,0,1.66.54,1.66,1.53,0,.93-.64,1.55-1.45,1.55-.57,0-1.03-.34-1.26-.85l-.8.3c.36.74.97,1.23,1.99,1.23,1.31,0,2.31-.89,2.31-2.23,0-1.27-.86-2.21-2.15-2.21-.28,0-.61.04-.86.16l.03-1.82h2.75v-.74Zm-6.37,0h-.69l-1.81,1.46.47.58,1.21-1.02h.02v5.7h.8v-6.73Zm-3.42,4.11h-4.75v.68h4.75v-.68Zm-9.56,2.62h4.33v-.74h-3.43v-.02l2.07-1.95c.67-.64,1.31-1.24,1.31-2.31,0-1.2-.94-1.83-2.05-1.83s-1.93.58-2.11,1.68l.86.08c.12-.65.6-1.08,1.27-1.08s1.23.44,1.23,1.14c0,.66-.31,1.02-.95,1.63l-2.54,2.47v.91Zm-2.33-6.73h-.69l-1.81,1.46.47.58,1.21-1.02h.02v5.7h.8v-6.73Z"/>
    <path class="cls-4" d="m106.19,119.28h.55v-1.6c0-.75.31-1.26,1.01-1.26.51,0,.75.34.75.89v1.97h.55v-2.02c0-.79-.38-1.34-1.25-1.34-.54,0-.94.3-1.09.62h-.01c0-.18-.01-.36-.01-.54h-.52c0,.22.03.48.03.78v2.5Zm-3.76-1.64c0-.69.46-1.22,1.16-1.22s1.16.53,1.16,1.22-.45,1.22-1.16,1.22-1.16-.53-1.16-1.22m-.59,0c0,1.02.74,1.72,1.75,1.72s1.75-.7,1.75-1.72-.74-1.72-1.75-1.72-1.75.7-1.75,1.72m-1.57-2.92c0,.23.17.4.4.4s.4-.17.4-.4c0-.22-.17-.4-.4-.4s-.4.18-.4.4m.13,4.56h.55v-3.28h-.55v3.28Zm-.72-3.28h-.97v-.93h-.55v.93h-.71v.46h.71v1.8c0,.68.13,1.1.9,1.1.2,0,.45-.04.64-.12l-.02-.5c-.15.08-.32.11-.48.11-.48,0-.49-.34-.49-.76v-1.64h.97v-.46Zm-2.4.43c-.33-.36-.78-.52-1.26-.52-1.01,0-1.69.73-1.69,1.72s.68,1.72,1.69,1.72c.48,0,.93-.16,1.24-.53l-.41-.39c-.2.28-.48.41-.83.41-.66,0-1.11-.55-1.11-1.22s.37-1.22,1.11-1.22c.33,0,.6.12.83.4l.43-.38Zm-3.8-.43h-.55v1.6c0,.75-.31,1.26-1.02,1.26-.51,0-.75-.34-.75-.89v-1.97h-.55v2.02c0,.79.38,1.34,1.25,1.34.54,0,.95-.3,1.09-.62h.01c0,.18.01.37.01.54h.52c0-.22-.03-.48-.03-.78v-2.5Zm-4.41,1.64c0,.69-.46,1.22-1.16,1.22s-1.16-.53-1.16-1.22.46-1.22,1.16-1.22,1.16.53,1.16,1.22m0,1.64h.55v-5.3h-.55v2.49h-.01c-.3-.35-.7-.56-1.18-.56-1.03,0-1.72.73-1.72,1.72s.72,1.72,1.64,1.72c.59,0,1.06-.29,1.26-.67h.01v.58Zm-6.22-1.93c.07-.55.47-.92,1.07-.92s.97.37.99.92h-2.06Zm2.12,1.02c-.26.33-.57.5-1.04.5-.6,0-1.03-.48-1.07-1.05h2.65v-.17c0-1.09-.63-1.72-1.56-1.72s-1.68.71-1.68,1.72c0,.95.63,1.72,1.66,1.72.61,0,1.07-.18,1.46-.68l-.41-.32Zm-4.85.92h.55v-1.6c0-.75.29-1.22.96-1.22.1,0,.2.01.29.04l.03-.55-.22-.04c-.54,0-.94.3-1.09.62h-.01c0-.18-.01-.36-.01-.54h-.52c0,.22.03.48.03.78v2.5Zm-5.29-.53c.32.46.72.61,1.28.61.65,0,1.31-.29,1.31-1.03,0-.66-.49-.87-1.07-.98-.43-.08-.83-.2-.83-.48,0-.31.34-.46.65-.46.32,0,.55.16.69.39l.46-.3c-.22-.42-.65-.6-1.11-.6-.61,0-1.23.33-1.23.97,0,.68.53.81,1.16.95.35.08.7.17.7.52s-.38.5-.72.5c-.39,0-.62-.18-.84-.44l-.43.34Zm-2.98,0c.32.46.72.61,1.27.61.65,0,1.31-.29,1.31-1.03,0-.66-.49-.87-1.07-.98-.43-.08-.83-.2-.83-.48,0-.31.34-.46.64-.46.32,0,.55.16.69.39l.46-.3c-.22-.42-.65-.6-1.11-.6-.61,0-1.23.33-1.23.97,0,.68.53.81,1.16.95.35.08.7.17.7.52s-.38.5-.72.5c-.38,0-.62-.18-.84-.44l-.43.34Zm-3.13-1.41c.07-.55.47-.92,1.07-.92s.97.37.99.92h-2.06Zm2.12,1.02c-.26.33-.57.5-1.04.5-.6,0-1.03-.48-1.07-1.05h2.65v-.17c0-1.09-.63-1.72-1.55-1.72s-1.68.71-1.68,1.72c0,.95.63,1.72,1.66,1.72.61,0,1.07-.18,1.46-.68l-.41-.32Zm-4.85.92h.55v-1.6c0-.75.29-1.22.96-1.22.1,0,.2.01.29.04l.03-.55-.22-.04c-.54,0-.94.3-1.09.62h-.01c0-.18-.01-.36-.01-.54h-.52c0,.22.03.48.03.78v2.5Zm-.67-3.28h-.97v-.93h-.55v.93h-.71v.46h.71v1.8c0,.68.13,1.1.9,1.1.2,0,.45-.04.64-.12l-.02-.5c-.15.08-.32.11-.48.11-.48,0-.49-.34-.49-.76v-1.64h.97v-.46Zm-5.14,2.75c.32.46.72.61,1.28.61.65,0,1.31-.29,1.31-1.03,0-.66-.49-.87-1.07-.98-.43-.08-.83-.2-.83-.48,0-.31.34-.46.65-.46.32,0,.55.16.69.39l.46-.3c-.22-.42-.65-.6-1.11-.6-.61,0-1.23.33-1.23.97,0,.68.53.81,1.16.95.35.08.7.17.7.52s-.38.5-.72.5c-.38,0-.62-.18-.84-.44l-.43.34Zm-4.05.53h.55v-1.6c0-.75.29-1.22.96-1.22.1,0,.2.01.29.04l.03-.55-.22-.04c-.54,0-.94.3-1.09.62h-.01c0-.18-.01-.36-.01-.54h-.52c0,.22.03.48.03.78v2.5Zm-3.76-1.64c0-.69.46-1.22,1.16-1.22s1.16.53,1.16,1.22-.46,1.22-1.16,1.22-1.16-.53-1.16-1.22m-.59,0c0,1.02.74,1.72,1.75,1.72s1.75-.7,1.75-1.72-.74-1.72-1.75-1.72-1.75.7-1.75,1.72m-1.74,1.64h.55v-2.82h.8v-.46h-.8v-.62c0-.57.02-.98.59-.98.13,0,.25.03.37.07l.08-.49c-.1-.06-.28-.08-.42-.08-.88,0-1.16.57-1.16,1.36v.74h-.71v.46h.71v2.82Zm-5.98-1.64c0-.69.46-1.22,1.16-1.22s1.16.53,1.16,1.22-.46,1.22-1.16,1.22-1.16-.53-1.16-1.22m-.55,3.24h.55v-2.18h.01c.2.37.67.67,1.26.67.92,0,1.64-.74,1.64-1.72s-.69-1.72-1.72-1.72c-.48,0-.88.21-1.18.56h-.01v-.48h-.55v4.88Zm-3.46-3.53c.07-.55.47-.92,1.07-.92s.97.37.99.92h-2.06Zm2.11,1.02c-.26.33-.58.5-1.04.5-.6,0-1.03-.48-1.07-1.05h2.65v-.17c0-1.09-.63-1.72-1.56-1.72s-1.68.71-1.68,1.72c0,.95.63,1.72,1.66,1.72.61,0,1.07-.18,1.46-.68l-.41-.32Zm-3.19-2.36h-.97v-.93h-.55v.93h-.71v.46h.71v1.8c0,.68.13,1.1.9,1.1.2,0,.45-.04.64-.12l-.02-.5c-.15.08-.32.11-.48.11-.48,0-.49-.34-.49-.76v-1.64h.97v-.46Zm-5.14,2.75c.32.46.72.61,1.28.61.65,0,1.31-.29,1.31-1.03,0-.66-.49-.87-1.07-.98-.43-.08-.83-.2-.83-.48,0-.31.34-.46.64-.46.32,0,.55.16.69.39l.46-.3c-.22-.42-.65-.6-1.11-.6-.61,0-1.23.33-1.23.97,0,.68.53.81,1.16.95.35.08.7.17.7.52s-.38.5-.72.5c-.39,0-.62-.18-.84-.44l-.43.34Zm-3.21.53h.55v-5.3h-.55v5.3Zm-1.6-1.58v.21c-.01.53-.34.99-.97.99-.41,0-.72-.15-.72-.57,0-.44.45-.63,1.14-.63h.55Zm-1.79-.93c.26-.24.62-.36.97-.36.51,0,.81.24.81.72v.1h-.21c-.81,0-2.07.06-2.07,1.15,0,.64.55.97,1.22.97.5,0,.86-.24,1.08-.58h.01c0,.14,0,.34.03.49h.53c-.03-.17-.05-.38-.05-.57v-1.41c0-.92-.41-1.39-1.37-1.39-.48,0-.97.16-1.3.5l.34.36Zm-4.19,2.5h.55v-1.6c0-.75.31-1.26,1.01-1.26.51,0,.75.34.75.89v1.97h.55v-2.02c0-.79-.38-1.34-1.25-1.34-.54,0-.94.3-1.09.62h-.01c0-.18-.01-.36-.01-.54h-.52c0,.22.03.48.03.78v2.5Zm-3.76-1.64c0-.69.46-1.22,1.16-1.22s1.16.53,1.16,1.22-.45,1.22-1.16,1.22-1.16-.53-1.16-1.22m-.59,0c0,1.02.74,1.72,1.75,1.72s1.75-.7,1.75-1.72-.74-1.72-1.75-1.72-1.75.7-1.75,1.72m-1.57-2.92c0,.23.17.4.4.4s.4-.17.4-.4c0-.22-.17-.4-.4-.4s-.4.18-.4.4m.13,4.56h.55v-3.28h-.55v3.28Zm-.72-3.28h-.97v-.93h-.55v.93h-.71v.46h.71v1.8c0,.68.13,1.1.9,1.1.2,0,.45-.04.64-.12l-.02-.5c-.15.08-.32.11-.48.11-.48,0-.49-.34-.49-.76v-1.64h.97v-.46Zm-5.55,1.64c0-.69.46-1.22,1.16-1.22s1.16.53,1.16,1.22-.46,1.22-1.16,1.22-1.16-.53-1.16-1.22m-.55,3.24h.55v-2.18h.01c.2.37.67.67,1.26.67.92,0,1.64-.74,1.64-1.72s-.69-1.72-1.72-1.72c-.48,0-.88.21-1.18.56h-.01v-.48h-.55v4.88Zm-3.41-2.02c-1.16,0-1.96-.92-1.96-2.06s.8-2.06,1.96-2.06,1.96.92,1.96,2.06-.8,2.06-1.96,2.06m0,.55c1.5,0,2.59-1.11,2.59-2.61s-1.09-2.6-2.59-2.6-2.59,1.11-2.59,2.6,1.09,2.61,2.59,2.61m-4.26-5.09h-.42v1.04l-.99-.34-.13.41.99.34-.61.83.35.27.61-.86.63.86.34-.27-.62-.83.99-.34-.13-.41-.99.34v-1.04Z"/>
    <polyline class="cls-2" points="0 0 227.25 0 227.25 1 0 1"/>
    <polyline class="cls-1" points="2 42.5 229.25 42.5 229.25 43.5 2 43.5"/>
  </g>
</svg>