<?xml version="1.0" encoding="UTF-8"?>
<svg id="_图层_2" data-name="图层 2" xmlns="http://www.w3.org/2000/svg" viewBox="0 0 230.5 199.42">
  <defs>
    <style>
      .cls-1 {
        fill: #c9c7c1;
      }

      .cls-2 {
        fill: #0062b1;
      }

      .cls-3 {
        fill: #231815;
      }
    </style>
  </defs>
  <g id="_图层_1-2" data-name="图层 1">
    <path class="cls-3" d="m82.6,3.34c-.31-.82-.96-1.36-1.9-1.36-.89,0-1.72.49-1.72,1.52,0,1.83,2.46,1.58,2.46,2.62,0,.3-.23.48-.61.48-.5,0-.81-.33-.92-.84l-1.13.31c.61,1.36,1.29,1.55,2.05,1.55,1.05,0,1.81-.57,1.81-1.65,0-1.62-2.46-1.64-2.46-2.48,0-.28.22-.49.51-.49.38,0,.7.24.87.74l1.04-.4Zm-7.28.74v-.3c0-.48.23-.78.74-.78s.74.3.74.78v.3h-1.48Zm2.74,1.02v-1.27c0-1.11-.83-1.85-2-1.85s-2,.74-2,1.93v1.78c0,1.19.8,1.93,2,1.93,1.27,0,1.94-.66,2-1.78h-1.26c0,.42-.21.76-.74.76-.42,0-.74-.24-.74-.78v-.72h2.74Zm-5.26-5.1h-1.26v1.14h1.26V0Zm-1.26,7.52h1.26V2.08h-1.26v5.44Zm-2.98-4.18v3.2c0,.78.54,1.08,1.36,1.08.24,0,.48,0,.72-.05v-1.06h-.25c-.34,0-.57-.12-.57-.39v-2.78h.81v-1.02h-.81V.84h-1.26v1.48h-.5v1.02h.5Zm-2.03,4.18v-3.72c0-.29.21-.6.62-.6.22,0,.46.08.67.14v-1.36c-.63,0-1.01.28-1.3.82h-.02v-.72h-1.23v5.44h1.26Zm-5.1-3.44v-.3c0-.48.23-.78.74-.78s.74.3.74.78v.3h-1.48Zm2.74,1.02v-1.27c0-1.11-.83-1.85-2-1.85s-2,.74-2,1.93v1.78c0,1.19.8,1.93,2,1.93,1.27,0,1.94-.66,2-1.78h-1.26c0,.42-.21.76-.74.76-.42,0-.74-.24-.74-.78v-.72h2.74Zm-8.9-3.02v7.36h1.26v-2.42c.6.44.92.6,1.26.6.98,0,1.38-.76,1.38-2.16v-1.32c0-1.4-.4-2.16-1.38-2.16-.56,0-1.12.42-1.34.76h-.02v-.66h-1.16Zm1.26,1.23c.25-.27.48-.39.76-.39.34,0,.62.22.62,1.3v1.16c0,1.08-.28,1.3-.62,1.3-.28,0-.51-.12-.76-.39v-2.98Zm-5.1.41c0-.42.3-.64.74-.64s.74.22.74.64v2.16c0,.42-.3.64-.74.64s-.74-.22-.74-.64v-2.16Zm-1.26,1.84c0,1.44.74,2.06,2,2.06s2-.62,2-2.06v-1.52c0-1.44-.74-2.06-2-2.06s-2,.62-2,2.06v1.52Zm-1.97,1.96v-3.72c0-.29.21-.6.62-.6.22,0,.46.08.67.14v-1.36c-.63,0-1.01.28-1.3.82h-.02v-.72h-1.23v5.44h1.26Zm-5.34-6.08h.74c.68,0,1.02.34,1.02,1.02s-.34,1.02-1.02,1.02h-.74V1.44Zm0,6.08v-2.9h.61c1.7,0,2.53-.8,2.53-2.16s-.83-2.16-2.53-2.16h-1.99v7.22h1.38Zm-6.88,0h1.26V.3h-1.26v7.22Zm-2.67-1.34c-.3.3-.57.5-.95.5-.34,0-.56-.21-.56-.57,0-.57.76-.99,1.51-1.25v1.32Zm-1.35-2.51c0-.39.32-.67.7-.67.36,0,.65.18.65.65v.4c-1.57.47-2.77,1.01-2.77,2.27,0,.88.49,1.3,1.25,1.3.63,0,1.13-.26,1.5-.63.04.22.06.39.09.53h1.26c-.04-.14-.07-.29-.07-.44v-3.45c0-.97-.51-1.65-1.85-1.65-1.01,0-1.93.48-2.02,1.69h1.26Zm-2.25.29c-.02-1.38-.76-1.98-1.99-1.98s-2,.62-2,2.06v1.52c0,1.44.74,2.06,2,2.06s2-.62,2-2.06v-.02h-1.26v.34c0,.42-.3.64-.74.64s-.74-.22-.74-.64v-2.16c0-.42.3-.64.74-.64s.74.22.74.64v.24h1.25Zm-5.25-3.96h-1.26v1.14h1.26V0Zm-1.26,7.52h1.26V2.08h-1.26v5.44Zm-1.16-4.18c-.31-.82-.96-1.36-1.9-1.36-.89,0-1.72.49-1.72,1.52,0,1.83,2.46,1.58,2.46,2.62,0,.3-.23.48-.61.48-.5,0-.81-.33-.92-.84l-1.13.31c.61,1.36,1.29,1.55,2.05,1.55,1.05,0,1.81-.57,1.81-1.65,0-1.62-2.46-1.64-2.46-2.48,0-.28.22-.49.51-.49.38,0,.7.24.87.74l1.04-.4Zm-8.16,6.08c.14.01.28.02.4.02,1.26,0,1.77-.47,2.16-1.94l1.45-5.42h-1.28l-.79,3.6h-.02l-.85-3.6h-1.28l1.26,4.39c.13.46.23.83.23,1.15,0,.24-.36.72-.91.72-.13,0-.25,0-.37-.02v1.1Zm-3.46-1.9V3.41c.27-.24.56-.49.82-.49.34,0,.46.24.46.6v4h1.26V3.38c0-1.01-.4-1.4-1.17-1.4-.52,0-.95.32-1.37.72V.3h-1.26v7.22h1.26ZM5.08,1.44h.74c.68,0,1.02.34,1.02,1.02s-.34,1.02-1.02,1.02h-.74V1.44Zm0,6.08v-2.9h.61c1.7,0,2.53-.8,2.53-2.16S7.39.3,5.69.3h-1.99v7.22h1.38Z"/>
    <path class="cls-3" d="m90.7,13.92c.82,1.28,1.22,2.33,1.22,3.86,0,1.39-.41,2.73-1.22,3.84l.51.38c.87-1.19,1.39-2.66,1.39-4.22,0-1.45-.48-2.98-1.39-4.22l-.51.36Zm-4.06,5.88c.44.63.98.83,1.73.83.88,0,1.78-.39,1.78-1.4,0-.89-.67-1.18-1.46-1.33-.59-.11-1.12-.28-1.12-.65,0-.42.46-.62.87-.62.44,0,.75.22.94.53l.62-.41c-.3-.57-.88-.81-1.51-.81-.83,0-1.66.45-1.66,1.31,0,.92.72,1.1,1.57,1.29.47.11.95.23.95.7s-.51.68-.98.68c-.52,0-.85-.24-1.14-.6l-.59.46Zm-4.25-1.91c.1-.75.64-1.26,1.45-1.26s1.31.5,1.34,1.26h-2.79Zm2.87,1.38c-.35.45-.78.67-1.42.67-.81,0-1.4-.66-1.45-1.43h3.59v-.24c0-1.47-.85-2.33-2.11-2.33s-2.28.96-2.28,2.34c0,1.29.86,2.34,2.25,2.34.83,0,1.45-.25,1.98-.92l-.56-.44Zm-4.82-3.2h-.74v2.17c0,1.02-.42,1.71-1.38,1.71-.69,0-1.02-.47-1.02-1.21v-2.67h-.74v2.75c0,1.07.52,1.82,1.69,1.82.73,0,1.28-.41,1.48-.85h.02c0,.25.02.49.02.73h.7c0-.29-.04-.65-.04-1.05v-3.39Zm-6.09,4.45h.74v-7.19h-.74v7.19Zm-2.16-2.14v.29c-.02.72-.46,1.34-1.31,1.34-.56,0-.98-.21-.98-.77,0-.6.61-.86,1.55-.86h.74Zm-2.42-1.25c.35-.32.85-.49,1.32-.49.69,0,1.1.33,1.1.98v.13h-.29c-1.09,0-2.8.09-2.8,1.56,0,.86.75,1.32,1.65,1.32.67,0,1.17-.32,1.46-.78h.02c0,.19,0,.47.05.67h.71c-.04-.23-.07-.51-.07-.77v-1.91c0-1.26-.55-1.88-1.86-1.88-.65,0-1.31.22-1.77.68l.46.49Zm-1.2-1.06h-.8l-1.32,3.49h-.02l-1.39-3.49h-.87l1.82,4.45h.82l1.76-4.45Zm-11.16,1.83c.1-.75.64-1.26,1.45-1.26s1.31.5,1.34,1.26h-2.79Zm2.87,1.38c-.35.45-.78.67-1.42.67-.81,0-1.4-.66-1.45-1.43h3.59v-.24c0-1.47-.86-2.33-2.11-2.33s-2.28.96-2.28,2.34c0,1.29.86,2.34,2.25,2.34.83,0,1.45-.25,1.98-.92l-.56-.44Zm-4.32-3.2h-1.31v-1.26h-.74v1.26h-.97v.63h.97v2.44c0,.92.17,1.49,1.23,1.49.28,0,.61-.05.87-.16l-.03-.68c-.2.1-.44.15-.66.15-.66,0-.67-.46-.67-1.03v-2.22h1.31v-.63Zm-4.53,2.31v.29c-.02.72-.46,1.34-1.31,1.34-.56,0-.98-.21-.98-.77,0-.6.61-.86,1.55-.86h.74Zm-2.42-1.25c.35-.32.85-.49,1.32-.49.69,0,1.1.33,1.1.98v.13h-.29c-1.09,0-2.8.09-2.8,1.56,0,.86.75,1.32,1.65,1.32.67,0,1.17-.32,1.46-.78h.02c0,.19,0,.47.05.67h.71c-.04-.23-.07-.51-.07-.77v-1.91c0-1.26-.55-1.88-1.86-1.88-.65,0-1.31.22-1.77.68l.47.49Zm-8.5,3.39h.74v-2.17c0-1.02.42-1.71,1.38-1.71.61,0,.86.38.86,1.36v2.52h.74v-2.57c0-.8.52-1.31,1.15-1.31.86,0,1.08.6,1.08,1.22v2.66h.74v-2.7c0-1.15-.42-1.86-1.69-1.86-.67,0-1.08.32-1.41.85-.14-.3-.45-.85-1.41-.85-.73,0-1.28.41-1.48.85h-.02c0-.25-.02-.49-.02-.73h-.7c0,.3.04.65.04,1.06v3.39Zm-2.38-6.19c0,.31.23.54.54.54s.54-.23.54-.54c0-.29-.24-.54-.54-.54s-.54.25-.54.54m.17,6.19h.74v-4.45h-.74v4.45Zm-5.49,0h.92l1.39-1.92,1.41,1.92h.98l-1.83-2.4,1.53-2.05h-.9l-1.11,1.6-1.18-1.6h-.97l1.6,2.05-1.83,2.4Zm-4.43-2.22c0-.93.62-1.65,1.58-1.65s1.58.72,1.58,1.65-.62,1.65-1.58,1.65-1.58-.72-1.58-1.65m-.8,0c0,1.39,1.01,2.34,2.38,2.34s2.38-.95,2.38-2.34-1.01-2.34-2.38-2.34-2.38.95-2.38,2.34m-2.92,2.22h.74v-2.17c0-1.02.4-1.65,1.3-1.65.13,0,.28.02.4.06l.05-.75c-.1-.04-.21-.05-.3-.05-.73,0-1.28.41-1.48.85h-.02c0-.25-.02-.49-.02-.73h-.7c0,.3.04.65.04,1.06v3.39Zm-5.1-2.22c0-.93.62-1.65,1.58-1.65s1.58.72,1.58,1.65-.62,1.65-1.58,1.65-1.58-.72-1.58-1.65m-.74,4.39h.74v-2.96h.02c.28.5.91.9,1.71.9,1.25,0,2.23-1.01,2.23-2.34s-.94-2.34-2.34-2.34c-.65,0-1.19.29-1.6.76h-.02v-.65h-.74v6.62Zm-5.06-4.39c0-.93.62-1.65,1.58-1.65s1.58.72,1.58,1.65-.62,1.65-1.58,1.65-1.58-.72-1.58-1.65m-.74,4.39h.74v-2.96h.02c.28.5.91.9,1.71.9,1.24,0,2.22-1.01,2.22-2.34s-.94-2.34-2.34-2.34c-.65,0-1.19.29-1.6.76h-.02v-.65h-.74v6.62Zm-2.64-4.56h-2.75l1.4-3.31h.02l1.33,3.31Zm-4.66,2.4h.9l.69-1.65h3.37l.68,1.65h.93l-2.86-6.73h-.75l-2.97,6.73Zm-.27,1.12c-.82-1.28-1.22-2.33-1.22-3.86,0-1.39.41-2.73,1.22-3.84l-.51-.38c-.88,1.19-1.39,2.66-1.39,4.22,0,1.45.48,2.98,1.39,4.22l.51-.36Z"/>
    <path class="cls-3" d="m189.12,39.38c-.42-.49-.95-.66-1.58-.66-.99,0-1.93.54-1.93,1.63,0,.94.61,1.3,1.41,1.56,1.01.34,1.48.46,1.48,1.15,0,.65-.66.98-1.23.98-.49,0-.97-.22-1.21-.63l-.58.47c.38.57,1.09.78,1.74.78,1.02,0,1.99-.53,1.99-1.65s-.82-1.4-1.7-1.68c-.9-.29-1.19-.52-1.19-1.04,0-.67.62-.95,1.21-.95.41,0,.81.16,1.03.52l.55-.48Zm-8.52.1h1.28c1.3,0,2.28.65,2.28,2.21s-.98,2.21-2.28,2.21h-1.28v-4.41Zm-.67,5.04h2.17c1.11,0,2.78-.74,2.78-2.83s-1.66-2.83-2.78-2.83h-2.17v5.66Zm-7.07,0h.67v-4.75h.02l2.03,4.75h.41l2.03-4.75h.02v4.75h.67v-5.66h-.98l-1.93,4.44h-.02l-1.92-4.44h-1v5.66Zm-5.7,0h.67v-2.64h3.02v2.64h.67v-5.66h-.67v2.4h-3.02v-2.4h-.67v5.66Zm-3.63-1.26c-.36.41-.73.78-1.31.78s-1.1-.46-1.1-1.06.52-.94,1-1.21l1.42,1.49Zm-1.45-2.42c-.19-.2-.39-.44-.39-.74,0-.46.37-.76.82-.76.39,0,.72.25.72.66,0,.56-.52.82-.94,1.05l-.2-.21Zm2.62,3.69h.92l-1.3-1.33,1.09-1.74h-.76l-.76,1.27-1.2-1.27c.57-.3,1.2-.73,1.2-1.44,0-.83-.65-1.26-1.42-1.26s-1.46.46-1.46,1.3c0,.54.31.94.68,1.31-.68.31-1.26.84-1.26,1.64,0,1.01.84,1.61,1.8,1.61.75,0,1.24-.34,1.7-.91l.77.82Zm-8.69-.6c.37.53.82.7,1.46.7.74,0,1.5-.33,1.5-1.17,0-.75-.56-.99-1.22-1.12-.5-.1-.94-.23-.94-.54,0-.35.39-.52.74-.52.37,0,.63.18.79.45l.52-.34c-.26-.48-.74-.68-1.27-.68-.7,0-1.4.38-1.4,1.1,0,.77.61.93,1.32,1.09.4.09.8.19.8.59s-.43.58-.82.58c-.44,0-.71-.2-.96-.5l-.5.38Zm-3.33,0c.37.53.82.7,1.46.7.74,0,1.5-.33,1.5-1.17,0-.75-.56-.99-1.22-1.12-.5-.1-.94-.23-.94-.54,0-.35.39-.52.74-.52.37,0,.63.18.79.45l.52-.34c-.26-.48-.74-.68-1.27-.68-.7,0-1.4.38-1.4,1.1,0,.77.61.93,1.32,1.09.4.09.8.19.8.59s-.43.58-.82.58c-.44,0-.71-.2-.96-.5l-.5.38Zm-1.27-1.2v.24c-.02.61-.38,1.13-1.1,1.13-.47,0-.82-.18-.82-.65,0-.5.51-.72,1.3-.72h.62Zm-2.04-1.05c.3-.27.71-.41,1.11-.41.58,0,.93.28.93.82v.11h-.24c-.92,0-2.36.07-2.36,1.31,0,.73.63,1.11,1.39,1.11.57,0,.98-.27,1.23-.66h.02c0,.16,0,.39.04.56h.6c-.03-.19-.06-.43-.06-.65v-1.61c0-1.06-.46-1.58-1.57-1.58-.54,0-1.1.18-1.49.58l.39.41Zm-2.13,2.85h.62v-6.04h-.62v6.04Zm-1.27-3.17h-1.98v.62h1.3v1.74c-.42.21-.95.33-1.41.33-1.39,0-2.34-1-2.34-2.35s.98-2.35,2.28-2.35c.58,0,1.16.23,1.54.65l.5-.53c-.54-.54-1.26-.74-2-.74-1.7,0-3.05,1.19-3.05,2.98s1.26,2.97,3.02,2.97c.73,0,1.47-.17,2.12-.53v-2.78Zm-5.46-2.64l-.5-.19-2.41,6.14.5.2,2.41-6.15Zm-6.09,5.21c.37.53.82.7,1.46.7.74,0,1.49-.33,1.49-1.17,0-.75-.56-.99-1.22-1.12-.5-.1-.94-.23-.94-.54,0-.35.39-.52.74-.52.37,0,.63.18.79.45l.52-.34c-.26-.48-.74-.68-1.27-.68-.7,0-1.4.38-1.4,1.1,0,.77.61.93,1.32,1.09.4.09.8.19.8.59s-.43.58-.82.58c-.44,0-.71-.2-.96-.5l-.49.38Zm-3.33,0c.37.53.82.7,1.46.7.74,0,1.49-.33,1.49-1.17,0-.75-.56-.99-1.22-1.12-.5-.1-.94-.23-.94-.54,0-.35.39-.52.74-.52.37,0,.63.18.79.45l.52-.34c-.26-.48-.74-.68-1.27-.68-.7,0-1.4.38-1.4,1.1,0,.77.61.93,1.32,1.09.4.09.8.19.8.59s-.43.58-.82.58c-.44,0-.71-.2-.96-.5l-.5.38Zm-1.27-1.2v.24c-.02.61-.38,1.13-1.1,1.13-.47,0-.82-.18-.82-.65,0-.5.51-.72,1.3-.72h.62Zm-2.04-1.05c.3-.27.71-.41,1.11-.41.58,0,.93.28.93.82v.11h-.24c-.92,0-2.36.07-2.36,1.31,0,.73.63,1.11,1.39,1.11.57,0,.98-.27,1.23-.66h.02c0,.16,0,.39.04.56h.6c-.03-.19-.06-.43-.06-.65v-1.61c0-1.06-.46-1.58-1.57-1.58-.54,0-1.1.18-1.49.58l.39.41Zm-2.13,2.85h.62v-6.04h-.62v6.04Zm-1.27-3.17h-1.98v.62h1.3v1.74c-.42.21-.95.33-1.41.33-1.39,0-2.34-1-2.34-2.35s.98-2.35,2.28-2.35c.58,0,1.16.23,1.54.65l.5-.53c-.54-.54-1.26-.74-2-.74-1.7,0-3.05,1.19-3.05,2.98s1.26,2.97,3.02,2.97c.73,0,1.47-.17,2.12-.53v-2.78Zm-5.46-2.64l-.5-.19-2.41,6.14.5.2,2.41-6.15Zm-6.71,5.8h.62v-1.82c0-.86.35-1.44,1.16-1.44.58,0,.86.39.86,1.02v2.25h.62v-2.31c0-.9-.44-1.53-1.42-1.53-.61,0-1.08.34-1.25.71h-.02c0-.21-.02-.42-.02-.62h-.59c0,.25.03.54.03.89v2.85Zm-4.22-1.87c0-.78.52-1.39,1.33-1.39s1.33.61,1.33,1.39-.52,1.39-1.33,1.39-1.33-.61-1.33-1.39m-.67,0c0,1.17.85,1.97,2,1.97s2-.8,2-1.97-.85-1.97-2-1.97-2,.8-2,1.97m-.4-1.38c-.38-.41-.89-.59-1.44-.59-1.15,0-1.93.83-1.93,1.97s.78,1.97,1.93,1.97c.54,0,1.06-.18,1.42-.6l-.46-.44c-.23.32-.54.46-.95.46-.76,0-1.26-.62-1.26-1.39s.42-1.39,1.26-1.39c.38,0,.68.14.94.46l.5-.44Zm-5.09-1.96c0,.26.19.46.46.46s.46-.19.46-.46c0-.25-.2-.46-.46-.46s-.46.21-.46.46m.14,5.2h.62v-3.74h-.62v3.74Zm-1.84,0h.62v-6.04h-.62v6.04Zm-1.98-5.2c0,.26.19.46.46.46s.46-.19.46-.46c0-.25-.2-.46-.46-.46s-.46.21-.46.46m.14,5.2h.62v-3.74h-.62v3.74Zm-1.07-5.14c-.41-.49-.95-.66-1.58-.66-.99,0-1.93.54-1.93,1.63,0,.94.61,1.3,1.41,1.56,1.01.34,1.48.46,1.48,1.15,0,.65-.66.98-1.23.98-.49,0-.97-.22-1.21-.63l-.58.47c.38.57,1.09.78,1.74.78,1.02,0,1.99-.53,1.99-1.65s-.82-1.4-1.7-1.68c-.9-.29-1.19-.52-1.19-1.04,0-.67.62-.95,1.21-.95.41,0,.81.16,1.03.52l.55-.48Zm-8.04-.41c.69,1.08,1.02,1.96,1.02,3.25,0,1.17-.34,2.29-1.02,3.23l.43.32c.74-1,1.17-2.24,1.17-3.55,0-1.22-.41-2.5-1.17-3.55l-.43.3Zm-1.28,3.75v.24c-.02.61-.38,1.13-1.1,1.13-.47,0-.82-.18-.82-.65,0-.5.51-.72,1.3-.72h.62Zm-2.04-1.05c.3-.27.71-.41,1.11-.41.58,0,.93.28.93.82v.11h-.24c-.92,0-2.36.07-2.36,1.31,0,.73.63,1.11,1.39,1.11.57,0,.98-.27,1.23-.66h.02c0,.16,0,.39.04.56h.6c-.03-.19-.06-.43-.06-.65v-1.61c0-1.06-.46-1.58-1.57-1.58-.54,0-1.1.18-1.49.58l.39.41Zm-4.22-2.18h1.14c.67,0,1.14.3,1.14.93s-.46.94-1.14.94h-1.14v-1.87Zm-.67,5.04h.67v-2.54h1.14c.8,0,1.85-.33,1.85-1.57s-.94-1.55-1.98-1.55h-1.68v5.66Zm-7.18,0h.67v-4.75h.02l2.03,4.75h.41l2.03-4.75h.02v4.75h.67v-5.66h-.98l-1.93,4.44h-.02l-1.92-4.44h-1v5.66Zm-.81.94c-.69-1.08-1.02-1.96-1.02-3.25,0-1.17.34-2.29,1.02-3.23l-.43-.32c-.74,1-1.17,2.24-1.17,3.55,0,1.22.41,2.5,1.17,3.55l.43-.3Zm-7.96-.94h.62v-1.82c0-.86.35-1.44,1.16-1.44.58,0,.86.39.86,1.02v2.25h.62v-2.31c0-.9-.44-1.53-1.42-1.53-.58,0-1.03.32-1.2.62h-.02v-2.82h-.62v6.04Zm-.69-3.74h-1.1v-1.06h-.62v1.06h-.81v.53h.81v2.05c0,.78.14,1.26,1.03,1.26.23,0,.51-.04.73-.14l-.02-.57c-.17.09-.37.13-.55.13-.55,0-.56-.38-.56-.86v-1.87h1.1v-.53Zm-6.4,1.87c0-.78.54-1.39,1.32-1.39s1.34.57,1.34,1.38c0,.72-.48,1.36-1.34,1.36-.73,0-1.32-.58-1.32-1.34m3.28-1.87h-.62v.64h-.02c-.25-.5-.82-.74-1.32-.74-1.19,0-1.99.74-1.99,1.97,0,1.1.82,1.92,1.99,1.92.5,0,1.02-.22,1.32-.7h.02v.48c0,.79-.3,1.51-1.42,1.51-.58,0-1-.22-1.39-.65l-.45.51c.53.52,1.11.71,1.84.71,1.31,0,2.04-.74,2.04-2.09v-3.57Zm-8.1,3.74h.62v-1.82c0-.86.35-1.44,1.16-1.44.58,0,.86.39.86,1.02v2.25h.62v-2.31c0-.9-.44-1.53-1.42-1.53-.61,0-1.08.34-1.25.71h-.02c0-.21-.02-.42-.02-.62h-.59c0,.25.03.54.03.89v2.85Zm-3.91-2.21c.08-.63.54-1.06,1.22-1.06s1.1.42,1.13,1.06h-2.35Zm2.42,1.16c-.3.38-.66.57-1.19.57-.68,0-1.17-.55-1.22-1.2h3.02v-.2c0-1.24-.72-1.96-1.78-1.96s-1.92.81-1.92,1.97c0,1.09.72,1.97,1.89,1.97.7,0,1.22-.21,1.66-.78l-.47-.37Zm-5.46,1.05h.62v-1.82c0-.86.34-1.39,1.1-1.39.11,0,.23.02.34.05l.04-.63-.25-.04c-.62,0-1.08.34-1.25.71h-.02c0-.21-.02-.42-.02-.62h-.59c0,.25.03.54.03.89v2.85Zm-.69-3.74h-1.1v-1.06h-.62v1.06h-.82v.53h.82v2.05c0,.78.14,1.26,1.03,1.26.23,0,.51-.04.73-.14l-.02-.57c-.17.09-.37.13-.55.13-.55,0-.56-.38-.56-.86v-1.87h1.1v-.53Zm-3.06-1.4c-.42-.49-.95-.66-1.58-.66-.99,0-1.93.54-1.93,1.63,0,.94.61,1.3,1.41,1.56,1.01.34,1.48.46,1.48,1.15,0,.65-.66.98-1.23.98-.49,0-.97-.22-1.21-.63l-.58.47c.38.57,1.09.78,1.74.78,1.02,0,1.99-.53,1.99-1.65s-.82-1.4-1.7-1.68c-.9-.29-1.19-.52-1.19-1.04,0-.67.62-.95,1.21-.95.41,0,.81.16,1.03.52l.55-.48Zm-9.86,5.14h.62v-1.82c0-.86.35-1.44,1.16-1.44.58,0,.85.39.85,1.02v2.25h.62v-2.31c0-.9-.44-1.53-1.42-1.53-.62,0-1.08.34-1.25.71h-.02c0-.21-.02-.42-.02-.62h-.59c0,.25.03.54.03.89v2.85Zm-4.22-1.87c0-.78.52-1.39,1.33-1.39s1.33.61,1.33,1.39-.52,1.39-1.33,1.39-1.33-.61-1.33-1.39m-.67,0c0,1.17.85,1.97,2,1.97s2-.8,2-1.97-.85-1.97-2-1.97-2,.8-2,1.97m-1.71-3.33c0,.26.19.46.46.46s.46-.19.46-.46c0-.25-.2-.46-.46-.46s-.46.21-.46.46m.14,5.2h.62v-3.74h-.62v3.74Zm-3.8-.6c.37.53.82.7,1.45.7.74,0,1.49-.33,1.49-1.17,0-.75-.56-.99-1.22-1.12-.5-.1-.94-.23-.94-.54,0-.35.39-.52.74-.52.37,0,.63.18.79.45l.52-.34c-.26-.48-.74-.68-1.27-.68-.7,0-1.4.38-1.4,1.1,0,.77.61.93,1.32,1.09.4.09.8.19.8.59s-.43.58-.82.58c-.44,0-.71-.2-.96-.5l-.5.38Zm-3.5-1.61c.08-.63.54-1.06,1.22-1.06s1.1.42,1.13,1.06h-2.35Zm2.42,1.16c-.3.38-.66.57-1.19.57-.68,0-1.18-.55-1.22-1.2h3.02v-.2c0-1.24-.72-1.96-1.78-1.96s-1.92.81-1.92,1.97c0,1.09.72,1.97,1.89,1.97.7,0,1.22-.21,1.66-.78l-.47-.37Zm-7.24,1.05h.62v-1.82c0-.86.35-1.44,1.16-1.44.58,0,.86.39.86,1.02v2.25h.62v-2.31c0-.9-.44-1.53-1.42-1.53-.58,0-1.03.32-1.2.62h-.02v-2.82h-.62v6.04Zm-1.7-1.87c0,.78-.52,1.39-1.33,1.39s-1.33-.61-1.33-1.39.52-1.39,1.33-1.39,1.33.61,1.33,1.39m0,1.87h.62v-6.04h-.62v2.85h-.02c-.34-.4-.8-.64-1.34-.64-1.18,0-1.97.83-1.97,1.97s.82,1.97,1.87,1.97c.67,0,1.21-.34,1.44-.76h.02v.66Zm-5.29-2.01h-2.31l1.17-2.78h.02l1.12,2.78Zm-3.92,2.01h.76l.58-1.39h2.83l.58,1.39h.78l-2.41-5.66h-.63l-2.49,5.66Z"/>
    <path class="cls-3" d="m227.93,38.86h-2.97l-.06,2.94c.34-.2.77-.35,1.15-.35.79,0,1.4.46,1.4,1.29,0,.78-.54,1.3-1.21,1.3-.48,0-.86-.29-1.06-.71l-.67.26c.3.62.82,1.03,1.67,1.03,1.1,0,1.94-.75,1.94-1.88,0-1.06-.72-1.86-1.81-1.86-.23,0-.51.03-.73.14l.02-1.53h2.31v-.62Zm-6.61,2.97h.21c.7,0,1.43.26,1.43,1.1,0,.66-.51,1.11-1.15,1.11s-.95-.23-1.14-.84l-.68.22c.29.84.97,1.19,1.82,1.19,1.01,0,1.87-.56,1.87-1.64,0-.71-.44-1.3-1.16-1.42v-.02c.57-.18.97-.7.97-1.29,0-.98-.78-1.48-1.69-1.48-.72,0-1.37.32-1.64.96l.65.25c.2-.42.57-.63,1.04-.63.57,0,.97.36.97.94,0,.86-.73.98-1.29.98h-.21v.58Zm-1.66-3.12l-.5-.19-2.41,6.14.5.2,2.41-6.15Zm-3.59.14h-2.97l-.06,2.94c.34-.2.77-.35,1.15-.35.79,0,1.4.46,1.4,1.29,0,.78-.54,1.3-1.22,1.3-.48,0-.86-.29-1.06-.71l-.67.26c.3.62.82,1.03,1.67,1.03,1.1,0,1.94-.75,1.94-1.88,0-1.06-.72-1.86-1.81-1.86-.23,0-.51.03-.73.14l.02-1.53h2.31v-.62Zm-6.61,2.97h.21c.7,0,1.43.26,1.43,1.1,0,.66-.51,1.11-1.15,1.11s-.95-.23-1.14-.84l-.68.22c.29.84.97,1.19,1.82,1.19,1.01,0,1.87-.56,1.87-1.64,0-.71-.44-1.3-1.16-1.42v-.02c.57-.18.97-.7.97-1.29,0-.98-.78-1.48-1.69-1.48-.72,0-1.37.32-1.64.96l.65.25c.2-.42.57-.63,1.04-.63.57,0,.97.36.97.94,0,.86-.73.98-1.29.98h-.21v.58Zm-1.66-3.12l-.5-.19-2.41,6.14.5.2,2.41-6.15Zm-6.29,4.2c0-.66.5-1.13,1.14-1.13s1.14.46,1.14,1.13-.5,1.13-1.14,1.13-1.14-.46-1.14-1.13m.19-2.64c0-.54.38-.94.94-.94s.94.4.94.94-.38.93-.94.93-.94-.4-.94-.93m-.67-.03c0,.54.35,1.1.93,1.25v.02c-.68.14-1.12.74-1.12,1.45,0,1.03.8,1.65,1.81,1.65s1.81-.62,1.81-1.65c0-.71-.44-1.31-1.12-1.45v-.02c.58-.15.93-.71.93-1.25,0-.89-.7-1.48-1.61-1.48s-1.61.59-1.61,1.48m-3.42,1.59h.21c.7,0,1.43.26,1.43,1.1,0,.66-.51,1.11-1.15,1.11s-.95-.23-1.14-.84l-.68.22c.29.84.97,1.19,1.82,1.19,1.01,0,1.87-.56,1.87-1.64,0-.71-.44-1.3-1.16-1.42v-.02c.57-.18.97-.7.97-1.29,0-.98-.78-1.48-1.69-1.48-.72,0-1.37.32-1.64.96l.65.25c.2-.42.57-.63,1.04-.63.57,0,.97.36.97.94,0,.86-.73.98-1.29.98h-.21v.58Z"/>
    <path class="cls-3" d="m145.97,65.52h.62v-1.82c0-.86.35-1.44,1.16-1.44.58,0,.85.39.85,1.01v2.25h.62v-2.31c0-.9-.44-1.53-1.42-1.53-.62,0-1.08.34-1.25.71h-.02c0-.21-.02-.42-.02-.62h-.59c0,.25.03.54.03.89v2.85Zm-1.77-1.8v.24c-.02.61-.38,1.13-1.1,1.13-.47,0-.82-.17-.82-.65,0-.5.51-.72,1.3-.72h.62Zm-2.04-1.05c.3-.27.71-.41,1.11-.41.58,0,.93.28.93.82v.11h-.24c-.92,0-2.36.07-2.36,1.31,0,.73.63,1.11,1.39,1.11.57,0,.98-.27,1.23-.65h.02c0,.16,0,.39.04.56h.6c-.03-.19-.06-.43-.06-.65v-1.61c0-1.05-.46-1.58-1.57-1.58-.54,0-1.1.18-1.49.58l.39.41Zm-1.11-.89h-1.1v-1.06h-.62v1.06h-.82v.53h.82v2.05c0,.77.14,1.26,1.03,1.26.23,0,.51-.04.73-.14l-.02-.57c-.17.09-.37.13-.55.13-.55,0-.56-.38-.56-.86v-1.87h1.1v-.53Zm-5.4,2.93h-.73l-.54,1.92h.62l.65-1.92Zm-3.73-4.73c.69,1.08,1.02,1.96,1.02,3.25,0,1.17-.34,2.29-1.02,3.23l.43.32c.74-1,1.17-2.24,1.17-3.55,0-1.22-.41-2.5-1.17-3.55l-.43.3Zm-.56.63c-.48-.62-1.23-.89-2-.89-1.68,0-2.88,1.31-2.88,2.98s1.25,2.97,2.88,2.97c.9,0,1.64-.31,2.14-.99l-.5-.42c-.4.51-.95.79-1.64.79-1.27,0-2.16-1.04-2.16-2.35,0-1.24.9-2.35,2.16-2.35.54,0,1.08.23,1.41.69l.58-.42Zm-7.57.3c0-.33.29-.71.71-.71s.71.38.71.71-.29.71-.71.71-.71-.38-.71-.71m-.43,0c0,.64.5,1.14,1.14,1.14s1.14-.5,1.14-1.14-.5-1.14-1.14-1.14-1.14.5-1.14,1.14m-6.52,2.74c0-.78.54-1.39,1.32-1.39s1.33.57,1.33,1.38c0,.72-.48,1.36-1.33,1.36-.73,0-1.32-.58-1.32-1.34m3.28-1.87h-.62v.64h-.02c-.25-.5-.82-.74-1.32-.74-1.19,0-1.99.74-1.99,1.97,0,1.1.82,1.92,1.99,1.92.5,0,1.02-.22,1.32-.7h.02v.48c0,.79-.29,1.51-1.41,1.51-.58,0-1-.22-1.39-.65l-.45.51c.53.52,1.11.71,1.84.71,1.31,0,2.04-.74,2.04-2.09v-3.57Zm-4.42-1.92h-4.41v.62h1.87v5.04h.67v-5.04h1.87v-.62Zm-4.69,6.61c-.69-1.08-1.02-1.96-1.02-3.25,0-1.17.34-2.3,1.02-3.23l-.43-.32c-.74,1-1.17,2.24-1.17,3.55,0,1.22.41,2.5,1.17,3.55l.43-.3Zm-7.66-3.15c.08-.63.54-1.05,1.22-1.05s1.1.42,1.13,1.05h-2.35Zm2.41,1.16c-.29.38-.65.57-1.19.57-.68,0-1.17-.55-1.22-1.2h3.02v-.2c0-1.24-.72-1.96-1.77-1.96s-1.92.81-1.92,1.97c0,1.09.72,1.97,1.89,1.97.7,0,1.22-.21,1.66-.77l-.47-.37Zm-5.54,1.05h.62v-1.82c0-.86.34-1.39,1.1-1.39.11,0,.23.02.34.05l.04-.63-.26-.04c-.61,0-1.08.34-1.25.71h-.02c0-.21-.02-.42-.02-.62h-.59c0,.25.03.54.03.89v2.85Zm-1.19-3.74h-.62v1.82c0,.86-.35,1.44-1.16,1.44-.58,0-.86-.39-.86-1.02v-2.25h-.62v2.31c0,.9.44,1.53,1.42,1.53.62,0,1.08-.34,1.25-.71h.02c0,.21.02.41.02.61h.59c0-.25-.03-.54-.03-.89v-2.86Zm-4.03,0h-1.1v-1.06h-.62v1.06h-.82v.53h.82v2.05c0,.77.14,1.26,1.03,1.26.23,0,.51-.04.73-.14l-.02-.57c-.17.09-.37.13-.55.13-.55,0-.56-.38-.56-.86v-1.87h1.1v-.53Zm-3.82,1.94v.24c-.02.61-.38,1.13-1.1,1.13-.47,0-.82-.17-.82-.65,0-.5.51-.72,1.3-.72h.62Zm-2.04-1.05c.3-.27.71-.41,1.11-.41.58,0,.93.28.93.82v.11h-.24c-.92,0-2.36.07-2.36,1.31,0,.73.63,1.11,1.39,1.11.57,0,.98-.27,1.23-.65h.02c0,.16,0,.39.04.56h.6c-.03-.19-.06-.43-.06-.65v-1.61c0-1.05-.46-1.58-1.57-1.58-.54,0-1.1.18-1.49.58l.39.41Zm-3.16,2.85h.62v-1.82c0-.86.34-1.39,1.1-1.39.11,0,.23.02.34.05l.04-.63-.26-.04c-.61,0-1.08.34-1.25.71h-.02c0-.21-.02-.42-.02-.62h-.59c0,.25.03.54.03.89v2.85Zm-3.99-2.21c.08-.63.54-1.05,1.22-1.05s1.1.42,1.13,1.05h-2.35Zm2.42,1.16c-.3.38-.66.57-1.19.57-.68,0-1.17-.55-1.22-1.2h3.02v-.2c0-1.24-.72-1.96-1.77-1.96s-1.92.81-1.92,1.97c0,1.09.72,1.97,1.89,1.97.7,0,1.22-.21,1.66-.77l-.47-.37Zm-7.17-.82c0-.78.52-1.39,1.33-1.39s1.33.61,1.33,1.39-.52,1.39-1.33,1.39-1.33-.61-1.33-1.39m-.62,3.69h.62v-2.49h.02c.23.42.77.76,1.44.76,1.05,0,1.87-.85,1.87-1.97s-.79-1.97-1.97-1.97c-.54,0-1,.24-1.34.64h-.02v-.54h-.62v5.57Zm-6.78-1.82h.62v-1.82c0-.86.35-1.44,1.16-1.44.51,0,.72.32.72,1.14v2.12h.62v-2.16c0-.67.44-1.1.97-1.1.73,0,.91.5.91,1.02v2.24h.62v-2.27c0-.97-.35-1.57-1.42-1.57-.57,0-.91.27-1.18.71-.12-.26-.38-.71-1.18-.71-.62,0-1.08.34-1.25.71h-.02c0-.21-.02-.42-.02-.62h-.59c0,.25.03.54.03.89v2.85Zm-3.99-2.21c.08-.63.54-1.05,1.22-1.05s1.1.42,1.13,1.05h-2.35Zm2.42,1.16c-.3.38-.66.57-1.19.57-.68,0-1.18-.55-1.22-1.2h3.02v-.2c0-1.24-.72-1.96-1.77-1.96s-1.92.81-1.92,1.97c0,1.09.72,1.97,1.9,1.97.7,0,1.22-.21,1.66-.77l-.47-.37Zm-2.67-4.61h-4.41v.62h1.87v5.04h.67v-5.04h1.87v-.62Zm-10.58,5.66h.62v-1.82c0-.86.35-1.44,1.16-1.44.58,0,.86.39.86,1.01v2.25h.62v-2.31c0-.9-.44-1.53-1.42-1.53-.61,0-1.08.34-1.25.71h-.02c0-.21-.02-.42-.02-.62h-.59c0,.25.03.54.03.89v2.85Zm-4.3-1.87c0-.78.52-1.39,1.33-1.39s1.33.61,1.33,1.39-.52,1.39-1.33,1.39-1.33-.61-1.33-1.39m-.67,0c0,1.17.85,1.97,2,1.97s2-.8,2-1.97-.85-1.97-2-1.97-2,.8-2,1.97m-1.79-3.33c0,.26.19.46.46.46s.46-.19.46-.46c0-.25-.2-.46-.46-.46s-.46.21-.46.46m.14,5.2h.62v-3.74h-.62v3.74Zm-.82-3.74h-1.1v-1.06h-.62v1.06h-.82v.53h.82v2.05c0,.77.14,1.26,1.03,1.26.23,0,.51-.04.73-.14l-.02-.57c-.17.09-.37.13-.55.13-.55,0-.56-.38-.56-.86v-1.87h1.1v-.53Zm-4.05-1.46c0,.26.19.46.46.46s.46-.19.46-.46c0-.25-.2-.46-.46-.46s-.46.21-.46.46m.14,5.2h.62v-3.74h-.62v3.74Zm-3.88-.6c.37.53.82.7,1.46.7.74,0,1.49-.33,1.49-1.18,0-.75-.56-.99-1.22-1.12-.5-.1-.94-.23-.94-.54,0-.35.39-.52.74-.52.37,0,.63.18.79.45l.52-.34c-.26-.48-.74-.68-1.27-.68-.7,0-1.4.38-1.4,1.1,0,.77.61.93,1.32,1.09.4.09.8.19.8.59s-.43.58-.82.58c-.44,0-.71-.2-.96-.5l-.49.38Zm-4.03.6h.62v-1.82c0-.86.35-1.44,1.16-1.44.58,0,.86.39.86,1.01v2.25h.62v-2.31c0-.9-.44-1.53-1.42-1.53-.61,0-1.08.34-1.25.71h-.02c0-.21-.02-.42-.02-.62h-.59c0,.25.03.54.03.89v2.85Zm-1.77-1.8v.24c-.02.61-.38,1.13-1.1,1.13-.47,0-.82-.17-.82-.65,0-.5.51-.72,1.3-.72h.62Zm-2.04-1.05c.3-.27.71-.41,1.11-.41.58,0,.93.28.93.82v.11h-.24c-.92,0-2.36.07-2.36,1.31,0,.73.63,1.11,1.39,1.11.57,0,.98-.27,1.23-.65h.02c0,.16,0,.39.04.56h.6c-.03-.19-.06-.43-.06-.65v-1.61c0-1.05-.46-1.58-1.57-1.58-.54,0-1.1.18-1.49.58l.39.41Zm-3.16,2.85h.62v-1.82c0-.86.34-1.39,1.1-1.39.11,0,.23.02.34.05l.04-.63-.26-.04c-.62,0-1.08.34-1.25.71h-.02c0-.21-.02-.42-.02-.62h-.59c0,.25.03.54.03.89v2.85Zm.05-5.66h-4.41v.62h1.87v5.04h.67v-5.04h1.87v-.62Zm-9.96,5.06c.37.53.82.7,1.46.7.74,0,1.49-.33,1.49-1.18,0-.75-.56-.99-1.22-1.12-.5-.1-.94-.23-.94-.54,0-.35.39-.52.74-.52.37,0,.63.18.79.45l.52-.34c-.26-.48-.74-.68-1.27-.68-.7,0-1.4.38-1.4,1.1,0,.77.61.93,1.32,1.09.4.09.8.19.8.59s-.43.58-.82.58c-.44,0-.71-.2-.96-.5l-.5.38Zm-3.41,0c.37.53.82.7,1.45.7.74,0,1.5-.33,1.5-1.18,0-.75-.56-.99-1.22-1.12-.5-.1-.94-.23-.94-.54,0-.35.39-.52.74-.52.37,0,.63.18.79.45l.52-.34c-.25-.48-.74-.68-1.27-.68-.7,0-1.4.38-1.4,1.1,0,.77.61.93,1.32,1.09.4.09.8.19.8.59s-.43.58-.82.58c-.44,0-.71-.2-.96-.5l-.5.38Zm-1.35-1.2v.24c-.02.61-.38,1.13-1.1,1.13-.47,0-.82-.17-.82-.65,0-.5.51-.72,1.3-.72h.62Zm-2.04-1.05c.29-.27.71-.41,1.11-.41.58,0,.93.28.93.82v.11h-.24c-.92,0-2.36.07-2.36,1.31,0,.73.63,1.11,1.39,1.11.57,0,.98-.27,1.23-.65h.02c0,.16,0,.39.04.56h.6c-.03-.19-.06-.43-.06-.65v-1.61c0-1.05-.46-1.58-1.57-1.58-.54,0-1.1.18-1.49.58l.39.41Zm-2.21,2.85h.62v-6.05h-.62v6.05Zm-1.35-3.17h-1.98v.62h1.3v1.73c-.41.21-.95.33-1.41.33-1.39,0-2.34-1-2.34-2.35s.98-2.35,2.28-2.35c.58,0,1.16.23,1.54.65l.5-.53c-.54-.54-1.26-.74-2-.74-1.7,0-3.05,1.19-3.05,2.98s1.26,2.97,3.02,2.97c.74,0,1.47-.17,2.12-.53v-2.78Z"/>
    <path class="cls-3" d="m153.57,64.59c-.23-.26-.34-.6-.34-.99,0-1.03.51-1.55,1.52-1.55.19,0,.34.05.44.15l.16.14c.06.07.13.15.19.25.06.1.12.23.16.38.04.15.06.33.06.54,0,.37-.1.7-.3,1.01-.19.33-.5.49-.93.5-.42,0-.74-.15-.97-.43m-.69-4.15l1.5,1.07v.02c-1.27.1-1.91.78-1.92,2.04,0,.59.19,1.07.56,1.44.36.38.85.58,1.46.58.67-.01,1.18-.22,1.53-.64.35-.41.52-.89.53-1.44,0-.38-.08-.74-.26-1.09-.2-.34-.56-.69-1.08-1.04l-1.4-.92v-.02h2.24v-.58h-3.15v.58Z"/>
    <path class="cls-3" d="m173.02,65.52h.62v-1.97l1.86,1.97h.92l-1.99-2.04,1.81-1.7h-.89l-1.7,1.65v-3.95h-.62v6.04Zm-1.77-1.8v.24c-.02.61-.38,1.13-1.1,1.13-.47,0-.82-.18-.82-.65,0-.5.51-.72,1.3-.72h.62Zm-2.04-1.05c.3-.27.71-.41,1.11-.41.58,0,.93.28.93.82v.11h-.24c-.92,0-2.36.07-2.36,1.31,0,.73.63,1.11,1.39,1.11.57,0,.98-.27,1.23-.66h.02c0,.16,0,.39.04.56h.6c-.03-.19-.06-.43-.06-.65v-1.61c0-1.06-.46-1.58-1.57-1.58-.54,0-1.1.18-1.49.58l.39.41Zm-4.34.65c.08-.63.54-1.05,1.22-1.05s1.1.42,1.13,1.05h-2.35Zm2.41,1.16c-.29.38-.65.57-1.19.57-.68,0-1.18-.55-1.22-1.2h3.02v-.2c0-1.24-.72-1.96-1.77-1.96s-1.92.81-1.92,1.97c0,1.09.72,1.97,1.9,1.97.7,0,1.22-.21,1.66-.78l-.47-.37Zm-7.17-.82c0-.78.52-1.39,1.33-1.39s1.33.61,1.33,1.39-.52,1.39-1.33,1.39-1.33-.61-1.33-1.39m-.62,3.69h.62v-2.49h.02c.23.42.77.76,1.44.76,1.05,0,1.87-.85,1.87-1.97s-.79-1.97-1.97-1.97c-.54,0-1,.24-1.34.64h-.02v-.54h-.62v5.56Z"/>
    <path class="cls-3" d="m214.2,62.69c0-.83.13-2.35,1.25-2.35s1.25,1.52,1.25,2.35-.13,2.35-1.25,2.35-1.25-1.52-1.25-2.35m-.67,0c0,1.29.36,2.93,1.92,2.93s1.92-1.64,1.92-2.93-.36-2.93-1.92-2.93-1.92,1.64-1.92,2.93m-1.87-2.83h-.58l-1.52,1.23.4.49,1.01-.86h.02v4.8h.67v-5.66Zm-6.93,5.66h3.65v-.62h-2.89v-.02l1.74-1.64c.57-.54,1.1-1.04,1.1-1.94,0-1.01-.79-1.54-1.73-1.54s-1.62.49-1.78,1.42l.73.06c.1-.54.5-.9,1.07-.9s1.03.37,1.03.96c0,.55-.26.86-.8,1.38l-2.13,2.08v.77Z"/>
    <path class="cls-3" d="m127.48,71.97c.69,1.08,1.02,1.96,1.02,3.25,0,1.17-.34,2.29-1.02,3.23l.43.32c.74-1,1.17-2.24,1.17-3.55,0-1.22-.41-2.5-1.17-3.55l-.43.3Zm-3.42,4.95c.37.53.82.7,1.46.7.74,0,1.5-.33,1.5-1.18,0-.75-.56-.99-1.22-1.12-.5-.1-.94-.23-.94-.54,0-.35.39-.52.74-.52.37,0,.63.18.79.45l.52-.34c-.26-.48-.74-.68-1.27-.68-.7,0-1.4.38-1.4,1.1,0,.78.61.93,1.32,1.09.4.09.8.19.8.59s-.43.58-.82.58c-.44,0-.71-.2-.96-.5l-.5.38Zm-3.41,0c.37.53.82.7,1.46.7.74,0,1.49-.33,1.49-1.18,0-.75-.56-.99-1.22-1.12-.5-.1-.94-.23-.94-.54,0-.35.39-.52.74-.52.37,0,.63.18.79.45l.52-.34c-.26-.48-.74-.68-1.27-.68-.7,0-1.4.38-1.4,1.1,0,.78.61.93,1.32,1.09.4.09.8.19.8.59s-.43.58-.82.58c-.44,0-.71-.2-.96-.5l-.5.38Zm-3.88-1.27c0-.78.52-1.39,1.33-1.39s1.33.61,1.33,1.39-.52,1.39-1.33,1.39-1.33-.61-1.33-1.39m-.67,0c0,1.17.85,1.97,2,1.97s2-.8,2-1.97-.85-1.97-2-1.97-2,.8-2,1.97m-1.65,1.87h.62v-6.04h-.62v6.04Zm-3.98-.91c-.26,0-.48.22-.48.48s.23.48.48.48.48-.22.48-.48-.22-.48-.48-.48m-1.29-2.83h-1.1v-1.06h-.62v1.06h-.82v.53h.82v2.06c0,.77.14,1.25,1.03,1.25.23,0,.51-.04.73-.14l-.02-.57c-.17.09-.37.13-.55.13-.55,0-.56-.38-.56-.86v-1.87h1.1v-.53Zm-2.75,0h-.67l-.85,2.88h-.02l-.98-2.88h-.66l-.97,2.88h-.02l-.86-2.88h-.69l1.21,3.74h.64l.94-2.88h.02l1.06,2.88h.62l1.21-3.74Zm-13.34,3.74l.44.26,3.55-5.92-.44-.26-3.55,5.92Zm2.77-1.3c0-.45.38-.82.82-.82s.82.38.82.82-.38.82-.82.82-.82-.38-.82-.82m-.57,0c0,.78.61,1.4,1.4,1.4s1.4-.62,1.4-1.4-.62-1.4-1.4-1.4-1.4.62-1.4,1.4m-2.68-3.05c0-.45.38-.82.82-.82s.82.38.82.82-.38.82-.82.82-.82-.38-.82-.82m-.58,0c0,.78.62,1.4,1.4,1.4s1.4-.62,1.4-1.4-.62-1.4-1.4-1.4-1.4.62-1.4,1.4m-.96-1.3h-2.97l-.06,2.94c.34-.2.77-.35,1.15-.35.79,0,1.4.46,1.4,1.29,0,.78-.54,1.3-1.22,1.3-.48,0-.86-.29-1.05-.71l-.67.26c.3.62.82,1.03,1.67,1.03,1.1,0,1.94-.75,1.94-1.88,0-1.06-.72-1.86-1.81-1.86-.23,0-.51.03-.73.14l.02-1.53h2.31v-.62Zm-7.47,1.26h-.52l-.14.5h-.02c-.18-.48-.52-.66-.89-.66-1.13,0-1.86,1.15-1.86,2.26,0,.7.45,1.24,1.13,1.24.47,0,.75-.24,1-.53h.02c.02.36.24.53.51.53.75,0,1.87-.93,1.87-2.31s-1.24-2.45-2.7-2.45c-1.65,0-2.99,1.31-2.99,2.97s1.31,2.98,2.99,2.98c1.04,0,2.01-.53,2.52-1.4h-.5c-.43.58-1.22.97-2.02.97-1.32,0-2.46-1.11-2.46-2.54s1.08-2.54,2.46-2.54c1.11,0,2.18.8,2.18,2.05,0,.89-.61,1.74-1.12,1.74-.14,0-.19-.05-.19-.16,0-.12.03-.27.07-.4l.67-2.26Zm-2.85,2.06c0-.7.54-1.68,1.29-1.68.34,0,.65.34.65.75,0,.65-.54,1.7-1.24,1.7-.4,0-.7-.33-.7-.77m-4.7-2.57c-.48-.62-1.23-.89-2-.89-1.68,0-2.88,1.31-2.88,2.97s1.26,2.98,2.88,2.98c.9,0,1.64-.31,2.14-.99l-.5-.42c-.4.51-.95.79-1.64.79-1.27,0-2.16-1.04-2.16-2.35,0-1.24.9-2.35,2.16-2.35.54,0,1.08.23,1.42.69l.58-.42Zm-7.57.3c0-.33.29-.71.71-.71s.71.38.71.71-.29.71-.71.71-.71-.38-.71-.71m-.43,0c0,.64.5,1.14,1.14,1.14s1.14-.5,1.14-1.14-.5-1.14-1.14-1.14-1.14.5-1.14,1.14m-.64,5.56c-.69-1.08-1.02-1.96-1.02-3.25,0-1.17.34-2.29,1.02-3.23l-.43-.32c-.74,1-1.17,2.24-1.17,3.55,0,1.22.41,2.5,1.17,3.55l.43-.3Zm-4.35-4.68h-.68l-1.11,2.93h-.02l-1.16-2.93h-.73l1.55,3.77-.26.7c-.14.37-.29.62-.7.62-.18,0-.31-.02-.44-.06l-.08.54c.17.08.38.1.56.1.75,0,1-.43,1.25-1.06l1.81-4.6Zm-3.95,0h-1.1v-1.06h-.62v1.06h-.82v.53h.82v2.06c0,.77.14,1.25,1.03,1.25.23,0,.51-.04.73-.14l-.02-.57c-.17.09-.37.13-.55.13-.55,0-.56-.38-.56-.86v-1.87h1.1v-.53Zm-4.05-1.46c0,.26.19.46.46.46s.46-.19.46-.46c0-.25-.2-.46-.46-.46s-.46.21-.46.46m.14,5.21h.62v-3.74h-.62v3.74Zm-1.92,0h.62v-6.04h-.62v6.04Zm-2.06-5.21c0,.26.19.46.46.46s.46-.19.46-.46c0-.25-.2-.46-.46-.46s-.46.21-.46.46m.14,5.21h.62v-3.74h-.62v3.74Zm-4.35-1.87c0-.78.52-1.39,1.33-1.39s1.33.61,1.33,1.39-.52,1.39-1.33,1.39-1.33-.61-1.33-1.39m-.62,1.87h.62v-.66h.02c.23.42.77.76,1.44.76,1.05,0,1.87-.85,1.87-1.97s-.79-1.97-1.97-1.97c-.54,0-1,.24-1.34.64h-.02v-2.85h-.62v6.04Zm-1.74-1.8v.24c-.02.61-.38,1.13-1.1,1.13-.47,0-.82-.18-.82-.65,0-.5.51-.72,1.3-.72h.62Zm-2.04-1.06c.3-.27.71-.41,1.11-.41.58,0,.93.28.93.82v.11h-.24c-.92,0-2.36.07-2.36,1.31,0,.73.63,1.11,1.39,1.11.57,0,.98-.27,1.23-.66h.02c0,.16,0,.39.04.56h.6c-.03-.19-.06-.43-.06-.65v-1.61c0-1.05-.46-1.58-1.57-1.58-.54,0-1.1.18-1.49.58l.39.41Zm-1.11-.89h-1.1v-1.06h-.62v1.06h-.82v.53h.82v2.06c0,.77.14,1.25,1.03,1.25.23,0,.51-.04.73-.14l-.02-.57c-.17.09-.37.13-.55.13-.55,0-.56-.38-.56-.86v-1.87h1.1v-.53Zm-3.14-1.4c-.42-.49-.95-.66-1.58-.66-.99,0-1.93.54-1.93,1.63,0,.94.61,1.29,1.41,1.56,1.01.34,1.48.46,1.48,1.15,0,.65-.66.98-1.23.98-.49,0-.97-.22-1.21-.63l-.58.47c.38.57,1.09.78,1.74.78,1.02,0,1.99-.53,1.99-1.65s-.82-1.4-1.7-1.68c-.9-.29-1.19-.52-1.19-1.04,0-.67.62-.95,1.21-.95.41,0,.81.16,1.03.52l.55-.48Zm-7.44,5.14h.62v-6.04h-.62v6.04Zm-1.83-1.8v.24c-.02.61-.38,1.13-1.1,1.13-.47,0-.82-.18-.82-.65,0-.5.51-.72,1.3-.72h.62Zm-2.04-1.06c.3-.27.71-.41,1.11-.41.58,0,.93.28.93.82v.11h-.24c-.92,0-2.36.07-2.36,1.31,0,.73.63,1.11,1.39,1.11.57,0,.98-.27,1.23-.66h.02c0,.16,0,.39.04.56h.6c-.03-.19-.06-.43-.06-.65v-1.61c0-1.05-.46-1.58-1.57-1.58-.54,0-1.1.18-1.49.58l.39.41Zm-7.16,2.85h.62v-1.82c0-.86.35-1.44,1.16-1.44.51,0,.72.32.72,1.14v2.12h.62v-2.16c0-.67.44-1.1.97-1.1.73,0,.91.5.91,1.02v2.24h.62v-2.27c0-.97-.35-1.57-1.42-1.57-.57,0-.91.27-1.18.71-.12-.26-.38-.71-1.18-.71-.61,0-1.08.34-1.25.71h-.02c0-.21-.02-.42-.02-.62h-.59c0,.25.03.54.03.89v2.85Zm-2.82,0h.62v-1.82c0-.86.34-1.39,1.1-1.39.11,0,.23.02.34.05l.04-.63-.26-.04c-.62,0-1.08.34-1.25.71h-.02c0-.21-.02-.42-.02-.62h-.59c0,.25.03.54.03.89v2.85Zm-3.99-2.21c.08-.63.54-1.06,1.22-1.06s1.1.42,1.13,1.06h-2.35Zm2.41,1.16c-.3.38-.66.57-1.19.57-.68,0-1.18-.55-1.22-1.2h3.02v-.2c0-1.24-.72-1.96-1.77-1.96s-1.92.81-1.92,1.97c0,1.09.72,1.97,1.9,1.97.7,0,1.22-.21,1.66-.78l-.47-.37Zm-7.32,1.05h.62v-1.82c0-.86.35-1.44,1.16-1.44.58,0,.86.39.86,1.01v2.25h.62v-2.31c0-.9-.44-1.53-1.42-1.53-.58,0-1.03.32-1.2.62h-.02v-2.82h-.62v6.04Zm-.68-5.66H3.09v.62h1.87v5.04h.67v-5.04h1.87v-.62Z"/>
    <path class="cls-3" d="m217.01,71.86h-2.97l-.06,2.94c.34-.2.77-.35,1.15-.35.79,0,1.4.46,1.4,1.29,0,.78-.54,1.3-1.21,1.3-.48,0-.86-.29-1.06-.71l-.67.26c.3.62.82,1.03,1.67,1.03,1.1,0,1.94-.75,1.94-1.88,0-1.06-.72-1.86-1.81-1.86-.23,0-.51.03-.73.14l.02-1.53h2.31v-.62Zm-5.36,0h-.58l-1.52,1.23.4.49,1.02-.86h.02v4.8h.67v-5.66Zm-5.69,2.97h.21c.7,0,1.43.26,1.43,1.1,0,.66-.51,1.11-1.15,1.11s-.95-.23-1.14-.84l-.68.22c.29.84.97,1.19,1.82,1.19,1.01,0,1.87-.56,1.87-1.64,0-.71-.44-1.3-1.16-1.42v-.02c.57-.18.97-.7.97-1.29,0-.98-.78-1.48-1.69-1.48-.72,0-1.37.32-1.64.96l.65.25c.2-.42.57-.63,1.04-.63.57,0,.97.36.97.94,0,.85-.73.98-1.29.98h-.21v.58Z"/>
    <path class="cls-3" d="m109,83.97c.69,1.08,1.02,1.96,1.02,3.25,0,1.17-.34,2.29-1.02,3.23l.43.32c.74-1,1.17-2.24,1.17-3.55,0-1.22-.41-2.5-1.17-3.55l-.43.3Zm-4.52,5.55h.67v-2.88h.1l2.69,2.88h.98l-2.93-3.08,2.8-2.58h-.97l-2.57,2.45h-.1v-2.45h-.67v5.66Zm-1.82-.91c-.26,0-.48.22-.48.48s.23.48.48.48.48-.22.48-.48-.22-.48-.48-.48m-7.34.91h.62v-1.82c0-.86.35-1.44,1.16-1.44.51,0,.72.32.72,1.14v2.12h.62v-2.16c0-.67.44-1.1.97-1.1.73,0,.91.5.91,1.02v2.24h.62v-2.27c0-.97-.35-1.57-1.42-1.57-.57,0-.91.27-1.18.71-.12-.26-.38-.71-1.18-.71-.62,0-1.08.34-1.25.71h-.02c0-.21-.02-.42-.02-.62h-.59c0,.25.03.54.03.89v2.85Zm-.62-5.81l-.5-.19-2.41,6.14.5.2,2.41-6.15Zm-8.93,5.81h.74l1.41-4.8h.02l1.4,4.8h.73l1.66-5.66h-.7l-1.31,4.7h-.02l-1.38-4.7h-.75l-1.39,4.7h-.02l-1.29-4.7h-.74l1.66,5.66Zm-1.89.94c-.69-1.08-1.02-1.96-1.02-3.25,0-1.17.34-2.29,1.02-3.23l-.43-.32c-.74,1-1.17,2.24-1.17,3.55,0,1.22.41,2.5,1.17,3.55l.43-.3Zm-4.35-4.68h-.68l-1.11,2.93h-.02l-1.16-2.93h-.73l1.55,3.77-.26.7c-.14.37-.29.62-.7.62-.18,0-.31-.02-.44-.06l-.08.54c.17.08.38.1.56.1.75,0,1-.43,1.25-1.06l1.81-4.6Zm-3.95,0h-1.1v-1.06h-.62v1.06h-.82v.53h.82v2.06c0,.77.14,1.25,1.03,1.25.23,0,.51-.04.73-.14l-.02-.57c-.17.09-.37.13-.55.13-.55,0-.56-.38-.56-.86v-1.87h1.1v-.53Zm-4.05-1.46c0,.26.19.46.46.46s.46-.19.46-.46c0-.25-.2-.46-.46-.46s-.46.21-.46.46m.14,5.21h.62v-3.74h-.62v3.74Zm-.73-3.74h-.67l-1.11,2.93h-.02l-1.17-2.93h-.73l1.53,3.74h.69l1.48-3.74Zm-5.19-1.46c0,.26.19.46.46.46s.46-.19.46-.46c0-.25-.2-.46-.46-.46s-.46.21-.46.46m.14,5.21h.62v-3.74h-.62v3.74Zm-.82-3.74h-1.1v-1.06h-.62v1.06h-.82v.53h.82v2.06c0,.77.14,1.25,1.03,1.25.23,0,.51-.04.73-.14l-.02-.57c-.17.09-.37.13-.55.13-.55,0-.56-.38-.56-.86v-1.87h1.1v-.53Zm-2.74.5c-.38-.41-.89-.59-1.44-.59-1.15,0-1.93.83-1.93,1.97s.78,1.97,1.93,1.97c.54,0,1.06-.18,1.42-.6l-.46-.44c-.23.32-.54.46-.95.46-.76,0-1.26-.62-1.26-1.39s.42-1.39,1.26-1.39c.38,0,.68.14.94.46l.5-.44Zm-4.34-.5h-.62v1.82c0,.85-.35,1.44-1.16,1.44-.58,0-.86-.39-.86-1.02v-2.25h-.62v2.31c0,.9.44,1.53,1.42,1.53.62,0,1.08-.34,1.25-.71h.02c0,.21.02.42.02.62h.59c0-.25-.03-.54-.03-.89v-2.85Zm-5.04,1.87c0,.78-.52,1.39-1.33,1.39s-1.33-.61-1.33-1.39.52-1.39,1.33-1.39,1.33.61,1.33,1.39m0,1.87h.62v-6.04h-.62v2.85h-.02c-.34-.4-.8-.64-1.34-.64-1.17,0-1.97.83-1.97,1.97s.82,1.97,1.87,1.97c.67,0,1.21-.34,1.44-.76h.02v.66Zm-7.56,0h.62v-1.82c0-.86.35-1.44,1.16-1.44.58,0,.86.39.86,1.01v2.25h.62v-2.31c0-.9-.44-1.53-1.42-1.53-.61,0-1.08.34-1.25.71h-.02c0-.21-.02-.42-.02-.62h-.59c0,.25.03.54.03.89v2.85Zm-4.3-1.87c0-.78.52-1.39,1.33-1.39s1.33.61,1.33,1.39-.52,1.39-1.33,1.39-1.33-.61-1.33-1.39m-.67,0c0,1.17.85,1.97,2,1.97s2-.8,2-1.97-.85-1.97-2-1.97-2,.8-2,1.97m-.75-3.05c-.48-.62-1.23-.89-2-.89-1.68,0-2.88,1.31-2.88,2.97s1.26,2.98,2.88,2.98c.9,0,1.64-.31,2.14-.99l-.5-.42c-.4.51-.95.79-1.64.79-1.27,0-2.16-1.04-2.16-2.35,0-1.24.9-2.35,2.16-2.35.54,0,1.08.23,1.42.69l.58-.42Zm-8.75,4.92h.62v-6.04h-.62v6.04Zm-1.83-1.8v.24c-.02.61-.38,1.13-1.1,1.13-.47,0-.82-.18-.82-.65,0-.5.51-.72,1.3-.72h.62Zm-2.04-1.06c.3-.27.71-.41,1.11-.41.58,0,.93.28.93.82v.11h-.24c-.92,0-2.36.07-2.36,1.31,0,.73.63,1.11,1.39,1.11.57,0,.98-.27,1.23-.66h.02c0,.16,0,.39.04.56h.6c-.03-.19-.06-.43-.06-.65v-1.61c0-1.05-.46-1.58-1.57-1.58-.54,0-1.1.18-1.49.58l.39.41Zm-7.16,2.85h.62v-1.82c0-.86.35-1.44,1.16-1.44.51,0,.72.32.72,1.14v2.12h.62v-2.16c0-.67.44-1.1.97-1.1.73,0,.91.5.91,1.02v2.24h.62v-2.27c0-.97-.35-1.57-1.42-1.57-.57,0-.91.27-1.18.71-.12-.26-.38-.71-1.18-.71-.61,0-1.08.34-1.25.71h-.02c0-.21-.02-.42-.02-.62h-.59c0,.25.03.54.03.89v2.85Zm-2.82,0h.62v-1.82c0-.86.34-1.39,1.1-1.39.11,0,.23.02.34.05l.04-.63-.26-.04c-.62,0-1.08.34-1.25.71h-.02c0-.21-.02-.42-.02-.62h-.59c0,.25.03.54.03.89v2.85Zm-3.99-2.21c.08-.63.54-1.06,1.22-1.06s1.1.42,1.13,1.06h-2.35Zm2.41,1.16c-.3.38-.66.57-1.19.57-.68,0-1.18-.55-1.22-1.2h3.02v-.2c0-1.24-.72-1.96-1.77-1.96s-1.92.81-1.92,1.97c0,1.09.72,1.97,1.9,1.97.7,0,1.22-.21,1.66-.78l-.47-.37Zm-7.32,1.05h.62v-1.82c0-.86.35-1.44,1.16-1.44.58,0,.86.39.86,1.01v2.25h.62v-2.31c0-.9-.44-1.53-1.42-1.53-.58,0-1.03.32-1.2.62h-.02v-2.82h-.62v6.04Zm-.68-5.66H3.09v.62h1.87v5.04h.67v-5.04h1.87v-.62Z"/>
    <path class="cls-3" d="m213.74,86.83h.21c.7,0,1.43.26,1.43,1.1,0,.66-.51,1.11-1.15,1.11s-.95-.23-1.14-.84l-.68.22c.29.84.97,1.19,1.82,1.19,1.01,0,1.87-.56,1.87-1.64,0-.71-.44-1.3-1.16-1.42v-.02c.57-.18.97-.7.97-1.29,0-.98-.78-1.48-1.69-1.48-.72,0-1.37.32-1.64.96l.65.25c.2-.42.57-.63,1.04-.63.57,0,.97.36.97.94,0,.85-.73.98-1.29.98h-.21v.58Zm-2.74,1.77c-.26,0-.48.22-.48.48s.23.48.48.48.48-.21.48-.48-.22-.48-.48-.48m-4.58-1.92c0-.83.13-2.35,1.25-2.35s1.25,1.52,1.25,2.35-.13,2.35-1.25,2.35-1.25-1.52-1.25-2.35m-.67,0c0,1.29.36,2.93,1.92,2.93s1.92-1.64,1.92-2.93-.36-2.93-1.92-2.93-1.92,1.64-1.92,2.93"/>
    <path class="cls-3" d="m160.45,95.97c.69,1.08,1.02,1.96,1.02,3.25,0,1.17-.34,2.29-1.02,3.23l.43.32c.74-1,1.17-2.24,1.17-3.55,0-1.22-.41-2.5-1.17-3.55l-.43.3Zm-6.41,5.55h.62v-1.82c0-.85.35-1.44,1.16-1.44.51,0,.72.32.72,1.14v2.12h.62v-2.16c0-.67.44-1.1.97-1.1.73,0,.91.5.91,1.02v2.24h.62v-2.27c0-.97-.35-1.57-1.42-1.57-.57,0-.91.27-1.18.71-.12-.26-.38-.71-1.18-.71-.62,0-1.08.34-1.25.71h-.02c0-.21-.02-.42-.02-.62h-.59c0,.25.03.54.03.89v2.85Zm-4.3-1.87c0-.78.52-1.39,1.33-1.39s1.33.61,1.33,1.39-.52,1.39-1.33,1.39-1.33-.61-1.33-1.39m-.62,3.69h.62v-2.49h.02c.23.42.77.76,1.44.76,1.05,0,1.87-.85,1.87-1.97s-.79-1.97-1.97-1.97c-.54,0-1,.24-1.34.64h-.02v-.54h-.62v5.57Zm-4.27-3.69c0-.78.52-1.39,1.33-1.39s1.33.61,1.33,1.39-.52,1.39-1.33,1.39-1.33-.61-1.33-1.39m-.62,3.69h.62v-2.49h.02c.23.42.77.76,1.44.76,1.05,0,1.87-.85,1.87-1.97s-.79-1.97-1.97-1.97c-.54,0-1,.24-1.34.64h-.02v-.54h-.62v5.57Zm-6.83-1.82h3.7v-.62h-3.03v-2.01h2.7v-.62h-2.7v-1.78h2.89v-.62h-3.56v5.66Zm-.79-5.66h-4.41v.62h1.87v5.04h.67v-5.04h1.87v-.62Zm-4.88.74c-.48-.62-1.23-.89-2-.89-1.68,0-2.88,1.31-2.88,2.97s1.26,2.97,2.88,2.97c.9,0,1.64-.31,2.14-.99l-.5-.42c-.4.51-.95.79-1.64.79-1.27,0-2.16-1.04-2.16-2.35,0-1.24.9-2.35,2.16-2.35.54,0,1.08.23,1.42.69l.58-.42Zm-5.44,5.86c-.69-1.08-1.02-1.96-1.02-3.25,0-1.17.34-2.29,1.02-3.23l-.43-.32c-.74,1-1.17,2.24-1.17,3.55,0,1.22.41,2.5,1.17,3.55l.43-.3Zm-8.12-.94h.62v-1.82c0-.85.35-1.44,1.16-1.44.58,0,.85.39.85,1.02v2.25h.62v-2.31c0-.9-.44-1.53-1.42-1.53-.62,0-1.08.34-1.25.71h-.02c0-.21-.02-.42-.02-.62h-.59c0,.25.03.54.03.89v2.85Zm-4.3-1.87c0-.78.52-1.39,1.33-1.39s1.33.61,1.33,1.39-.52,1.39-1.33,1.39-1.33-.61-1.33-1.39m-.67,0c0,1.17.85,1.97,2,1.97s2-.8,2-1.97-.85-1.97-2-1.97-2,.8-2,1.97m-1.79-3.33c0,.26.19.46.45.46s.46-.19.46-.46c0-.25-.2-.46-.46-.46s-.45.21-.45.46m.14,5.21h.62v-3.74h-.62v3.74Zm-3.88-.6c.37.53.82.69,1.45.69.74,0,1.49-.33,1.49-1.17,0-.75-.56-.99-1.22-1.12-.5-.1-.94-.23-.94-.54,0-.35.39-.52.74-.52.37,0,.63.18.79.45l.52-.34c-.26-.48-.74-.68-1.27-.68-.7,0-1.4.38-1.4,1.1,0,.77.61.93,1.32,1.09.4.09.8.19.8.59s-.43.58-.82.58c-.44,0-.71-.2-.96-.5l-.5.38Zm-4.03.6h.62v-1.82c0-.85.35-1.44,1.16-1.44.58,0,.86.39.86,1.02v2.25h.62v-2.31c0-.9-.44-1.53-1.42-1.53-.62,0-1.08.34-1.25.71h-.02c0-.21-.02-.42-.02-.62h-.59c0,.25.03.54.03.89v2.85Zm-1.77-1.8v.24c-.02.61-.38,1.13-1.1,1.13-.47,0-.82-.18-.82-.65,0-.5.51-.72,1.3-.72h.62Zm-2.04-1.06c.3-.27.71-.41,1.11-.41.58,0,.93.28.93.82v.11h-.24c-.92,0-2.36.07-2.36,1.31,0,.73.63,1.11,1.39,1.11.57,0,.98-.27,1.23-.65h.02c0,.16,0,.39.04.56h.6c-.03-.19-.06-.43-.06-.65v-1.61c0-1.06-.46-1.58-1.57-1.58-.54,0-1.1.18-1.49.58l.39.41Zm-4.64.98c0-.78.52-1.39,1.33-1.39s1.33.61,1.33,1.39-.52,1.39-1.33,1.39-1.33-.61-1.33-1.39m-.62,3.69h.62v-2.49h.02c.23.42.77.76,1.44.76,1.05,0,1.87-.85,1.87-1.97s-.79-1.97-1.97-1.97c-.54,0-1,.24-1.34.64h-.02v-.54h-.62v5.57Zm-4.54-1.82h.78l1.17-1.62,1.18,1.62h.82l-1.54-2.01,1.29-1.73h-.76l-.93,1.34-.99-1.34h-.82l1.34,1.73-1.54,2.01Zm-4.06,0h3.7v-.62h-3.03v-2.01h2.7v-.62h-2.7v-1.78h2.89v-.62h-3.56v5.66Zm-4.2,0h.62v-6.04h-.62v6.04Zm-1.83-1.8v.24c-.02.61-.38,1.13-1.1,1.13-.47,0-.82-.18-.82-.65,0-.5.51-.72,1.3-.72h.62Zm-2.04-1.06c.3-.27.71-.41,1.11-.41.58,0,.93.28.93.82v.11h-.24c-.92,0-2.36.07-2.36,1.31,0,.73.63,1.11,1.39,1.11.57,0,.98-.27,1.23-.65h.02c0,.16,0,.39.04.56h.6c-.03-.19-.06-.43-.06-.65v-1.61c0-1.06-.46-1.58-1.57-1.58-.54,0-1.1.18-1.49.58l.39.41Zm-7.16,2.85h.62v-1.82c0-.85.35-1.44,1.16-1.44.51,0,.72.32.72,1.14v2.12h.62v-2.16c0-.67.44-1.1.97-1.1.73,0,.91.5.91,1.02v2.24h.62v-2.27c0-.97-.35-1.57-1.42-1.57-.57,0-.91.27-1.18.71-.12-.26-.38-.71-1.18-.71-.62,0-1.08.34-1.25.71h-.02c0-.21-.02-.42-.02-.62h-.59c0,.25.03.54.03.89v2.85Zm-2.82,0h.62v-1.82c0-.85.34-1.39,1.1-1.39.11,0,.23.02.34.05l.04-.63-.26-.04c-.62,0-1.08.34-1.25.71h-.02c0-.21-.02-.42-.02-.62h-.59c0,.25.03.54.03.89v2.85Zm-3.99-2.21c.08-.63.54-1.06,1.22-1.06s1.1.42,1.13,1.06h-2.35Zm2.42,1.16c-.3.38-.66.57-1.19.57-.68,0-1.18-.55-1.22-1.2h3.02v-.2c0-1.24-.72-1.96-1.77-1.96s-1.92.81-1.92,1.97c0,1.09.72,1.97,1.9,1.97.69,0,1.22-.21,1.66-.77l-.47-.37Zm-7.32,1.05h.62v-1.82c0-.85.35-1.44,1.16-1.44.58,0,.86.39.86,1.02v2.25h.62v-2.31c0-.9-.44-1.53-1.42-1.53-.58,0-1.03.32-1.2.62h-.02v-2.82h-.62v6.04Zm-.68-5.66h-4.41v.62h1.87v5.04h.67v-5.04h1.87v-.62Zm-8.33,5.66h.62v-3.21h.91v-.53h-.91v-.7c0-.65.02-1.12.67-1.12.14,0,.29.03.42.08l.09-.56c-.12-.06-.32-.1-.48-.1-1.01,0-1.33.65-1.33,1.56v.84h-.82v.53h.82v3.21Zm-4.62-1.87c0-.78.52-1.39,1.33-1.39s1.33.61,1.33,1.39-.52,1.39-1.33,1.39-1.33-.61-1.33-1.39m-.67,0c0,1.17.85,1.97,2,1.97s2-.8,2-1.97-.85-1.97-2-1.97-2,.8-2,1.97m-2.78-1.87h-1.1v-1.06h-.62v1.06h-.82v.53h.82v2.06c0,.78.14,1.25,1.03,1.25.23,0,.51-.04.73-.14l-.02-.57c-.17.09-.37.13-.55.13-.55,0-.56-.38-.56-.86v-1.87h1.1v-.53Zm-6.49,3.74h.62v-1.82c0-.85.35-1.44,1.16-1.44.58,0,.86.39.86,1.02v2.25h.62v-2.31c0-.9-.44-1.53-1.42-1.53-.61,0-1.08.34-1.25.71h-.02c0-.21-.02-.42-.02-.62h-.59c0,.25.03.54.03.89v2.85Zm-3.99-2.21c.08-.63.54-1.06,1.22-1.06s1.1.42,1.13,1.06h-2.35Zm2.42,1.16c-.3.38-.66.57-1.19.57-.68,0-1.18-.55-1.22-1.2h3.02v-.2c0-1.24-.72-1.96-1.78-1.96s-1.92.81-1.92,1.97c0,1.09.72,1.97,1.89,1.97.7,0,1.22-.21,1.66-.77l-.47-.37Zm-4.88-4.16c0,.26.19.46.46.46s.46-.19.46-.46c0-.25-.2-.46-.46-.46s-.46.21-.46.46m.14,5.21h.62v-3.74h-.62v3.74Zm-.75-3.25c-.38-.41-.89-.59-1.44-.59-1.15,0-1.93.83-1.93,1.97s.77,1.97,1.93,1.97c.54,0,1.05-.18,1.41-.6l-.46-.44c-.23.32-.54.46-.95.46-.76,0-1.26-.62-1.26-1.39s.42-1.39,1.26-1.39c.38,0,.68.14.94.46l.5-.44Zm-5.17-1.96c0,.26.19.46.46.46s.46-.19.46-.46c0-.25-.2-.46-.46-.46s-.46.21-.46.46m.14,5.21h.62v-3.74h-.62v3.74Zm-.58-3.74h-.91v-.7c0-.65.02-1.12.67-1.12.14,0,.29.03.42.08l.09-.56c-.12-.06-.32-.1-.48-.1-1.01,0-1.33.65-1.33,1.56v.84h-.82v.53h.82v3.21h.62v-3.21h.91v-.53Zm-4.05,3.74h.62v-3.21h.91v-.53h-.91v-.7c0-.65.02-1.12.67-1.12.14,0,.29.03.42.08l.09-.56c-.12-.06-.32-.1-.48-.1-1.01,0-1.33.65-1.33,1.56v.84h-.82v.53h.82v3.21Zm-4.31-2.21c.08-.63.54-1.06,1.22-1.06s1.1.42,1.13,1.06h-2.35Zm2.42,1.16c-.3.38-.66.57-1.19.57-.68,0-1.18-.55-1.22-1.2h3.02v-.2c0-1.24-.72-1.96-1.77-1.96s-1.92.81-1.92,1.97c0,1.09.72,1.97,1.89,1.97.7,0,1.22-.21,1.66-.77l-.47-.37Zm-7.17-.82c0-.78.52-1.39,1.33-1.39s1.33.61,1.33,1.39-.52,1.39-1.33,1.39-1.33-.61-1.33-1.39m-.67,0c0,1.17.85,1.97,2,1.97s2-.8,2-1.97-.85-1.97-2-1.97-2,.8-2,1.97m-.75-3.05c-.48-.62-1.23-.89-2-.89-1.68,0-2.88,1.31-2.88,2.97s1.26,2.97,2.88,2.97c.9,0,1.64-.31,2.14-.99l-.5-.42c-.4.51-.95.79-1.64.79-1.27,0-2.16-1.04-2.16-2.35,0-1.24.9-2.35,2.16-2.35.54,0,1.08.23,1.42.69l.58-.42Z"/>
    <path class="cls-3" d="m211.4,101.52h3.65v-.62h-2.89v-.02l1.74-1.64c.57-.54,1.1-1.04,1.1-1.94,0-1.01-.79-1.54-1.73-1.54s-1.62.49-1.77,1.41l.73.06c.1-.54.5-.9,1.07-.9s1.03.37,1.03.96c0,.55-.26.86-.8,1.38l-2.14,2.08v.77Zm-1.06-5.66h-2.97l-.06,2.94c.34-.2.77-.35,1.15-.35.79,0,1.4.46,1.4,1.29,0,.78-.53,1.3-1.21,1.3-.48,0-.86-.29-1.05-.71l-.67.26c.3.62.81,1.03,1.67,1.03,1.1,0,1.94-.75,1.94-1.88,0-1.06-.72-1.86-1.81-1.86-.23,0-.51.03-.73.14l.02-1.53h2.31v-.62Z"/>
    <path class="cls-3" d="m81.29,116.97c.69,1.08,1.02,1.96,1.02,3.25,0,1.17-.34,2.29-1.02,3.23l.43.32c.74-1,1.17-2.24,1.17-3.55,0-1.22-.41-2.5-1.17-3.55l-.43.3Zm-1.36,3.75v.24c-.02.61-.38,1.13-1.1,1.13-.47,0-.82-.18-.82-.65,0-.5.51-.72,1.3-.72h.62Zm-2.04-1.06c.3-.27.71-.41,1.11-.41.58,0,.93.28.93.82v.11h-.24c-.92,0-2.36.07-2.36,1.31,0,.73.63,1.11,1.39,1.11.57,0,.98-.27,1.23-.66h.02c0,.16,0,.39.04.56h.6c-.03-.19-.06-.43-.06-.65v-1.61c0-1.05-.46-1.58-1.57-1.58-.54,0-1.1.18-1.49.58l.39.41Zm-4.3-2.18h1.14c.67,0,1.13.3,1.13.93s-.46.94-1.13.94h-1.14v-1.87Zm-.67,5.04h.67v-2.54h1.14c.8,0,1.85-.33,1.85-1.57s-.94-1.55-1.98-1.55h-1.68v5.66Zm-7.26,0h.67v-4.75h.02l2.03,4.75h.41l2.03-4.75h.02v4.75h.67v-5.66h-.97l-1.94,4.44h-.02l-1.92-4.44h-1v5.66Zm-.89.94c-.69-1.08-1.02-1.96-1.02-3.25,0-1.17.34-2.29,1.02-3.23l-.43-.32c-.74,1-1.17,2.24-1.17,3.55,0,1.22.41,2.5,1.17,3.55l.43-.3Zm-8.12-.94h.62v-1.82c0-.86.35-1.44,1.16-1.44.58,0,.86.39.86,1.01v2.25h.62v-2.31c0-.9-.44-1.53-1.42-1.53-.58,0-1.03.32-1.2.62h-.02v-2.82h-.62v6.04Zm-.77-3.74h-1.1v-1.06h-.62v1.06h-.82v.53h.82v2.06c0,.77.14,1.25,1.03,1.25.23,0,.51-.04.73-.14l-.02-.57c-.17.09-.37.13-.55.13-.55,0-.56-.38-.56-.86v-1.87h1.1v-.53Zm-6.48,1.87c0-.78.54-1.39,1.32-1.39s1.33.57,1.33,1.38c0,.72-.48,1.36-1.33,1.36-.73,0-1.32-.58-1.32-1.34m3.28-1.87h-.62v.64h-.02c-.25-.5-.82-.74-1.32-.74-1.19,0-1.99.74-1.99,1.97,0,1.1.82,1.92,1.99,1.92.49,0,1.02-.22,1.32-.7h.02v.48c0,.79-.3,1.51-1.42,1.51-.58,0-1-.22-1.39-.65l-.45.51c.53.52,1.11.71,1.84.71,1.31,0,2.04-.74,2.04-2.09v-3.57Zm-8.18,3.74h.62v-1.82c0-.86.35-1.44,1.16-1.44.58,0,.85.39.85,1.01v2.25h.62v-2.31c0-.9-.44-1.53-1.42-1.53-.62,0-1.08.34-1.25.71h-.02c0-.21-.02-.42-.02-.62h-.59c0,.25.03.54.03.89v2.85Zm-3.99-2.21c.08-.63.54-1.06,1.22-1.06s1.1.42,1.13,1.06h-2.35Zm2.41,1.16c-.3.38-.66.57-1.19.57-.68,0-1.18-.55-1.22-1.2h3.02v-.2c0-1.24-.72-1.96-1.77-1.96s-1.92.81-1.92,1.97c0,1.09.72,1.97,1.9,1.97.69,0,1.22-.21,1.66-.78l-.47-.37Zm-5.54,1.05h.62v-1.82c0-.86.33-1.39,1.09-1.39.11,0,.23.02.34.05l.04-.63-.26-.04c-.62,0-1.08.34-1.25.71h-.02c0-.21-.02-.42-.02-.62h-.59c0,.25.03.54.03.89v2.85Zm-.77-3.74h-1.1v-1.06h-.62v1.06h-.82v.53h.82v2.06c0,.77.14,1.25,1.03,1.25.23,0,.51-.04.73-.14l-.02-.57c-.17.09-.37.13-.55.13-.55,0-.56-.38-.56-.86v-1.87h1.1v-.53Zm-3.15-1.4c-.42-.49-.95-.66-1.58-.66-.99,0-1.93.54-1.93,1.63,0,.94.61,1.29,1.41,1.56,1.01.34,1.48.46,1.48,1.15,0,.65-.65.98-1.23.98-.49,0-.97-.22-1.21-.63l-.58.47c.38.57,1.09.78,1.74.78,1.02,0,1.99-.53,1.99-1.65s-.82-1.4-1.7-1.68c-.9-.29-1.19-.52-1.19-1.04,0-.67.61-.95,1.21-.95.41,0,.81.16,1.03.52l.55-.48Zm-9.57,2.93c.08-.63.54-1.06,1.22-1.06s1.1.42,1.13,1.06h-2.35Zm2.41,1.16c-.3.38-.65.57-1.19.57-.68,0-1.17-.55-1.22-1.2h3.02v-.2c0-1.24-.72-1.96-1.78-1.96s-1.92.81-1.92,1.97c0,1.09.72,1.97,1.89,1.97.7,0,1.22-.21,1.66-.78l-.47-.37Zm-4.73,1.05h.62v-6.04h-.62v6.04Zm-2.06-5.21c0,.26.19.46.46.46s.45-.19.45-.46c0-.25-.2-.46-.45-.46s-.46.21-.46.46m.14,5.21h.62v-3.74h-.62v3.74Zm-3.88-.6c.37.53.82.7,1.46.7.74,0,1.49-.33,1.49-1.18,0-.75-.56-.99-1.22-1.12-.5-.1-.94-.23-.94-.54,0-.35.39-.52.73-.52.37,0,.63.18.79.45l.52-.34c-.26-.48-.74-.68-1.27-.68-.7,0-1.4.38-1.4,1.1,0,.78.61.93,1.32,1.09.4.09.8.19.8.59s-.43.58-.82.58c-.44,0-.71-.2-.96-.5l-.5.38Zm-4.03.6h.62v-1.82c0-.86.35-1.44,1.16-1.44.58,0,.86.39.86,1.01v2.25h.62v-2.31c0-.9-.44-1.53-1.42-1.53-.62,0-1.08.34-1.25.71h-.02c0-.21-.02-.42-.02-.62h-.59c0,.25.03.54.03.89v2.85Zm-3.99-2.21c.08-.63.54-1.06,1.22-1.06s1.1.42,1.13,1.06h-2.35Zm2.41,1.16c-.3.38-.65.57-1.19.57-.68,0-1.18-.55-1.22-1.2h3.02v-.2c0-1.24-.72-1.96-1.77-1.96s-1.92.81-1.92,1.97c0,1.09.72,1.97,1.89,1.97.7,0,1.22-.21,1.66-.78l-.47-.37Zm-2.67-4.61H3.09v.62h1.87v5.04h.67v-5.04h1.87v-.62Z"/>
    <path class="cls-3" d="m211.98,119.69c0-.83.13-2.35,1.25-2.35s1.25,1.52,1.25,2.35-.13,2.35-1.25,2.35-1.25-1.52-1.25-2.35m-.67,0c0,1.29.36,2.93,1.92,2.93s1.92-1.64,1.92-2.93-.36-2.93-1.92-2.93-1.92,1.64-1.92,2.93m-2.53-.05c.68,0,1.22.46,1.22,1.2s-.54,1.2-1.22,1.2-1.22-.46-1.22-1.2.54-1.2,1.22-1.2m.93-2.78h-.78l-1.5,2.39c-.3.49-.53.93-.53,1.59,0,1.1.82,1.77,1.9,1.77s1.89-.67,1.89-1.77-.73-1.78-1.71-1.78c-.23,0-.55.05-.76.17l-.02-.02,1.52-2.36Z"/>
    <path class="cls-3" d="m77.68,135.46c-.69-1.08-1.02-1.96-1.02-3.25,0-1.17.34-2.29,1.02-3.23l-.43-.32c-.73,1-1.17,2.24-1.17,3.55,0,1.22.41,2.5,1.17,3.55l.43-.3Zm-7.67-.94h.62v-1.97l1.86,1.97h.92l-1.99-2.04,1.81-1.7h-.89l-1.7,1.65v-3.95h-.62v6.04Zm-1.77-1.8v.24c-.02.61-.38,1.13-1.1,1.13-.47,0-.82-.18-.82-.65,0-.5.51-.72,1.3-.72h.62Zm-2.04-1.05c.3-.27.71-.41,1.11-.41.58,0,.93.28.93.82v.11h-.24c-.92,0-2.36.07-2.36,1.31,0,.73.63,1.11,1.39,1.11.57,0,.98-.27,1.23-.66h.02c0,.16,0,.39.04.56h.6c-.03-.19-.06-.43-.06-.65v-1.61c0-1.06-.46-1.58-1.57-1.58-.54,0-1.1.18-1.49.58l.39.41Zm-4.34.65c.08-.63.54-1.06,1.22-1.06s1.1.42,1.13,1.06h-2.35Zm2.41,1.16c-.3.38-.65.57-1.19.57-.68,0-1.17-.55-1.22-1.2h3.02v-.2c0-1.24-.72-1.96-1.77-1.96s-1.92.81-1.92,1.97c0,1.09.72,1.97,1.89,1.97.7,0,1.22-.21,1.66-.78l-.47-.37Zm-5.54,1.05h.62v-1.82c0-.86.34-1.39,1.1-1.39.11,0,.23.02.34.05l.04-.63-.26-.04c-.62,0-1.08.34-1.25.71h-.02c0-.21-.02-.42-.02-.62h-.59c0,.25.03.54.03.89v2.85Zm-4.3-1.87c0-.78.52-1.39,1.33-1.39s1.33.61,1.33,1.39-.52,1.39-1.33,1.39-1.33-.61-1.33-1.39m-.62,1.87h.62v-.66h.02c.23.42.77.76,1.44.76,1.05,0,1.87-.85,1.87-1.97s-.79-1.97-1.97-1.97c-.54,0-1,.24-1.34.64h-.02v-2.85h-.62v6.04Zm-2.96-3.74h-1.1v-1.06h-.62v1.06h-.82v.53h.82v2.05c0,.78.14,1.26,1.03,1.26.23,0,.51-.04.73-.14l-.02-.57c-.17.09-.37.13-.55.13-.55,0-.56-.38-.56-.86v-1.87h1.1v-.53Zm-3.82,1.94v.24c-.02.61-.38,1.13-1.1,1.13-.47,0-.82-.18-.82-.65,0-.5.51-.72,1.3-.72h.62Zm-2.04-1.05c.3-.27.71-.41,1.11-.41.58,0,.93.28.93.82v.11h-.24c-.92,0-2.36.07-2.36,1.31,0,.73.63,1.11,1.39,1.11.57,0,.98-.27,1.23-.66h.02c0,.16,0,.39.04.56h.6c-.03-.19-.06-.43-.06-.65v-1.61c0-1.06-.46-1.58-1.57-1.58-.54,0-1.1.18-1.49.58l.39.41Zm-7.02,2.85h.62v-1.82c0-.86.35-1.44,1.16-1.44.58,0,.86.39.86,1.01v2.25h.62v-2.31c0-.9-.44-1.53-1.42-1.53-.62,0-1.08.34-1.25.71h-.02c0-.21-.02-.42-.02-.62h-.59c0,.25.03.54.03.89v2.85Zm-4.3-1.87c0-.78.52-1.39,1.33-1.39s1.33.61,1.33,1.39-.52,1.39-1.33,1.39-1.33-.61-1.33-1.39m-.67,0c0,1.17.85,1.97,2,1.97s2-.8,2-1.97-.85-1.97-2-1.97-2,.8-2,1.97m-1.79-3.33c0,.26.19.46.46.46s.46-.19.46-.46c0-.25-.2-.46-.46-.46s-.46.21-.46.46m.14,5.2h.62v-3.74h-.62v3.74Zm-.82-3.74h-1.1v-1.06h-.62v1.06h-.82v.53h.82v2.05c0,.78.14,1.26,1.03,1.26.23,0,.51-.04.73-.14l-.02-.57c-.17.09-.37.13-.55.13-.55,0-.56-.38-.56-.86v-1.87h1.1v-.53Zm-3.82,1.94v.24c-.02.61-.38,1.13-1.1,1.13-.47,0-.82-.18-.82-.65,0-.5.51-.72,1.3-.72h.62Zm-2.04-1.05c.3-.27.71-.41,1.11-.41.58,0,.93.28.93.82v.11h-.24c-.92,0-2.36.07-2.36,1.31,0,.73.63,1.11,1.39,1.11.57,0,.98-.27,1.23-.66h.02c0,.16,0,.39.04.56h.6c-.03-.19-.06-.43-.06-.65v-1.61c0-1.06-.46-1.58-1.57-1.58-.54,0-1.1.18-1.49.58l.39.41Zm-4.78.98c0-.78.54-1.39,1.32-1.39s1.34.57,1.34,1.38c0,.72-.48,1.36-1.34,1.36-.73,0-1.32-.58-1.32-1.34m3.28-1.87h-.62v.64h-.02c-.25-.5-.82-.74-1.32-.74-1.19,0-1.99.74-1.99,1.97,0,1.1.82,1.92,1.99,1.92.5,0,1.02-.22,1.32-.7h.02v.48c0,.79-.3,1.51-1.42,1.51-.58,0-1-.22-1.39-.65l-.45.51c.53.52,1.11.71,1.84.71,1.31,0,2.04-.74,2.04-2.09v-3.57Zm-8.18,3.74h.62v-1.82c0-.86.35-1.44,1.16-1.44.58,0,.86.39.86,1.01v2.25h.62v-2.31c0-.9-.44-1.53-1.42-1.53-.62,0-1.08.34-1.25.71h-.02c0-.21-.02-.42-.02-.62h-.59c0,.25.03.54.03.89v2.85Zm-4.3-1.87c0-.78.52-1.39,1.33-1.39s1.33.61,1.33,1.39-.52,1.39-1.33,1.39-1.33-.61-1.33-1.39m-.67,0c0,1.17.85,1.97,2,1.97s2-.8,2-1.97-.85-1.97-2-1.97-2,.8-2,1.97m-1.65,1.87h.62v-6.04h-.62v6.04Zm-4.69,0h3.7v-.62h-3.03v-2.01h2.69v-.62h-2.69v-1.77h2.89v-.62h-3.56v5.66Z"/>
    <path class="cls-3" d="m81.53,128.87h-3.07v.58h.81v.02c-.18.11-.33.26-.44.43-.13.18-.2.38-.2.6,0,.3.1.52.29.67.18.15.41.27.68.34h0c-.84.14-1.27.63-1.29,1.46,0,.45.16.82.48,1.1.32.29.8.44,1.44.45.37,0,.62.01.75.05.12.04.18.15.18.31,0,.19-.04.38-.11.59-.07.21-.15.41-.24.61h.64c.09-.22.17-.44.23-.67.06-.23.09-.45.09-.65,0-.21-.03-.37-.08-.49-.07-.12-.15-.21-.27-.26-.11-.05-.24-.09-.4-.11-.16,0-.34-.02-.54-.02-.43,0-.78-.06-1.04-.2-.28-.13-.42-.41-.42-.82,0-.19.04-.35.12-.49.07-.13.17-.23.29-.31.12-.08.24-.14.37-.18.13-.03.26-.05.37-.05h1.12v-.57h-.64c-.34,0-.63-.06-.89-.2-.27-.13-.41-.37-.41-.7,0-.25.08-.47.27-.65.1-.09.22-.16.37-.21.15-.05.34-.07.56-.07h.98v-.58Z"/>
    <path class="cls-3" d="m95.82,128.97c.69,1.08,1.02,1.96,1.02,3.25,0,1.17-.34,2.29-1.02,3.23l.43.32c.74-1,1.17-2.24,1.17-3.55,0-1.22-.41-2.5-1.17-3.55l-.43.3Zm-5.49,5.55l.44.26,3.55-5.92-.44-.26-3.55,5.92Zm2.77-1.3c0-.45.38-.82.82-.82s.82.38.82.82-.38.82-.82.82-.82-.38-.82-.82m-.58,0c0,.78.62,1.4,1.4,1.4s1.4-.62,1.4-1.4-.62-1.4-1.4-1.4-1.4.62-1.4,1.4m-2.68-3.05c0-.45.38-.82.82-.82s.82.38.82.82-.38.82-.82.82-.82-.38-.82-.82m-.58,0c0,.78.62,1.4,1.4,1.4s1.4-.62,1.4-1.4-.62-1.4-1.4-1.4-1.4.62-1.4,1.4m-6.23,2.49c0-.78.52-1.39,1.33-1.39s1.33.61,1.33,1.39-.52,1.39-1.33,1.39-1.33-.61-1.33-1.39m-.62,1.87h.62v-.66h.02c.23.42.77.76,1.44.76,1.05,0,1.87-.85,1.87-1.97s-.79-1.97-1.97-1.97c-.54,0-1,.24-1.34.64h-.02v-2.85h-.62v6.04Z"/>
    <path class="cls-3" d="m215.9,128.86h-2.97l-.06,2.94c.34-.2.77-.35,1.15-.35.79,0,1.4.46,1.4,1.29,0,.78-.54,1.3-1.21,1.3-.48,0-.86-.29-1.06-.71l-.67.26c.3.62.82,1.03,1.67,1.03,1.1,0,1.94-.75,1.94-1.88,0-1.06-.72-1.86-1.81-1.86-.23,0-.51.03-.73.14l.02-1.53h2.31v-.62Zm-4.9,4.75c-.26,0-.48.22-.48.48s.23.48.48.48.48-.22.48-.48-.22-.48-.48-.48m-3.34-1.97c.68,0,1.22.46,1.22,1.2s-.54,1.2-1.22,1.2-1.22-.46-1.22-1.2.54-1.2,1.22-1.2m.93-2.78h-.78l-1.5,2.39c-.3.49-.53.93-.53,1.59,0,1.1.82,1.77,1.9,1.77s1.89-.67,1.89-1.77-.73-1.78-1.71-1.78c-.23,0-.55.05-.76.17l-.02-.02,1.52-2.36Z"/>
    <path class="cls-3" d="m83.54,140.97c.69,1.08,1.02,1.96,1.02,3.25,0,1.17-.34,2.29-1.02,3.23l.43.32c.74-1,1.17-2.24,1.17-3.55,0-1.22-.41-2.5-1.17-3.55l-.43.3Zm-1.36,3.75v.24c-.02.61-.38,1.13-1.1,1.13-.47,0-.82-.18-.82-.65,0-.5.51-.72,1.3-.72h.62Zm-2.04-1.05c.3-.27.71-.41,1.11-.41.58,0,.93.28.93.82v.11h-.24c-.92,0-2.36.07-2.36,1.31,0,.73.63,1.11,1.39,1.11.57,0,.98-.27,1.23-.66h.02c0,.16,0,.39.04.56h.6c-.03-.19-.06-.43-.06-.65v-1.61c0-1.06-.46-1.58-1.57-1.58-.54,0-1.1.18-1.49.58l.39.41Zm-4.3-2.18h1.14c.67,0,1.14.3,1.14.93s-.46.94-1.14.94h-1.14v-1.87Zm-.67,5.04h.67v-2.54h1.14c.8,0,1.86-.33,1.86-1.57s-.94-1.55-1.98-1.55h-1.68v5.66Zm-1.41-3.17h-1.98v.62h1.3v1.74c-.42.21-.95.33-1.41.33-1.39,0-2.34-1-2.34-2.35s.98-2.35,2.28-2.35c.57,0,1.16.23,1.54.65l.5-.53c-.54-.54-1.26-.74-2-.74-1.7,0-3.05,1.19-3.05,2.98s1.26,2.97,3.02,2.97c.74,0,1.47-.17,2.12-.53v-2.78Zm-5.7,4.11c-.69-1.08-1.02-1.96-1.02-3.25,0-1.17.34-2.29,1.02-3.23l-.43-.32c-.74,1-1.17,2.24-1.17,3.55,0,1.22.41,2.5,1.17,3.55l.43-.3Zm-7.49-1.54c.37.53.82.7,1.46.7.74,0,1.49-.33,1.49-1.18,0-.75-.56-.99-1.22-1.12-.5-.1-.94-.23-.94-.54,0-.35.39-.52.74-.52.37,0,.63.18.79.45l.52-.34c-.26-.48-.74-.68-1.27-.68-.7,0-1.4.38-1.4,1.1,0,.77.61.93,1.32,1.09.4.09.8.19.8.59s-.43.57-.82.57c-.44,0-.71-.2-.96-.5l-.5.38Zm-.77-3.14h-.62v1.82c0,.86-.35,1.44-1.16,1.44-.58,0-.86-.39-.86-1.01v-2.25h-.62v2.31c0,.9.44,1.53,1.42,1.53.62,0,1.08-.34,1.25-.71h.02c0,.21.02.42.02.62h.59c0-.25-.03-.54-.03-.89v-2.85Zm-5.13,3.74h.62v-6.04h-.62v6.04Zm-1.24-3.74h-.62v1.82c0,.86-.35,1.44-1.16,1.44-.58,0-.86-.39-.86-1.01v-2.25h-.62v2.31c0,.9.44,1.53,1.42,1.53.62,0,1.08-.34,1.25-.71h.02c0,.21.02.42.02.62h.59c0-.25-.03-.54-.03-.89v-2.85Zm-5.04,1.87c0,.78-.52,1.39-1.33,1.39s-1.33-.61-1.33-1.39.52-1.39,1.33-1.39,1.33.61,1.33,1.39m0,1.87h.62v-6.04h-.62v2.85h-.02c-.34-.4-.8-.64-1.34-.64-1.18,0-1.97.83-1.97,1.97s.82,1.97,1.87,1.97c.67,0,1.21-.34,1.44-.76h.02v.66Zm-7.41-1.87c0-.78.52-1.39,1.33-1.39s1.33.61,1.33,1.39-.52,1.39-1.33,1.39-1.33-.61-1.33-1.39m-.67,0c0,1.17.85,1.97,2,1.97s2-.8,2-1.97-.85-1.97-2-1.97-2,.8-2,1.97m-6.93,1.87h.67v-4.75h.02l2.03,4.75h.41l2.03-4.75h.02v4.75h.67v-5.66h-.98l-1.93,4.44h-.02l-1.92-4.44h-1v5.66Zm-6.16-.6c.37.53.82.7,1.46.7.74,0,1.49-.33,1.49-1.18,0-.75-.56-.99-1.22-1.12-.5-.1-.94-.23-.94-.54,0-.35.39-.52.74-.52.37,0,.63.18.79.45l.52-.34c-.26-.48-.74-.68-1.27-.68-.7,0-1.4.38-1.4,1.1,0,.77.61.93,1.32,1.09.4.09.8.19.8.59s-.43.57-.82.57c-.44,0-.71-.2-.96-.5l-.5.38Zm-.06-5.06h-.73l-.54,1.92h.61l.66-1.92Zm-5.58,3.79c0-.78.54-1.39,1.32-1.39s1.34.57,1.34,1.38c0,.72-.48,1.36-1.34,1.36-.73,0-1.32-.58-1.32-1.34m3.28-1.87h-.62v.64h-.02c-.25-.5-.82-.74-1.32-.74-1.19,0-1.99.74-1.99,1.97,0,1.1.82,1.92,1.99,1.92.5,0,1.02-.22,1.32-.7h.02v.48c0,.79-.3,1.51-1.42,1.51-.58,0-1-.22-1.39-.65l-.45.51c.53.52,1.11.71,1.84.71,1.31,0,2.04-.74,2.04-2.09v-3.57Zm-8.18,3.74h.62v-1.82c0-.86.35-1.44,1.16-1.44.58,0,.86.39.86,1.01v2.25h.62v-2.31c0-.9-.44-1.53-1.42-1.53-.61,0-1.08.34-1.25.71h-.02c0-.21-.02-.42-.02-.62h-.59c0,.25.03.54.03.89v2.85Zm-1.19-3.74h-.62v1.82c0,.86-.35,1.44-1.16,1.44-.58,0-.86-.39-.86-1.01v-2.25h-.62v2.31c0,.9.44,1.53,1.42,1.53.61,0,1.08-.34,1.25-.71h.02c0,.21.02.42.02.62h.59c0-.25-.03-.54-.03-.89v-2.85Zm-7.56,1.87c0-.78.52-1.39,1.33-1.39s1.33.61,1.33,1.39-.52,1.39-1.33,1.39-1.33-.61-1.33-1.39m-.67,0c0,1.17.85,1.97,2,1.97s2-.8,2-1.97-.85-1.97-2-1.97-2,.8-2,1.97m-2.2,1.87h.67v-2.44l2.11-3.22h-.81l-1.64,2.56-1.59-2.56h-.86l2.11,3.22v2.44Z"/>
    <path class="cls-3" d="m213.09,143.69c0-.83.13-2.35,1.25-2.35s1.25,1.52,1.25,2.35-.13,2.35-1.25,2.35-1.25-1.52-1.25-2.35m-.67,0c0,1.29.36,2.93,1.92,2.93s1.92-1.64,1.92-2.93-.36-2.93-1.92-2.93-1.92,1.64-1.92,2.93m-1.42,1.92c-.26,0-.48.21-.48.48s.23.48.48.48.48-.22.48-.48-.22-.48-.48-.48m-5.16.91h3.65v-.62h-2.89v-.02l1.74-1.64c.57-.54,1.1-1.04,1.1-1.94,0-1.01-.79-1.53-1.73-1.53s-1.62.49-1.78,1.41l.73.06c.1-.54.5-.9,1.07-.9s1.03.37,1.03.96c0,.55-.26.86-.8,1.38l-2.13,2.08v.77Z"/>
    <path class="cls-3" d="m104.64,167.52h3.07v-.53h-2.26l2.2-2.73v-.48h-2.92v.53h2.1l-2.2,2.73v.49Zm-5.31,0h.67v-2.64h3.02v2.64h.67v-5.66h-.67v2.4h-3.02v-2.4h-.67v5.66Zm-7.26,0h.67v-4.75h.02l2.03,4.75h.41l2.03-4.75h.02v4.75h.67v-5.66h-.98l-1.94,4.44h-.02l-1.92-4.44h-1v5.66Zm-4.18-2.83c0-.83.13-2.35,1.25-2.35s1.25,1.52,1.25,2.35-.13,2.35-1.25,2.35-1.25-1.52-1.25-2.35m-.67,0c0,1.29.36,2.93,1.92,2.93s1.92-1.64,1.92-2.93-.36-2.93-1.92-2.93-1.92,1.64-1.92,2.93m-1.87-2.83h-.58l-1.52,1.23.4.49,1.02-.86h.02v4.8h.67v-5.66Zm-6.55,1.26h-.52l-.14.5h-.02c-.18-.48-.52-.65-.89-.65-1.13,0-1.86,1.15-1.86,2.26,0,.7.45,1.24,1.13,1.24.47,0,.75-.24,1-.53h.02c.02.36.24.53.51.53.75,0,1.87-.93,1.87-2.31s-1.24-2.45-2.7-2.45c-1.65,0-2.99,1.31-2.99,2.98s1.31,2.97,2.99,2.97c1.04,0,2.01-.53,2.52-1.4h-.5c-.43.58-1.22.97-2.01.97-1.32,0-2.46-1.11-2.46-2.54s1.08-2.54,2.46-2.54c1.11,0,2.17.8,2.17,2.05,0,.89-.61,1.74-1.12,1.74-.14,0-.19-.05-.19-.16,0-.12.03-.27.07-.4l.67-2.26Zm-2.86,2.06c0-.7.54-1.68,1.29-1.68.34,0,.65.34.65.75,0,.65-.54,1.69-1.24,1.69-.4,0-.7-.33-.7-.77m-4.5-1.4h-1.1v-1.06h-.62v1.06h-.82v.53h.82v2.05c0,.78.14,1.26,1.03,1.26.23,0,.51-.04.73-.14l-.02-.57c-.17.09-.37.13-.55.13-.55,0-.56-.38-.56-.86v-1.87h1.1v-.53Zm-6.49,3.74h.62v-1.82c0-.86.35-1.44,1.16-1.44.58,0,.86.39.86,1.01v2.25h.62v-2.31c0-.9-.44-1.53-1.42-1.53-.62,0-1.08.34-1.25.71h-.02c0-.21-.02-.42-.02-.62h-.59c0,.25.03.54.03.89v2.85Zm-1.77-1.8v.24c-.02.61-.38,1.13-1.1,1.13-.47,0-.82-.18-.82-.65,0-.5.51-.72,1.3-.72h.62Zm-2.04-1.05c.3-.27.71-.41,1.11-.41.58,0,.93.28.93.82v.11h-.24c-.92,0-2.36.07-2.36,1.31,0,.73.63,1.11,1.39,1.11.57,0,.98-.27,1.23-.66h.02c0,.16,0,.39.04.56h.6c-.03-.19-.06-.43-.06-.65v-1.61c0-1.06-.46-1.58-1.57-1.58-.54,0-1.1.18-1.49.58l.39.41Zm-1.11-.89h-1.1v-1.06h-.62v1.06h-.82v.53h.82v2.05c0,.78.14,1.26,1.03,1.26.23,0,.51-.04.73-.14l-.02-.57c-.17.09-.37.13-.55.13-.55,0-.56-.38-.56-.86v-1.87h1.1v-.53Zm-5.87,3.14c.37.53.82.7,1.45.7.74,0,1.5-.33,1.5-1.18,0-.75-.56-.99-1.22-1.12-.49-.1-.94-.23-.94-.54,0-.35.39-.52.73-.52.37,0,.63.18.79.45l.52-.34c-.26-.48-.74-.68-1.27-.68-.7,0-1.4.38-1.4,1.1,0,.77.61.93,1.32,1.09.4.09.8.19.8.59s-.43.57-.82.57c-.44,0-.71-.2-.96-.5l-.5.38Zm-4.03.6h.62v-1.82c0-.86.35-1.44,1.16-1.44.58,0,.86.39.86,1.01v2.25h.62v-2.31c0-.9-.44-1.53-1.42-1.53-.62,0-1.08.34-1.25.71h-.02c0-.21-.02-.42-.02-.62h-.59c0,.25.03.54.03.89v2.85Zm-4.3-1.87c0-.78.52-1.39,1.33-1.39s1.33.61,1.33,1.39-.52,1.39-1.33,1.39-1.33-.61-1.33-1.39m-.67,0c0,1.17.85,1.97,2,1.97s2-.8,2-1.97-.85-1.97-2-1.97-2,.8-2,1.97m-.75-3.05c-.48-.62-1.23-.89-2-.89-1.68,0-2.88,1.31-2.88,2.98s1.26,2.97,2.88,2.97c.9,0,1.64-.31,2.14-.99l-.5-.42c-.4.51-.95.79-1.64.79-1.27,0-2.16-1.04-2.16-2.35,0-1.24.9-2.35,2.16-2.35.54,0,1.08.23,1.42.69l.58-.42Zm-7.58,1.67c-.38-.41-.89-.59-1.44-.59-1.15,0-1.93.83-1.93,1.97s.78,1.97,1.93,1.97c.54,0,1.06-.18,1.42-.6l-.46-.44c-.23.32-.54.46-.95.46-.76,0-1.26-.62-1.26-1.39s.42-1.39,1.26-1.39c.38,0,.68.14.94.46l.49-.44Zm-5.17-1.96c0,.26.19.46.46.46s.46-.19.46-.46c0-.25-.2-.46-.46-.46s-.46.21-.46.46m.14,5.2h.62v-3.74h-.62v3.74Zm-2.87,0h.62v-1.82c0-.86.34-1.39,1.1-1.39.11,0,.23.02.34.05l.04-.63-.26-.04c-.62,0-1.08.34-1.25.71h-.02c0-.21-.02-.42-.02-.62h-.59c0,.25.03.54.03.89v2.85Zm-.77-3.74h-1.1v-1.06h-.62v1.06h-.82v.53h.82v2.05c0,.78.14,1.26,1.03,1.26.23,0,.51-.04.73-.14l-.02-.57c-.17.09-.37.13-.55.13-.55,0-.56-.38-.56-.86v-1.87h1.1v-.53Zm-2.74.5c-.38-.41-.89-.59-1.44-.59-1.15,0-1.94.83-1.94,1.97s.78,1.97,1.94,1.97c.54,0,1.06-.18,1.41-.6l-.46-.44c-.23.32-.54.46-.95.46-.76,0-1.26-.62-1.26-1.39s.42-1.39,1.26-1.39c.38,0,.68.14.94.46l.49-.44Zm-7.15,1.04c.08-.63.54-1.06,1.22-1.06s1.1.42,1.13,1.06h-2.35Zm2.41,1.16c-.29.38-.65.57-1.19.57-.68,0-1.18-.55-1.22-1.2h3.02v-.2c0-1.24-.72-1.96-1.77-1.96s-1.92.81-1.92,1.97c0,1.09.72,1.97,1.9,1.97.7,0,1.22-.21,1.66-.78l-.47-.37Zm-4.73,1.05h.62v-6.04h-.62v6.04Zm-4.05-2.21c.08-.63.54-1.06,1.22-1.06s1.1.42,1.13,1.06h-2.35Zm2.41,1.16c-.3.38-.65.57-1.19.57-.68,0-1.17-.55-1.22-1.2h3.02v-.2c0-1.24-.72-1.96-1.77-1.96s-1.92.81-1.92,1.97c0,1.09.72,1.97,1.89,1.97.7,0,1.22-.21,1.66-.78l-.47-.37Zm-4.88-4.16c0,.26.19.46.46.46s.46-.19.46-.46c0-.25-.2-.46-.46-.46s-.46.21-.46.46m.14,5.2h.62v-3.74h-.62v3.74Zm-5.3-5.04h1.28c1.29,0,2.28.65,2.28,2.21s-.98,2.21-2.28,2.21h-1.28v-4.41Zm-.67,5.04h2.17c1.11,0,2.77-.74,2.77-2.83s-1.66-2.83-2.77-2.83h-2.17v5.66Z"/>
    <path class="cls-3" d="m212.51,167.52h3.65v-.62h-2.89v-.02l1.74-1.64c.57-.54,1.1-1.04,1.1-1.94,0-1.01-.79-1.54-1.73-1.54s-1.62.49-1.77,1.41l.73.06c.1-.54.5-.9,1.07-.9s1.03.37,1.03.96c0,.55-.26.85-.8,1.38l-2.14,2.08v.77Zm-1.51-.91c-.26,0-.48.22-.48.48s.23.48.48.48.48-.21.48-.48-.22-.48-.48-.48m-3.93-1.78h.21c.7,0,1.43.26,1.43,1.1,0,.66-.51,1.11-1.15,1.11s-.95-.23-1.14-.84l-.68.22c.29.84.97,1.19,1.82,1.19,1.01,0,1.87-.56,1.87-1.64,0-.71-.44-1.3-1.16-1.42v-.02c.57-.18.97-.7.97-1.29,0-.98-.78-1.48-1.69-1.48-.72,0-1.37.32-1.64.96l.65.25c.2-.42.57-.63,1.04-.63.57,0,.97.36.97.94,0,.85-.73.98-1.29.98h-.21v.58Z"/>
    <path class="cls-3" d="m123.06,182.97c.69,1.08,1.02,1.96,1.02,3.25,0,1.17-.34,2.29-1.02,3.23l.43.32c.74-1,1.17-2.24,1.17-3.55,0-1.22-.41-2.5-1.17-3.55l-.43.3Zm-5.26,5.55h.67v-2.64h3.02v2.64h.67v-5.66h-.67v2.4h-3.02v-2.4h-.67v5.66Zm-4.22-5.04h.94c.66,0,1.37.12,1.37.93,0,.94-.97.94-1.71.94h-.6v-1.87Zm-.67,5.04h.67v-2.54h.86l1.54,2.54h.82l-1.61-2.61c.88-.13,1.41-.67,1.41-1.49,0-1.4-1.16-1.56-2.25-1.56h-1.45v5.66Zm-3.59-5.66h-2.97l-.06,2.94c.34-.2.77-.35,1.15-.35.79,0,1.4.46,1.4,1.29,0,.78-.54,1.3-1.22,1.3-.48,0-.86-.29-1.06-.71l-.67.26c.3.62.82,1.03,1.67,1.03,1.1,0,1.94-.75,1.94-1.88,0-1.06-.72-1.86-1.81-1.86-.23,0-.51.03-.73.14l.02-1.53h2.31v-.62Zm-7.15,4.05c0-.66.5-1.13,1.14-1.13s1.14.46,1.14,1.13-.5,1.13-1.14,1.13-1.14-.46-1.14-1.13m.19-2.64c0-.54.38-.94.94-.94s.94.4.94.94-.38.94-.94.94-.94-.4-.94-.94m-.67-.03c0,.54.35,1.1.93,1.25v.02c-.68.14-1.12.74-1.12,1.46,0,1.03.8,1.65,1.81,1.65s1.81-.62,1.81-1.65c0-.71-.44-1.31-1.12-1.46v-.02c.58-.15.93-.71.93-1.25,0-.89-.7-1.48-1.61-1.48s-1.62.59-1.62,1.48m-.63-1.53l-.5-.19-2.41,6.14.5.2,2.41-6.15Zm-3.31.89c-.48-.62-1.23-.89-2-.89-1.68,0-2.88,1.31-2.88,2.98s1.26,2.97,2.88,2.97c.9,0,1.64-.31,2.14-.99l-.5-.42c-.4.51-.95.79-1.64.79-1.27,0-2.16-1.04-2.16-2.35,0-1.24.89-2.35,2.16-2.35.54,0,1.08.23,1.41.69l.58-.42Zm-7.57.34c0-.38.3-.74.78-.74s.77.37.77.74-.3.76-.77.76-.78-.36-.78-.76m-.53,0c0,.72.55,1.19,1.3,1.19s1.3-.47,1.3-1.19-.55-1.18-1.3-1.18-1.3.48-1.3,1.18m-.9-1.08h-2.97l-.06,2.94c.34-.2.77-.35,1.15-.35.79,0,1.4.46,1.4,1.29,0,.78-.54,1.3-1.22,1.3-.48,0-.86-.29-1.05-.71l-.67.26c.3.62.82,1.03,1.67,1.03,1.1,0,1.94-.75,1.94-1.88,0-1.06-.72-1.86-1.81-1.86-.23,0-.51.03-.73.14l.02-1.53h2.31v-.62Zm-7.15,4.05c0-.66.5-1.13,1.13-1.13s1.14.46,1.14,1.13-.5,1.13-1.14,1.13-1.13-.46-1.13-1.13m.19-2.64c0-.54.38-.94.94-.94s.94.4.94.94-.38.94-.94.94-.94-.4-.94-.94m-.67-.03c0,.54.35,1.1.93,1.25v.02c-.68.14-1.12.74-1.12,1.46,0,1.03.8,1.65,1.81,1.65s1.81-.62,1.81-1.65c0-.71-.44-1.31-1.12-1.46v-.02c.58-.15.93-.71.93-1.25,0-.89-.7-1.48-1.62-1.48s-1.61.59-1.61,1.48m-8.14,4.28l.44.26,3.55-5.92-.44-.26-3.55,5.92Zm2.77-1.3c0-.45.38-.82.82-.82s.82.38.82.82-.38.82-.82.82-.82-.38-.82-.82m-.58,0c0,.78.62,1.4,1.4,1.4s1.4-.62,1.4-1.4-.62-1.4-1.4-1.4-1.4.62-1.4,1.4m-2.68-3.05c0-.45.38-.82.82-.82s.82.38.82.82-.38.82-.82.82-.82-.38-.82-.82m-.58,0c0,.78.62,1.4,1.4,1.4s1.4-.62,1.4-1.4-.62-1.4-1.4-1.4-1.4.62-1.4,1.4m-.49,5.3c-.69-1.08-1.02-1.96-1.02-3.25,0-1.17.34-2.29,1.02-3.23l-.43-.32c-.74,1-1.17,2.24-1.17,3.55,0,1.22.41,2.5,1.17,3.55l.43-.3Zm-8.12-.94h.62v-1.82c0-.86.35-1.44,1.16-1.44.58,0,.86.39.86,1.01v2.25h.62v-2.31c0-.9-.44-1.53-1.42-1.53-.61,0-1.08.34-1.25.71h-.02c0-.21-.02-.42-.02-.62h-.59c0,.25.03.54.03.89v2.85Zm-4.3-1.87c0-.78.52-1.39,1.33-1.39s1.33.61,1.33,1.39-.52,1.39-1.33,1.39-1.33-.61-1.33-1.39m-.67,0c0,1.17.85,1.97,2,1.97s2-.8,2-1.97-.85-1.97-2-1.97-2,.8-2,1.97m-1.79-3.33c0,.26.19.46.46.46s.46-.19.46-.46c0-.25-.2-.46-.46-.46s-.46.21-.46.46m.14,5.2h.62v-3.74h-.62v3.74Zm-.82-3.74h-1.1v-1.06h-.62v1.06h-.82v.53h.82v2.05c0,.78.14,1.26,1.03,1.26.23,0,.51-.04.73-.14l-.02-.57c-.17.09-.37.13-.55.13-.55,0-.56-.38-.56-.86v-1.87h1.1v-.53Zm-6.34,1.87c0-.78.52-1.39,1.33-1.39s1.33.61,1.33,1.39-.52,1.39-1.33,1.39-1.33-.61-1.33-1.39m-.62,3.69h.62v-2.49h.02c.23.42.77.76,1.44.76,1.05,0,1.87-.85,1.87-1.97s-.79-1.97-1.97-1.97c-.54,0-1,.24-1.34.64h-.02v-.54h-.62v5.57Zm-2.78-1.82h.62v-1.82c0-.86.34-1.39,1.1-1.39.11,0,.23.02.34.05l.04-.63-.26-.04c-.61,0-1.08.34-1.25.71h-.02c0-.21-.02-.42-.02-.62h-.59c0,.25.03.54.03.89v2.85Zm-4.3-1.87c0-.78.52-1.39,1.33-1.39s1.33.61,1.33,1.39-.52,1.39-1.33,1.39-1.33-.61-1.33-1.39m-.67,0c0,1.17.85,1.97,2,1.97s2-.8,2-1.97-.85-1.97-2-1.97-2,.8-2,1.97m-3.61,1.27c.37.53.82.7,1.45.7.74,0,1.49-.33,1.49-1.18,0-.75-.56-.99-1.22-1.12-.5-.1-.94-.23-.94-.54,0-.35.39-.52.74-.52.37,0,.63.18.79.45l.52-.34c-.26-.48-.74-.68-1.27-.68-.7,0-1.4.38-1.4,1.1,0,.77.61.93,1.32,1.09.4.09.8.19.8.59s-.43.57-.82.57c-.44,0-.71-.2-.96-.5l-.49.38Zm-3.88-1.27c0-.78.52-1.39,1.33-1.39s1.33.61,1.33,1.39-.52,1.39-1.33,1.39-1.33-.61-1.33-1.39m-.62,1.87h.62v-.66h.02c.23.42.77.76,1.44.76,1.05,0,1.87-.85,1.87-1.97s-.79-1.97-1.97-1.97c-.54,0-1,.24-1.34.64h-.02v-2.85h-.62v6.04Zm-2.23-2.01h-2.31l1.17-2.78h.02l1.12,2.78Zm-3.92,2.01h.76l.58-1.39h2.83l.58,1.39h.78l-2.41-5.66h-.63l-2.49,5.66Zm-4.5,0h.62v-1.82c0-.86.34-1.39,1.1-1.39.11,0,.23.02.34.05l.04-.63-.26-.04c-.61,0-1.08.34-1.25.71h-.02c0-.21-.02-.42-.02-.62h-.59c0,.25.03.54.03.89v2.85Zm-3.99-2.21c.08-.63.54-1.06,1.22-1.06s1.1.42,1.13,1.06h-2.35Zm2.42,1.16c-.3.38-.66.57-1.19.57-.68,0-1.18-.55-1.22-1.2h3.02v-.2c0-1.24-.72-1.96-1.77-1.96s-1.92.81-1.92,1.97c0,1.09.72,1.97,1.89,1.97.7,0,1.22-.21,1.66-.78l-.47-.37Zm-3.64-2.69h-1.1v-1.06h-.62v1.06h-.82v.53h.82v2.05c0,.78.14,1.26,1.03,1.26.23,0,.51-.04.73-.14l-.02-.57c-.17.09-.37.13-.55.13-.55,0-.56-.38-.56-.86v-1.87h1.1v-.53Zm-3.82,1.94v.24c-.02.61-.38,1.13-1.1,1.13-.47,0-.82-.18-.82-.65,0-.5.51-.72,1.3-.72h.62Zm-2.04-1.05c.3-.27.71-.41,1.11-.41.58,0,.93.28.93.82v.11h-.24c-.92,0-2.36.07-2.36,1.31,0,.73.63,1.11,1.39,1.11.57,0,.98-.27,1.23-.66h.02c0,.16,0,.39.04.56h.6c-.03-.19-.06-.43-.06-.65v-1.61c0-1.06-.46-1.58-1.57-1.58-.54,0-1.1.18-1.49.58l.39.41Zm-6.64,2.85h.74l1.41-4.8h.02l1.4,4.8h.73l1.66-5.66h-.7l-1.31,4.7h-.02l-1.38-4.7h-.75l-1.39,4.7h-.02l-1.29-4.7h-.74l1.66,5.66Z"/>
    <path class="cls-3" d="m218.13,182.86h-2.97l-.06,2.94c.34-.2.77-.35,1.15-.35.79,0,1.4.46,1.4,1.29,0,.78-.53,1.3-1.22,1.3-.48,0-.86-.29-1.05-.71l-.67.26c.3.62.82,1.03,1.67,1.03,1.1,0,1.94-.75,1.94-1.88,0-1.06-.72-1.86-1.81-1.86-.23,0-.51.03-.73.14l.02-1.53h2.31v-.62Zm-6.02,2.78c.68,0,1.22.46,1.22,1.2s-.54,1.2-1.22,1.2-1.22-.46-1.22-1.2.54-1.2,1.22-1.2m.93-2.78h-.78l-1.5,2.39c-.3.49-.54.94-.54,1.59,0,1.1.82,1.78,1.89,1.78s1.9-.67,1.9-1.78-.73-1.77-1.71-1.77c-.23,0-.55.05-.76.17l-.02-.02,1.52-2.36Zm-4.26,4.75c-.26,0-.48.22-.48.48s.23.48.48.48.48-.21.48-.48-.22-.48-.48-.48m-4.58-1.92c0-.83.13-2.35,1.25-2.35s1.25,1.52,1.25,2.35-.13,2.35-1.25,2.35-1.25-1.52-1.25-2.35m-.67,0c0,1.29.36,2.93,1.92,2.93s1.92-1.64,1.92-2.93-.36-2.93-1.92-2.93-1.92,1.64-1.92,2.93"/>
    <polyline class="cls-2" points="0 29.58 227.25 29.58 227.25 30.58 0 30.58"/>
    <polyline class="cls-1" points="3.25 198.42 230.5 198.42 230.5 199.42 3.25 199.42"/>
  </g>
</svg>