<?xml version="1.0" encoding="UTF-8"?>
<svg id="_图层_2" data-name="图层 2" xmlns="http://www.w3.org/2000/svg" viewBox="0 0 481.87 276.77">
  <defs>
    <style>
      .cls-1 {
        fill: #fff;
      }

      .cls-1, .cls-2, .cls-3 {
        font-family: Arial-BoldMT, Arial;
        font-weight: 700;
      }

      .cls-1, .cls-3 {
        font-size: 14px;
      }

      .cls-4 {
        fill: #a1b92e;
      }

      .cls-5, .cls-6 {
        fill: #007695;
      }

      .cls-7 {
        letter-spacing: -.07em;
      }

      .cls-8 {
        letter-spacing: 0em;
      }

      .cls-9 {
        letter-spacing: 0em;
      }

      .cls-10 {
        letter-spacing: -.05em;
      }

      .cls-11 {
        fill: none;
        stroke: #000;
        stroke-linecap: round;
        stroke-linejoin: round;
        stroke-width: 1px;
      }

      .cls-6, .cls-12 {
        fill-rule: evenodd;
      }

      .cls-2 {
        font-size: 8px;
      }

      .cls-13 {
        letter-spacing: 0em;
      }
    </style>
  </defs>
  <g id="_图层_1-2" data-name="图层 1">
    <rect class="cls-5" x="89.1" y=".04" width="15.75" height="19.12" rx="4.5" ry="4.5"/>
    <path class="cls-6" d="m0,14.66c0,2.49,2.01,4.5,4.5,4.5h41.62s0,0,0,0c2.49,0,4.5-2.01,4.5-4.5V4.54c-.01-2.49-2.02-4.5-4.51-4.5H4.5C2.01.04,0,2.05,0,4.54v10.12Z"/>
    <text class="cls-1" transform="translate(3.53 13.8)"><tspan x="0" y="0">EFR32</tspan></text>
    <line class="cls-11" x1="211.12" y1="22.24" x2="211.12" y2="119.79"/>
    <line class="cls-11" x1="237" y1="22.24" x2="237" y2="104.46"/>
    <line class="cls-11" x1="254.97" y1="22.24" x2="254.97" y2="89.14"/>
    <text class="cls-3" transform="translate(293.69 13.79)"><tspan x="0" y="0">–</tspan></text>
    <line class="cls-11" x1="278.26" y1="22.24" x2="278.26" y2="73.81"/>
    <line class="cls-11" x1="313.58" y1="22.24" x2="313.58" y2="58.49"/>
    <text class="cls-1" transform="translate(93.09 13.79)"><tspan x="0" y="0">1</tspan></text>
    <line class="cls-11" x1="331.25" y1="22.24" x2="331.25" y2="43.16"/>
    <line class="cls-11" x1="185.25" y1="22.24" x2="185.25" y2="135.11"/>
    <line class="cls-11" x1="159.35" y1="22.24" x2="159.35" y2="150.44"/>
    <line class="cls-11" x1="133.44" y1="22.24" x2="133.44" y2="195.29"/>
    <rect class="cls-5" x="125.57" y=".03" width="15.75" height="19.12" rx="4.5" ry="4.5"/>
    <rect class="cls-5" x="177.37" y=".03" width="15.75" height="19.12" rx="4.5" ry="4.5"/>
    <rect class="cls-5" x="229.12" y=".03" width="15.75" height="19.12" rx="4.5" ry="4.5"/>
    <text class="cls-1" transform="translate(129.06 13.79)"><tspan x="0" y="0">P</tspan></text>
    <text class="cls-1" transform="translate(180.98 13.79)"><tspan x="0" y="0">F</tspan></text>
    <text class="cls-1" transform="translate(231.55 13.79)"><tspan x="0" y="0">G</tspan></text>
    <rect class="cls-5" x="305.06" y=".03" width="16.37" height="19.12" rx="4.5" ry="4.5"/>
    <text class="cls-1" transform="translate(308.18 13.79)"><tspan x="0" y="0">A</tspan></text>
    <rect class="cls-4" x="323.37" y=".03" width="15.75" height="19.12" rx="4.5" ry="4.5"/>
    <text class="cls-1" transform="translate(326.19 13.79)"><tspan x="0" y="0">R</tspan></text>
    <polyline class="cls-11" points="331.24 43.16 350.11 43.16 350.47 43.16"/>
    <path class="cls-12" d="m349.23,39.64l7.04,3.52-6.97,3.5c1.09-2.21,1.08-4.81-.01-7.02"/>
    <text class="cls-2" transform="translate(360.28 45.56)"><tspan class="cls-7" x="0" y="0">T</tspan><tspan x="4.3" y="0">ape and Ree</tspan><tspan class="cls-13" x="51.43" y="0">l</tspan><tspan x="53.66" y="0" xml:space="preserve"> (Optional)</tspan></text>
    <polyline class="cls-11" points="313.58 58.48 332.45 58.48 332.81 58.48"/>
    <path class="cls-12" d="m331.57,54.96l7.04,3.52-6.97,3.5c1.09-2.21,1.08-4.81-.01-7.02"/>
    <text class="cls-2" transform="translate(342.61 60.88)"><tspan x="0" y="0">Revision</tspan></text>
    <polyline class="cls-11" points="278.26 73.81 295.52 73.81 295.88 73.81"/>
    <path class="cls-12" d="m294.64,70.29l7.04,3.52-6.97,3.5c1.09-2.21,1.08-4.81-.01-7.02"/>
    <text class="cls-2" transform="translate(305.68 76.21)"><tspan x="0" y="0">Pin Count</tspan></text>
    <polyline class="cls-11" points="254.97 89.13 275.81 89.13 276.17 89.13"/>
    <path class="cls-12" d="m274.93,85.61l7.04,3.52-6.97,3.5c1.09-2.21,1.08-4.81-.01-7.02"/>
    <text class="cls-2" transform="translate(285.97 91.54)"><tspan x="0" y="0">Package – M (QFN), L (BGA)</tspan></text>
    <polyline class="cls-11" points="211.12 119.78 231.96 119.78 232.32 119.78"/>
    <path class="cls-12" d="m231.08,116.26l7.04,3.52-6.97,3.5c1.09-2.21,1.08-4.81-.01-7.02"/>
    <text class="cls-2" transform="translate(242.12 122.18)"><tspan x="0" y="0">Flash Memory Size in kB</tspan></text>
    <polyline class="cls-11" points="185.25 135.11 206.09 135.11 206.45 135.11"/>
    <path class="cls-12" d="m205.21,131.59l7.04,3.52-6.97,3.5c1.09-2.21,1.08-4.81-.01-7.02"/>
    <text class="cls-2" transform="translate(216.25 137.51)"><tspan x="0" y="0">Memory </tspan><tspan class="cls-7" x="32.9" y="0">T</tspan><tspan class="cls-8" x="37.2" y="0">ype (Flash)</tspan></text>
    <polyline class="cls-11" points="159.34 150.43 180.18 150.43 180.54 150.43"/>
    <path class="cls-12" d="m179.3,146.91l7.04,3.52-6.97,3.5c1.09-2.21,1.08-4.81-.01-7.02"/>
    <text class="cls-2" transform="translate(190.34 153.34)"><tspan x="0" y="0">Feature Set Code – r2r1r0</tspan></text>
    <text class="cls-2" transform="translate(190.34 162.94)"><tspan x="0" y="0">r2: Reserved</tspan></text>
    <text class="cls-2" transform="translate(190.34 172.54)"><tspan x="0" y="0">r1: RF </tspan><tspan class="cls-7" x="25.34" y="0">T</tspan><tspan x="29.64" y="0">ype – 3 (TRX), 2 (RX), 1 (TX)</tspan></text>
    <text class="cls-2" transform="translate(190.34 182.13)"><tspan x="0" y="0">r0: Frequency Band – 1 (Sub-GHz), 2 (2.4 GHz), 3 (Dual-Band)</tspan></text>
    <rect class="cls-5" x="71.1" y=".03" width="15.75" height="19.12" rx="4.5" ry="4.5"/>
    <text class="cls-1" transform="translate(73.53 13.79)"><tspan x="0" y="0">G</tspan></text>
    <rect class="cls-5" x="53.1" y=".03" width="15.75" height="19.12" rx="4.5" ry="4.5"/>
    <text class="cls-1" transform="translate(56.6 13.79)"><tspan x="0" y="0">X</tspan></text>
    <rect class="cls-5" x="143.57" y=".03" width="31.55" height="19.12" rx="4.5" ry="4.5"/>
    <text class="cls-1" transform="translate(147.66 13.79)"><tspan x="0" y="0">132</tspan></text>
    <rect class="cls-5" x="195.34" y=".03" width="31.55" height="19.12" rx="4.5" ry="4.5"/>
    <text class="cls-1" transform="translate(194.93 13.79)"><tspan x="0" y="0">1024</tspan></text>
    <rect class="cls-5" x="247.09" y=".03" width="15.75" height="19.12" rx="4.5" ry="4.5"/>
    <text class="cls-1" transform="translate(250.7 13.79)"><tspan x="0" y="0">L</tspan></text>
    <path class="cls-6" d="m265.39,14.65c0,2.49,2.01,4.5,4.5,4.5h17.57c2.49,0,4.5-2.01,4.5-4.5V4.53c0-2.49-2-4.5-4.49-4.5h-17.58c-2.49,0-4.5,2.01-4.5,4.5v10.12Z"/>
    <text class="cls-1" transform="translate(266.58 13.79)"><tspan x="0" y="0">125</tspan></text>
    <line class="cls-11" x1="96.98" y1="22.31" x2="96.98" y2="225.41"/>
    <line class="cls-11" x1="78.98" y1="22.31" x2="78.98" y2="240.6"/>
    <line class="cls-11" x1="60.98" y1="22.31" x2="60.98" y2="256.04"/>
    <line class="cls-11" x1="25.31" y1="22.31" x2="25.31" y2="271.33"/>
    <polyline class="cls-11" points="237 104.46 257.84 104.46 258.2 104.46"/>
    <path class="cls-12" d="m256.96,100.94l7.04,3.52-6.97,3.5c1.09-2.21,1.08-4.81-.01-7.02"/>
    <text class="cls-2" transform="translate(268 106.86)"><tspan class="cls-7" x="0" y="0">T</tspan><tspan x="4.3" y="0">emperature Grade – G (-40 to +85 °C), -I (-40 to +125 °C)</tspan></text>
    <polyline class="cls-11" points="134 195.28 154.84 195.28 155.2 195.28"/>
    <path class="cls-12" d="m153.96,191.76l7.04,3.52-6.97,3.5c1.09-2.21,1.08-4.81-.01-7.02"/>
    <text class="cls-2" transform="translate(165 197.69)"><tspan x="0" y="0">Performance Grade – P (Performance), B (Basic), V (</tspan><tspan class="cls-10" x="198.73" y="0">V</tspan><tspan x="203.64" y="0">alue)</tspan></text>
    <polyline class="cls-11" points="96.98 225.38 117.82 225.38 118.18 225.38"/>
    <path class="cls-12" d="m116.94,221.86l7.04,3.52-6.97,3.5c1.09-2.21,1.08-4.81-.01-7.02"/>
    <text class="cls-2" transform="translate(127.98 227.79)"><tspan x="0" y="0">Series</tspan></text>
    <polyline class="cls-11" points="60.98 256.03 81.82 256.03 82.18 256.03"/>
    <path class="cls-12" d="m80.94,252.51l7.04,3.52-6.97,3.5c1.09-2.21,1.08-4.81-.01-7.02"/>
    <text class="cls-2" transform="translate(91.98 258.44)"><tspan x="0" y="0">Family – M, B, F</tspan></text>
    <polyline class="cls-11" points="25.31 271.36 46.15 271.36 46.51 271.36"/>
    <path class="cls-12" d="m45.27,267.84l7.04,3.52-6.97,3.5c1.09-2.21,1.08-4.81-.01-7.02"/>
    <text class="cls-2" transform="translate(56.31 273.76)"><tspan class="cls-9" x="0" y="0">W</tspan><tspan x="7.49" y="0">ireless Gecko 32-bit</tspan></text>
    <polyline class="cls-11" points="78.98 240.71 99.82 240.71 100.18 240.71"/>
    <path class="cls-12" d="m98.94,237.19l7.04,3.52-6.97,3.5c1.09-2.21,1.08-4.81-.01-7.02"/>
    <text class="cls-2" transform="translate(109.98 243.11)"><tspan x="0" y="0">Gecko</tspan></text>
    <line class="cls-11" x1="115.38" y1="22.2" x2="115.38" y2="210.12"/>
    <rect class="cls-5" x="107.51" width="15.75" height="19.12" rx="4.5" ry="4.5"/>
    <text class="cls-1" transform="translate(111.49 13.76)"><tspan x="0" y="0">2</tspan></text>
    <polyline class="cls-11" points="115.38 210.12 136.22 210.12 136.58 210.12"/>
    <path class="cls-12" d="m135.34,206.6l7.04,3.52-6.97,3.5c1.09-2.21,1.08-4.81-.01-7.02"/>
    <text class="cls-2" transform="translate(146.38 212.52)"><tspan x="0" y="0">Device Configuration</tspan></text>
  </g>
</svg>