<?xml version="1.0" encoding="utf-8"?>
<!-- Generator: Adobe Illustrator 26.5.0, SVG Export Plug-In . SVG Version: 6.00 Build 0)  -->
<svg version="1.1" id="_图层_2" xmlns="http://www.w3.org/2000/svg" xmlns:xlink="http://www.w3.org/1999/xlink" x="0px" y="0px"
	 viewBox="0 0 200 112.3" style="enable-background:new 0 0 200 112.3;" xml:space="preserve">
<style type="text/css">
	.st0{fill:#FFFFFF;}
	.st1{fill:none;stroke:#000000;stroke-width:0.49;stroke-linecap:round;stroke-linejoin:round;}
	.st2{fill-rule:evenodd;clip-rule:evenodd;}
</style>
<rect class="st0" width="200" height="112.3"/>
<g id="_图层_2-2">
	<g id="_图层_1-2">
		<line class="st1" x1="48.9" y1="42" x2="160.1" y2="42"/>
		<polyline class="st2" points="160.1,43.3 162.5,42 160.1,40.9 		"/>
		<line class="st1" x1="96.1" y1="2.3" x2="96.1" y2="78.8"/>
		<polyline class="st2" points="97.3,2.5 96.1,0 94.9,2.5 		"/>
		<line class="st1" x1="90.8" y1="42" x2="101.3" y2="42"/>
		<line class="st1" x1="101.3" y1="31.5" x2="101.3" y2="42"/>
		<line class="st1" x1="101.3" y1="31.5" x2="111.8" y2="31.5"/>
		<line class="st1" x1="111.8" y1="21" x2="111.8" y2="31.5"/>
		<line class="st1" x1="111.8" y1="21" x2="122.3" y2="21"/>
		<line class="st1" x1="122.3" y1="10.5" x2="122.3" y2="21"/>
		<line class="st1" x1="122.3" y1="10.5" x2="132.8" y2="10.5"/>
		<line class="st1" x1="69.9" y1="63" x2="69.9" y2="73.5"/>
		<line class="st1" x1="69.9" y1="63" x2="80.4" y2="63"/>
		<line class="st1" x1="80.4" y1="52.5" x2="80.4" y2="63"/>
		<line class="st1" x1="80.4" y1="52.5" x2="90.8" y2="52.5"/>
		<line class="st1" x1="90.8" y1="42" x2="90.8" y2="52.5"/>
		<line class="st1" x1="59.4" y1="73.5" x2="69.9" y2="73.5"/>
		<polyline points="61,76.9 61.2,77.1 62.1,76.3 61.9,76.1 		"/>
		<polyline points="62.5,75.5 62.7,75.7 63.5,74.9 63.2,74.7 		"/>
		<polyline points="63.9,74.1 64.1,74.2 64.9,73.4 64.7,73.2 		"/>
		<polyline points="65.4,72.6 65.5,72.8 66.4,72 66.1,71.8 		"/>
		<polyline points="66.8,71.1 67,71.4 67.8,70.5 67.6,70.3 		"/>
		<polyline points="68.2,69.7 68.4,69.9 69.2,69.1 69.1,68.8 		"/>
		<polyline points="69.7,68.2 69.9,68.5 70.7,67.6 70.5,67.4 		"/>
		<polyline points="71.1,66.8 71.3,67.1 72.2,66.2 71.9,66 		"/>
		<polyline points="72.5,65.3 72.8,65.6 73.6,64.8 73.4,64.6 		"/>
		<polyline points="74,63.9 74.2,64.2 75,63.3 74.8,63.1 		"/>
		<polyline points="75.4,62.5 75.7,62.7 76.5,61.9 76.2,61.6 		"/>
		<polyline points="76.9,61 77.1,61.2 77.9,60.5 77.7,60.2 		"/>
		<polyline points="78.3,59.6 78.6,59.8 79.4,59 79.1,58.8 		"/>
		<polyline points="79.8,58.2 80,58.3 80.8,57.5 80.6,57.3 		"/>
		<polyline points="81.2,56.8 81.4,56.9 82.3,56.1 82,55.9 		"/>
		<polyline points="82.6,55.2 82.9,55.5 83.7,54.6 83.5,54.5 		"/>
		<polyline points="84.1,53.8 84.3,54 85.1,53.2 84.9,53 		"/>
		<polyline points="85.6,52.4 85.7,52.6 86.6,51.8 86.4,51.5 		"/>
		<polyline points="87,50.9 87.2,51.2 88,50.3 87.8,50.1 		"/>
		<polyline points="88.4,49.5 88.6,49.7 89.4,48.9 89.2,48.6 		"/>
		<polyline points="89.8,48 90.1,48.3 90.9,47.4 90.7,47.2 		"/>
		<polyline points="91.3,46.6 91.5,46.8 92.3,46 92.2,45.8 		"/>
		<polyline points="92.7,45.2 93,45.4 93.8,44.6 93.6,44.3 		"/>
		<polyline points="94.2,43.7 94.4,43.9 95.2,43.2 95,42.9 		"/>
		<polyline points="95.6,42.3 95.9,42.5 96.7,41.6 96.4,41.5 		"/>
		<polyline points="97.1,40.9 97.3,41 98.2,40.2 97.9,40 		"/>
		<polyline points="98.5,39.3 98.7,39.6 99.6,38.8 99.3,38.6 		"/>
		<polyline points="99.9,37.9 100.2,38.2 101,37.3 100.8,37.1 		"/>
		<polyline points="101.4,36.5 101.6,36.7 102.4,35.9 102.2,35.7 		"/>
		<polyline points="102.9,35 103,35.3 103.9,34.4 103.6,34.2 		"/>
		<polyline points="104.3,33.6 104.5,33.8 105.3,33 105.1,32.7 		"/>
		<polyline points="105.8,32.1 105.9,32.4 106.8,31.6 106.5,31.3 		"/>
		<polyline points="107.2,30.7 107.4,31 108.2,30.1 108,29.9 		"/>
		<polyline points="108.6,29.3 108.9,29.4 109.6,28.7 109.4,28.5 		"/>
		<polyline points="110,27.9 110.3,28 111.1,27.2 110.9,27 		"/>
		<polyline points="111.5,26.4 111.7,26.6 112.6,25.7 112.3,25.5 		"/>
		<polyline points="112.9,24.9 113.2,25.1 113.9,24.3 113.8,24.1 		"/>
		<polyline points="114.3,23.5 114.6,23.7 115.4,22.9 115.2,22.7 		"/>
		<polyline points="115.8,22 116.1,22.2 116.9,21.4 116.6,21.2 		"/>
		<polyline points="117.2,20.6 117.5,20.8 118.3,20 118.1,19.8 		"/>
		<polyline points="118.7,19.1 118.9,19.4 119.8,18.5 119.5,18.3 		"/>
		<polyline points="120.1,17.7 120.4,17.9 121.2,17.1 120.9,16.9 		"/>
		<polyline points="121.6,16.3 121.8,16.5 122.6,15.7 122.4,15.4 		"/>
		<polyline points="123.1,14.8 123.2,15.1 124.1,14.2 123.8,14 		"/>
		<polyline points="124.5,13.4 124.6,13.6 125.5,12.8 125.3,12.5 		"/>
		<polyline points="125.9,11.9 126.1,12.1 126.9,11.3 126.8,11.1 		"/>
		<polyline points="127.3,10.5 127.6,10.7 128.4,9.9 128.2,9.7 		"/>
		<polyline points="128.8,9.1 129,9.3 129.8,8.4 129.6,8.2 		"/>
		<polyline points="130.2,7.6 130.5,7.8 131.3,7 131.1,6.8 		"/>
		<polyline points="131.6,6.2 131.9,6.4 132.7,5.5 132.5,5.4 		"/>
		<polyline points="133.1,4.7 133.4,4.9 134.2,4.1 133.9,3.9 		"/>
		<g>
			<path d="M123.9,49h-0.7l-0.3-0.8h-1.3l-0.3,0.8h-0.7l1.3-3.3h0.7L123.9,49L123.9,49z M122.7,47.7l-0.5-1.2l-0.4,1.2
				C121.8,47.7,122.7,47.7,122.7,47.7z"/>
		</g>
		<g>
			<path d="M124.2,49v-3.3h0.7l1.4,2.2v-2.2h0.6V49h-0.7l-1.3-2.2V49C124.9,49,124.2,49,124.2,49z"/>
		</g>
		<g>
			<path d="M130.6,49h-0.7l-0.3-0.8h-1.3L128,49h-0.7l1.3-3.3h0.7L130.6,49L130.6,49z M129.4,47.7l-0.5-1.2l-0.4,1.2
				C128.5,47.7,129.4,47.7,129.4,47.7z"/>
		</g>
		<g>
			<path d="M130.9,49v-3.3h0.7v2.8h1.7V49H130.9z"/>
		</g>
		<g>
			<path d="M133.6,47.4c0-0.3,0.1-0.6,0.2-0.9c0.1-0.2,0.2-0.3,0.3-0.5c0.1-0.1,0.3-0.2,0.4-0.3c0.2-0.1,0.4-0.1,0.7-0.1
				c0.5,0,0.9,0.2,1.2,0.5c0.3,0.3,0.4,0.7,0.4,1.3s-0.1,1-0.4,1.3c-0.3,0.3-0.7,0.5-1.2,0.5s-0.9-0.2-1.2-0.5
				S133.6,47.9,133.6,47.4L133.6,47.4z M134.3,47.4c0,0.4,0.1,0.7,0.3,0.9c0.2,0.2,0.4,0.3,0.7,0.3c0.3,0,0.5-0.1,0.7-0.3
				c0.2-0.2,0.3-0.5,0.3-0.9s-0.1-0.7-0.2-0.9s-0.4-0.3-0.7-0.3s-0.5,0.1-0.7,0.3S134.3,47,134.3,47.4z"/>
		</g>
		<g>
			<path d="M139,47.8v-0.6h1.4v1.3c-0.1,0.1-0.3,0.3-0.6,0.4c-0.3,0.1-0.5,0.2-0.8,0.2c-0.4,0-0.6-0.1-0.9-0.2s-0.5-0.4-0.6-0.6
				s-0.2-0.6-0.2-0.9c0-0.3,0.1-0.7,0.2-0.9s0.4-0.5,0.6-0.6c0.2-0.1,0.5-0.2,0.8-0.2c0.4,0,0.7,0.1,1,0.3s0.4,0.4,0.4,0.7l-0.7,0.1
				c-0.1-0.2-0.1-0.3-0.3-0.4c-0.1-0.1-0.3-0.1-0.5-0.1c-0.3,0-0.5,0.1-0.7,0.3S138,47,138,47.3c0,0.4,0.1,0.7,0.3,0.9
				s0.4,0.3,0.7,0.3c0.1,0,0.3,0,0.4-0.1c0.1-0.1,0.3-0.1,0.4-0.2v-0.4L139,47.8L139,47.8z"/>
		</g>
		<g>
			<path d="M124,54.7v-3.3h0.7v3.3H124z"/>
		</g>
		<g>
			<path d="M125.3,54.7v-3.3h0.7l1.4,2.2v-2.2h0.6v3.3h-0.7l-1.3-2.2v2.2C125.9,54.7,125.3,54.7,125.3,54.7z"/>
		</g>
		<g>
			<path d="M128.6,54.7v-3.3h1.1c0.4,0,0.7,0,0.8,0c0.2,0,0.3,0.2,0.5,0.3c0.1,0.2,0.2,0.4,0.2,0.7c0,0.2,0,0.4-0.1,0.5
				s-0.2,0.2-0.3,0.3s-0.2,0.1-0.4,0.2c-0.2,0-0.4,0-0.7,0h-0.4v1.3L128.6,54.7L128.6,54.7z M129.3,51.9v1h0.4c0.3,0,0.4,0,0.5,0
				s0.2-0.1,0.2-0.2c0-0.1,0.1-0.2,0.1-0.3c0-0.1,0-0.2-0.1-0.3c-0.1-0.1-0.2-0.1-0.3-0.2c-0.1,0-0.2,0-0.5,0L129.3,51.9L129.3,51.9
				z"/>
		</g>
		<g>
			<path d="M131.7,51.3h0.7v1.8c0,0.3,0,0.5,0,0.6c0,0.1,0.1,0.2,0.2,0.3s0.3,0.1,0.4,0.1s0.3,0,0.4-0.1c0.1-0.1,0.2-0.2,0.2-0.3
				c0-0.1,0-0.3,0-0.6v-1.8h0.7v1.8c0,0.4,0,0.7-0.1,0.8c0,0.2-0.1,0.3-0.2,0.4c-0.1,0.1-0.2,0.2-0.4,0.3s-0.4,0.1-0.6,0.1
				c-0.3,0-0.6,0-0.7-0.1c-0.2-0.1-0.3-0.2-0.4-0.3c-0.1-0.1-0.2-0.2-0.2-0.4c0-0.2-0.1-0.5-0.1-0.8L131.7,51.3L131.7,51.3z"/>
		</g>
		<g>
			<path d="M135.9,54.7v-2.8h-1v-0.6h2.7v0.6h-1v2.8H135.9L135.9,54.7z"/>
		</g>
		<g>
			<path d="M73.9,1.9h1.2c0.3,0,0.5,0,0.6,0.1C76,2,76.1,2.1,76.3,2.3s0.2,0.3,0.3,0.5c0.1,0.2,0.1,0.5,0.1,0.8c0,0.3,0,0.5-0.1,0.7
				c-0.1,0.2-0.2,0.4-0.4,0.6C76.1,5,76,5.1,75.8,5.2c-0.1,0.1-0.3,0.1-0.6,0.1h-1.3V1.9z M74.6,2.5v2.2h0.5c0.2,0,0.3,0,0.4,0
				c0.1,0,0.2-0.1,0.3-0.1c0.1-0.1,0.1-0.2,0.2-0.3S76,3.9,76,3.6s0-0.5-0.1-0.6c-0.1-0.1-0.1-0.2-0.2-0.3c-0.1-0.1-0.2-0.1-0.3-0.2
				c-0.1,0-0.3,0-0.6,0L74.6,2.5L74.6,2.5z"/>
		</g>
		<g>
			<path d="M77.3,5.3V1.9h0.7v3.3C77.9,5.3,77.3,5.3,77.3,5.3z"/>
			<path d="M80.1,4V3.5h1.4v1.3c-0.1,0.1-0.3,0.3-0.6,0.4c-0.3,0.1-0.5,0.2-0.8,0.2c-0.3,0-0.7-0.1-0.9-0.2C79,5,78.8,4.7,78.7,4.5
				s-0.2-0.6-0.2-0.9c0-0.3,0.1-0.7,0.2-0.9c0.1-0.3,0.4-0.5,0.6-0.6c0.2-0.1,0.5-0.2,0.8-0.2c0.4,0,0.7,0.1,1,0.3s0.4,0.4,0.5,0.7
				L80.9,3c-0.1-0.2-0.1-0.3-0.3-0.4s-0.3-0.1-0.5-0.1c-0.3,0-0.5,0.1-0.7,0.3s-0.3,0.5-0.3,0.8c0,0.4,0.1,0.7,0.3,0.9
				c0.2,0.2,0.4,0.3,0.7,0.3c0.1,0,0.3,0,0.4-0.1c0.1-0.1,0.3-0.1,0.4-0.2V4L80.1,4L80.1,4z"/>
		</g>
		<g>
			<path d="M82.2,5.3V1.9h0.7v3.3C82.9,5.3,82.2,5.3,82.2,5.3z"/>
		</g>
		<g>
			<path d="M84.3,5.3V2.5h-1V1.9h2.7v0.6h-1v2.8L84.3,5.3L84.3,5.3z"/>
		</g>
		<g>
			<path d="M89.4,5.3h-0.7l-0.3-0.8h-1.3l-0.3,0.8h-0.7l1.3-3.3h0.7L89.4,5.3L89.4,5.3z M88.2,3.9l-0.5-1.2l-0.5,1.2H88.2z"/>
		</g>
		<g>
			<path d="M89.7,5.3V2h0.7v2.7h1.7v0.6C92.1,5.3,89.7,5.3,89.7,5.3z"/>
		</g>
		<g>
			<path d="M73.6,9.2c0-0.3,0.1-0.6,0.2-0.9c0.1-0.2,0.2-0.3,0.3-0.5c0.1-0.1,0.3-0.2,0.4-0.3c0.2-0.1,0.5-0.1,0.7-0.1
				c0.5,0,0.9,0.2,1.2,0.5c0.3,0.3,0.4,0.7,0.4,1.3s-0.2,1-0.4,1.3c-0.3,0.3-0.7,0.5-1.2,0.5c-0.5,0-0.9-0.1-1.2-0.4
				C73.7,10.2,73.6,9.8,73.6,9.2L73.6,9.2z M74.3,9.2c0,0.4,0.1,0.7,0.3,0.9c0.2,0.2,0.4,0.3,0.7,0.3s0.5-0.1,0.7-0.3
				s0.3-0.5,0.3-0.9S76,8.5,75.9,8.3s-0.4-0.3-0.7-0.3s-0.5,0.1-0.7,0.3S74.3,8.8,74.3,9.2z"/>
			<path d="M77.3,7.5H78v1.8c0,0.3,0,0.5,0,0.6c0,0.1,0.1,0.2,0.2,0.3s0.3,0.1,0.5,0.1s0.3,0,0.4-0.1c0.1-0.1,0.2-0.2,0.2-0.3
				c0-0.1,0-0.3,0-0.6V7.5H80v1.8c0,0.4,0,0.7-0.1,0.9s-0.1,0.3-0.2,0.4c-0.1,0.1-0.2,0.2-0.4,0.3c-0.2,0.1-0.4,0.1-0.6,0.1
				c-0.3,0-0.6,0-0.7-0.1s-0.3-0.2-0.4-0.3s-0.2-0.2-0.2-0.4c0-0.2-0.1-0.5-0.1-0.9V7.5L77.3,7.5z"/>
		</g>
		<g>
			<path d="M81.5,10.9V8.1h-1V7.5h2.7v0.6h-1v2.8H81.5L81.5,10.9z"/>
		</g>
		<g>
			<path d="M83.5,10.9V7.5h1.1c0.4,0,0.7,0,0.8,0.1c0.2,0.1,0.4,0.2,0.5,0.3s0.2,0.4,0.2,0.6c0,0.2,0,0.4-0.1,0.5
				c-0.1,0.1-0.2,0.2-0.3,0.3s-0.2,0.1-0.3,0.2c-0.2,0-0.4,0.1-0.7,0.1h-0.4v1.3L83.5,10.9L83.5,10.9z M84.2,8.1v0.9h0.4
				c0.3,0,0.4,0,0.5-0.1c0.1,0,0.2-0.1,0.2-0.2c0.1-0.1,0.1-0.2,0.1-0.3c0-0.1,0-0.2-0.1-0.3c-0.1-0.1-0.2-0.1-0.3-0.1
				c-0.1,0-0.2,0-0.5,0L84.2,8.1L84.2,8.1z"/>
		</g>
		<g>
			<path d="M86.7,7.5h0.7v1.8c0,0.3,0,0.5,0,0.6c0,0.1,0.1,0.2,0.2,0.3s0.3,0.1,0.4,0.1s0.3,0,0.4-0.1c0.1-0.1,0.2-0.2,0.2-0.3
				c0-0.1,0-0.3,0-0.6V7.5h0.7v1.8c0,0.4,0,0.7,0,0.9c0,0.2-0.1,0.3-0.2,0.4c-0.1,0.1-0.2,0.2-0.4,0.3c-0.2,0.1-0.4,0.1-0.6,0.1
				c-0.3,0-0.6,0-0.7-0.1s-0.3-0.2-0.4-0.3s-0.2-0.2-0.2-0.4c0-0.2-0.1-0.5-0.1-0.9L86.7,7.5L86.7,7.5z"/>
		</g>
		<g>
			<path d="M90.7,10.9V8.1h-1V7.5h2.7v0.6h-1v2.8H90.7L90.7,10.9z"/>
		</g>
		<line class="st1" x1="50.6" y1="99.8" x2="160.1" y2="99.8"/>
		<polyline class="st2" points="160.1,101 162.5,99.8 160.1,98.6 		"/>
		<line class="st1" x1="101.3" y1="94.6" x2="101.3" y2="105"/>
		<line class="st1" x1="90.8" y1="105" x2="101.3" y2="94.6"/>
		<line class="st1" x1="90.8" y1="94.6" x2="90.8" y2="105"/>
		<line class="st1" x1="101.3" y1="105" x2="111.8" y2="94.6"/>
		<line class="st1" x1="111.8" y1="105" x2="122.3" y2="94.6"/>
		<line class="st1" x1="111.8" y1="94.6" x2="111.8" y2="105"/>
		<polyline class="st1" points="122.3,94.6 122.3,105 132.8,94.6 		"/>
		<line class="st1" x1="80.4" y1="105" x2="90.8" y2="94.6"/>
		<line class="st1" x1="80.4" y1="94.6" x2="80.4" y2="105"/>
		<line class="st1" x1="69.9" y1="105" x2="80.4" y2="94.6"/>
		<line class="st1" x1="69.9" y1="94.6" x2="69.9" y2="105"/>
		<line class="st1" x1="59.4" y1="105" x2="69.9" y2="94.6"/>
		<rect x="134.5" y="94.4" width="1.2" height="0.3"/>
		<rect x="136.6" y="94.4" width="1.2" height="0.3"/>
		<rect x="138.6" y="94.4" width="1.2" height="0.3"/>
		<rect x="140.7" y="94.4" width="1.2" height="0.3"/>
		<rect x="142.7" y="94.4" width="1.2" height="0.3"/>
		<rect x="144.7" y="94.4" width="1.2" height="0.3"/>
		<rect x="146.8" y="94.4" width="1.2" height="0.3"/>
		<rect x="134.5" y="104.8" width="1.2" height="0.3"/>
		<rect x="136.6" y="104.8" width="1.2" height="0.3"/>
		<rect x="138.6" y="104.8" width="1.2" height="0.3"/>
		<rect x="140.7" y="104.8" width="1.2" height="0.3"/>
		<rect x="142.7" y="104.8" width="1.2" height="0.3"/>
		<rect x="144.7" y="104.8" width="1.2" height="0.3"/>
		<rect x="146.8" y="104.8" width="1.2" height="0.3"/>
		<g>
			<path d="M37.5,94.7v-3.3H40v0.6h-1.8v0.7h1.7v0.6h-1.7v0.9H40v0.6H37.5z"/>
			<path d="M40.6,94.7v-3.3H42c0.4,0,0.6,0,0.8,0.1s0.3,0.2,0.4,0.3s0.2,0.3,0.2,0.5c0,0.2-0.1,0.5-0.2,0.6s-0.4,0.3-0.7,0.3
				c0.2,0.1,0.3,0.2,0.4,0.3s0.2,0.3,0.4,0.5l0.4,0.7h-0.8l-0.5-0.7c-0.2-0.3-0.3-0.4-0.4-0.5c-0.1-0.1-0.1-0.1-0.2-0.1
				s-0.2,0-0.3,0h-0.1v1.4H40.6z M41.3,92.7h0.5c0.3,0,0.5,0,0.6,0c0.1,0,0.1-0.1,0.2-0.1s0.1-0.2,0.1-0.2c0-0.1,0-0.2-0.1-0.3
				c-0.1-0.1-0.1-0.1-0.2-0.1c0,0-0.2,0-0.5,0h-0.5L41.3,92.7L41.3,92.7z"/>
			<path d="M44,94.7v-3.3h1.4c0.4,0,0.6,0,0.8,0.1s0.3,0.2,0.4,0.3c0.1,0.2,0.1,0.3,0.1,0.5c0,0.2-0.1,0.5-0.2,0.6
				c-0.1,0.2-0.4,0.3-0.7,0.3c0.2,0.1,0.3,0.2,0.4,0.3s0.2,0.3,0.4,0.5l0.4,0.7h-0.8l-0.5-0.7c-0.2-0.3-0.3-0.4-0.4-0.5
				c-0.1-0.1-0.1-0.1-0.2-0.1s-0.2,0-0.3,0h-0.1v1.4C44.7,94.7,44,94.7,44,94.7z M44.7,92.7h0.5c0.3,0,0.5,0,0.6,0
				c0.1,0,0.1-0.1,0.2-0.1s0.1-0.2,0.1-0.2c0-0.1,0-0.2-0.1-0.3s-0.1-0.1-0.2-0.1c0,0-0.2,0-0.5,0h-0.5L44.7,92.7L44.7,92.7z"/>
			<path d="M47.2,93c0-0.3,0-0.6,0.1-0.9c0.1-0.2,0.2-0.3,0.3-0.5s0.3-0.2,0.4-0.3c0.2-0.1,0.5-0.1,0.7-0.1c0.5,0,0.9,0.2,1.2,0.5
				s0.4,0.7,0.4,1.3s-0.1,1-0.4,1.3c-0.3,0.3-0.7,0.5-1.2,0.5c-0.5,0-0.9-0.2-1.2-0.4C47.4,94,47.2,93.6,47.2,93L47.2,93z M47.9,93
				c0,0.4,0.1,0.7,0.3,0.9c0.2,0.2,0.4,0.3,0.7,0.3c0.3,0,0.5-0.1,0.7-0.3c0.2-0.2,0.3-0.5,0.3-0.9s-0.1-0.7-0.2-0.9
				s-0.4-0.3-0.7-0.3c-0.3,0-0.5,0.1-0.7,0.3S47.9,92.6,47.9,93z"/>
		</g>
		<g>
			<path d="M51,94.7v-3.3h1.4c0.4,0,0.6,0,0.8,0.1c0.2,0.1,0.3,0.2,0.4,0.3c0.1,0.2,0.2,0.3,0.2,0.5c0,0.2-0.1,0.5-0.2,0.6
				c-0.1,0.2-0.4,0.3-0.7,0.3c0.2,0.1,0.3,0.2,0.4,0.3s0.2,0.3,0.4,0.5l0.4,0.7h-0.8l-0.5-0.7c-0.2-0.3-0.3-0.4-0.4-0.5
				c-0.1-0.1-0.1-0.1-0.2-0.1s-0.2,0-0.3,0h-0.1v1.4C51.6,94.7,51,94.7,51,94.7z M51.6,92.7h0.5c0.3,0,0.5,0,0.6,0s0.1-0.1,0.2-0.1
				s0.1-0.2,0.1-0.2c0-0.1,0-0.2-0.1-0.3c-0.1-0.1-0.1-0.1-0.2-0.1c0,0-0.2,0-0.5,0h-0.5L51.6,92.7L51.6,92.7z"/>
		</g>
		<line class="st1" x1="139.8" y1="87.5" x2="139.8" y2="92.1"/>
		<polyline class="st2" points="138.6,92.1 139.8,94.6 141,92.1 		"/>
		<line class="st1" x1="139.8" y1="112" x2="139.8" y2="107.4"/>
		<polyline class="st2" points="141,107.5 139.8,105 138.6,107.5 		"/>
		<g>
			<path d="M144.9,88h-0.6v-2.4c-0.2,0.2-0.5,0.4-0.8,0.5v-0.6c0.2-0.1,0.4-0.2,0.6-0.3c0.2-0.2,0.3-0.3,0.4-0.5h0.5V88L144.9,88z"
				/>
		</g>
		<g>
			<path d="M147.3,88v-3.3h0.7v2.8h1.7V88H147.3z"/>
		</g>
		<g>
			<path d="M149.9,86.9l0.7-0.1c0,0.2,0.1,0.4,0.2,0.5c0.1,0.1,0.3,0.2,0.5,0.2c0.2,0,0.4-0.1,0.5-0.1c0.1-0.1,0.2-0.2,0.2-0.3
				c0-0.1,0-0.2-0.1-0.2c-0.1-0.1-0.1-0.1-0.2-0.1c-0.1,0-0.3-0.1-0.5-0.2c-0.4-0.1-0.6-0.2-0.8-0.3c-0.2-0.2-0.3-0.4-0.3-0.7
				c0-0.2,0.1-0.3,0.1-0.5s0.2-0.3,0.4-0.3c0.2-0.1,0.4-0.1,0.7-0.1c0.4,0,0.7,0.1,1,0.3c0.2,0.2,0.3,0.4,0.3,0.7l-0.7,0
				c0-0.2-0.1-0.3-0.2-0.4s-0.2-0.1-0.4-0.1s-0.3,0-0.5,0.1c-0.1,0.1-0.1,0.1-0.1,0.2c0,0.1,0,0.2,0.1,0.2c0.1,0.1,0.3,0.2,0.6,0.2
				c0.3,0.1,0.6,0.2,0.7,0.2c0.2,0.1,0.3,0.2,0.4,0.3c0.1,0.1,0.1,0.3,0.1,0.5c0,0.2-0.1,0.4-0.2,0.5s-0.3,0.3-0.4,0.4
				s-0.4,0.1-0.7,0.1c-0.4,0-0.8-0.1-1-0.3C150.1,87.6,150,87.3,149.9,86.9L149.9,86.9z"/>
		</g>
		<g>
			<path d="M153.2,84.6h1.3c0.3,0,0.5,0,0.6,0s0.2,0.1,0.4,0.1c0.1,0.1,0.2,0.2,0.3,0.3c0.1,0.1,0.1,0.2,0.1,0.4
				c0,0.2,0,0.3-0.1,0.4c-0.1,0.1-0.2,0.2-0.3,0.3c0.2,0.1,0.4,0.2,0.5,0.3s0.2,0.3,0.2,0.5c0,0.2,0,0.3-0.1,0.4s-0.2,0.3-0.3,0.3
				c-0.1,0.1-0.3,0.1-0.4,0.2c-0.1,0-0.4,0-0.8,0h-1.1L153.2,84.6L153.2,84.6z M153.9,85.2V86h0.4c0.3,0,0.4,0,0.5,0
				c0.1,0,0.2-0.1,0.3-0.1c0.1-0.1,0.1-0.2,0.1-0.3s0-0.2-0.1-0.2s-0.1-0.1-0.2-0.1c-0.1,0-0.3,0-0.6,0L153.9,85.2L153.9,85.2z
				 M153.9,86.5v0.9h0.6c0.2,0,0.4,0,0.5,0c0.1,0,0.2-0.1,0.2-0.1s0.1-0.2,0.1-0.3c0-0.1,0-0.2-0.1-0.3s-0.1-0.1-0.2-0.2
				s-0.3-0.1-0.6-0.1H153.9L153.9,86.5z"/>
		</g>
	</g>
</g>
</svg>
