<?xml version="1.0" encoding="utf-8"?>
<!-- Generator: Adobe Illustrator 26.5.0, SVG Export Plug-In . SVG Version: 6.00 Build 0)  -->
<svg version="1.1" id="_图层_2" xmlns="http://www.w3.org/2000/svg" xmlns:xlink="http://www.w3.org/1999/xlink" x="0px" y="0px"
	 viewBox="0 0 200 111.4" style="enable-background:new 0 0 200 111.4;" xml:space="preserve">
<style type="text/css">
	.st0{fill:#FFFFFF;}
	.st1{fill:#3B4449;}
</style>
<rect class="st0" width="200" height="111"/>
<g id="_图层_1-2">
	<g>
		<path class="st1" d="M129.8,4.1h7.7c0.2,0,0.4-0.2,0.4-0.4s-0.2-0.4-0.4-0.4h-7.7c-0.2,0-0.4,0.2-0.4,0.4S129.6,4.1,129.8,4.1"/>
		<path class="st1" d="M107.7,3.4H100c-0.2,0-0.4,0.2-0.4,0.4s0.2,0.4,0.4,0.4h7.7c0.2,0,0.4-0.2,0.4-0.4S107.9,3.4,107.7,3.4"/>
		<rect x="107.9" y="0.4" class="st0" width="21.8" height="6.8"/>
		<polygon class="st1" points="129.6,0.4 129.3,0.4 129.3,6.8 108.3,6.8 108.3,0.8 129.6,0.8 129.6,0.4 129.3,0.4 129.6,0.4 
			129.6,0 107.5,0 107.5,7.5 130,7.5 130,0 129.6,0 		"/>
		<path class="st1" d="M120.1,15.5l1-1.5v1.5H120.1z M121.9,17.1v-0.9h0.5v-0.7h-0.5v-2.7h-0.7l-1.9,2.7v0.7h1.8v0.9L121.9,17.1
			L121.9,17.1z M116.2,13.5h0.7c0.3,0,0.6,0,0.6,0c0.1,0,0.2,0.1,0.3,0.2s0.1,0.2,0.1,0.4c0,0.1,0,0.2-0.1,0.3
			c-0.1,0.1-0.1,0.1-0.2,0.2c-0.1,0-0.4,0.1-0.8,0.1h-0.6L116.2,13.5L116.2,13.5z M116.2,17.1v-1.8h0.2c0.2,0,0.3,0,0.4,0.1
			c0.1,0,0.2,0.1,0.3,0.2s0.2,0.3,0.5,0.6l0.6,0.9h1l-0.5-0.8c-0.2-0.3-0.4-0.6-0.5-0.7c-0.1-0.1-0.3-0.2-0.5-0.4
			c0.4-0.1,0.7-0.2,0.8-0.4c0.2-0.2,0.3-0.5,0.3-0.8c0-0.2-0.1-0.5-0.2-0.7c-0.1-0.2-0.3-0.3-0.5-0.4s-0.5-0.1-1-0.1h-1.8v4.3
			L116.2,17.1L116.2,17.1z"/>
		<path class="st1" d="M100,3.4H81.2c-0.2,0-0.4,0.2-0.4,0.4s0.2,0.4,0.4,0.4H100c0.2,0,0.4-0.2,0.4-0.4S100.2,3.4,100,3.4"/>
		<path class="st1" d="M146.9,51h9.4c0.2,0,0.4-0.2,0.4-0.4s-0.2-0.4-0.4-0.4h-9.4c-0.2,0-0.4,0.2-0.4,0.4S146.7,51,146.9,51"/>
		<path class="st1" d="M137.5,4.1h18.7c0.2,0,0.4-0.2,0.4-0.4s-0.2-0.4-0.4-0.4h-18.8c-0.2,0-0.4,0.2-0.4,0.4S137.3,4.1,137.5,4.1"
			/>
		<path class="st1" d="M157.4,50.6c0,0.2,0,0.3-0.1,0.4s-0.1,0.3-0.2,0.4c-0.1,0.1-0.2,0.2-0.4,0.2c-0.1,0.1-0.3,0.1-0.4,0.1
			s-0.3,0-0.4-0.1s-0.3-0.1-0.4-0.2c-0.1-0.1-0.2-0.2-0.2-0.4c-0.1-0.1-0.1-0.3-0.1-0.4s0-0.3,0.1-0.4c0.1-0.1,0.1-0.3,0.2-0.4
			c0.1-0.1,0.2-0.2,0.4-0.2c0.1-0.1,0.3-0.1,0.4-0.1s0.3,0,0.4,0.1s0.3,0.1,0.4,0.2c0.1,0.1,0.2,0.2,0.2,0.4
			C157.4,50.3,157.4,50.5,157.4,50.6"/>
		<path class="st1" d="M157.4,50.6h-0.2c0,0.1,0,0.2-0.1,0.4s-0.1,0.2-0.2,0.3c-0.1,0.1-0.2,0.2-0.3,0.2c-0.1,0-0.2,0.1-0.4,0.1
			s-0.2,0-0.4-0.1s-0.2-0.1-0.3-0.2s-0.2-0.2-0.2-0.3c-0.1-0.1-0.1-0.2-0.1-0.4s0-0.2,0.1-0.4s0.1-0.2,0.2-0.3s0.2-0.2,0.3-0.2
			s0.2-0.1,0.4-0.1s0.2,0,0.4,0.1s0.2,0.1,0.3,0.2c0.1,0.1,0.2,0.2,0.2,0.3c0.1,0.1,0.1,0.2,0.1,0.4h0.4c0-0.2,0-0.3-0.1-0.5
			s-0.2-0.3-0.3-0.4s-0.3-0.2-0.4-0.3s-0.3-0.1-0.5-0.1s-0.3,0-0.5,0.1s-0.3,0.2-0.4,0.3c-0.1,0.1-0.2,0.3-0.3,0.4
			c-0.1,0.2-0.1,0.3-0.1,0.5s0,0.3,0.1,0.5s0.2,0.3,0.3,0.4c0.1,0.1,0.3,0.2,0.4,0.3c0.2,0.1,0.3,0.1,0.5,0.1s0.3,0,0.5-0.1
			s0.3-0.2,0.4-0.3c0.1-0.1,0.2-0.3,0.3-0.4c0.1-0.2,0.1-0.3,0.1-0.5L157.4,50.6L157.4,50.6z"/>
		<path class="st1" d="M24,93.5v-1.1h1.1v-0.8H24v-1.1h-0.8v1.1h-1.1v0.8h1.1v1.1H24z M20.2,94.1H21l0.6-3.1h-0.8L20.2,94.1z
			 M20.9,90.6h0.8l0.2-0.8h-0.8L20.9,90.6z M16.3,92.1c-0.1,0.3-0.1,0.5-0.1,0.5c0,0.1,0,0.2,0,0.3c0,0.4,0.1,0.7,0.4,0.9
			c0.3,0.2,0.6,0.4,1.1,0.4c0.4,0,0.8-0.1,1-0.2c0.3-0.2,0.5-0.4,0.6-0.6c0.1-0.3,0.2-0.6,0.4-1.1l0.5-2.3h-0.9l-0.5,2.3
			c-0.1,0.4-0.2,0.7-0.2,0.8c-0.1,0.2-0.2,0.3-0.3,0.4s-0.3,0.1-0.5,0.1c-0.2,0-0.4-0.1-0.5-0.2c-0.1-0.1-0.2-0.2-0.2-0.4v-0.1
			l0.1-0.6l0.5-2.3h-0.9L16.3,92.1L16.3,92.1z"/>
		<path class="st1" d="M155.9,3.8v46.9c0,0.2,0.2,0.4,0.4,0.4s0.4-0.2,0.4-0.4V3.8c0-0.2-0.2-0.4-0.4-0.4S155.9,3.5,155.9,3.8"/>
		<path class="st1" d="M181.8,46.4c-0.2,0.2-0.4,0.3-0.6,0.3c-0.2,0-0.3-0.1-0.5-0.2c-0.1-0.1-0.2-0.3-0.2-0.5c0-0.2,0-0.4,0.1-0.6
			s0.2-0.4,0.3-0.5s0.3-0.2,0.5-0.2s0.3,0.1,0.4,0.2s0.2,0.3,0.2,0.5C182.1,45.8,182,46.1,181.8,46.4 M179.9,46.7
			c0.1,0.2,0.3,0.4,0.5,0.5s0.5,0.2,0.8,0.2c0.5,0,1-0.2,1.3-0.5c0.3-0.4,0.5-0.8,0.5-1.3c0-0.4-0.1-0.8-0.4-1s-0.6-0.4-1.1-0.4
			c-0.5,0-1,0.2-1.3,0.5c-0.3,0.3-0.5,0.8-0.5,1.4C179.7,46.2,179.8,46.4,179.9,46.7 M175.7,45.2c-0.1,0.3-0.1,0.5-0.1,0.5
			c0,0.1,0,0.2,0,0.3c0,0.4,0.1,0.7,0.4,1c0.3,0.2,0.6,0.4,1.1,0.4c0.4,0,0.8-0.1,1-0.2c0.3-0.2,0.5-0.4,0.6-0.6
			c0.1-0.3,0.2-0.6,0.4-1.1l0.5-2.3h-0.9l-0.5,2.3c-0.1,0.4-0.2,0.7-0.2,0.8c-0.1,0.2-0.2,0.3-0.3,0.4c-0.1,0.1-0.3,0.1-0.5,0.1
			c-0.2,0-0.4-0.1-0.5-0.2c-0.1-0.1-0.2-0.2-0.2-0.4v-0.1l0.1-0.6l0.5-2.3h-0.9L175.7,45.2L175.7,45.2z"/>
		<path class="st1" d="M21.8,36.7h1.6l0.2-0.8H22L21.8,36.7z M20.2,37.9H21l0.6-3.1h-0.8L20.2,37.9z M20.9,34.4h0.8l0.2-0.8h-0.8
			L20.9,34.4z M16.3,35.9c-0.1,0.3-0.1,0.5-0.1,0.5c0,0.1,0,0.2,0,0.3c0,0.4,0.1,0.7,0.4,1c0.3,0.2,0.7,0.4,1.1,0.4
			c0.4,0,0.8-0.1,1-0.2c0.3-0.2,0.5-0.4,0.6-0.6c0.1-0.3,0.2-0.6,0.4-1.1l0.5-2.3h-0.9l-0.5,2.3c-0.1,0.4-0.2,0.7-0.2,0.8
			c-0.1,0.2-0.2,0.3-0.3,0.4c-0.1,0.1-0.3,0.1-0.5,0.1c-0.2,0-0.4-0.1-0.5-0.2C17.1,37,17,36.8,17,36.6v-0.1l0.1-0.6l0.5-2.3h-0.9
			L16.3,35.9L16.3,35.9z"/>
		<path class="st1" d="M80.9,3.8v37.5c0,0.2,0.2,0.4,0.4,0.4s0.4-0.2,0.4-0.4V3.8c0-0.2-0.2-0.4-0.4-0.4S80.9,3.5,80.9,3.8"/>
		<path class="st1" d="M82.4,41.3c0,0.2,0,0.3-0.1,0.4S82.1,41.9,82,42c-0.1,0.1-0.2,0.2-0.4,0.2c-0.1,0.1-0.3,0.1-0.4,0.1
			s-0.3,0-0.4-0.1s-0.3-0.1-0.4-0.2c-0.1-0.1-0.2-0.2-0.2-0.4c-0.1-0.1-0.1-0.3-0.1-0.4s0-0.3,0.1-0.4c0.1-0.1,0.1-0.3,0.2-0.4
			c0.1-0.1,0.2-0.2,0.4-0.2c0.1-0.1,0.3-0.1,0.4-0.1s0.3,0,0.4,0.1s0.3,0.1,0.4,0.2c0.1,0.1,0.2,0.2,0.2,0.4
			C82.3,41,82.4,41.1,82.4,41.3"/>
		<path class="st1" d="M82.4,41.3h-0.2c0,0.1,0,0.2-0.1,0.4s-0.1,0.2-0.2,0.3c-0.1,0.1-0.2,0.2-0.3,0.2c-0.1,0-0.2,0.1-0.4,0.1
			s-0.2,0-0.4-0.1s-0.2-0.1-0.3-0.2c-0.1-0.1-0.2-0.2-0.2-0.3c-0.1-0.1-0.1-0.2-0.1-0.4s0-0.2,0.1-0.4s0.1-0.2,0.2-0.3
			s0.2-0.2,0.3-0.2s0.2-0.1,0.4-0.1s0.2,0,0.4,0.1s0.2,0.1,0.3,0.2c0.1,0.1,0.2,0.2,0.2,0.3c0.1,0.1,0.1,0.2,0.1,0.4h0.4
			c0-0.2,0-0.3-0.1-0.5s-0.2-0.3-0.3-0.4c-0.1-0.1-0.3-0.2-0.4-0.3S81.4,40,81.3,40s-0.3,0-0.5,0.1s-0.3,0.2-0.4,0.3
			c-0.1,0.1-0.2,0.3-0.3,0.4c-0.1,0.2-0.1,0.3-0.1,0.5s0,0.3,0.1,0.5s0.2,0.3,0.3,0.4c0.1,0.1,0.3,0.2,0.4,0.3
			c0.2,0.1,0.3,0.1,0.5,0.1s0.3,0,0.5-0.1s0.3-0.2,0.4-0.3c0.1-0.1,0.2-0.3,0.3-0.4c0.1-0.2,0.1-0.3,0.1-0.5L82.4,41.3L82.4,41.3z"
			/>
		<path class="st1" d="M64.2,41.6h7.7c0.2,0,0.4-0.2,0.4-0.4s-0.2-0.4-0.4-0.4h-7.7c-0.2,0-0.4,0.2-0.4,0.4S64,41.6,64.2,41.6"/>
		<path class="st1" d="M42.1,40.9h-7.7c-0.2,0-0.4,0.2-0.4,0.4s0.2,0.4,0.4,0.4h7.7c0.2,0,0.4-0.2,0.4-0.4S42.3,40.9,42.1,40.9"/>
		<rect x="42.2" y="37.9" class="st0" width="21.8" height="6.8"/>
		<polygon class="st1" points="64,37.9 63.6,37.9 63.6,44.3 42.6,44.3 42.6,38.3 64,38.3 64,37.9 63.6,37.9 64,37.9 64,37.5 
			41.9,37.5 41.9,45 64.4,45 64.4,37.5 64,37.5 		"/>
		<path class="st1" d="M54.3,54.3c0.3,0.2,0.6,0.3,1,0.3c0.4,0,0.8-0.1,1-0.4s0.4-0.6,0.4-1c0-0.3-0.1-0.5-0.2-0.7
			c-0.2-0.2-0.3-0.3-0.6-0.3c0.4-0.2,0.6-0.5,0.6-0.9c0-0.3-0.1-0.5-0.3-0.7c-0.2-0.3-0.6-0.4-1-0.4c-0.2,0-0.5,0-0.6,0.1
			c-0.2,0.1-0.3,0.2-0.5,0.4c-0.1,0.2-0.2,0.4-0.2,0.6l0.8,0.1c0-0.2,0.1-0.3,0.2-0.4s0.2-0.2,0.4-0.2s0.3,0,0.3,0.1
			s0.1,0.2,0.1,0.3c0,0.2-0.1,0.3-0.2,0.4S55.2,52,55,52l-0.1,0.7c0.2,0,0.3-0.1,0.4-0.1c0.2,0,0.3,0.1,0.4,0.2s0.2,0.3,0.2,0.5
			c0,0.2-0.1,0.4-0.2,0.5S55.4,54,55.3,54c-0.2,0-0.3,0-0.4-0.2s-0.2-0.3-0.2-0.5l-0.8,0.1C53.9,53.8,54,54.1,54.3,54.3 M50.6,51
			h0.7c0.3,0,0.6,0,0.6,0c0.1,0,0.2,0.1,0.3,0.2c0.1,0.1,0.1,0.2,0.1,0.3c0,0.1,0,0.2-0.1,0.3C52.2,52,52.1,52,52,52.1
			c-0.1,0-0.4,0-0.8,0h-0.6L50.6,51L50.6,51z M50.6,54.6v-1.8h0.2c0.2,0,0.3,0,0.4,0s0.2,0.1,0.3,0.2s0.2,0.3,0.5,0.6l0.6,0.9h1
			l-0.5-0.8c-0.2-0.3-0.4-0.6-0.5-0.7c-0.1-0.1-0.3-0.2-0.5-0.4c0.4,0,0.7-0.2,0.8-0.4c0.2-0.2,0.3-0.5,0.3-0.8
			c0-0.2-0.1-0.5-0.2-0.7c-0.1-0.2-0.3-0.3-0.5-0.4s-0.5-0.1-1-0.1h-1.8v4.3L50.6,54.6L50.6,54.6z"/>
		<path class="st1" d="M71.9,41.6h18.8c0.2,0,0.4-0.2,0.4-0.4s-0.2-0.4-0.4-0.4H71.9c-0.2,0-0.4,0.2-0.4,0.4S71.7,41.6,71.9,41.6"/>
		<path class="st1" d="M184.4,50.3h-28.1c-0.2,0-0.4,0.2-0.4,0.4s0.2,0.4,0.4,0.4h28.1c0.2,0,0.4-0.2,0.4-0.4S184.6,50.3,184.4,50.3
			"/>
		<path class="st1" d="M156.6,105v-7.5c0-0.2-0.2-0.4-0.4-0.4s-0.4,0.2-0.4,0.4v7.5c0,0.2,0.2,0.4,0.4,0.4S156.6,105.2,156.6,105"/>
		<path class="st1" d="M163.8,104.6h-15c-0.2,0-0.4,0.2-0.4,0.4s0.2,0.4,0.4,0.4h15c0.2,0,0.4-0.2,0.4-0.4S164,104.6,163.8,104.6"/>
		<path class="st1" d="M160.8,107.6h-9c-0.2,0-0.4,0.2-0.4,0.4s0.2,0.4,0.4,0.4h9c0.2,0,0.4-0.2,0.4-0.4S161,107.6,160.8,107.6"/>
		<path class="st1" d="M157.8,110.6h-3c-0.2,0-0.4,0.2-0.4,0.4s0.2,0.4,0.4,0.4h3c0.2,0,0.4-0.2,0.4-0.4S158,110.6,157.8,110.6"/>
		<polygon class="st0" points="142.2,50.6 95.3,27.2 95.3,74.1 		"/>
		<polygon class="st1" points="142.2,50.6 142.4,50.3 94.9,26.6 94.9,74.7 143,50.6 142.4,50.3 142.2,50.6 142,50.3 95.7,73.5 
			95.7,27.8 142,51 142.2,50.6 142,50.3 		"/>
		<rect x="98.2" y="41" class="st1" width="6.1" height="0.6"/>
		<polygon class="st1" points="101.5,56.9 100.9,56.9 100.9,59.7 98.2,59.7 98.2,60.3 100.9,60.3 100.9,63.1 101.5,63.1 101.5,60.3 
			104.3,60.3 104.3,59.7 101.5,59.7 		"/>
		<path class="st1" d="M146.9,50.3h-4.7c-0.2,0-0.4,0.2-0.4,0.4s0.2,0.4,0.4,0.4h4.7c0.2,0,0.4-0.2,0.4-0.4S147.1,50.3,146.9,50.3"
			/>
		<path class="st1" d="M90.6,60.4h4.7c0.2,0,0.4-0.2,0.4-0.4s-0.2-0.4-0.4-0.4h-4.7c-0.2,0-0.4,0.2-0.4,0.4S90.4,60.4,90.6,60.4"/>
		<path class="st1" d="M95.3,40.9h-4.7c-0.2,0-0.4,0.2-0.4,0.4s0.2,0.4,0.4,0.4h4.7c0.2,0,0.4-0.2,0.4-0.4S95.5,40.9,95.3,40.9"/>
		<path class="st1" d="M126.1,51c0.1-0.2,0.3-0.2,0.5-0.2s0.4,0.1,0.5,0.2s0.2,0.4,0.2,0.7c0,0.3-0.1,0.6-0.2,0.8
			c-0.1,0.2-0.3,0.2-0.5,0.2s-0.4-0.1-0.5-0.2s-0.2-0.4-0.2-0.8C125.9,51.4,126,51.2,126.1,51 M125.1,54.5h0.8V53
			c0.2,0.2,0.3,0.3,0.4,0.3s0.3,0.1,0.5,0.1c0.4,0,0.7-0.1,0.9-0.4c0.2-0.3,0.4-0.7,0.4-1.2s-0.1-0.9-0.4-1.2
			c-0.2-0.3-0.6-0.4-0.9-0.4c-0.2,0-0.4,0-0.6,0.2c-0.2,0.1-0.3,0.2-0.4,0.4v-0.5h-0.8L125.1,54.5L125.1,54.5z M119.7,53.3h0.8v-1.5
			c0-0.3,0-0.5,0.1-0.6c0-0.1,0.1-0.2,0.2-0.3s0.2-0.1,0.3-0.1c0.1,0,0.2,0,0.2,0.1l0.1,0.2c0,0.1,0,0.3,0,0.6v1.7h0.8v-1.5
			c0-0.3,0-0.5,0.1-0.6c0-0.1,0.1-0.2,0.2-0.3s0.2-0.1,0.3-0.1c0.2,0,0.3,0.1,0.3,0.2c0.1,0.1,0.1,0.3,0.1,0.6v1.8h0.8v-2
			c0-0.3,0-0.5-0.1-0.6c-0.1-0.2-0.2-0.3-0.3-0.4c-0.2-0.1-0.3-0.1-0.6-0.1c-0.2,0-0.3,0-0.5,0.1c-0.2,0.1-0.3,0.2-0.4,0.4
			c-0.1-0.2-0.2-0.3-0.4-0.4c-0.2-0.1-0.3-0.1-0.5-0.1c-0.4,0-0.7,0.2-1,0.5v-0.4h-0.8L119.7,53.3L119.7,53.3z M116.6,51.6l0.6-1.6
			l0.6,1.6H116.6z M117.6,49h-0.9l-1.7,4.3h0.9l0.3-1h1.7l0.4,1h0.9L117.6,49z M115,51.4h-1.6v0.8h1.6V51.4z M110.8,51
			c0.1-0.2,0.3-0.2,0.5-0.2s0.4,0.1,0.5,0.2s0.2,0.4,0.2,0.7c0,0.3-0.1,0.6-0.2,0.8c-0.1,0.2-0.3,0.2-0.5,0.2s-0.4-0.1-0.5-0.2
			s-0.2-0.4-0.2-0.8C110.6,51.4,110.7,51.2,110.8,51 M109.8,54.5h0.8V53c0.2,0.2,0.3,0.3,0.4,0.3s0.3,0.1,0.5,0.1
			c0.4,0,0.7-0.1,0.9-0.4s0.4-0.7,0.4-1.2s-0.1-0.9-0.4-1.2s-0.6-0.4-0.9-0.4c-0.2,0-0.4,0-0.6,0.2c-0.2,0.1-0.3,0.2-0.4,0.4v-0.5
			h-0.8L109.8,54.5L109.8,54.5z M106.2,50.1c0.2-0.2,0.5-0.4,0.9-0.4s0.6,0.1,0.9,0.4s0.3,0.6,0.3,1.1s-0.1,0.9-0.3,1.1
			s-0.5,0.4-0.8,0.4s-0.6-0.1-0.9-0.4c-0.2-0.2-0.3-0.6-0.3-1.1S106,50.3,106.2,50.1 M105.5,52.8c0.4,0.4,0.9,0.6,1.5,0.6
			s1.1-0.2,1.5-0.6c0.4-0.4,0.6-0.9,0.6-1.6s-0.2-1.2-0.6-1.6S107.7,49,107,49c-0.3,0-0.7,0.1-0.9,0.2c-0.2,0.1-0.4,0.2-0.6,0.4
			c-0.2,0.2-0.3,0.4-0.4,0.6c-0.1,0.3-0.2,0.7-0.2,1.1C104.9,51.9,105.1,52.4,105.5,52.8"/>
		<path class="st1" d="M90.6,59.6h-9.4c-0.2,0-0.4,0.2-0.4,0.4s0.2,0.4,0.4,0.4h9.4c0.2,0,0.4-0.2,0.4-0.4S90.8,59.6,90.6,59.6"/>
		<path class="st1" d="M100,97.1H71.9c-0.2,0-0.4,0.2-0.4,0.4s0.2,0.4,0.4,0.4H100c0.2,0,0.4-0.2,0.4-0.4S100.2,97.1,100,97.1"/>
		<path class="st1" d="M34.4,40.9H15.6c-0.2,0-0.4,0.2-0.4,0.4s0.2,0.4,0.4,0.4h18.7c0.2,0,0.4-0.2,0.4-0.4S34.6,40.9,34.4,40.9"/>
		<path class="st1" d="M137.5,97.9h18.7c0.2,0,0.4-0.2,0.4-0.4s-0.2-0.4-0.4-0.4h-18.8c-0.2,0-0.4,0.2-0.4,0.4
			S137.3,97.9,137.5,97.9"/>
		<path class="st1" d="M64.2,97.9h7.7c0.2,0,0.4-0.2,0.4-0.4s-0.2-0.4-0.4-0.4h-7.7c-0.2,0-0.4,0.2-0.4,0.4S64,97.9,64.2,97.9"/>
		<path class="st1" d="M42.1,97.1h-7.7c-0.2,0-0.4,0.2-0.4,0.4s0.2,0.4,0.4,0.4h7.7c0.2,0,0.4-0.2,0.4-0.4S42.3,97.1,42.1,97.1"/>
		<rect x="42.2" y="94.1" class="st0" width="21.8" height="6.8"/>
		<polygon class="st1" points="64,94.1 63.6,94.1 63.6,100.5 42.6,100.5 42.6,94.5 64,94.5 64,94.1 63.6,94.1 64,94.1 64,93.8 
			41.9,93.8 41.9,101.3 64.4,101.3 64.4,93.8 64,93.8 		"/>
		<path class="st1" d="M56,106.5h-0.7c-0.1,0.3-0.3,0.5-0.5,0.7c-0.2,0.2-0.5,0.3-0.7,0.4v0.8c0.4-0.1,0.8-0.3,1.1-0.6v3.1H56
			L56,106.5L56,106.5z M50.6,107.3h0.7c0.3,0,0.6,0,0.6,0c0.1,0,0.2,0.1,0.3,0.2s0.1,0.2,0.1,0.3c0,0.1,0,0.2-0.1,0.3
			c-0.1,0.1-0.1,0.2-0.2,0.2c-0.1,0-0.4,0.1-0.8,0.1h-0.6L50.6,107.3L50.6,107.3z M50.6,110.8v-1.8h0.2c0.2,0,0.3,0,0.4,0.1
			c0.1,0,0.2,0.1,0.3,0.2s0.2,0.3,0.5,0.6l0.6,0.9h1l-0.5-0.8c-0.2-0.3-0.4-0.6-0.5-0.7c-0.1-0.1-0.3-0.2-0.5-0.4
			c0.4-0.1,0.7-0.2,0.8-0.4s0.3-0.5,0.3-0.8c0-0.2-0.1-0.5-0.2-0.7c-0.1-0.2-0.3-0.3-0.5-0.4s-0.5-0.1-1-0.1h-1.8v4.3L50.6,110.8
			L50.6,110.8z"/>
		<path class="st1" d="M34.4,97.1H15.6c-0.2,0-0.4,0.2-0.4,0.4s0.2,0.4,0.4,0.4h18.7c0.2,0,0.4-0.2,0.4-0.4S34.6,97.1,34.4,97.1"/>
		<path class="st1" d="M80.9,60v37.5c0,0.2,0.2,0.4,0.4,0.4s0.4-0.2,0.4-0.4V60c0-0.2-0.2-0.4-0.4-0.4S80.9,59.8,80.9,60"/>
		<path class="st1" d="M82.4,97.5c0,0.2,0,0.3-0.1,0.4s-0.1,0.3-0.2,0.4c-0.1,0.1-0.2,0.2-0.4,0.2c-0.1,0.1-0.3,0.1-0.4,0.1
			s-0.3,0-0.4-0.1s-0.3-0.1-0.4-0.2c-0.1-0.1-0.2-0.2-0.2-0.4c-0.1-0.1-0.1-0.3-0.1-0.4s0-0.3,0.1-0.4c0.1-0.1,0.1-0.3,0.2-0.4
			c0.1-0.1,0.2-0.2,0.4-0.2c0.1-0.1,0.3-0.1,0.4-0.1s0.3,0,0.4,0.1s0.3,0.1,0.4,0.2c0.1,0.1,0.2,0.2,0.2,0.4
			C82.3,97.2,82.4,97.4,82.4,97.5"/>
		<path class="st1" d="M82.4,97.5h-0.2c0,0.1,0,0.2-0.1,0.4s-0.1,0.2-0.2,0.3c-0.1,0.1-0.2,0.2-0.3,0.2c-0.1,0.1-0.2,0.1-0.4,0.1
			s-0.2,0-0.4-0.1s-0.2-0.1-0.3-0.2c-0.1-0.1-0.2-0.2-0.2-0.3c-0.1-0.1-0.1-0.2-0.1-0.4s0-0.2,0.1-0.4s0.1-0.2,0.2-0.3
			c0.1-0.1,0.2-0.2,0.3-0.2c0.1-0.1,0.2-0.1,0.4-0.1c0.1,0,0.2,0,0.4,0.1s0.2,0.1,0.3,0.2c0.1,0.1,0.2,0.2,0.2,0.3
			c0.1,0.1,0.1,0.2,0.1,0.4h0.4c0-0.2,0-0.3-0.1-0.5s-0.2-0.3-0.3-0.4c-0.1-0.1-0.3-0.2-0.4-0.3s-0.3-0.1-0.5-0.1s-0.3,0-0.5,0.1
			s-0.3,0.2-0.4,0.3c-0.1,0.1-0.2,0.3-0.3,0.4c-0.1,0.2-0.1,0.3-0.1,0.5s0,0.3,0.1,0.5s0.2,0.3,0.3,0.4c0.1,0.1,0.3,0.2,0.4,0.3
			c0.2,0.1,0.3,0.1,0.5,0.1s0.3,0,0.5-0.1s0.3-0.2,0.4-0.3c0.1-0.1,0.2-0.3,0.3-0.4c0.1-0.2,0.1-0.3,0.1-0.5L82.4,97.5L82.4,97.5z"
			/>
		<path class="st1" d="M129.8,97.9h7.7c0.2,0,0.4-0.2,0.4-0.4s-0.2-0.4-0.4-0.4h-7.7c-0.2,0-0.4,0.2-0.4,0.4S129.6,97.9,129.8,97.9"
			/>
		<path class="st1" d="M107.7,97.1H100c-0.2,0-0.4,0.2-0.4,0.4s0.2,0.4,0.4,0.4h7.7c0.2,0,0.4-0.2,0.4-0.4S107.9,97.1,107.7,97.1"/>
		<rect x="107.9" y="94.1" class="st0" width="21.8" height="6.8"/>
		<polygon class="st1" points="129.6,94.1 129.3,94.1 129.3,100.5 108.3,100.5 108.3,94.5 129.6,94.5 129.6,94.1 129.3,94.1 
			129.6,94.1 129.6,93.8 107.5,93.8 107.5,101.3 130,101.3 130,93.8 129.6,93.8 		"/>
		<path class="st1" d="M120.7,110.1l0.2-0.2c0.1-0.1,0.2-0.2,0.5-0.5c0.3-0.2,0.4-0.4,0.5-0.6c0.2-0.2,0.3-0.4,0.3-0.6
			c0.1-0.2,0.1-0.4,0.1-0.6c0-0.3-0.1-0.6-0.4-0.8c-0.2-0.2-0.6-0.3-1-0.3c-0.4,0-0.7,0.1-1,0.3c-0.3,0.2-0.4,0.5-0.5,1l0.8,0.1
			c0-0.2,0.1-0.4,0.2-0.5c0.1-0.1,0.2-0.2,0.4-0.2s0.3,0.1,0.4,0.2c0.1,0.1,0.2,0.2,0.2,0.4c0,0.2-0.1,0.3-0.2,0.5
			c-0.1,0.1-0.3,0.4-0.7,0.7c-0.5,0.4-0.8,0.8-0.9,1s-0.2,0.5-0.3,0.8h2.9v-0.8C122.3,110.1,120.7,110.1,120.7,110.1z M116.2,107.3
			h0.7c0.3,0,0.6,0,0.6,0c0.1,0,0.2,0.1,0.3,0.2s0.1,0.2,0.1,0.3c0,0.1,0,0.2-0.1,0.3c-0.1,0.1-0.1,0.2-0.2,0.2
			c-0.1,0-0.4,0.1-0.8,0.1h-0.6L116.2,107.3L116.2,107.3z M116.2,110.8v-1.8h0.2c0.2,0,0.3,0,0.4,0.1c0.1,0,0.2,0.1,0.3,0.2
			s0.2,0.3,0.5,0.6l0.6,0.9h1l-0.5-0.8c-0.2-0.3-0.4-0.6-0.5-0.7c-0.1-0.1-0.3-0.2-0.5-0.4c0.4-0.1,0.7-0.2,0.8-0.4
			c0.2-0.2,0.3-0.5,0.3-0.8c0-0.2-0.1-0.5-0.2-0.7c-0.1-0.2-0.3-0.3-0.5-0.4s-0.5-0.1-1-0.1h-1.8v4.3L116.2,110.8L116.2,110.8z"/>
	</g>
</g>
</svg>
