<?xml version="1.0" encoding="utf-8"?>
<!-- Generator: Adobe Illustrator 26.5.0, SVG Export Plug-In . SVG Version: 6.00 Build 0)  -->
<svg version="1.1" id="_图层_2" xmlns="http://www.w3.org/2000/svg" xmlns:xlink="http://www.w3.org/1999/xlink" x="0px" y="0px"
	 viewBox="0 0 200 120" style="enable-background:new 0 0 200 120;" xml:space="preserve">
<style type="text/css">
	.st0{fill:#FFFFFF;}
	.st1{fill:#3B4449;}
</style>
<rect y="4.3" class="st0" width="200" height="111"/>
<g id="_图层_1-2">
	<g>
		<path class="st1" d="M129.8,8.4h7.7c0.2,0,0.4-0.2,0.4-0.4s-0.2-0.4-0.4-0.4h-7.7c-0.2,0-0.4,0.2-0.4,0.4S129.6,8.4,129.8,8.4"/>
		<path class="st1" d="M107.7,7.7H100c-0.2,0-0.4,0.2-0.4,0.4s0.2,0.4,0.4,0.4h7.7c0.2,0,0.4-0.2,0.4-0.4
			C108.1,7.9,107.9,7.7,107.7,7.7"/>
		<rect x="107.9" y="4.7" class="st0" width="21.8" height="6.8"/>
		<polygon class="st1" points="129.6,4.7 129.3,4.7 129.3,11.1 108.3,11.1 108.3,5.1 129.6,5.1 129.6,4.7 129.3,4.7 129.6,4.7 
			129.6,4.3 107.5,4.3 107.5,11.8 130,11.8 130,4.3 129.6,4.3 		"/>
		<path class="st1" d="M120.1,19.8l1-1.5v1.5H120.1z M121.9,21.4v-0.9h0.5v-0.7h-0.5v-2.7h-0.7l-1.9,2.7v0.7h1.8v0.9H121.9
			L121.9,21.4z M116.2,17.8h0.7c0.3,0,0.6,0,0.6,0c0.1,0,0.2,0.1,0.3,0.2c0.1,0.1,0.1,0.2,0.1,0.4c0,0.1,0,0.2-0.1,0.3
			s-0.1,0.1-0.2,0.2c-0.1,0-0.4,0.1-0.8,0.1h-0.6V17.8L116.2,17.8z M116.2,21.4v-1.8h0.2c0.2,0,0.3,0,0.4,0.1c0.1,0,0.2,0.1,0.3,0.2
			s0.2,0.3,0.5,0.6l0.6,0.9h1l-0.5-0.8c-0.2-0.3-0.4-0.6-0.5-0.7c-0.1-0.1-0.3-0.2-0.5-0.4c0.4-0.1,0.7-0.2,0.8-0.4
			c0.2-0.2,0.3-0.5,0.3-0.8c0-0.2-0.1-0.5-0.2-0.7c-0.1-0.2-0.3-0.3-0.5-0.4c-0.2-0.1-0.5-0.1-1-0.1h-1.8v4.3L116.2,21.4L116.2,21.4
			z"/>
		<path class="st1" d="M100,7.7H81.2c-0.2,0-0.4,0.2-0.4,0.4s0.2,0.4,0.4,0.4H100c0.2,0,0.4-0.2,0.4-0.4
			C100.4,7.9,100.2,7.7,100,7.7"/>
		<path class="st1" d="M146.9,55.3h9.4c0.2,0,0.4-0.2,0.4-0.4s-0.2-0.4-0.4-0.4h-9.4c-0.2,0-0.4,0.2-0.4,0.4S146.7,55.3,146.9,55.3"
			/>
		<path class="st1" d="M137.5,8.4h18.7c0.2,0,0.4-0.2,0.4-0.4s-0.2-0.4-0.4-0.4h-18.8c-0.2,0-0.4,0.2-0.4,0.4S137.3,8.4,137.5,8.4"
			/>
		<path class="st1" d="M157.4,54.9c0,0.2,0,0.3-0.1,0.4s-0.1,0.3-0.2,0.4c-0.1,0.1-0.2,0.2-0.4,0.2c-0.1,0.1-0.3,0.1-0.4,0.1
			s-0.3,0-0.4-0.1s-0.3-0.1-0.4-0.2c-0.1-0.1-0.2-0.2-0.2-0.4c-0.1-0.1-0.1-0.3-0.1-0.4s0-0.3,0.1-0.4c0.1-0.1,0.1-0.3,0.2-0.4
			c0.1-0.1,0.2-0.2,0.4-0.2c0.1-0.1,0.3-0.1,0.4-0.1s0.3,0,0.4,0.1s0.3,0.1,0.4,0.2c0.1,0.1,0.2,0.2,0.2,0.4
			C157.4,54.6,157.4,54.8,157.4,54.9"/>
		<path class="st1" d="M157.4,54.9h-0.2c0,0.1,0,0.2-0.1,0.4s-0.1,0.2-0.2,0.3c-0.1,0.1-0.2,0.2-0.3,0.2s-0.2,0.1-0.4,0.1
			s-0.2,0-0.4-0.1s-0.2-0.1-0.3-0.2s-0.2-0.2-0.2-0.3c-0.1-0.1-0.1-0.2-0.1-0.4s0-0.2,0.1-0.4s0.1-0.2,0.2-0.3s0.2-0.2,0.3-0.2
			s0.2-0.1,0.4-0.1s0.2,0,0.4,0.1s0.2,0.1,0.3,0.2c0.1,0.1,0.2,0.2,0.2,0.3c0.1,0.1,0.1,0.2,0.1,0.4h0.4c0-0.2,0-0.3-0.1-0.5
			s-0.2-0.3-0.3-0.4s-0.3-0.2-0.4-0.3s-0.3-0.1-0.5-0.1s-0.3,0-0.5,0.1s-0.3,0.2-0.4,0.3c-0.1,0.1-0.2,0.3-0.3,0.4
			c-0.1,0.2-0.1,0.3-0.1,0.5s0,0.3,0.1,0.5s0.2,0.3,0.3,0.4c0.1,0.1,0.3,0.2,0.4,0.3c0.2,0.1,0.3,0.1,0.5,0.1s0.3,0,0.5-0.1
			s0.3-0.2,0.4-0.3c0.1-0.1,0.2-0.3,0.3-0.4c0.1-0.2,0.1-0.3,0.1-0.5H157.4L157.4,54.9z"/>
		<path class="st1" d="M24,97.8v-1.1h1.1v-0.8H24v-1.1h-0.8v1.1h-1.1v0.8h1.1v1.1H24z M20.2,98.4H21l0.6-3.1h-0.8L20.2,98.4z
			 M20.9,94.9h0.8l0.2-0.8h-0.8L20.9,94.9z M16.3,96.4c-0.1,0.3-0.1,0.5-0.1,0.5c0,0.1,0,0.2,0,0.3c0,0.4,0.1,0.7,0.4,0.9
			c0.3,0.2,0.6,0.4,1.1,0.4c0.4,0,0.8-0.1,1-0.2c0.3-0.2,0.5-0.4,0.6-0.6c0.1-0.3,0.2-0.6,0.4-1.1l0.5-2.3h-0.9l-0.5,2.3
			c-0.1,0.4-0.2,0.7-0.2,0.8c-0.1,0.2-0.2,0.3-0.3,0.4c-0.1,0.1-0.3,0.1-0.5,0.1s-0.4-0.1-0.5-0.2c-0.1-0.1-0.2-0.2-0.2-0.4v-0.1
			l0.1-0.6l0.5-2.3h-0.9L16.3,96.4L16.3,96.4z"/>
		<path class="st1" d="M155.9,8.1V55c0,0.2,0.2,0.4,0.4,0.4s0.4-0.2,0.4-0.4V8.1c0-0.2-0.2-0.4-0.4-0.4S155.9,7.8,155.9,8.1"/>
		<path class="st1" d="M181.8,50.7c-0.2,0.2-0.4,0.3-0.6,0.3c-0.2,0-0.3-0.1-0.5-0.2c-0.1-0.1-0.2-0.3-0.2-0.5s0-0.4,0.1-0.6
			s0.2-0.4,0.3-0.5s0.3-0.2,0.5-0.2s0.3,0.1,0.4,0.2s0.2,0.3,0.2,0.5C182.1,50.1,182,50.4,181.8,50.7 M179.9,51
			c0.1,0.2,0.3,0.4,0.5,0.5s0.5,0.2,0.8,0.2c0.5,0,1-0.2,1.3-0.5c0.3-0.4,0.5-0.8,0.5-1.3c0-0.4-0.1-0.8-0.4-1s-0.6-0.4-1.1-0.4
			s-1,0.2-1.3,0.5s-0.5,0.8-0.5,1.4C179.7,50.5,179.8,50.7,179.9,51 M175.7,49.5c-0.1,0.3-0.1,0.5-0.1,0.5c0,0.1,0,0.2,0,0.3
			c0,0.4,0.1,0.7,0.4,1c0.3,0.2,0.6,0.4,1.1,0.4c0.4,0,0.8-0.1,1-0.2c0.3-0.2,0.5-0.4,0.6-0.6c0.1-0.3,0.2-0.6,0.4-1.1l0.5-2.3h-0.9
			l-0.5,2.3c-0.1,0.4-0.2,0.7-0.2,0.8c-0.1,0.2-0.2,0.3-0.3,0.4c-0.1,0.1-0.3,0.1-0.5,0.1s-0.4-0.1-0.5-0.2
			c-0.1-0.1-0.2-0.2-0.2-0.4v-0.1l0.1-0.6l0.5-2.3h-0.9L175.7,49.5L175.7,49.5z"/>
		<path class="st1" d="M21.8,41h1.6l0.2-0.8H22L21.8,41z M20.2,42.2H21l0.6-3.1h-0.8L20.2,42.2z M20.9,38.7h0.8l0.2-0.8h-0.8
			L20.9,38.7z M16.3,40.2c-0.1,0.3-0.1,0.5-0.1,0.5c0,0.1,0,0.2,0,0.3c0,0.4,0.1,0.7,0.4,1c0.3,0.2,0.7,0.4,1.1,0.4s0.8-0.1,1-0.2
			c0.3-0.2,0.5-0.4,0.6-0.6c0.1-0.3,0.2-0.6,0.4-1.1l0.5-2.3h-0.9l-0.5,2.3c-0.1,0.4-0.2,0.7-0.2,0.8c-0.1,0.2-0.2,0.3-0.3,0.4
			c-0.1,0.1-0.3,0.1-0.5,0.1s-0.4-0.1-0.5-0.2c-0.2-0.3-0.3-0.5-0.3-0.7v-0.1l0.1-0.6l0.5-2.3h-0.9L16.3,40.2L16.3,40.2z"/>
		<path class="st1" d="M80.9,8.1v37.5c0,0.2,0.2,0.4,0.4,0.4s0.4-0.2,0.4-0.4V8.1c0-0.2-0.2-0.4-0.4-0.4S80.9,7.8,80.9,8.1"/>
		<path class="st1" d="M82.4,45.6c0,0.2,0,0.3-0.1,0.4s-0.2,0.2-0.3,0.3s-0.2,0.2-0.4,0.2c-0.1,0.1-0.3,0.1-0.4,0.1s-0.3,0-0.4-0.1
			s-0.3-0.1-0.4-0.2c-0.1-0.1-0.2-0.2-0.2-0.4c-0.1-0.1-0.1-0.3-0.1-0.4s0-0.3,0.1-0.4c0.1-0.1,0.1-0.3,0.2-0.4
			c0.1-0.1,0.2-0.2,0.4-0.2c0.1-0.1,0.3-0.1,0.4-0.1s0.3,0,0.4,0.1s0.3,0.1,0.4,0.2c0.1,0.1,0.2,0.2,0.2,0.4
			C82.3,45.3,82.4,45.4,82.4,45.6"/>
		<path class="st1" d="M82.4,45.6h-0.2c0,0.1,0,0.2-0.1,0.4s-0.1,0.2-0.2,0.3s-0.2,0.2-0.3,0.2c-0.1,0-0.2,0.1-0.4,0.1
			s-0.2,0-0.4-0.1s-0.2-0.1-0.3-0.2c-0.1-0.1-0.2-0.2-0.2-0.3c-0.1-0.1-0.1-0.2-0.1-0.4s0-0.2,0.1-0.4s0.1-0.2,0.2-0.3
			s0.2-0.2,0.3-0.2s0.2-0.1,0.4-0.1s0.2,0,0.4,0.1s0.2,0.1,0.3,0.2c0.1,0.1,0.2,0.2,0.2,0.3c0.1,0.1,0.1,0.2,0.1,0.4h0.4
			c0-0.2,0-0.3-0.1-0.5s-0.2-0.3-0.3-0.4c-0.1-0.1-0.3-0.2-0.4-0.3s-0.4-0.1-0.5-0.1s-0.3,0-0.5,0.1s-0.3,0.2-0.4,0.3
			s-0.2,0.3-0.3,0.4C80,45.3,80,45.4,80,45.6s0,0.3,0.1,0.5s0.2,0.3,0.3,0.4c0.1,0.1,0.3,0.2,0.4,0.3c0.2,0.1,0.3,0.1,0.5,0.1
			s0.3,0,0.5-0.1s0.3-0.2,0.4-0.3s0.2-0.3,0.3-0.4c0.1-0.2,0.1-0.3,0.1-0.5H82.4L82.4,45.6z"/>
		<path class="st1" d="M64.2,45.9h7.7c0.2,0,0.4-0.2,0.4-0.4s-0.2-0.4-0.4-0.4h-7.7c-0.2,0-0.4,0.2-0.4,0.4S64,45.9,64.2,45.9"/>
		<path class="st1" d="M42.1,45.2h-7.7c-0.2,0-0.4,0.2-0.4,0.4s0.2,0.4,0.4,0.4h7.7c0.2,0,0.4-0.2,0.4-0.4S42.3,45.2,42.1,45.2"/>
		<rect x="42.2" y="42.2" class="st0" width="21.8" height="6.8"/>
		<polygon class="st1" points="64,42.2 63.6,42.2 63.6,48.6 42.6,48.6 42.6,42.6 64,42.6 64,42.2 63.6,42.2 64,42.2 64,41.8 
			41.9,41.8 41.9,49.3 64.4,49.3 64.4,41.8 64,41.8 		"/>
		<path class="st1" d="M54.3,58.6c0.3,0.2,0.6,0.3,1,0.3s0.8-0.1,1-0.4s0.4-0.6,0.4-1c0-0.3-0.1-0.5-0.2-0.7
			c-0.2-0.2-0.3-0.3-0.6-0.3c0.4-0.2,0.6-0.5,0.6-0.9c0-0.3-0.1-0.5-0.3-0.7c-0.2-0.3-0.6-0.4-1-0.4c-0.2,0-0.5,0-0.6,0.1
			c-0.2,0.1-0.3,0.2-0.5,0.4c-0.1,0.2-0.2,0.4-0.2,0.6l0.8,0.1c0-0.2,0.1-0.3,0.2-0.4s0.2-0.2,0.4-0.2s0.3,0,0.3,0.1
			s0.1,0.2,0.1,0.3c0,0.2-0.1,0.3-0.2,0.4s-0.3,0.4-0.5,0.4L54.9,57c0.2,0,0.3-0.1,0.4-0.1c0.2,0,0.3,0.1,0.4,0.2s0.2,0.3,0.2,0.5
			s-0.1,0.4-0.2,0.5s-0.3,0.2-0.4,0.2c-0.2,0-0.3,0-0.4-0.2s-0.2-0.3-0.2-0.5l-0.8,0.1C53.9,58.1,54,58.4,54.3,58.6 M50.6,55.3h0.7
			c0.3,0,0.6,0,0.6,0c0.1,0,0.2,0.1,0.3,0.2c0.1,0.1,0.1,0.2,0.1,0.3s0,0.2-0.1,0.3c0,0.2-0.1,0.2-0.2,0.3c-0.1,0-0.4,0-0.8,0h-0.6
			L50.6,55.3L50.6,55.3z M50.6,58.9v-1.8h0.2c0.2,0,0.3,0,0.4,0s0.2,0.1,0.3,0.2s0.2,0.3,0.5,0.6l0.6,0.9h1L53.1,58
			c-0.2-0.3-0.4-0.6-0.5-0.7c-0.1-0.1-0.3-0.2-0.5-0.4c0.4,0,0.7-0.2,0.8-0.4c0.2-0.2,0.3-0.5,0.3-0.8c0-0.2-0.1-0.5-0.2-0.7
			c-0.1-0.2-0.3-0.3-0.5-0.4s-0.5-0.1-1-0.1h-1.8v4.3L50.6,58.9L50.6,58.9z"/>
		<path class="st1" d="M71.9,45.9h18.8c0.2,0,0.4-0.2,0.4-0.4s-0.2-0.4-0.4-0.4H71.9c-0.2,0-0.4,0.2-0.4,0.4S71.7,45.9,71.9,45.9"/>
		<path class="st1" d="M184.4,54.6h-28.1c-0.2,0-0.4,0.2-0.4,0.4s0.2,0.4,0.4,0.4h28.1c0.2,0,0.4-0.2,0.4-0.4S184.6,54.6,184.4,54.6
			"/>
		<path class="st1" d="M156.6,109.3v-7.5c0-0.2-0.2-0.4-0.4-0.4s-0.4,0.2-0.4,0.4v7.5c0,0.2,0.2,0.4,0.4,0.4
			S156.6,109.5,156.6,109.3"/>
		<path class="st1" d="M163.8,108.9h-15c-0.2,0-0.4,0.2-0.4,0.4c0,0.2,0.2,0.4,0.4,0.4h15c0.2,0,0.4-0.2,0.4-0.4
			C164.2,109.1,164,108.9,163.8,108.9"/>
		<path class="st1" d="M160.8,111.9h-9c-0.2,0-0.4,0.2-0.4,0.4c0,0.2,0.2,0.4,0.4,0.4h9c0.2,0,0.4-0.2,0.4-0.4
			C161.2,112.1,161,111.9,160.8,111.9"/>
		<path class="st1" d="M157.8,114.9h-3c-0.2,0-0.4,0.2-0.4,0.4c0,0.2,0.2,0.4,0.4,0.4h3c0.2,0,0.4-0.2,0.4-0.4
			C158.2,115.1,158,114.9,157.8,114.9"/>
		<polygon class="st0" points="142.2,54.9 95.3,31.5 95.3,78.4 		"/>
		<polygon class="st1" points="142.2,54.9 142.4,54.6 94.9,30.9 94.9,79 143,54.9 142.4,54.6 142.2,54.9 142,54.6 95.7,77.8 
			95.7,32.1 142,55.3 142.2,54.9 142,54.6 		"/>
		<rect x="98.2" y="45.3" class="st1" width="6.1" height="0.6"/>
		<polygon class="st1" points="101.5,61.2 100.9,61.2 100.9,64 98.2,64 98.2,64.6 100.9,64.6 100.9,67.4 101.5,67.4 101.5,64.6 
			104.3,64.6 104.3,64 101.5,64 		"/>
		<path class="st1" d="M146.9,54.6h-4.7c-0.2,0-0.4,0.2-0.4,0.4s0.2,0.4,0.4,0.4h4.7c0.2,0,0.4-0.2,0.4-0.4S147.1,54.6,146.9,54.6"
			/>
		<path class="st1" d="M90.6,64.7h4.7c0.2,0,0.4-0.2,0.4-0.4c0-0.2-0.2-0.4-0.4-0.4h-4.7c-0.2,0-0.4,0.2-0.4,0.4
			C90.2,64.5,90.4,64.7,90.6,64.7"/>
		<path class="st1" d="M95.3,45.2h-4.7c-0.2,0-0.4,0.2-0.4,0.4s0.2,0.4,0.4,0.4h4.7c0.2,0,0.4-0.2,0.4-0.4S95.5,45.2,95.3,45.2"/>
		<path class="st1" d="M126.1,55.3c0.1-0.2,0.3-0.2,0.5-0.2s0.4,0.1,0.5,0.2s0.2,0.4,0.2,0.7s-0.1,0.6-0.2,0.8s-0.3,0.2-0.5,0.2
			s-0.4-0.1-0.5-0.2s-0.2-0.4-0.2-0.8C125.9,55.7,126,55.5,126.1,55.3 M125.1,58.8h0.8v-1.5c0.2,0.2,0.3,0.3,0.4,0.3
			s0.3,0.1,0.5,0.1c0.4,0,0.7-0.1,0.9-0.4c0.2-0.3,0.4-0.7,0.4-1.2s-0.1-0.9-0.4-1.2c-0.2-0.3-0.6-0.4-0.9-0.4c-0.2,0-0.4,0-0.6,0.2
			c-0.2,0.1-0.3,0.2-0.4,0.4v-0.5H125L125.1,58.8L125.1,58.8z M119.7,57.6h0.8v-1.5c0-0.3,0-0.5,0.1-0.6c0-0.1,0.1-0.2,0.2-0.3
			s0.2-0.1,0.3-0.1c0.1,0,0.2,0,0.2,0.1l0.1,0.2c0,0.1,0,0.3,0,0.6v1.7h0.8v-1.5c0-0.3,0-0.5,0.1-0.6c0-0.1,0.1-0.2,0.2-0.3
			s0.2-0.1,0.3-0.1c0.2,0,0.3,0.1,0.3,0.2c0.1,0.1,0.1,0.3,0.1,0.6v1.8h0.8v-2c0-0.3,0-0.5-0.1-0.6c-0.1-0.2-0.2-0.3-0.3-0.4
			c-0.2-0.1-0.3-0.1-0.6-0.1c-0.2,0-0.3,0-0.5,0.1s-0.3,0.2-0.4,0.4c-0.1-0.2-0.2-0.3-0.4-0.4c-0.2-0.1-0.3-0.1-0.5-0.1
			c-0.4,0-0.7,0.2-1,0.5v-0.4h-0.8L119.7,57.6L119.7,57.6z M116.6,55.9l0.6-1.6l0.6,1.6H116.6z M117.6,53.3h-0.9l-1.7,4.3h0.9l0.3-1
			h1.7l0.4,1h0.9L117.6,53.3z M115,55.7h-1.6v0.8h1.6V55.7z M110.8,55.3c0.1-0.2,0.3-0.2,0.5-0.2s0.4,0.1,0.5,0.2s0.2,0.4,0.2,0.7
			s-0.1,0.6-0.2,0.8s-0.3,0.2-0.5,0.2s-0.4-0.1-0.5-0.2s-0.2-0.4-0.2-0.8C110.6,55.7,110.7,55.5,110.8,55.3 M109.8,58.8h0.8v-1.5
			c0.2,0.2,0.3,0.3,0.4,0.3s0.3,0.1,0.5,0.1c0.4,0,0.7-0.1,0.9-0.4s0.4-0.7,0.4-1.2s-0.1-0.9-0.4-1.2s-0.6-0.4-0.9-0.4
			c-0.2,0-0.4,0-0.6,0.2c-0.2,0.1-0.3,0.2-0.4,0.4v-0.5h-0.8L109.8,58.8L109.8,58.8z M106.2,54.4c0.2-0.2,0.5-0.4,0.9-0.4
			s0.6,0.1,0.9,0.4s0.3,0.6,0.3,1.1s-0.1,0.9-0.3,1.1s-0.5,0.4-0.8,0.4s-0.6-0.1-0.9-0.4c-0.2-0.2-0.3-0.6-0.3-1.1
			S106,54.6,106.2,54.4 M105.5,57.1c0.4,0.4,0.9,0.6,1.5,0.6s1.1-0.2,1.5-0.6c0.4-0.4,0.6-0.9,0.6-1.6s-0.2-1.2-0.6-1.6
			s-0.8-0.6-1.5-0.6c-0.3,0-0.7,0.1-0.9,0.2c-0.2,0.1-0.4,0.2-0.6,0.4s-0.3,0.4-0.4,0.6c-0.1,0.3-0.2,0.7-0.2,1.1
			C104.9,56.2,105.1,56.7,105.5,57.1"/>
		<path class="st1" d="M90.6,63.9h-9.4c-0.2,0-0.4,0.2-0.4,0.4c0,0.2,0.2,0.4,0.4,0.4h9.4c0.2,0,0.4-0.2,0.4-0.4
			C91,64.1,90.8,63.9,90.6,63.9"/>
		<path class="st1" d="M100,101.4H71.9c-0.2,0-0.4,0.2-0.4,0.4c0,0.2,0.2,0.4,0.4,0.4H100c0.2,0,0.4-0.2,0.4-0.4
			C100.4,101.6,100.2,101.4,100,101.4"/>
		<path class="st1" d="M34.4,45.2H15.6c-0.2,0-0.4,0.2-0.4,0.4s0.2,0.4,0.4,0.4h18.7c0.2,0,0.4-0.2,0.4-0.4S34.6,45.2,34.4,45.2"/>
		<path class="st1" d="M137.5,102.2h18.7c0.2,0,0.4-0.2,0.4-0.4c0-0.2-0.2-0.4-0.4-0.4h-18.8c-0.2,0-0.4,0.2-0.4,0.4
			C137,102,137.3,102.2,137.5,102.2"/>
		<path class="st1" d="M64.2,102.2h7.7c0.2,0,0.4-0.2,0.4-0.4c0-0.2-0.2-0.4-0.4-0.4h-7.7c-0.2,0-0.4,0.2-0.4,0.4
			C63.8,102,64,102.2,64.2,102.2"/>
		<path class="st1" d="M42.1,101.4h-7.7c-0.2,0-0.4,0.2-0.4,0.4c0,0.2,0.2,0.4,0.4,0.4h7.7c0.2,0,0.4-0.2,0.4-0.4
			C42.5,101.6,42.3,101.4,42.1,101.4"/>
		<rect x="42.2" y="98.4" class="st0" width="21.8" height="6.8"/>
		<polygon class="st1" points="64,98.4 63.6,98.4 63.6,104.8 42.6,104.8 42.6,98.8 64,98.8 64,98.4 63.6,98.4 64,98.4 64,98.1 
			41.9,98.1 41.9,105.6 64.4,105.6 64.4,98.1 64,98.1 		"/>
		<path class="st1" d="M56,110.8h-0.7c-0.1,0.3-0.3,0.5-0.5,0.7s-0.5,0.3-0.7,0.4v0.8c0.4-0.1,0.8-0.3,1.1-0.6v3.1H56V110.8
			L56,110.8z M50.6,111.6h0.7c0.3,0,0.6,0,0.6,0c0.1,0,0.2,0.1,0.3,0.2c0.1,0.1,0.1,0.2,0.1,0.3c0,0.1,0,0.2-0.1,0.3
			c-0.1,0.1-0.1,0.2-0.2,0.2c-0.1,0-0.4,0.1-0.8,0.1h-0.6V111.6L50.6,111.6z M50.6,115.1v-1.8h0.2c0.2,0,0.3,0,0.4,0.1
			c0.1,0,0.2,0.1,0.3,0.2c0.1,0.1,0.2,0.3,0.5,0.6l0.6,0.9h1l-0.5-0.8c-0.2-0.3-0.4-0.6-0.5-0.7c-0.1-0.1-0.3-0.2-0.5-0.4
			c0.4-0.1,0.7-0.2,0.8-0.4c0.1-0.2,0.3-0.5,0.3-0.8c0-0.2-0.1-0.5-0.2-0.7c-0.1-0.2-0.3-0.3-0.5-0.4c-0.2-0.1-0.5-0.1-1-0.1h-1.8
			v4.3L50.6,115.1L50.6,115.1z"/>
		<path class="st1" d="M34.4,101.4H15.6c-0.2,0-0.4,0.2-0.4,0.4c0,0.2,0.2,0.4,0.4,0.4h18.7c0.2,0,0.4-0.2,0.4-0.4
			C34.7,101.6,34.6,101.4,34.4,101.4"/>
		<path class="st1" d="M80.9,64.3v37.5c0,0.2,0.2,0.4,0.4,0.4s0.4-0.2,0.4-0.4V64.3c0-0.2-0.2-0.4-0.4-0.4S80.9,64.1,80.9,64.3"/>
		<path class="st1" d="M82.4,101.8c0,0.2,0,0.3-0.1,0.4c-0.1,0.1-0.1,0.3-0.2,0.4c-0.1,0.1-0.2,0.2-0.4,0.2
			c-0.1,0.1-0.3,0.1-0.4,0.1s-0.3,0-0.4-0.1c-0.1-0.1-0.3-0.1-0.4-0.2c-0.1-0.1-0.2-0.2-0.2-0.4c-0.1-0.1-0.1-0.3-0.1-0.4
			c0-0.1,0-0.3,0.1-0.4c0.1-0.1,0.1-0.3,0.2-0.4c0.1-0.1,0.2-0.2,0.4-0.2c0.1-0.1,0.3-0.1,0.4-0.1s0.3,0,0.4,0.1
			c0.1,0.1,0.3,0.1,0.4,0.2c0.1,0.1,0.2,0.2,0.2,0.4C82.3,101.5,82.4,101.7,82.4,101.8"/>
		<path class="st1" d="M82.4,101.8h-0.2c0,0.1,0,0.2-0.1,0.4c-0.1,0.2-0.1,0.2-0.2,0.3s-0.2,0.2-0.3,0.2c-0.1,0.1-0.2,0.1-0.4,0.1
			s-0.2,0-0.4-0.1c-0.2-0.1-0.2-0.1-0.3-0.2c-0.1-0.1-0.2-0.2-0.2-0.3c-0.1-0.1-0.1-0.2-0.1-0.4c0-0.2,0-0.2,0.1-0.4
			c0.1-0.2,0.1-0.2,0.2-0.3c0.1-0.1,0.2-0.2,0.3-0.2c0.1-0.1,0.2-0.1,0.4-0.1c0.1,0,0.2,0,0.4,0.1c0.2,0.1,0.2,0.1,0.3,0.2
			c0.1,0.1,0.2,0.2,0.2,0.3c0.1,0.1,0.1,0.2,0.1,0.4h0.4c0-0.2,0-0.3-0.1-0.5s-0.2-0.3-0.3-0.4c-0.1-0.1-0.3-0.2-0.4-0.3
			s-0.3-0.1-0.5-0.1s-0.3,0-0.5,0.1c-0.2,0.1-0.3,0.2-0.4,0.3s-0.2,0.3-0.3,0.4c-0.1,0.2-0.1,0.3-0.1,0.5s0,0.3,0.1,0.5
			s0.2,0.3,0.3,0.4c0.1,0.1,0.3,0.2,0.4,0.3c0.2,0.1,0.3,0.1,0.5,0.1s0.3,0,0.5-0.1c0.2-0.1,0.3-0.2,0.4-0.3
			c0.1-0.1,0.2-0.3,0.3-0.4c0.1-0.2,0.1-0.3,0.1-0.5H82.4L82.4,101.8z"/>
		<path class="st1" d="M129.8,102.2h7.7c0.2,0,0.4-0.2,0.4-0.4c0-0.2-0.2-0.4-0.4-0.4h-7.7c-0.2,0-0.4,0.2-0.4,0.4
			C129.4,102,129.6,102.2,129.8,102.2"/>
		<path class="st1" d="M107.7,101.4H100c-0.2,0-0.4,0.2-0.4,0.4c0,0.2,0.2,0.4,0.4,0.4h7.7c0.2,0,0.4-0.2,0.4-0.4
			C108.1,101.6,107.9,101.4,107.7,101.4"/>
		<rect x="107.9" y="98.4" class="st0" width="21.8" height="6.8"/>
		<polygon class="st1" points="129.6,98.4 129.3,98.4 129.3,104.8 108.3,104.8 108.3,98.8 129.6,98.8 129.6,98.4 129.3,98.4 
			129.6,98.4 129.6,98.1 107.5,98.1 107.5,105.6 130,105.6 130,98.1 129.6,98.1 		"/>
		<path class="st1" d="M120.7,114.4l0.2-0.2c0.1-0.1,0.2-0.2,0.5-0.5c0.3-0.2,0.4-0.4,0.5-0.6c0.2-0.2,0.3-0.4,0.3-0.6
			c0.1-0.2,0.1-0.4,0.1-0.6c0-0.3-0.1-0.6-0.4-0.8c-0.2-0.2-0.6-0.3-1-0.3s-0.7,0.1-1,0.3c-0.3,0.2-0.4,0.5-0.5,1l0.8,0.1
			c0-0.2,0.1-0.4,0.2-0.5c0.1-0.1,0.2-0.2,0.4-0.2s0.3,0.1,0.4,0.2c0.1,0.1,0.2,0.2,0.2,0.4c0,0.2-0.1,0.3-0.2,0.5
			c-0.1,0.1-0.3,0.4-0.7,0.7c-0.5,0.4-0.8,0.8-0.9,1s-0.2,0.5-0.3,0.8h2.9v-0.8C122.3,114.4,120.7,114.4,120.7,114.4z M116.2,111.6
			h0.7c0.3,0,0.6,0,0.6,0c0.1,0,0.2,0.1,0.3,0.2c0.1,0.1,0.1,0.2,0.1,0.3c0,0.1,0,0.2-0.1,0.3c-0.1,0.1-0.1,0.2-0.2,0.2
			s-0.4,0.1-0.8,0.1h-0.6V111.6L116.2,111.6z M116.2,115.1v-1.8h0.2c0.2,0,0.3,0,0.4,0.1c0.1,0,0.2,0.1,0.3,0.2
			c0.1,0.1,0.2,0.3,0.5,0.6l0.6,0.9h1l-0.5-0.8c-0.2-0.3-0.4-0.6-0.5-0.7c-0.1-0.1-0.3-0.2-0.5-0.4c0.4-0.1,0.7-0.2,0.8-0.4
			c0.2-0.2,0.3-0.5,0.3-0.8c0-0.2-0.1-0.5-0.2-0.7s-0.3-0.3-0.5-0.4c-0.2-0.1-0.5-0.1-1-0.1h-1.8v4.3L116.2,115.1L116.2,115.1z"/>
	</g>
</g>
</svg>
