<?xml version="1.0" encoding="UTF-8"?>
<svg id="_图层_2" data-name="图层 2" xmlns="http://www.w3.org/2000/svg" viewBox="0 0 462.35 231.72">
  <defs>
    <style>
      .cls-1, .cls-2, .cls-3, .cls-4, .cls-5, .cls-6, .cls-7, .cls-8, .cls-9, .cls-10, .cls-11 {
        font-family: Arial-BoldMT, Arial;
        font-weight: 700;
      }

      .cls-1, .cls-2, .cls-4, .cls-6, .cls-9 {
        fill: #fff;
      }

      .cls-1, .cls-10 {
        font-size: 4.63px;
      }

      .cls-2 {
        font-size: 6.54px;
      }

      .cls-12, .cls-13 {
        fill: #a5a5a5;
      }

      .cls-14 {
        fill: #a1b92e;
      }

      .cls-15 {
        fill: #007695;
      }

      .cls-16 {
        letter-spacing: -.07em;
      }

      .cls-17 {
        letter-spacing: -.02em;
      }

      .cls-18 {
        fill: #70a3b8;
      }

      .cls-19, .cls-5 {
        fill: #797777;
      }

      .cls-3 {
        font-size: 3.19px;
      }

      .cls-20 {
        letter-spacing: -.05em;
      }

      .cls-21 {
        letter-spacing: -.07em;
      }

      .cls-22 {
        letter-spacing: -.04em;
      }

      .cls-23 {
        fill: #17252d;
      }

      .cls-24 {
        letter-spacing: -.02em;
      }

      .cls-25 {
        stroke-width: .55px;
      }

      .cls-25, .cls-26, .cls-27, .cls-28 {
        fill: none;
        stroke: #000;
        stroke-linecap: round;
        stroke-linejoin: round;
      }

      .cls-4, .cls-11 {
        font-size: 4.91px;
      }

      .cls-29 {
        letter-spacing: -.05em;
      }

      .cls-5, .cls-8, .cls-9 {
        font-size: 5.45px;
      }

      .cls-6 {
        font-size: 3.01px;
      }

      .cls-26 {
        stroke-width: .13px;
      }

      .cls-30 {
        letter-spacing: -.02em;
      }

      .cls-7 {
        font-size: 3.54px;
      }

      .cls-31 {
        letter-spacing: -.02em;
      }

      .cls-32 {
        letter-spacing: 0em;
      }

      .cls-27 {
        stroke-width: .13px;
      }

      .cls-13 {
        fill-rule: evenodd;
      }

      .cls-33 {
        fill: #dae8a2;
      }

      .cls-34 {
        letter-spacing: -.05em;
      }

      .cls-35 {
        letter-spacing: 0em;
      }

      .cls-36 {
        letter-spacing: 0em;
      }

      .cls-37 {
        letter-spacing: 0em;
      }

      .cls-38 {
        letter-spacing: -.06em;
      }

      .cls-39 {
        letter-spacing: 0em;
      }

      .cls-28 {
        stroke-width: .55px;
      }

      .cls-40 {
        letter-spacing: -.07em;
      }
    </style>
  </defs>
  <g id="_图层_1-2" data-name="图层 1">
    <rect class="cls-15" x="370.19" y="101.26" width="4.91" height="6.13"/>
    <rect class="cls-19" x="301.38" y="106.33" width="106" height="102.89"/>
    <text class="cls-2" transform="translate(322.93 114.4)"><tspan class="cls-17" x="0" y="0">T</tspan><tspan x="3.89" y="0">imers and </tspan><tspan class="cls-29" x="36.62" y="0">T</tspan><tspan class="cls-32" x="40.26" y="0">riggers</tspan></text>
    <rect class="cls-18" x="268.5" y="90.71" width="4.91" height="15.95"/>
    <rect class="cls-18" x=".33" y="81.97" width="461.31" height="8.9"/>
    <text class="cls-9" transform="translate(218.11 88.05)"><tspan x="0" y="0">32-bit bus</tspan></text>
    <rect class="cls-18" x="101.65" y="77.83" width="4.91" height="6.42"/>
    <rect class="cls-15" x="370.05" y="76.89" width="4.91" height="18.24"/>
    <rect class="cls-18" x="233.6" y="77.83" width="4.91" height="4.29"/>
    <rect class="cls-15" x="445.18" y="76.89" width="4.91" height="18.73"/>
    <rect class="cls-15" x="66.99" y="101.14" width="4.91" height="5.52"/>
    <rect class="cls-15" x="221.88" y="101.75" width="4.91" height="4.91"/>
    <rect class="cls-15" x="280.16" y="101.75" width="4.91" height="4.91"/>
    <rect class="cls-15" x="445.18" y="101.75" width="4.91" height="4.91"/>
    <rect class="cls-18" x="207.16" y="84.58" width="4.91" height="22.08"/>
    <rect class="cls-18" x="355.33" y="76.89" width="4.91" height="29.77"/>
    <rect class="cls-18" x="44.9" y="90.71" width="4.91" height="15.95"/>
    <rect class="cls-18" x="423.09" y="76.89" width="4.91" height="29.77"/>
    <rect class="cls-15" x="118.82" y="78.44" width="4.91" height="15.95"/>
    <rect class="cls-15" x=".33" y="93.47" width="461.31" height="8.9"/>
    <text class="cls-9" transform="translate(198.25 99.56)"><tspan x="0" y="0">Peripheral Reflex System</tspan></text>
    <rect class="cls-15" x="245.87" y="78.44" width="4.91" height="15.95"/>
    <rect class="cls-19" x="191.21" y="106.33" width="51.04" height="102.89"/>
    <text class="cls-2" transform="translate(207.81 114.4)"><tspan x="0" y="0">Seria</tspan><tspan class="cls-36" x="16.01" y="0">l</tspan><tspan class="cls-37" x="17.83" y="0"> </tspan></text>
    <text class="cls-2" transform="translate(201.27 122.26)"><tspan x="0" y="0">Interfaces</tspan></text>
    <rect class="cls-19" x="246.66" y="106.33" width="51.04" height="102.89"/>
    <text class="cls-2" transform="translate(258.55 114.4)"><tspan x="0" y="0">I/O Ports</tspan></text>
    <rect class="cls-19" x="411.31" y="106.51" width="50.32" height="102.72"/>
    <text class="cls-2" transform="translate(420.66 114.58)"><tspan x="0" y="0">Analog I/F</tspan></text>
    <text class="cls-5" transform="translate(3.22 216.38)"><tspan x="0" y="0">Lowest powe</tspan><tspan class="cls-39" x="34.23" y="0">r </tspan><tspan x="37.87" y="0">mode with peripheral operational:</tspan></text>
    <rect class="cls-14" x="194.2" y="125.96" width="44.72" height="17.01"/>
    <text class="cls-10" transform="translate(208.57 135.86)"><tspan x="0" y="0">USART</tspan></text>
    <rect class="cls-18" x="194.2" y="166.28" width="44.72" height="18.4"/>
    <text class="cls-1" transform="translate(208.57 176.88)"><tspan x="0" y="0">EUART</tspan></text>
    <rect class="cls-15" x="250.59" y="125.96" width="43.19" height="17.67"/>
    <text class="cls-1" transform="translate(263.04 133.41)"><tspan x="0" y="0">External </tspan></text>
    <text class="cls-1" transform="translate(261.37 138.97)"><tspan x="0" y="0">Interrupts</tspan></text>
    <rect class="cls-23" x="250.59" y="146.29" width="43.19" height="17.67"/>
    <text class="cls-1" transform="translate(263.55 153.73)"><tspan x="0" y="0">General </tspan></text>
    <text class="cls-1" transform="translate(259.18 159.29)"><tspan x="0" y="0">Purpose I/O</tspan></text>
    <rect class="cls-23" x="250.59" y="166.62" width="43.19" height="17.67"/>
    <text class="cls-1" transform="translate(261.62 176.84)"><tspan x="0" y="0">Pin Reset</tspan></text>
    <rect class="cls-23" x="250.59" y="186.94" width="43.19" height="17.67"/>
    <text class="cls-1" transform="translate(259.05 197.16)"><tspan x="0" y="0">Pin </tspan><tspan class="cls-22" x="8.5" y="0">W</tspan><tspan x="12.71" y="0">akeup</tspan></text>
    <rect class="cls-15" x="415.18" y="125.96" width="42.58" height="17.58"/>
    <text class="cls-1" transform="translate(431.46 136.14)"><tspan x="0" y="0">ADC</tspan></text>
    <rect class="cls-23" x="415.24" y="221.9" width="47.11" height="9.82"/>
    <text class="cls-1" transform="translate(423.61 228.2)"><tspan x="0" y="0">EM4—Shutoff</tspan></text>
    <rect class="cls-19" x="296.58" y="0" width="95.89" height="78.52"/>
    <text class="cls-2" transform="translate(312.53 8.07)"><tspan x="0" y="0">Energy Management</tspan></text>
    <rect class="cls-23" x="346.76" y="49.73" width="41.95" height="23.92"/>
    <text class="cls-4" transform="translate(355.06 60.22)"><tspan x="0" y="0">Brown-Out </tspan></text>
    <text class="cls-4" transform="translate(357.79 66.11)"><tspan x="0" y="0">Detector</tspan></text>
    <rect class="cls-15" x="300.64" y="22.12" width="41.95" height="22.7"/>
    <text class="cls-1" transform="translate(313.24 32.08)"><tspan class="cls-21" x="0" y="0">V</tspan><tspan x="2.75" y="0">oltage </tspan></text>
    <text class="cls-1" transform="translate(310.8 37.64)"><tspan x="0" y="0">Regulator</tspan></text>
    <rect class="cls-23" x="300.64" y="49.73" width="41.95" height="23.92"/>
    <text class="cls-4" transform="translate(310.02 60.22)"><tspan x="0" y="0">Power-On </tspan></text>
    <text class="cls-4" transform="translate(314.93 66.11)"><tspan x="0" y="0">Reset</tspan></text>
    <rect class="cls-19" x="396.85" width="64.79" height="78.52"/>
    <text class="cls-2" transform="translate(416.33 8.07)"><tspan x="0" y="0">Security</tspan></text>
    <rect class="cls-19" x="193.56" width="98.11" height="78.52"/>
    <text class="cls-2" transform="translate(212.8 8.07)"><tspan x="0" y="0">Clock Management</tspan></text>
    <rect class="cls-14" x="198.2" y="16.66" width="43.19" height="15.9"/>
    <text class="cls-11" transform="translate(207.52 23.13)"><tspan x="0" y="0">HF Crystal </tspan></text>
    <text class="cls-11" transform="translate(208.47 29.02)"><tspan x="0" y="0">Oscillator</tspan></text>
    <rect class="cls-23" x="198.2" y="57.09" width="43.19" height="16.94"/>
    <text class="cls-4" transform="translate(207.79 64.08)"><tspan x="0" y="0">LF Crystal </tspan></text>
    <text class="cls-4" transform="translate(208.47 69.97)"><tspan x="0" y="0">Oscillator</tspan></text>
    <rect class="cls-18" x="243.58" y="36.35" width="43.19" height="16.94"/>
    <text class="cls-1" transform="translate(251.26 43.43)"><tspan x="0" y="0">Precision LF</tspan></text>
    <text class="cls-1" transform="translate(250.49 48.99)"><tspan x="0" y="0">RC Oscillator</tspan></text>
    <rect class="cls-14" x="243.58" y="16.66" width="43.19" height="15.9"/>
    <text class="cls-11" transform="translate(261.9 23.13)"><tspan x="0" y="0">HF</tspan></text>
    <text class="cls-11" transform="translate(249.62 29.02)"><tspan x="0" y="0">RC Oscillator</tspan></text>
    <rect class="cls-14" x="402.09" y="22.74" width="54.82" height="23.09"/>
    <text class="cls-11" transform="translate(406.19 35.75)"><tspan x="0" y="0">Crypto Acceleration</tspan></text>
    <rect class="cls-23" x="243.43" y="57.09" width="43.19" height="16.94"/>
    <text class="cls-4" transform="translate(251.53 64.08)"><tspan x="0" y="0">Ultra LF RC </tspan></text>
    <text class="cls-4" transform="translate(253.7 69.97)"><tspan x="0" y="0">Oscillator</tspan></text>
    <rect class="cls-19" x=".61" width="188.84" height="78.52"/>
    <text class="cls-2" transform="translate(72.3 8.07)"><tspan x="0" y="0">Core / Memory</tspan></text>
    <rect class="cls-33" x="5.27" y="15.62" width="88.99" height="37.87"/>
    <text class="cls-11" transform="translate(15.42 30.14)"><tspan x="0" y="0">ARM Cortex</tspan></text>
    <text class="cls-3" transform="translate(43.5 28.36)"><tspan x="0" y="0">TM</tspan></text>
    <text class="cls-11" transform="translate(48.11 30.14)"><tspan x="0" y="0" xml:space="preserve"> M33 processor</tspan></text>
    <text class="cls-11" transform="translate(24.95 36.03)"><tspan x="0" y="0">with DSP extensions,</tspan></text>
    <text class="cls-11" transform="translate(27.13 41.92)"><tspan x="0" y="0">FPU and </tspan><tspan class="cls-20" x="21.27" y="0">T</tspan><tspan x="24" y="0">rustZone</tspan></text>
    <path class="cls-13" d="m155.93,45.75c4.3,1.68,9.27-.49,12.44-4.97.27-.42,0-.7-.13-1.26-.2-.49-.99-1.96-1.12-2.24-.33-.56-1.06-.14-1.13.21,0,.35.2,1.54,0,2.24-.2.77-.73.49-.79.21-.14-.28.13-.77.33-1.12.33-.63.2-.98.07-1.12-.13-.14-.33-.07-.53.07-.4.28-1.06,1.05-1.98.98-.8-.07-.86-.56-.8-.77.14-.28.4-.42.86-.28.46.14,1.13.14,1.46-.07.4-.21.6-.35.6-.63,0-.21-.2-.41-.8-.56-.33-.07-1.85-.56-1.52-1.19.26-.63.99-.07,1.25.21.27.35.46.49.86.7.27.07.33-.07.2-.28-.07-.21-.67-.42-.6-.84s.27-.49.53-.35c.27.14.46.63.6,1.05.07.42.13.77.26.7.14-.07.2-.42.27-.84.07-.42-.07-1.47.66-2.17.67-.7,2.12.77,2.72,1.68-.07-.35-.13-3.57-.26-5.32-.07-.56-.14-1.05-.14-1.19-.07-.28-.26-.21-.4-.14-1.92,1.05-2.38.98-3.04.98s-.8-.28-1.13-.28c-.59,0-.93.77-1.19.98-.27.21-.93.56-1.06,0-.14-.49.66-.7.86-.77.2-.07.4-.28.4-.42,0-.21-.26-.21-.53-.21s-.93.07-1.39.07-.73-.14-.79-.28c-.07-.14-.07-.49.46-.56.53,0,1.52.42,1.78.42.2,0,.33-.28.14-.35-.14-.07-.53-.14-.8-.28-.2-.14-.73-.56-.53-.91.2-.28.66-.07.86.14.26.21.46.49.59.63.13.14.33.21.46.28.2,0,.4-.14.4-.28,0-.56-.33-.7-.33-1.05,0-.28.13-.56.4-.56.2,0,.33.28.33.49.07.35-.14.56.13,1.12.07.21.26.28.33.28,1.06.28,1.92-.35,2.25-.63.4-.28.27-.49.27-.56v-1.74c.07-.49,0-1.33-.27-1.68-.86-.84-1.25,0-2.51-.42-1.26-.42-5.76-1.82-6.55-3.78-.4-.98,4.44-1.96,5.23-2.24.8-.21,2.19-.56,2.98-.07.79.49,2.18,1.54,4.5,1.96.99.14,4.63,1.54,7.81-.28.33-.14.2-.42.13-.49-.13-.07-.86-.49-.66-.98.2-.49.79,0,1.06.49.13.21.4.28.33-.07-.07-.35-.07-1.47.59-1.47.46,0,.46.56.2.84-.26.28-.59.77-.33.98.26.21.46-.28.66-.49.2-.14.8-.84,1.39-.56.4.21.13.7-.2.83-.33.14-1.06.14-1.33.56-.13.21.07.35.2.35s1.26.28.86.91c-.33.49-.86-.28-1.06-.42-.13-.14-.33-.07-.4,0-2.19,2.31-4.37,2.31-6.09,2.45-.13,0-.2.07-.13.21,1.52,2.52,3.31,7.13,2.78,10.7-.46,2.87-2.12,4.97-2.92,5.52,1.13-.28,3.05-.42,3.18.28.2.84.46,1.82-.59,3.71.2.21.59.14.86,0,.26-.14,1.33-.84,1.65-.07.14.35-.33.56-.73.49-.4-.07-.93,0-1.26.28-.2.21,0,.21.13.21.53.07,1.46,0,2.06.35.59.35.53.7.4.84-.14.14-.33.35-1.06-.14-.66-.49-.99-.56-1.25-.42-.33.14.46.91.73,1.61.27.56.6,2.03-.2,1.89-.53-.07-.67-.98-.59-1.61.07-.63-.14-1.4-.8-1.96-.46-.35-.86-.28-.99-.07-.2.35-.2.77-.2,1.47s-.2,1.54-.79,1.26c-.46-.14-.33-1.05-.2-1.33.13-.28.53-.84.67-1.75.13-.91.59-1.26.73-1.33.13-.07.07-1.19-1.59-.49-.99.42-1.66.77-1.99,1.33-5.49,6.09-9.79,7.91-15.69,6.3-6.76-1.82-13.04-14.2-2.51-26.23-7.88,11.05-3.51,21.13,1.98,23.29Z"/>
    <rect class="cls-14" x="5.7" y="56.17" width="43.19" height="17.67"/>
    <text class="cls-11" transform="translate(22.11 66.48)"><tspan x="0" y="0">ETM</tspan></text>
    <rect class="cls-15" x="51.09" y="56.17" width="43.7" height="17.67"/>
    <text class="cls-4" transform="translate(54.39 66.48)"><tspan x="0" y="0">Debug Interface</tspan></text>
    <rect class="cls-15" x="96.49" y="56.17" width="43.19" height="17.67"/>
    <text class="cls-4" transform="translate(102.4 66.48)"><tspan x="0" y="0">RAM Memory</tspan></text>
    <rect class="cls-15" x="141.88" y="56.17" width="43.19" height="17.67"/>
    <text class="cls-4" transform="translate(156.39 63.53)"><tspan x="0" y="0">LDMA </tspan></text>
    <text class="cls-4" transform="translate(151.75 69.42)"><tspan x="0" y="0">Controller</tspan></text>
    <rect class="cls-14" x="96.49" y="15.77" width="43.19" height="37.87"/>
    <text class="cls-11" transform="translate(100.9 33.23)"><tspan x="0" y="0">Flash Program </tspan></text>
    <text class="cls-11" transform="translate(108.67 39.12)"><tspan x="0" y="0">Memory</tspan></text>
    <rect class="cls-15" x="307.79" y="166.61" width="45.19" height="17.67"/>
    <text class="cls-1" transform="translate(319.44 174.06)"><tspan x="0" y="0">Real </tspan><tspan class="cls-24" x="11.08" y="0">T</tspan><tspan class="cls-35" x="13.83" y="0">ime </tspan></text>
    <text class="cls-1" transform="translate(312.1 179.62)"><tspan x="0" y="0">Capture Counter</tspan></text>
    <rect class="cls-14" x="307.79" y="125.96" width="45.23" height="17.67"/>
    <text class="cls-10" transform="translate(314.56 136.19)"><tspan class="cls-24" x="0" y="0">T</tspan><tspan class="cls-35" x="2.75" y="0">imer/Counter</tspan></text>
    <rect class="cls-15" x="307.79" y="146.29" width="45.23" height="17.67"/>
    <text class="cls-1" transform="translate(310.31 156.51)"><tspan x="0" y="0">Low Energy </tspan><tspan class="cls-31" x="27.56" y="0">T</tspan><tspan x="30.31" y="0">imer</tspan></text>
    <rect class="cls-15" x="357.92" y="146" width="45.19" height="17.67"/>
    <text class="cls-1" transform="translate(362.37 156.22)"><tspan class="cls-22" x="0" y="0">W</tspan><tspan class="cls-35" x="4.21" y="0">atchdog </tspan><tspan class="cls-24" x="23.52" y="0">T</tspan><tspan class="cls-35" x="26.27" y="0">imer</tspan></text>
    <rect class="cls-14" x="357.92" y="125.96" width="45.19" height="17.67"/>
    <text class="cls-10" transform="translate(364.17 136.19)"><tspan x="0" y="0">Protocol </tspan><tspan class="cls-30" x="20.09" y="0">T</tspan><tspan x="22.83" y="0">imer</tspan></text>
    <rect class="cls-15" x="311.56" y="221.73" width="47.11" height="9.82"/>
    <text class="cls-1" transform="translate(322.88 228.03)"><tspan x="0" y="0">EM3—Stop</tspan></text>
    <rect class="cls-18" x="207.87" y="221.73" width="47.11" height="9.82"/>
    <text class="cls-1" transform="translate(211.85 228.03)"><tspan x="0" y="0">EM2—Deep Sleep</tspan></text>
    <rect class="cls-14" x="104.19" y="221.73" width="47.11" height="9.82"/>
    <text class="cls-10" transform="translate(114.48 228.03)"><tspan x="0" y="0">EM1—Sleep</tspan></text>
    <rect class="cls-33" x=".51" y="221.73" width="47.11" height="9.82"/>
    <text class="cls-10" transform="translate(10.02 228.03)"><tspan x="0" y="0">EM0—Active</tspan></text>
    <rect class="cls-14" x="402.09" y="50.04" width="54.82" height="23.92"/>
    <text class="cls-11" transform="translate(413.69 60.53)"><tspan class="cls-34" x="0" y="0">T</tspan><tspan x="2.73" y="0">rue Random </tspan></text>
    <text class="cls-11" transform="translate(407.82 66.42)"><tspan x="0" y="0">Number Generator</tspan></text>
    <rect class="cls-18" x="198.2" y="36.87" width="43.19" height="15.9"/>
    <text class="cls-1" transform="translate(206.28 43.43)"><tspan x="0" y="0">Fast Startup</tspan></text>
    <text class="cls-1" transform="translate(205.12 49)"><tspan x="0" y="0">RC Oscillator</tspan></text>
    <rect x="357.92" y="166.61" width="45.19" height="17.67"/>
    <text class="cls-1" transform="translate(365.58 174.06)"><tspan x="0" y="0">Back-Up Real </tspan></text>
    <text class="cls-1" transform="translate(365.59 179.62)"><tspan class="cls-24" x="0" y="0">T</tspan><tspan class="cls-35" x="2.75" y="0">ime Counter</tspan></text>
    <rect class="cls-15" x="194.2" y="187.14" width="44.72" height="17.47"/>
    <text class="cls-1" transform="translate(213.4 197.27)"><tspan x="0" y="0">I</tspan></text>
    <text class="cls-6" transform="translate(214.69 195.58)"><tspan x="0" y="0">2</tspan></text>
    <text class="cls-1" transform="translate(216.36 197.27)"><tspan x="0" y="0">C</tspan></text>
    <rect class="cls-14" x="194.2" y="146.65" width="44.72" height="17.18"/>
    <text class="cls-10" transform="translate(211.41 156.63)"><tspan x="0" y="0">PDM</tspan></text>
    <rect class="cls-15" x="346.76" y="22.12" width="41.95" height="22.7"/>
    <text class="cls-1" transform="translate(360.27 32.08)"><tspan x="0" y="0">DC-DC </tspan></text>
    <text class="cls-1" transform="translate(356.79 37.64)"><tspan x="0" y="0">Converter</tspan></text>
    <rect class="cls-15" x="415.14" y="146.31" width="42.58" height="17.58"/>
    <text class="cls-1" transform="translate(422.39 153.71)"><tspan class="cls-40" x="0" y="0">T</tspan><tspan x="2.49" y="0">emperature </tspan></text>
    <text class="cls-1" transform="translate(428.57 159.27)"><tspan x="0" y="0">Sensor</tspan></text>
    <rect class="cls-19" y="106.29" width="186.49" height="103.06"/>
    <text class="cls-2" transform="translate(65.79 114.35)"><tspan x="0" y="0">Radio Subsystem</tspan></text>
    <rect class="cls-23" x="31.49" y="122.96" width="53.88" height="19.32"/>
    <text class="cls-1" transform="translate(47.49 131.23)"><tspan x="0" y="0">RFSENSE</tspan></text>
    <text class="cls-1" transform="translate(42.34 136.8)"><tspan x="0" y="0">w/ OOK Detect</tspan></text>
    <line class="cls-28" x1="20.25" y1="132.47" x2="20.27" y2="158.54"/>
    <line class="cls-25" x1="8.34" y1="158.46" x2="36.3" y2="158.65"/>
    <rect class="cls-12" x="3.3" y="155.8" width="5.04" height="5.32"/>
    <rect class="cls-27" x="3.3" y="155.8" width="5.04" height="5.32"/>
    <line class="cls-26" x1="3.3" y1="155.8" x2="8.34" y2="161.13"/>
    <line class="cls-27" x1="3.3" y1="161.12" x2="8.34" y2="155.8"/>
    <rect class="cls-14" x="31.49" y="145.55" width="53.88" height="26.07"/>
    <text class="cls-8" transform="translate(37.83 156.95)"><tspan x="0" y="0">RX/TX Frontend </tspan></text>
    <text class="cls-8" transform="translate(34.5 163.49)"><tspan x="0" y="0">with Integrated </tspan><tspan class="cls-16" x="40.29" y="0">P</tspan><tspan x="43.53" y="0">A</tspan></text>
    <rect class="cls-14" x="31.49" y="174.69" width="53.88" height="26.07"/>
    <text class="cls-8" transform="translate(44.64 186.09)"><tspan x="0" y="0">Frequency </tspan></text>
    <text class="cls-8" transform="translate(43.13 192.63)"><tspan x="0" y="0">Synthesizer</tspan></text>
    <rect class="cls-14" x="127.6" y="123.31" width="49.08" height="23.31"/>
    <text class="cls-8" transform="translate(133.97 130.06)"><tspan x="0" y="0">ARM Cortex</tspan></text>
    <text class="cls-7" transform="translate(165.18 128.07)"><tspan x="0" y="0">TM</tspan></text>
    <text class="cls-8" transform="translate(170.29 130.06)"><tspan x="0" y="0"> </tspan></text>
    <text class="cls-8" transform="translate(138.43 136.6)"><tspan x="0" y="0">M0+ Radio </tspan></text>
    <text class="cls-8" transform="translate(139.11 143.14)"><tspan x="0" y="0">Controller</tspan></text>
    <rect class="cls-14" x="127.6" y="185.99" width="49.08" height="14.77"/>
    <text class="cls-8" transform="translate(146.23 195.01)"><tspan x="0" y="0">CRC</tspan></text>
    <rect class="cls-14" x="127.6" y="150.27" width="49.08" height="14.77"/>
    <text class="cls-8" transform="translate(137.6 159.29)"><tspan x="0" y="0">BUFC RAM</tspan></text>
    <rect class="cls-14" x="127.6" y="168.05" width="49.08" height="14.77"/>
    <text class="cls-8" transform="translate(146.53 177.06)"><tspan x="0" y="0">FRC</tspan></text>
    <rect class="cls-14" x="90.3" y="123.19" width="32.39" height="17.09"/>
    <text class="cls-8" transform="translate(96.35 133.37)"><tspan x="0" y="0">DEMOD</tspan></text>
    <rect class="cls-14" x="90.3" y="163.51" width="32.39" height="17.09"/>
    <text class="cls-8" transform="translate(100.44 173.69)"><tspan x="0" y="0">AGC</tspan></text>
    <rect class="cls-14" x="90.3" y="143.35" width="32.39" height="17.09"/>
    <text class="cls-8" transform="translate(98.16 153.53)"><tspan x="0" y="0">I</tspan><tspan class="cls-38" x="1.52" y="0">F</tspan><tspan x="4.55" y="0">ADC</tspan></text>
    <rect class="cls-14" x="90.3" y="183.66" width="32.39" height="17.09"/>
    <text class="cls-8" transform="translate(100.14 193.85)"><tspan x="0" y="0">MOD</tspan></text>
    <line class="cls-25" x1="20.24" y1="132.47" x2="36.8" y2="132.65"/>
  </g>
</svg>